G04*
G04 #@! TF.GenerationSoftware,Altium Limited,Altium Designer,20.1.14 (287)*
G04*
G04 Layer_Physical_Order=1*
G04 Layer_Color=255*
%FSLAX25Y25*%
%MOIN*%
G70*
G04*
G04 #@! TF.SameCoordinates,4B9CFB74-A459-40F6-BE70-09C03D0B2D60*
G04*
G04*
G04 #@! TF.FilePolarity,Positive*
G04*
G01*
G75*
%ADD19C,0.01000*%
%ADD24R,0.05750X0.02100*%
%ADD31R,0.02000X0.04650*%
%ADD44C,0.07087*%
%ADD57C,0.02000*%
%ADD58C,0.05906*%
%ADD59R,0.08268X0.15748*%
%ADD60R,0.04528X0.05709*%
%ADD61R,0.25600X0.26500*%
%ADD62R,0.06260X0.07165*%
%ADD63R,0.05512X0.05906*%
%ADD64R,0.05591X0.04724*%
G04:AMPARAMS|DCode=65|XSize=23.62mil|YSize=57.09mil|CornerRadius=2.01mil|HoleSize=0mil|Usage=FLASHONLY|Rotation=90.000|XOffset=0mil|YOffset=0mil|HoleType=Round|Shape=RoundedRectangle|*
%AMROUNDEDRECTD65*
21,1,0.02362,0.05307,0,0,90.0*
21,1,0.01961,0.05709,0,0,90.0*
1,1,0.00402,0.02653,0.00980*
1,1,0.00402,0.02653,-0.00980*
1,1,0.00402,-0.02653,-0.00980*
1,1,0.00402,-0.02653,0.00980*
%
%ADD65ROUNDEDRECTD65*%
%ADD66R,0.04724X0.05827*%
G04:AMPARAMS|DCode=67|XSize=59.06mil|YSize=16.14mil|CornerRadius=2.02mil|HoleSize=0mil|Usage=FLASHONLY|Rotation=270.000|XOffset=0mil|YOffset=0mil|HoleType=Round|Shape=RoundedRectangle|*
%AMROUNDEDRECTD67*
21,1,0.05906,0.01211,0,0,270.0*
21,1,0.05502,0.01614,0,0,270.0*
1,1,0.00404,-0.00605,-0.02751*
1,1,0.00404,-0.00605,0.02751*
1,1,0.00404,0.00605,0.02751*
1,1,0.00404,0.00605,-0.02751*
%
%ADD67ROUNDEDRECTD67*%
%ADD68R,0.04724X0.05591*%
%ADD69R,0.02362X0.01575*%
%ADD70R,0.07165X0.06260*%
G04:AMPARAMS|DCode=71|XSize=58.27mil|YSize=16.14mil|CornerRadius=0.81mil|HoleSize=0mil|Usage=FLASHONLY|Rotation=0.000|XOffset=0mil|YOffset=0mil|HoleType=Round|Shape=RoundedRectangle|*
%AMROUNDEDRECTD71*
21,1,0.05827,0.01453,0,0,0.0*
21,1,0.05665,0.01614,0,0,0.0*
1,1,0.00161,0.02833,-0.00726*
1,1,0.00161,-0.02833,-0.00726*
1,1,0.00161,-0.02833,0.00726*
1,1,0.00161,0.02833,0.00726*
%
%ADD71ROUNDEDRECTD71*%
%ADD72R,0.05039X0.06969*%
%ADD73R,0.05433X0.04095*%
%ADD74R,0.15748X0.08268*%
%ADD75R,0.04800X0.03500*%
%ADD76R,0.03819X0.05433*%
G04:AMPARAMS|DCode=77|XSize=47.24mil|YSize=55.91mil|CornerRadius=5.91mil|HoleSize=0mil|Usage=FLASHONLY|Rotation=90.000|XOffset=0mil|YOffset=0mil|HoleType=Round|Shape=RoundedRectangle|*
%AMROUNDEDRECTD77*
21,1,0.04724,0.04409,0,0,90.0*
21,1,0.03543,0.05591,0,0,90.0*
1,1,0.01181,0.02205,0.01772*
1,1,0.01181,0.02205,-0.01772*
1,1,0.01181,-0.02205,-0.01772*
1,1,0.01181,-0.02205,0.01772*
%
%ADD77ROUNDEDRECTD77*%
%ADD78R,0.04449X0.06969*%
%ADD79R,0.05236X0.06969*%
%ADD80R,0.04764X0.06969*%
%ADD81C,0.03937*%
%ADD82C,0.06693*%
%ADD83R,0.06378X0.06378*%
%ADD84R,0.09449X0.09449*%
%ADD85C,0.09449*%
%ADD86R,0.09449X0.09449*%
%ADD87C,0.07400*%
%ADD88R,0.07087X0.07087*%
%ADD89R,0.07087X0.07087*%
%ADD90C,0.06000*%
%ADD91C,0.02362*%
%ADD92C,0.03543*%
%ADD93C,0.05000*%
G36*
X99813Y361367D02*
Y359000D01*
X99929Y358415D01*
X100261Y357919D01*
X102056Y356123D01*
X102552Y355792D01*
X102941Y355715D01*
Y352661D01*
X102569Y352352D01*
X98805D01*
X98557Y352655D01*
Y354108D01*
X98473Y354530D01*
X98385Y354661D01*
X98473Y354793D01*
X98557Y355215D01*
Y356667D01*
X98473Y357089D01*
X98385Y357221D01*
X98473Y357352D01*
X98557Y357774D01*
Y359226D01*
X98473Y359648D01*
X98385Y359780D01*
X98473Y359911D01*
X98557Y360333D01*
Y361785D01*
X98709Y361971D01*
X99209D01*
X99813Y361367D01*
D02*
G37*
G36*
X94930Y345957D02*
X95262Y345461D01*
X96867Y343856D01*
X97363Y343525D01*
X97948Y343408D01*
X98362D01*
Y340917D01*
X102313D01*
Y339601D01*
X102270Y339573D01*
X101788Y338851D01*
X101619Y338000D01*
X101788Y337149D01*
X102270Y336427D01*
X102991Y335945D01*
X103842Y335776D01*
X104693Y335945D01*
X105415Y336427D01*
X105897Y337149D01*
X106066Y338000D01*
X105897Y338851D01*
X105415Y339573D01*
X105372Y339601D01*
Y340917D01*
X106622D01*
X106813Y340496D01*
Y326500D01*
X106930Y325915D01*
X107187Y325529D01*
X107064Y325177D01*
X106943Y325029D01*
X97476D01*
X95632Y326873D01*
Y335253D01*
X95897Y335649D01*
X96066Y336500D01*
X95897Y337351D01*
X95415Y338072D01*
X94693Y338555D01*
X93843Y338724D01*
X92992Y338555D01*
X92451Y338193D01*
X91951Y338426D01*
Y346436D01*
X94835D01*
X94930Y345957D01*
D02*
G37*
G36*
X391679Y1321D02*
X1321D01*
X1321Y177904D01*
X2500Y178000D01*
X3000Y177500D01*
X77500D01*
X80843Y180842D01*
Y202837D01*
X82424Y204419D01*
X82674Y204792D01*
X83157Y204763D01*
X83199Y204747D01*
X83350Y204117D01*
X84015Y202511D01*
X84923Y201030D01*
X86051Y199709D01*
X87372Y198580D01*
X88854Y197673D01*
X90459Y197008D01*
X92148Y196602D01*
X93880Y196466D01*
X93880Y196471D01*
X112789D01*
Y196459D01*
X114466Y196624D01*
X116078Y197113D01*
X117564Y197907D01*
X118867Y198976D01*
X119935Y200278D01*
X120730Y201764D01*
X121219Y203377D01*
X121384Y205053D01*
X121372D01*
Y210500D01*
X121369Y210515D01*
X121468Y211270D01*
X121766Y211988D01*
X122239Y212604D01*
X122855Y213077D01*
X123572Y213374D01*
X124328Y213474D01*
X124343Y213471D01*
X129978D01*
X130046Y213307D01*
X130743Y212399D01*
X131650Y211702D01*
X132708Y211264D01*
X133843Y211115D01*
X134977Y211264D01*
X136035Y211702D01*
X136943Y212399D01*
X137381Y212971D01*
X173843D01*
X173870Y212976D01*
X174743Y212861D01*
X175582Y212514D01*
X176303Y211961D01*
X176856Y211240D01*
X177204Y210401D01*
X177319Y209528D01*
X177313Y209500D01*
Y208882D01*
X176813Y208699D01*
X176034Y209297D01*
X174977Y209735D01*
X173843Y209884D01*
X172708Y209735D01*
X171651Y209297D01*
X170743Y208600D01*
X170046Y207692D01*
X169608Y206635D01*
X169459Y205500D01*
X169608Y204365D01*
X170046Y203308D01*
X170743Y202400D01*
X171651Y201703D01*
X172708Y201265D01*
X173843Y201116D01*
X174977Y201265D01*
X176034Y201703D01*
X176943Y202400D01*
X177069Y202566D01*
X177622Y202465D01*
X177880Y201616D01*
X178576Y200313D01*
X179514Y199171D01*
X180656Y198234D01*
X181958Y197537D01*
X183372Y197108D01*
X184843Y196964D01*
Y196971D01*
X224785D01*
Y193565D01*
X219435D01*
X219424Y193581D01*
X218928Y193913D01*
X218342Y194029D01*
X217757Y193913D01*
X217261Y193581D01*
X217250Y193565D01*
X177374D01*
Y196134D01*
X159626D01*
Y193565D01*
X143918D01*
X143918Y193565D01*
Y193565D01*
X143430Y193593D01*
X142262Y193708D01*
X140669Y194191D01*
X139201Y194975D01*
X137914Y196031D01*
X136858Y197318D01*
X136074Y198786D01*
X135590Y200379D01*
X135483Y201473D01*
X136035Y201702D01*
X136943Y202399D01*
X137639Y203307D01*
X138077Y204364D01*
X138226Y205499D01*
X138077Y206633D01*
X137639Y207691D01*
X136943Y208598D01*
X136035Y209295D01*
X134977Y209733D01*
X133843Y209883D01*
X132708Y209733D01*
X131650Y209295D01*
X130743Y208598D01*
X130046Y207691D01*
X129608Y206633D01*
X129459Y205499D01*
X129608Y204364D01*
X130046Y203307D01*
X130743Y202399D01*
X131650Y201702D01*
X132434Y201377D01*
X132525Y200231D01*
X132947Y198471D01*
X133640Y196798D01*
X134586Y195255D01*
X135761Y193878D01*
X137138Y192703D01*
X138681Y191757D01*
X140353Y191064D01*
X142113Y190642D01*
X143918Y190500D01*
Y190506D01*
X143918Y190506D01*
X159626D01*
Y185866D01*
X177374D01*
Y190506D01*
X218762D01*
X218807Y190497D01*
Y190506D01*
X278378D01*
X278378Y190506D01*
Y190501D01*
X279413Y190637D01*
X280377Y191037D01*
X281206Y191672D01*
X281841Y192500D01*
X282241Y193465D01*
X282377Y194500D01*
X282372D01*
Y200500D01*
X282369Y200514D01*
X282470Y201020D01*
X282764Y201460D01*
X283205Y201755D01*
X283710Y201855D01*
X283724Y201852D01*
X285205D01*
X285271Y201719D01*
X285403Y201352D01*
X285142Y200724D01*
X285113Y200500D01*
X290572D01*
X290543Y200724D01*
X290282Y201352D01*
X290414Y201719D01*
X290480Y201852D01*
X296837D01*
X297058Y201404D01*
X296996Y201323D01*
X296717Y200649D01*
X296622Y199925D01*
X296717Y199202D01*
X296996Y198527D01*
X297338Y198083D01*
X297150Y197583D01*
X295563D01*
Y188417D01*
X303823D01*
Y192971D01*
X314497D01*
X314688Y192509D01*
X306761Y184581D01*
X306509Y184204D01*
X305952Y184053D01*
X305349Y184656D01*
X304853Y184988D01*
X304268Y185104D01*
X295169D01*
Y186346D01*
X295045Y186967D01*
X294694Y187493D01*
X294168Y187845D01*
X293547Y187968D01*
X292245D01*
X292122Y188417D01*
X292122D01*
Y192500D01*
X283862D01*
Y189437D01*
X277047D01*
Y182713D01*
X284638D01*
Y184545D01*
X287516D01*
Y182803D01*
X287639Y182183D01*
X287991Y181656D01*
X288517Y181305D01*
X289138Y181181D01*
X293547D01*
X294168Y181305D01*
X294694Y181656D01*
X294954Y182045D01*
X303634D01*
X304313Y181367D01*
Y175134D01*
X303798Y174619D01*
X303261Y174655D01*
X303133Y174846D01*
X302736Y175111D01*
X302268Y175205D01*
X296961D01*
X296492Y175111D01*
X296095Y174846D01*
X295830Y174449D01*
X295736Y173980D01*
Y172020D01*
X295830Y171551D01*
X296095Y171154D01*
X296492Y170889D01*
X296961Y170795D01*
X302268D01*
X302736Y170889D01*
X303133Y171154D01*
X303345Y171471D01*
X304343D01*
X304468Y171496D01*
X304714Y171035D01*
X303490Y169811D01*
X303133Y169846D01*
X302736Y170111D01*
X302268Y170205D01*
X296961D01*
X296492Y170111D01*
X296095Y169846D01*
X295883Y169529D01*
X295216D01*
Y173134D01*
X295000D01*
X294939Y173208D01*
X294779Y173634D01*
X295045Y174033D01*
X295169Y174653D01*
Y176471D01*
X295883D01*
X296095Y176154D01*
X296492Y175889D01*
X296961Y175795D01*
X302268D01*
X302736Y175889D01*
X303133Y176154D01*
X303399Y176551D01*
X303492Y177020D01*
Y178980D01*
X303399Y179449D01*
X303133Y179846D01*
X302736Y180111D01*
X302268Y180205D01*
X296961D01*
X296492Y180111D01*
X296095Y179846D01*
X295883Y179529D01*
X294416D01*
X294168Y179695D01*
X293547Y179819D01*
X289138D01*
X288517Y179695D01*
X287991Y179344D01*
X287639Y178817D01*
X287516Y178197D01*
Y176529D01*
X285396D01*
X285138Y176478D01*
X284638Y176853D01*
Y177425D01*
X280842D01*
Y177925D01*
X280343D01*
Y181287D01*
X277047D01*
Y178849D01*
X276547Y178680D01*
X276319Y178977D01*
X275740Y179421D01*
X275066Y179700D01*
X274843Y179730D01*
Y177000D01*
Y174270D01*
X275066Y174300D01*
X275418Y174445D01*
X275701Y174022D01*
X272761Y171081D01*
X272430Y170585D01*
X272313Y170000D01*
Y139890D01*
X272430Y139304D01*
X272761Y138808D01*
X279151Y132419D01*
X279647Y132087D01*
X280232Y131971D01*
X375842D01*
X376428Y132087D01*
X376924Y132419D01*
X384924Y140419D01*
X385256Y140915D01*
X385372Y141500D01*
Y238000D01*
X385256Y238585D01*
X384924Y239081D01*
X374924Y249081D01*
X374428Y249413D01*
X373843Y249529D01*
X371405D01*
X370843Y250887D01*
X369925Y252083D01*
X368729Y253000D01*
X367337Y253577D01*
X365843Y253774D01*
X364348Y253577D01*
X362956Y253000D01*
X361760Y252083D01*
X360842Y250887D01*
X360265Y249494D01*
X360069Y248000D01*
X360265Y246506D01*
X360842Y245113D01*
X361760Y243917D01*
X362956Y243000D01*
X364348Y242423D01*
X365843Y242226D01*
X367337Y242423D01*
X368729Y243000D01*
X369925Y243917D01*
X370843Y245113D01*
X371405Y246471D01*
X373209D01*
X382313Y237367D01*
Y142133D01*
X375209Y135029D01*
X372720D01*
X372672Y135092D01*
X372535Y135529D01*
X380424Y143419D01*
X380755Y143915D01*
X380872Y144500D01*
Y203000D01*
X380755Y203585D01*
X380424Y204081D01*
X375924Y208581D01*
X375428Y208913D01*
X374843Y209029D01*
X371567D01*
Y213724D01*
X360118D01*
Y202276D01*
X371567D01*
Y205971D01*
X374209D01*
X377813Y202366D01*
Y145133D01*
X370709Y138029D01*
X370046D01*
X369885Y138503D01*
X370425Y138917D01*
X371343Y140113D01*
X371920Y141506D01*
X372116Y143000D01*
X371920Y144494D01*
X371343Y145887D01*
X370425Y147083D01*
X369229Y148000D01*
X367837Y148577D01*
X366342Y148774D01*
X364848Y148577D01*
X363456Y148000D01*
X362317Y147127D01*
X361844Y147221D01*
X346718D01*
X346471Y147721D01*
X346763Y148102D01*
X347043Y148776D01*
X347072Y149000D01*
X344342D01*
Y149500D01*
X343843D01*
Y152230D01*
X343650Y152204D01*
X343536Y152277D01*
X343216Y152575D01*
Y162634D01*
X342717D01*
Y172634D01*
X341309D01*
X341138Y173063D01*
X341138D01*
Y174068D01*
X341638Y174314D01*
X341945Y174079D01*
X342619Y173800D01*
X342843Y173770D01*
Y176500D01*
X343342D01*
Y177000D01*
X346072D01*
X346043Y177224D01*
X345763Y177898D01*
X345650Y178045D01*
X345897Y178545D01*
X361718D01*
X362303Y178662D01*
X362458Y178765D01*
X363456Y178000D01*
X364848Y177423D01*
X366342Y177226D01*
X367837Y177423D01*
X369229Y178000D01*
X370425Y178917D01*
X371343Y180113D01*
X371920Y181506D01*
X372116Y183000D01*
X371920Y184494D01*
X371343Y185887D01*
X370425Y187083D01*
X369229Y188000D01*
X367837Y188577D01*
X366342Y188774D01*
X364848Y188577D01*
X363456Y188000D01*
X362260Y187083D01*
X361342Y185887D01*
X360766Y184494D01*
X360569Y183000D01*
X360703Y181980D01*
X360373Y181604D01*
X341138D01*
Y187937D01*
X333547D01*
Y187029D01*
X332954D01*
X332694Y187418D01*
X332647Y187896D01*
X337534Y192784D01*
X337866Y193280D01*
X337982Y193865D01*
Y207890D01*
X337866Y208475D01*
X337534Y208971D01*
X329104Y217402D01*
X329195Y217697D01*
X329331Y217882D01*
X330464D01*
X330932Y217975D01*
X331330Y218241D01*
X331596Y218638D01*
X331689Y219107D01*
Y224609D01*
X331596Y225078D01*
X331388Y225389D01*
Y227382D01*
X332371Y228366D01*
X341216D01*
Y237908D01*
X341342Y238018D01*
Y240500D01*
X339113D01*
X339142Y240277D01*
X339422Y239602D01*
X339781Y239134D01*
X339616Y238634D01*
X333293D01*
X333101Y239096D01*
X333424Y239419D01*
X333755Y239915D01*
X333872Y240500D01*
Y244000D01*
X333755Y244585D01*
X333424Y245081D01*
X332424Y246081D01*
X331928Y246413D01*
X331343Y246529D01*
X330802D01*
X330590Y246846D01*
X330193Y247111D01*
X329725Y247205D01*
X324417D01*
X323949Y247111D01*
X323552Y246846D01*
X323286Y246449D01*
X323193Y245980D01*
Y244020D01*
X323286Y243551D01*
X323552Y243154D01*
X323949Y242889D01*
X324417Y242795D01*
X329725D01*
X330193Y242889D01*
X330304Y242962D01*
X330717Y242741D01*
Y242259D01*
X330304Y242038D01*
X330193Y242111D01*
X329725Y242205D01*
X324417D01*
X323949Y242111D01*
X323552Y241846D01*
X323286Y241449D01*
X323193Y240980D01*
Y239020D01*
X323286Y238551D01*
X323468Y238278D01*
Y228366D01*
X328041D01*
X328329Y228016D01*
Y226144D01*
X327942Y225827D01*
X327904Y225834D01*
X326694D01*
X326225Y225741D01*
X326020Y225604D01*
X325814Y225741D01*
X325345Y225834D01*
X324135D01*
X323666Y225741D01*
X323461Y225604D01*
X323255Y225741D01*
X322786Y225834D01*
X321576D01*
X321107Y225741D01*
X320902Y225604D01*
X320696Y225741D01*
X320227Y225834D01*
X319017D01*
X318979Y225827D01*
X318592Y226144D01*
Y250020D01*
X319092Y250171D01*
X319261Y249919D01*
X320261Y248919D01*
X320757Y248587D01*
X321342Y248471D01*
X323340D01*
X323552Y248154D01*
X323949Y247889D01*
X324417Y247795D01*
X329725D01*
X330193Y247889D01*
X330590Y248154D01*
X330856Y248551D01*
X330949Y249020D01*
Y250980D01*
X330856Y251449D01*
X330590Y251846D01*
X330193Y252111D01*
X329725Y252205D01*
X324417D01*
X323949Y252111D01*
X323552Y251846D01*
X323340Y251529D01*
X321976D01*
X321872Y251634D01*
Y257867D01*
X322476Y258471D01*
X323340D01*
X323552Y258154D01*
X323949Y257889D01*
X324417Y257795D01*
X329725D01*
X330193Y257889D01*
X330590Y258154D01*
X330802Y258471D01*
X335351D01*
X338047Y255774D01*
Y251213D01*
X345638D01*
Y257937D01*
X340210D01*
X338046Y260101D01*
X338256Y260415D01*
X338372Y261000D01*
Y261063D01*
X340638D01*
Y267787D01*
X333872D01*
Y269000D01*
X334046Y269213D01*
X340638D01*
Y275937D01*
X333047D01*
Y275085D01*
X332547Y274818D01*
X332193Y275055D01*
X331343Y275224D01*
X330491Y275055D01*
X329770Y274572D01*
X329288Y273851D01*
X329119Y273000D01*
X329200Y272591D01*
X328883Y272205D01*
X324417D01*
X323949Y272111D01*
X323552Y271846D01*
X323286Y271449D01*
X323193Y270980D01*
Y269020D01*
X323286Y268551D01*
X323552Y268154D01*
X323949Y267889D01*
X324417Y267795D01*
X329725D01*
X330193Y267889D01*
X330304Y267962D01*
X330717Y267741D01*
Y267259D01*
X330304Y267038D01*
X330193Y267111D01*
X329725Y267205D01*
X324417D01*
X323949Y267111D01*
X323552Y266846D01*
X323286Y266449D01*
X323193Y265980D01*
Y264020D01*
X323286Y263551D01*
X323552Y263154D01*
X323949Y262889D01*
X324417Y262795D01*
X329725D01*
X330193Y262889D01*
X330316Y262971D01*
X331343D01*
X331928Y263087D01*
X332424Y263419D01*
X332585Y263580D01*
X333047Y263389D01*
Y261529D01*
X330802D01*
X330590Y261846D01*
X330193Y262111D01*
X329725Y262205D01*
X324417D01*
X323949Y262111D01*
X323552Y261846D01*
X323340Y261529D01*
X321843D01*
X321257Y261413D01*
X320761Y261081D01*
X319261Y259581D01*
X318930Y259085D01*
X318813Y258500D01*
Y256760D01*
X318313Y256609D01*
X318144Y256861D01*
X314424Y260581D01*
X313928Y260913D01*
X313342Y261029D01*
X309482D01*
X309399Y261449D01*
X309133Y261846D01*
X308736Y262111D01*
X308268Y262205D01*
X302961D01*
X302492Y262111D01*
X302095Y261846D01*
X301883Y261529D01*
X301217D01*
Y264328D01*
X301716Y264596D01*
X301736Y264582D01*
Y264020D01*
X301830Y263551D01*
X302095Y263154D01*
X302492Y262889D01*
X302961Y262795D01*
X308268D01*
X308736Y262889D01*
X309133Y263154D01*
X309399Y263551D01*
X309492Y264020D01*
Y265980D01*
X309399Y266449D01*
X309133Y266846D01*
X308736Y267111D01*
X308268Y267205D01*
X304258D01*
X304198Y267295D01*
X304465Y267795D01*
X308268D01*
X308736Y267889D01*
X309133Y268154D01*
X309399Y268551D01*
X309492Y269020D01*
Y270980D01*
X309399Y271449D01*
X309133Y271846D01*
X308736Y272111D01*
X308268Y272205D01*
X307143D01*
Y276095D01*
X307519Y276471D01*
X337842D01*
X338428Y276587D01*
X338924Y276919D01*
X348476Y286471D01*
X360280D01*
X360842Y285113D01*
X361760Y283917D01*
X362956Y283000D01*
X364348Y282423D01*
X365843Y282226D01*
X367337Y282423D01*
X368729Y283000D01*
X369925Y283917D01*
X370843Y285113D01*
X371420Y286506D01*
X371616Y288000D01*
X371420Y289494D01*
X370843Y290887D01*
X369925Y292083D01*
X369385Y292497D01*
X369546Y292971D01*
X372342D01*
X372928Y293087D01*
X373424Y293419D01*
X375924Y295919D01*
X376255Y296415D01*
X376372Y297000D01*
Y323454D01*
X376255Y324039D01*
X375924Y324535D01*
X371878Y328581D01*
X371507Y328829D01*
X371420Y329494D01*
X370843Y330887D01*
X369925Y332083D01*
X368729Y333000D01*
X367337Y333577D01*
X365843Y333774D01*
X364348Y333577D01*
X362956Y333000D01*
X361760Y332083D01*
X360842Y330887D01*
X360265Y329494D01*
X360069Y328000D01*
X360265Y326506D01*
X360842Y325113D01*
X361760Y323917D01*
X362956Y323000D01*
X364348Y322423D01*
X365843Y322226D01*
X367337Y322423D01*
X368729Y323000D01*
X369925Y323917D01*
X370613Y324814D01*
X371257Y324876D01*
X373313Y322820D01*
Y297634D01*
X371709Y296029D01*
X344843D01*
X344257Y295913D01*
X343761Y295581D01*
X334459Y286279D01*
X280592D01*
X280007Y286163D01*
X279511Y285831D01*
X277761Y284081D01*
X277430Y283585D01*
X277313Y283000D01*
Y276000D01*
X277430Y275415D01*
X277761Y274919D01*
X280313Y272366D01*
Y245500D01*
X280430Y244915D01*
X280761Y244419D01*
X282020Y243160D01*
X281764Y242708D01*
X280992Y242555D01*
X280270Y242073D01*
X279788Y241351D01*
X279718Y241000D01*
X283967D01*
X283947Y241099D01*
X284161Y241397D01*
X284316Y241540D01*
X284329Y241545D01*
X293516D01*
Y241303D01*
X293639Y240683D01*
X293944Y240227D01*
X293743Y239871D01*
X293677Y239795D01*
X287055D01*
Y232833D01*
X285630D01*
Y235500D01*
X278906D01*
Y234825D01*
X278444Y234633D01*
X273880Y239197D01*
Y293646D01*
X274150D01*
Y294506D01*
X278055D01*
X278830Y294608D01*
X279552Y294907D01*
X279694Y295016D01*
X280256Y295090D01*
X281108Y295443D01*
X281839Y296004D01*
X282400Y296735D01*
X282752Y297586D01*
X282818Y298087D01*
X283104Y298459D01*
X283403Y299181D01*
X283505Y299956D01*
Y304254D01*
X284343D01*
Y309754D01*
X282061D01*
X281717Y309896D01*
X280943Y309998D01*
X280730D01*
X280729Y309998D01*
X280728Y309998D01*
X280348Y309948D01*
X279955Y309896D01*
X279954Y309896D01*
X279953Y309896D01*
X279611Y309754D01*
X277542D01*
Y306979D01*
X277517Y306785D01*
Y301511D01*
X276846Y300996D01*
X276461Y300494D01*
X274150D01*
Y301354D01*
X268794D01*
X268543Y301750D01*
Y315500D01*
X254743D01*
X240943D01*
Y301750D01*
X254958D01*
X255209Y301250D01*
X254998Y300742D01*
X254969Y300518D01*
X257699D01*
Y299518D01*
X254969D01*
X254998Y299295D01*
X255278Y298621D01*
X255307Y298582D01*
X255086Y298134D01*
X238968D01*
Y289539D01*
X238504Y289453D01*
X238469Y289453D01*
X235248D01*
Y285500D01*
Y281547D01*
X238504D01*
Y283971D01*
X239209D01*
X239621Y283559D01*
X239613Y283500D01*
X241843D01*
Y285730D01*
X241783Y285722D01*
X240924Y286581D01*
X240428Y286913D01*
X239843Y287029D01*
X238504D01*
Y287780D01*
X238968Y287866D01*
X239004Y287866D01*
X252603D01*
X252794Y287404D01*
X251660Y286270D01*
X251218Y285609D01*
X251217Y285600D01*
X251102D01*
Y285025D01*
X251063Y284828D01*
Y282450D01*
X251028Y282275D01*
X251102Y281903D01*
Y278950D01*
X255102D01*
Y282078D01*
X255141Y282275D01*
Y283984D01*
X256119Y284961D01*
X258303D01*
Y282515D01*
X258299D01*
X258472Y281641D01*
X258583Y281476D01*
Y278950D01*
X262583D01*
Y282078D01*
X262622Y282275D01*
X262583Y282472D01*
Y285367D01*
X262764Y285602D01*
X263043Y286277D01*
X263138Y287000D01*
X263043Y287723D01*
X262764Y288398D01*
X262332Y288961D01*
X262343Y289036D01*
X262510Y289461D01*
X267892D01*
Y237957D01*
X267994Y237182D01*
X268139Y236831D01*
X268293Y236460D01*
X268769Y235840D01*
X276887Y227722D01*
X277507Y227246D01*
X278229Y226946D01*
X279004Y226845D01*
X284862D01*
Y224000D01*
X288992D01*
Y223000D01*
X284862D01*
Y218917D01*
X287135D01*
X287286Y218417D01*
X286770Y218073D01*
X286288Y217351D01*
X286218Y217000D01*
X288342D01*
Y216500D01*
X288843D01*
Y214376D01*
X289194Y214445D01*
X289231Y214471D01*
X290189D01*
Y212029D01*
X266976D01*
X232999Y246007D01*
X232503Y246338D01*
X231917Y246455D01*
X227138D01*
Y248287D01*
X219547D01*
Y246531D01*
X198091D01*
X198077Y246635D01*
X197639Y247692D01*
X196942Y248600D01*
X196035Y249297D01*
X194977Y249735D01*
X193842Y249884D01*
X192708Y249735D01*
X191650Y249297D01*
X190743Y248600D01*
X190046Y247692D01*
X189608Y246635D01*
X189459Y245500D01*
X189608Y244365D01*
X190046Y243308D01*
X190743Y242400D01*
X191650Y241703D01*
X192708Y241265D01*
X193842Y241116D01*
X194977Y241265D01*
X196035Y241703D01*
X196942Y242400D01*
X197639Y243308D01*
X197707Y243472D01*
X219547D01*
Y241563D01*
X227138D01*
Y243396D01*
X231284D01*
X237188Y237491D01*
X236997Y237029D01*
X197914D01*
X197639Y237692D01*
X196942Y238600D01*
X196035Y239297D01*
X194977Y239735D01*
X193842Y239884D01*
X192708Y239735D01*
X191650Y239297D01*
X190743Y238600D01*
X190046Y237692D01*
X189608Y236635D01*
X189459Y235500D01*
X189608Y234365D01*
X190046Y233308D01*
X190743Y232400D01*
X191650Y231703D01*
X192708Y231265D01*
X193842Y231116D01*
X194977Y231265D01*
X196035Y231703D01*
X196942Y232400D01*
X197639Y233308D01*
X197914Y233971D01*
X237709D01*
X259084Y212596D01*
X258892Y212134D01*
X243468D01*
Y206029D01*
X198157D01*
X198077Y206635D01*
X197639Y207692D01*
X196942Y208600D01*
X196035Y209297D01*
X194977Y209735D01*
X193842Y209884D01*
X192708Y209735D01*
X191650Y209297D01*
X190743Y208600D01*
X190406Y208161D01*
X189906D01*
X189829Y208261D01*
X189481Y209100D01*
X189366Y209972D01*
X189372Y210000D01*
Y212000D01*
X189391D01*
X189198Y213960D01*
X188626Y215845D01*
X187698Y217583D01*
X186448Y219105D01*
X184925Y220355D01*
X183188Y221284D01*
X181303Y221855D01*
X179342Y222048D01*
Y222029D01*
X179342Y222029D01*
X137227D01*
X137043Y222529D01*
X137639Y223307D01*
X138077Y224364D01*
X138226Y225499D01*
X138077Y226633D01*
X137639Y227691D01*
X136943Y228598D01*
X136035Y229295D01*
X134977Y229733D01*
X133843Y229883D01*
X132708Y229733D01*
X131650Y229295D01*
X130743Y228598D01*
X130046Y227691D01*
X129608Y226633D01*
X129459Y225499D01*
X129608Y224364D01*
X130046Y223307D01*
X130642Y222529D01*
X130458Y222029D01*
X115842D01*
Y222043D01*
X114537Y221871D01*
X113321Y221368D01*
X112378Y220644D01*
X111925Y220480D01*
X111925Y220480D01*
X111925Y220480D01*
X109372D01*
Y221399D01*
X109415Y221427D01*
X109897Y222149D01*
X109967Y222500D01*
X105718D01*
X105788Y222149D01*
X106270Y221427D01*
X106313Y221399D01*
Y220480D01*
X104852D01*
X104645Y220566D01*
X103516Y220714D01*
Y220707D01*
X103516Y220707D01*
X98198D01*
X97877Y220922D01*
X97455Y221006D01*
X95122D01*
Y219177D01*
X94122D01*
Y221006D01*
X91951D01*
Y235487D01*
X92451Y235639D01*
X92601Y235414D01*
X93322Y234932D01*
X94174Y234763D01*
X95025Y234932D01*
X95746Y235414D01*
X96228Y236135D01*
X96397Y236986D01*
X96228Y237837D01*
X95805Y238471D01*
X95906Y238794D01*
X96026Y238971D01*
X114342D01*
X114928Y239087D01*
X115424Y239419D01*
X118424Y242419D01*
X118755Y242915D01*
X118872Y243500D01*
Y261866D01*
X120975Y263969D01*
X129771D01*
X130046Y263307D01*
X130743Y262399D01*
X131650Y261702D01*
X132708Y261264D01*
X133843Y261115D01*
X134977Y261264D01*
X136035Y261702D01*
X136943Y262399D01*
X137639Y263307D01*
X138077Y264364D01*
X138226Y265499D01*
X138077Y266633D01*
X137639Y267691D01*
X136943Y268599D01*
X136035Y269295D01*
X134977Y269733D01*
X133843Y269883D01*
X132708Y269733D01*
X131650Y269295D01*
X130743Y268599D01*
X130046Y267691D01*
X129771Y267028D01*
X120341D01*
X119756Y266912D01*
X119260Y266580D01*
X116261Y263581D01*
X115929Y263085D01*
X115872Y262795D01*
X115372Y262845D01*
Y271866D01*
X116976Y273471D01*
X129978D01*
X130046Y273307D01*
X130743Y272399D01*
X131650Y271702D01*
X132708Y271264D01*
X133843Y271115D01*
X134977Y271264D01*
X136035Y271702D01*
X136943Y272399D01*
X137639Y273307D01*
X138077Y274364D01*
X138226Y275499D01*
X138077Y276633D01*
X137639Y277691D01*
X136943Y278598D01*
X136035Y279295D01*
X134977Y279733D01*
X133843Y279883D01*
X132708Y279733D01*
X131650Y279295D01*
X130743Y278598D01*
X130046Y277691D01*
X129608Y276633D01*
X129594Y276529D01*
X127721D01*
X127673Y276592D01*
X127536Y277029D01*
X132045Y281539D01*
X132708Y281264D01*
X133843Y281115D01*
X134977Y281264D01*
X136035Y281702D01*
X136943Y282399D01*
X137639Y283307D01*
X138077Y284364D01*
X138226Y285499D01*
X138077Y286633D01*
X137639Y287691D01*
X136943Y288598D01*
X136035Y289295D01*
X134977Y289733D01*
X133843Y289883D01*
X132708Y289733D01*
X131650Y289295D01*
X130743Y288598D01*
X130046Y287691D01*
X129608Y286633D01*
X129459Y285499D01*
X129608Y284364D01*
X129882Y283701D01*
X125710Y279529D01*
X94944D01*
X94915Y279573D01*
X94194Y280055D01*
X93343Y280224D01*
X92492Y280055D01*
X92392Y279988D01*
X91951Y280223D01*
Y289417D01*
X93636D01*
X93872Y288976D01*
X93788Y288851D01*
X93619Y288000D01*
X93788Y287149D01*
X94270Y286427D01*
X94991Y285945D01*
X95842Y285776D01*
X96693Y285945D01*
X97415Y286427D01*
X97897Y287149D01*
X98066Y288000D01*
X97897Y288851D01*
X97813Y288976D01*
X98049Y289417D01*
X100122D01*
Y298583D01*
X97947D01*
X97877Y299078D01*
X98234Y299317D01*
X98473Y299675D01*
X98557Y300096D01*
Y301549D01*
X98805Y301852D01*
X108954D01*
X111724Y299083D01*
X111517Y298583D01*
X108193D01*
Y294000D01*
Y289417D01*
X111823D01*
Y291909D01*
X112323Y292079D01*
X112366Y292023D01*
X112945Y291579D01*
X113619Y291300D01*
X113842Y291270D01*
Y294000D01*
X114842D01*
Y291270D01*
X115066Y291300D01*
X115740Y291579D01*
X116319Y292023D01*
X116764Y292602D01*
X117023Y293227D01*
X117102Y293306D01*
X117583Y293548D01*
X117969Y293471D01*
X129978D01*
X130046Y293307D01*
X130743Y292399D01*
X131650Y291702D01*
X132708Y291264D01*
X133843Y291115D01*
X134977Y291264D01*
X136035Y291702D01*
X136943Y292399D01*
X137639Y293307D01*
X138077Y294364D01*
X138226Y295499D01*
X138077Y296633D01*
X137639Y297691D01*
X136943Y298599D01*
X136035Y299295D01*
X134977Y299733D01*
X133843Y299883D01*
X132708Y299733D01*
X131650Y299295D01*
X130743Y298599D01*
X130046Y297691D01*
X129608Y296633D01*
X129594Y296529D01*
X118603D01*
X110669Y304463D01*
X110173Y304795D01*
X109588Y304911D01*
X98806D01*
X98557Y305215D01*
Y306667D01*
X98657Y306790D01*
X102976D01*
X103491Y306445D01*
X104342Y306276D01*
X105193Y306445D01*
X105915Y306927D01*
X106397Y307649D01*
X106566Y308500D01*
X106397Y309351D01*
X105915Y310072D01*
X105193Y310555D01*
X104342Y310724D01*
X103491Y310555D01*
X103442Y310522D01*
X103026Y310799D01*
X103066Y311000D01*
X102897Y311851D01*
X102415Y312573D01*
X101693Y313055D01*
X100842Y313224D01*
X99992Y313055D01*
X99322Y312607D01*
X99257Y312594D01*
X99243Y312585D01*
X99109Y312529D01*
X98854D01*
X98557Y312892D01*
Y314345D01*
X98660Y314471D01*
X99241D01*
X99270Y314427D01*
X99992Y313945D01*
X100343Y313876D01*
Y316000D01*
Y318124D01*
X99992Y318055D01*
X99270Y317572D01*
X99241Y317529D01*
X98336D01*
X98234Y317683D01*
X97877Y317922D01*
X97455Y318005D01*
X95122D01*
Y316177D01*
X94122D01*
Y318005D01*
X91951D01*
Y334117D01*
X92451Y334391D01*
X92574Y334313D01*
Y326239D01*
X92690Y325654D01*
X93022Y325158D01*
X95761Y322419D01*
X96257Y322087D01*
X96842Y321971D01*
X106709D01*
X108313Y320367D01*
Y309500D01*
X108430Y308915D01*
X108761Y308419D01*
X112762Y304417D01*
X113259Y304086D01*
X113844Y303969D01*
X129771D01*
X130046Y303307D01*
X130743Y302399D01*
X131650Y301702D01*
X132708Y301264D01*
X133843Y301115D01*
X134977Y301264D01*
X136035Y301702D01*
X136943Y302399D01*
X137639Y303307D01*
X138077Y304364D01*
X138226Y305499D01*
X138077Y306633D01*
X137639Y307691D01*
X136943Y308598D01*
X136035Y309295D01*
X134977Y309733D01*
X133843Y309883D01*
X132708Y309733D01*
X131650Y309295D01*
X130743Y308598D01*
X130046Y307691D01*
X129771Y307028D01*
X114477D01*
X111372Y310134D01*
Y320601D01*
X111872Y320808D01*
X118261Y314419D01*
X118757Y314087D01*
X119343Y313971D01*
X129771D01*
X130046Y313307D01*
X130743Y312399D01*
X131650Y311702D01*
X132708Y311264D01*
X133843Y311115D01*
X134977Y311264D01*
X136035Y311702D01*
X136943Y312399D01*
X137639Y313307D01*
X138077Y314364D01*
X138226Y315499D01*
X138077Y316633D01*
X137639Y317691D01*
X136943Y318599D01*
X136035Y319295D01*
X134977Y319733D01*
X133843Y319883D01*
X132708Y319733D01*
X131650Y319295D01*
X130743Y318599D01*
X130046Y317691D01*
X129772Y317029D01*
X119976D01*
X109872Y327133D01*
Y340496D01*
X110063Y340917D01*
X110372Y340917D01*
X113693D01*
Y345500D01*
Y350083D01*
X110063D01*
Y349525D01*
X109563Y349373D01*
X109424Y349581D01*
X107101Y351904D01*
X106716Y352162D01*
X106833Y352661D01*
X106984D01*
Y357205D01*
Y361748D01*
X102941D01*
X102832Y362203D01*
X102755Y362585D01*
X102424Y363081D01*
X100924Y364581D01*
X100428Y364913D01*
X99843Y365029D01*
X98297D01*
X98234Y365124D01*
X97877Y365363D01*
X97455Y365446D01*
X95122D01*
Y363618D01*
X94622D01*
Y363118D01*
X90688D01*
Y362892D01*
X90772Y362470D01*
X90859Y362339D01*
X90772Y362207D01*
X90688Y361785D01*
Y360333D01*
X90403Y359949D01*
X89676Y359877D01*
X88074Y359391D01*
X86597Y358602D01*
X85303Y357540D01*
X84241Y356245D01*
X83451Y354769D01*
X82965Y353166D01*
X82801Y351500D01*
X82813D01*
Y312601D01*
X82770Y312573D01*
X82288Y311851D01*
X82119Y311000D01*
X82288Y310149D01*
X82770Y309427D01*
X82813Y309399D01*
Y296768D01*
X82313Y296719D01*
X82256Y297009D01*
X81924Y297505D01*
X80843Y298587D01*
Y344546D01*
X81025Y344728D01*
X81356Y345224D01*
X81472Y345809D01*
Y354370D01*
X81356Y354956D01*
X81025Y355452D01*
X80843Y355634D01*
Y391782D01*
X391679D01*
X391679Y1321D01*
D02*
G37*
G36*
X362300Y292497D02*
X361760Y292083D01*
X360842Y290887D01*
X360280Y289529D01*
X347843D01*
X347257Y289413D01*
X346761Y289081D01*
X337209Y279529D01*
X299669D01*
Y281347D01*
X299546Y281967D01*
X299194Y282493D01*
X298854Y282721D01*
X299005Y283221D01*
X335092D01*
X335678Y283337D01*
X336174Y283669D01*
X345476Y292971D01*
X362139D01*
X362300Y292497D01*
D02*
G37*
G36*
X288342Y276713D02*
X291638D01*
Y277142D01*
X292138Y277191D01*
X292140Y277183D01*
X292491Y276656D01*
X293017Y276305D01*
X293638Y276181D01*
X298047D01*
X298668Y276305D01*
X298916Y276471D01*
X303709D01*
X304085Y276095D01*
Y272205D01*
X302961D01*
X302492Y272111D01*
X302095Y271846D01*
X301478Y271822D01*
X301342Y271913D01*
X300757Y272029D01*
X299669D01*
Y273197D01*
X299546Y273817D01*
X299194Y274344D01*
X298668Y274695D01*
X298047Y274819D01*
X293638D01*
X293017Y274695D01*
X292491Y274344D01*
X292140Y273817D01*
X292138Y273809D01*
X291638Y273858D01*
Y275287D01*
X284047D01*
Y268563D01*
X291638D01*
Y268992D01*
X292138Y269042D01*
X292140Y269033D01*
X292491Y268507D01*
X293017Y268155D01*
X293638Y268032D01*
X298047D01*
X298668Y268155D01*
X299194Y268507D01*
X299313Y268685D01*
X299813Y268533D01*
Y267598D01*
X299905Y267134D01*
X299627Y266634D01*
X283469D01*
X283372Y267094D01*
Y273000D01*
X283256Y273585D01*
X282924Y274081D01*
X280372Y276634D01*
Y278192D01*
X280872Y278359D01*
X281491Y277945D01*
X281842Y277876D01*
Y280000D01*
X282842D01*
Y277876D01*
X283193Y277945D01*
X283547Y278182D01*
X284047Y277915D01*
Y276713D01*
X287343D01*
Y280075D01*
X288342D01*
Y276713D01*
D02*
G37*
G36*
X115013Y276408D02*
X115150Y275971D01*
X112761Y273581D01*
X112429Y273085D01*
X112313Y272500D01*
Y268480D01*
X109933D01*
X109763Y268980D01*
X109819Y269023D01*
X110264Y269602D01*
X110543Y270276D01*
X110572Y270500D01*
X105113D01*
X105142Y270276D01*
X105421Y269602D01*
X105866Y269023D01*
X105922Y268980D01*
X105752Y268480D01*
X103260D01*
X103260Y268480D01*
Y268480D01*
X102796Y268607D01*
X102644Y268759D01*
X102148Y269090D01*
X101563Y269207D01*
X98198D01*
X97877Y269422D01*
X97455Y269506D01*
X95122D01*
Y267677D01*
X94122D01*
Y269506D01*
X91951D01*
Y275777D01*
X92392Y276012D01*
X92492Y275945D01*
X93343Y275776D01*
X94194Y275945D01*
X94915Y276428D01*
X94944Y276471D01*
X114965D01*
X115013Y276408D01*
D02*
G37*
G36*
X82813Y279192D02*
Y264101D01*
X82770Y264072D01*
X82288Y263351D01*
X82119Y262500D01*
X82288Y261649D01*
X82770Y260928D01*
X82994Y260778D01*
Y252218D01*
X82494Y252011D01*
X81101Y253404D01*
X80843Y253577D01*
Y278776D01*
X81694Y278945D01*
X82313Y279359D01*
X82813Y279192D01*
D02*
G37*
G36*
X302095Y258154D02*
X302492Y257889D01*
X302961Y257795D01*
X308268D01*
X308736Y257889D01*
X308859Y257971D01*
X312709D01*
X315533Y255146D01*
Y249125D01*
X315072Y248934D01*
X312924Y251081D01*
X312428Y251413D01*
X311842Y251529D01*
X309345D01*
X309133Y251846D01*
X308736Y252111D01*
X308268Y252205D01*
X302961D01*
X302492Y252111D01*
X302095Y251846D01*
X301883Y251529D01*
X301217D01*
Y256134D01*
X301217D01*
Y256366D01*
X301217D01*
Y258471D01*
X301883D01*
X302095Y258154D01*
D02*
G37*
G36*
X115813Y261472D02*
Y244133D01*
X113709Y242029D01*
X95444D01*
X95415Y242073D01*
X94693Y242555D01*
X93843Y242724D01*
X92992Y242555D01*
X92451Y242193D01*
X91951Y242426D01*
Y250495D01*
X94825D01*
X94945Y250471D01*
X98741D01*
X98770Y250428D01*
X99492Y249945D01*
X100343Y249776D01*
X101193Y249945D01*
X101915Y250428D01*
X101944Y250471D01*
X103260D01*
Y248520D01*
X112425D01*
Y256780D01*
X111358D01*
X111302Y257278D01*
X111302Y257278D01*
X111302Y257278D01*
X111520Y257424D01*
X111798Y257610D01*
X113040Y258852D01*
X113040Y258852D01*
X113040Y258852D01*
X113794Y259606D01*
X113794Y259606D01*
X114924Y260736D01*
X115255Y261232D01*
X115313Y261522D01*
X115813Y261472D01*
D02*
G37*
G36*
X312975Y246705D02*
Y226144D01*
X312588Y225827D01*
X312550Y225834D01*
X311340D01*
X310871Y225741D01*
X310665Y225604D01*
X310460Y225741D01*
X309991Y225834D01*
X308781D01*
X308312Y225741D01*
X308106Y225604D01*
X307901Y225741D01*
X307432Y225834D01*
X306221D01*
X306129Y225816D01*
X305823Y225856D01*
X304823D01*
Y228083D01*
X300797D01*
X297810Y231070D01*
X298001Y231532D01*
X299547D01*
X300168Y231655D01*
X300694Y232007D01*
X301004Y232471D01*
X309757D01*
X310342Y232587D01*
X310838Y232919D01*
X311424Y233504D01*
X311755Y234000D01*
X311872Y234586D01*
Y243914D01*
X311755Y244499D01*
X311424Y244996D01*
X310338Y246081D01*
X309842Y246413D01*
X309359Y246509D01*
X309133Y246846D01*
X308736Y247111D01*
X308268Y247205D01*
X302961D01*
X302492Y247111D01*
X302095Y246846D01*
X301830Y246449D01*
X301736Y245980D01*
Y244020D01*
X301773Y243835D01*
X301331Y243495D01*
X301169Y243574D01*
Y244847D01*
X301066Y245366D01*
X301217Y245866D01*
X301217D01*
Y248471D01*
X301883D01*
X302095Y248154D01*
X302492Y247889D01*
X302961Y247795D01*
X308268D01*
X308736Y247889D01*
X309133Y248154D01*
X309345Y248471D01*
X311209D01*
X312975Y246705D01*
D02*
G37*
G36*
X301060Y239485D02*
X301343Y239296D01*
X301556Y239153D01*
X301556Y239153D01*
X301556Y239153D01*
X301736Y239118D01*
Y239020D01*
X301830Y238551D01*
X302095Y238154D01*
X302492Y237889D01*
X302961Y237795D01*
X308268D01*
X308313Y237804D01*
X308813Y237394D01*
Y235529D01*
X301169D01*
Y236697D01*
X301045Y237317D01*
X300694Y237844D01*
X300168Y238195D01*
X299547Y238319D01*
X295138D01*
X294517Y238195D01*
X294280Y238036D01*
X293779Y238304D01*
Y239696D01*
X294183Y240028D01*
X294517Y239805D01*
X295138Y239681D01*
X299547D01*
X300168Y239805D01*
X300511Y240034D01*
X301060Y239485D01*
D02*
G37*
G36*
X115842Y218971D02*
X130463D01*
X130644Y218471D01*
X130046Y217691D01*
X129608Y216633D01*
X129594Y216529D01*
X124343D01*
X124339Y216529D01*
X123166Y216413D01*
X122035Y216070D01*
X120993Y215513D01*
X120079Y214763D01*
X119330Y213849D01*
X119257Y213713D01*
X118674Y213684D01*
X118415Y214072D01*
X117693Y214555D01*
X116842Y214724D01*
X115991Y214555D01*
X115270Y214072D01*
X114788Y213351D01*
X114619Y212500D01*
X114788Y211649D01*
X115270Y210928D01*
X115406Y210837D01*
Y205378D01*
X114906Y205111D01*
X114513Y205374D01*
X113662Y205543D01*
X112811Y205374D01*
X112425Y205116D01*
X111925Y205383D01*
X111925Y208573D01*
X112147Y208980D01*
X112265Y209077D01*
X112504Y209389D01*
X113147Y210226D01*
X113701Y211564D01*
X113890Y213000D01*
X113872D01*
Y217000D01*
X113863Y217044D01*
X114006Y217761D01*
X114437Y218406D01*
X115082Y218837D01*
X115798Y218979D01*
X115842Y218971D01*
D02*
G37*
G36*
X180705Y218849D02*
X182015Y218452D01*
X183222Y217807D01*
X184281Y216938D01*
X185149Y215880D01*
X185795Y214672D01*
X186192Y213362D01*
X186322Y212044D01*
X186313Y212000D01*
Y210000D01*
X186311D01*
X186347Y209638D01*
X185871Y209364D01*
X184977Y209735D01*
X183843Y209884D01*
X182708Y209735D01*
X181650Y209297D01*
X180872Y208699D01*
X180372Y208882D01*
Y209500D01*
X180374D01*
X180248Y210774D01*
X179877Y212000D01*
X179273Y213129D01*
X178461Y214118D01*
X177471Y214931D01*
X176342Y215534D01*
X175117Y215906D01*
X173843Y216031D01*
Y216029D01*
X138157D01*
X138077Y216633D01*
X137639Y217691D01*
X137041Y218471D01*
X137222Y218971D01*
X179342D01*
X179386Y218979D01*
X180705Y218849D01*
D02*
G37*
G36*
X305147Y218552D02*
X305355Y218241D01*
X305752Y217975D01*
X306221Y217882D01*
X307432D01*
X307901Y217975D01*
X308106Y218112D01*
X308312Y217975D01*
X308781Y217882D01*
X309991D01*
X310460Y217975D01*
X310665Y218112D01*
X310871Y217975D01*
X311340Y217882D01*
X312550D01*
X313019Y217975D01*
X313224Y218112D01*
X313430Y217975D01*
X313899Y217882D01*
X315109D01*
X315578Y217975D01*
X315783Y218112D01*
X315989Y217975D01*
X316458Y217882D01*
X317668D01*
X318137Y217975D01*
X318197Y217951D01*
X318272Y217573D01*
X318603Y217077D01*
X327520Y208159D01*
X327264Y207708D01*
X326491Y207555D01*
X325770Y207072D01*
X325288Y206351D01*
X325218Y206000D01*
X327343D01*
Y205000D01*
X325218D01*
X325288Y204649D01*
X325770Y203928D01*
Y203543D01*
X325718Y203385D01*
X325383Y203111D01*
X325345Y203118D01*
X324135D01*
X323666Y203025D01*
X323461Y202888D01*
X323255Y203025D01*
X322786Y203118D01*
X321576D01*
X321538Y203111D01*
X321151Y203428D01*
Y204220D01*
X321035Y204806D01*
X320704Y205302D01*
X314424Y211581D01*
X313928Y211913D01*
X313342Y212029D01*
X304496D01*
Y218532D01*
X304996Y218722D01*
X305147Y218552D01*
D02*
G37*
G36*
X278604Y204471D02*
X278023Y203714D01*
X277481Y202405D01*
X277296Y201000D01*
X277296D01*
X277182Y200547D01*
X277027Y200315D01*
X276713Y200105D01*
X276343Y200031D01*
Y200029D01*
X242533D01*
Y202971D01*
X243468D01*
Y201866D01*
X261216D01*
Y204971D01*
X278357D01*
X278604Y204471D01*
D02*
G37*
G36*
X189213Y204571D02*
X189611Y204358D01*
X190046Y203308D01*
X190743Y202400D01*
X191650Y201703D01*
X192708Y201265D01*
X193842Y201116D01*
X194977Y201265D01*
X196035Y201703D01*
X196942Y202400D01*
X197380Y202971D01*
X224785D01*
Y200029D01*
X184843D01*
X184789Y200019D01*
X183681Y200165D01*
X182598Y200613D01*
X182155Y200953D01*
X182407Y201390D01*
X182708Y201265D01*
X183843Y201116D01*
X184977Y201265D01*
X186035Y201703D01*
X186943Y202400D01*
X187639Y203308D01*
X188077Y204365D01*
X188135Y204808D01*
X188667Y205018D01*
X189213Y204571D01*
D02*
G37*
G36*
X279313Y197607D02*
Y194500D01*
X279310D01*
X279239Y194143D01*
X279037Y193841D01*
X278735Y193638D01*
X278378Y193567D01*
Y193565D01*
X278378Y193565D01*
X242533D01*
Y196971D01*
X276343D01*
Y196966D01*
X277387Y197103D01*
X278360Y197506D01*
X278813Y197854D01*
X279313Y197607D01*
D02*
G37*
G36*
X325516Y182728D02*
X325640Y182108D01*
X325991Y181582D01*
X326517Y181230D01*
X327138Y181107D01*
X331547D01*
X332168Y181230D01*
X332564Y181495D01*
X332882Y181106D01*
X331520Y179744D01*
X327138D01*
X326517Y179620D01*
X326381Y179529D01*
X324802D01*
X324590Y179846D01*
X324193Y180111D01*
X323725Y180205D01*
X318417D01*
X318372Y180196D01*
X317872Y180606D01*
Y181867D01*
X319976Y183971D01*
X325516D01*
Y182728D01*
D02*
G37*
G36*
X308313Y169654D02*
Y165671D01*
X307872Y165435D01*
X307694Y165554D01*
X306842Y165724D01*
X305992Y165554D01*
X305270Y165073D01*
X304907Y164529D01*
X303345D01*
X303133Y164846D01*
X302736Y165111D01*
X302268Y165205D01*
X296961D01*
X296492Y165111D01*
X296095Y164846D01*
X295830Y164449D01*
X295736Y163980D01*
Y162020D01*
X295830Y161551D01*
X296095Y161154D01*
X296492Y160889D01*
X296961Y160795D01*
X302268D01*
X302736Y160889D01*
X303133Y161154D01*
X303345Y161471D01*
X305954D01*
X305992Y161445D01*
X306842Y161276D01*
X307349Y161377D01*
X307596Y160916D01*
X305709Y159029D01*
X303482D01*
X303399Y159449D01*
X303133Y159846D01*
X302736Y160111D01*
X302268Y160205D01*
X296961D01*
X296492Y160111D01*
X296095Y159846D01*
X295883Y159529D01*
X295216D01*
Y162866D01*
Y166471D01*
X295883D01*
X296095Y166154D01*
X296492Y165889D01*
X296961Y165795D01*
X302268D01*
X302736Y165889D01*
X303133Y166154D01*
X303345Y166471D01*
X303842D01*
X304428Y166587D01*
X304924Y166919D01*
X307851Y169846D01*
X308313Y169654D01*
D02*
G37*
G36*
X311420Y159760D02*
X314347Y156833D01*
X314843Y156501D01*
X315428Y156385D01*
X316631D01*
X317062Y156471D01*
X317340D01*
X317552Y156154D01*
X317949Y155889D01*
X318417Y155795D01*
X323725D01*
X324193Y155889D01*
X324590Y156154D01*
X324802Y156471D01*
X325468D01*
Y152366D01*
X326185D01*
X326246Y152292D01*
X326406Y151866D01*
X326139Y151467D01*
X326016Y150847D01*
Y149529D01*
X324802D01*
X324590Y149846D01*
X324193Y150111D01*
X323725Y150205D01*
X318417D01*
X318017Y150125D01*
X317651Y150351D01*
X317560Y150424D01*
Y150576D01*
X317651Y150649D01*
X318017Y150875D01*
X318417Y150795D01*
X323725D01*
X324193Y150889D01*
X324590Y151154D01*
X324856Y151551D01*
X324949Y152020D01*
Y153980D01*
X324856Y154449D01*
X324590Y154846D01*
X324193Y155111D01*
X323725Y155205D01*
X318417D01*
X317949Y155111D01*
X317552Y154846D01*
X317340Y154529D01*
X316843D01*
X316257Y154413D01*
X315761Y154081D01*
X314761Y153081D01*
X314430Y152585D01*
X314313Y152000D01*
Y144000D01*
X314430Y143415D01*
X314761Y142919D01*
X316836Y140844D01*
X317332Y140512D01*
X317917Y140396D01*
X326016D01*
Y139154D01*
X326139Y138533D01*
X326181Y138470D01*
X325946Y138029D01*
X307248D01*
X301144Y144133D01*
Y145795D01*
X302268D01*
X302736Y145889D01*
X303133Y146154D01*
X303399Y146551D01*
X303492Y147020D01*
Y148980D01*
X303399Y149449D01*
X303133Y149846D01*
X302736Y150111D01*
X302268Y150205D01*
X296961D01*
X296621Y150137D01*
X296194Y150302D01*
X296120Y150536D01*
X296362Y150765D01*
X296536Y150880D01*
X296961Y150795D01*
X302268D01*
X302736Y150889D01*
X303133Y151154D01*
X303399Y151551D01*
X303492Y152020D01*
Y153980D01*
X303399Y154449D01*
X303133Y154846D01*
X302736Y155111D01*
X302268Y155205D01*
X296961D01*
X296492Y155111D01*
X296095Y154846D01*
X295883Y154529D01*
X295216D01*
Y156471D01*
X295883D01*
X296095Y156154D01*
X296492Y155889D01*
X296961Y155795D01*
X302268D01*
X302736Y155889D01*
X302859Y155971D01*
X306343D01*
X306928Y156087D01*
X307424Y156419D01*
X310766Y159760D01*
X311092Y159865D01*
X311420Y159760D01*
D02*
G37*
G36*
X277468Y170810D02*
Y162866D01*
Y154529D01*
X277343D01*
X276757Y154413D01*
X276261Y154081D01*
X275834Y153654D01*
X275372Y153846D01*
Y169367D01*
X277007Y171001D01*
X277468Y170810D01*
D02*
G37*
G36*
X326491Y146156D02*
X327017Y145805D01*
X327638Y145681D01*
X329084D01*
X329947Y144819D01*
X329740Y144319D01*
X327638D01*
X327017Y144195D01*
X326491Y143844D01*
X326231Y143455D01*
X318551D01*
X317372Y144633D01*
Y145673D01*
X317872Y145940D01*
X317949Y145889D01*
X318417Y145795D01*
X323725D01*
X324193Y145889D01*
X324590Y146154D01*
X324802Y146471D01*
X326281D01*
X326491Y146156D01*
D02*
G37*
G36*
X285343Y145213D02*
X288638D01*
X288638Y145213D01*
X289088Y145092D01*
X289517Y144805D01*
X290138Y144681D01*
X294547D01*
X295168Y144805D01*
X295694Y145156D01*
X296045Y145683D01*
X296050Y145705D01*
X296171Y145756D01*
X296592Y145869D01*
X296961Y145795D01*
X298085D01*
Y143500D01*
X298201Y142915D01*
X298533Y142419D01*
X305422Y135529D01*
X305285Y135092D01*
X305237Y135029D01*
X280866D01*
X277961Y137934D01*
X278152Y138396D01*
X281047D01*
Y137063D01*
X288638D01*
X288638Y137063D01*
X289088Y136942D01*
X289517Y136655D01*
X290138Y136532D01*
X294547D01*
X295168Y136655D01*
X295694Y137007D01*
X296045Y137533D01*
X296169Y138154D01*
Y141697D01*
X296045Y142317D01*
X295694Y142844D01*
X295168Y143195D01*
X294547Y143319D01*
X290138D01*
X289517Y143195D01*
X289138Y142942D01*
X288672Y143132D01*
X288638Y143163D01*
Y143787D01*
X281047D01*
Y141455D01*
X278062D01*
X276872Y142645D01*
Y145953D01*
X277320Y146174D01*
X277445Y146079D01*
X278119Y145800D01*
X278343Y145770D01*
Y148500D01*
X279343D01*
Y145770D01*
X279566Y145800D01*
X280240Y146079D01*
X280547Y146315D01*
X281047Y146068D01*
Y145213D01*
X284343D01*
Y148575D01*
X285343D01*
Y145213D01*
D02*
G37*
G36*
X360672Y143787D02*
X360569Y143000D01*
X360766Y141506D01*
X361342Y140113D01*
X362260Y138917D01*
X362800Y138503D01*
X362639Y138029D01*
X342624D01*
X342138Y138063D01*
Y144162D01*
X360343D01*
X360672Y143787D01*
D02*
G37*
%LPC*%
G36*
X288189Y388689D02*
X284500D01*
Y385000D01*
X288189D01*
Y388689D01*
D02*
G37*
G36*
X283500D02*
X279811D01*
Y385000D01*
X283500D01*
Y388689D01*
D02*
G37*
G36*
X241843Y384730D02*
Y382500D01*
X244072D01*
X244043Y382723D01*
X243763Y383398D01*
X243319Y383977D01*
X242740Y384421D01*
X242066Y384700D01*
X241843Y384730D01*
D02*
G37*
G36*
X240843D02*
X240619Y384700D01*
X239945Y384421D01*
X239366Y383977D01*
X238921Y383398D01*
X238642Y382723D01*
X238613Y382500D01*
X240843D01*
Y384730D01*
D02*
G37*
G36*
X288189Y384000D02*
X284500D01*
Y380311D01*
X288189D01*
Y384000D01*
D02*
G37*
G36*
X264000Y388884D02*
X262865Y388735D01*
X261808Y388297D01*
X260900Y387600D01*
X260203Y386692D01*
X259765Y385635D01*
X259616Y384500D01*
X259765Y383365D01*
X260203Y382308D01*
X260900Y381400D01*
X261808Y380703D01*
X262865Y380265D01*
X264000Y380116D01*
X265135Y380265D01*
X266192Y380703D01*
X267100Y381400D01*
X267797Y382308D01*
X268235Y383365D01*
X268384Y384500D01*
X268235Y385635D01*
X267797Y386692D01*
X267100Y387600D01*
X266192Y388297D01*
X265135Y388735D01*
X264000Y388884D01*
D02*
G37*
G36*
X254000D02*
X252865Y388735D01*
X251808Y388297D01*
X250900Y387600D01*
X250203Y386692D01*
X249765Y385635D01*
X249616Y384500D01*
X249765Y383365D01*
X250203Y382308D01*
X250900Y381400D01*
X251808Y380703D01*
X252865Y380265D01*
X254000Y380116D01*
X255135Y380265D01*
X256192Y380703D01*
X257100Y381400D01*
X257797Y382308D01*
X258235Y383365D01*
X258384Y384500D01*
X258235Y385635D01*
X257797Y386692D01*
X257100Y387600D01*
X256192Y388297D01*
X255135Y388735D01*
X254000Y388884D01*
D02*
G37*
G36*
X125201Y387378D02*
X124015Y387222D01*
X122909Y386764D01*
X121960Y386035D01*
X121232Y385086D01*
X120774Y383981D01*
X120618Y382795D01*
X120774Y381609D01*
X121232Y380504D01*
X121960Y379555D01*
X122909Y378827D01*
X124015Y378369D01*
X125201Y378213D01*
X126387Y378369D01*
X127492Y378827D01*
X128441Y379555D01*
X129169Y380504D01*
X129627Y381609D01*
X129783Y382795D01*
X129627Y383981D01*
X129169Y385086D01*
X128441Y386035D01*
X127492Y386764D01*
X126387Y387222D01*
X125201Y387378D01*
D02*
G37*
G36*
X107484D02*
X106298Y387222D01*
X105193Y386764D01*
X104244Y386035D01*
X103516Y385086D01*
X103058Y383981D01*
X102902Y382795D01*
X103058Y381609D01*
X103516Y380504D01*
X104244Y379555D01*
X105193Y378827D01*
X106298Y378369D01*
X107484Y378213D01*
X108670Y378369D01*
X109776Y378827D01*
X110725Y379555D01*
X111453Y380504D01*
X111911Y381609D01*
X112067Y382795D01*
X111911Y383981D01*
X111453Y385086D01*
X110725Y386035D01*
X109776Y386764D01*
X108670Y387222D01*
X107484Y387378D01*
D02*
G37*
G36*
X349476Y385874D02*
X344843D01*
Y377500D01*
X349476D01*
Y385874D01*
D02*
G37*
G36*
X343843D02*
X339209D01*
Y377500D01*
X343843D01*
Y385874D01*
D02*
G37*
G36*
X249892Y376550D02*
Y375000D01*
X253268D01*
Y376550D01*
X249892D01*
D02*
G37*
G36*
X380709Y388230D02*
X379201Y388082D01*
X377750Y387642D01*
X376414Y386927D01*
X375243Y385966D01*
X374281Y384795D01*
X373567Y383458D01*
X373127Y382008D01*
X372978Y380500D01*
X373127Y378992D01*
X373567Y377542D01*
X374281Y376205D01*
X375243Y375034D01*
X376414Y374073D01*
X377750Y373358D01*
X379201Y372918D01*
X380709Y372770D01*
X382217Y372918D01*
X383667Y373358D01*
X385003Y374073D01*
X386175Y375034D01*
X387136Y376205D01*
X387850Y377542D01*
X388290Y378992D01*
X388439Y380500D01*
X388290Y382008D01*
X387850Y383458D01*
X387136Y384795D01*
X386175Y385966D01*
X385003Y386927D01*
X383667Y387642D01*
X382217Y388082D01*
X380709Y388230D01*
D02*
G37*
G36*
X253268Y374000D02*
X249892D01*
Y372450D01*
X253268D01*
Y374000D01*
D02*
G37*
G36*
X274000Y388884D02*
X272865Y388735D01*
X271808Y388297D01*
X270900Y387600D01*
X270203Y386692D01*
X269765Y385635D01*
X269616Y384500D01*
X269765Y383365D01*
X270203Y382308D01*
X270900Y381400D01*
X271808Y380703D01*
X272865Y380265D01*
X274000Y380116D01*
X274000Y380116D01*
X278310Y375806D01*
X278972Y375364D01*
X279752Y375209D01*
X281626D01*
Y373154D01*
X288803D01*
Y371846D01*
X281626D01*
Y370029D01*
X280997D01*
X280900Y370265D01*
X280339Y370996D01*
X279608Y371557D01*
X278756Y371910D01*
X277842Y372030D01*
X277363Y371967D01*
X274717Y374613D01*
Y376550D01*
X266968D01*
Y372450D01*
X272555D01*
X272993Y372012D01*
X272801Y371550D01*
X266968D01*
Y367450D01*
X274422D01*
X274626Y367007D01*
X274321Y366550D01*
X266968D01*
Y366546D01*
X266467Y366497D01*
X266397Y366851D01*
X265915Y367572D01*
X265194Y368055D01*
X264342Y368224D01*
X263492Y368055D01*
X262770Y367572D01*
X262288Y366851D01*
X262119Y366000D01*
X262288Y365149D01*
X262770Y364427D01*
X263350Y364040D01*
X263479Y363498D01*
X263259Y363207D01*
X262491Y363055D01*
X261770Y362573D01*
X261288Y361851D01*
X261119Y361000D01*
X261288Y360149D01*
X261770Y359427D01*
X262491Y358945D01*
X263342Y358776D01*
X264194Y358945D01*
X264915Y359427D01*
X265397Y360149D01*
X265566Y361000D01*
X265556Y361051D01*
X266630Y362125D01*
X266968Y362450D01*
Y362450D01*
X266968Y362450D01*
X274717D01*
Y366002D01*
X275218Y366172D01*
X275346Y366004D01*
X276077Y365443D01*
X276929Y365090D01*
X277842Y364970D01*
X278756Y365090D01*
X279608Y365443D01*
X280339Y366004D01*
X280900Y366735D01*
X280997Y366971D01*
X281626D01*
Y365752D01*
X288803D01*
Y335187D01*
X285106Y331490D01*
X284912Y331199D01*
X281459Y327746D01*
X280389D01*
X280192Y327785D01*
X279941D01*
X274150Y333577D01*
Y337854D01*
X272925D01*
Y337957D01*
X272770Y338737D01*
X272328Y339399D01*
X266784Y344942D01*
X266123Y345384D01*
X265342Y345539D01*
X259808D01*
X259587Y345988D01*
X259773Y346231D01*
X260227Y347325D01*
X260381Y348500D01*
X260372D01*
Y362000D01*
X260377D01*
X260240Y363044D01*
X259837Y364017D01*
X259195Y364853D01*
X258360Y365494D01*
X257387Y365897D01*
X256343Y366035D01*
Y366029D01*
X253268D01*
Y366550D01*
X245517D01*
Y366029D01*
X242075D01*
Y367971D01*
X245517D01*
Y367450D01*
X253268D01*
Y371550D01*
X245823D01*
X245517Y371550D01*
X245323Y371969D01*
Y372031D01*
X245517Y372450D01*
X248892D01*
Y374500D01*
Y376550D01*
X245517D01*
X245323Y376969D01*
Y380583D01*
X244297D01*
X243963Y381083D01*
X244043Y381276D01*
X244072Y381500D01*
X238613D01*
X238642Y381276D01*
X238722Y381083D01*
X238388Y380583D01*
X237063D01*
Y376500D01*
X241193D01*
Y375500D01*
X237063D01*
Y371529D01*
X237063Y371417D01*
X236792Y371029D01*
X235168D01*
Y374311D01*
X235168Y374311D01*
X235032Y375343D01*
X234634Y376304D01*
X234000Y377130D01*
X234000Y377130D01*
X233622Y377508D01*
Y380583D01*
X225362D01*
Y379987D01*
X221843D01*
X220811Y379851D01*
X219849Y379453D01*
X219023Y378819D01*
X218390Y377993D01*
X217991Y377032D01*
X217856Y376000D01*
X217991Y374968D01*
X218390Y374007D01*
X219023Y373181D01*
X219849Y372547D01*
X220811Y372149D01*
X221843Y372013D01*
X225362D01*
Y371417D01*
X227194D01*
Y363000D01*
X227194Y363000D01*
X227330Y361968D01*
X227694Y361089D01*
Y357000D01*
X227830Y355968D01*
X228228Y355007D01*
X228772Y354299D01*
Y353284D01*
X230325D01*
X230649Y353149D01*
X231681Y353013D01*
X232713Y353149D01*
X233038Y353284D01*
X234591D01*
Y354299D01*
X235134Y355007D01*
X235532Y355968D01*
X235595Y356442D01*
X236094Y356409D01*
Y353284D01*
X241913D01*
Y354471D01*
X242843D01*
Y354470D01*
X243756Y354590D01*
X244608Y354943D01*
X245339Y355504D01*
X245900Y356235D01*
X246252Y357086D01*
X246300Y357450D01*
X253268D01*
Y357829D01*
X253767Y357912D01*
X254313Y357366D01*
Y350500D01*
X254317Y350480D01*
X254208Y349934D01*
X253888Y349455D01*
X253408Y349134D01*
X252862Y349026D01*
X252842Y349029D01*
X191842D01*
Y349046D01*
X189980Y348863D01*
X188189Y348319D01*
X186539Y347437D01*
X185092Y346250D01*
X183905Y344804D01*
X183023Y343153D01*
X182480Y341362D01*
X182297Y339500D01*
X182313D01*
Y259000D01*
X182299D01*
X182471Y257695D01*
X182975Y256478D01*
X183776Y255434D01*
X184821Y254632D01*
X186037Y254129D01*
X187343Y253957D01*
Y253971D01*
X189771D01*
X190046Y253308D01*
X190743Y252400D01*
X191650Y251703D01*
X192708Y251265D01*
X193842Y251116D01*
X194977Y251265D01*
X196035Y251703D01*
X196942Y252400D01*
X197639Y253308D01*
X197914Y253971D01*
X199969D01*
Y249866D01*
X217717D01*
Y259866D01*
Y270134D01*
X199969D01*
Y267029D01*
X197914D01*
X197639Y267692D01*
X196942Y268600D01*
X196035Y269297D01*
X194977Y269735D01*
X193842Y269884D01*
X192708Y269735D01*
X191650Y269297D01*
X190743Y268600D01*
X190046Y267692D01*
X189910Y267365D01*
X189391Y267416D01*
X189374Y267500D01*
X189372D01*
Y273629D01*
X189872Y273728D01*
X190046Y273308D01*
X190743Y272400D01*
X191650Y271703D01*
X192708Y271265D01*
X193842Y271116D01*
X194977Y271265D01*
X196035Y271703D01*
X196942Y272400D01*
X197639Y273308D01*
X198077Y274365D01*
X198226Y275500D01*
X198077Y276635D01*
X197639Y277692D01*
X196942Y278600D01*
X196035Y279297D01*
X194977Y279735D01*
X193842Y279884D01*
X192708Y279735D01*
X191650Y279297D01*
X190743Y278600D01*
X190046Y277692D01*
X189872Y277272D01*
X189372Y277371D01*
Y283629D01*
X189872Y283728D01*
X190046Y283308D01*
X190743Y282400D01*
X191650Y281703D01*
X192708Y281265D01*
X193842Y281116D01*
X194977Y281265D01*
X196035Y281703D01*
X196942Y282400D01*
X197639Y283308D01*
X197914Y283971D01*
X199953D01*
Y281016D01*
X206401D01*
Y289984D01*
X199953D01*
Y287029D01*
X197914D01*
X197639Y287692D01*
X196942Y288600D01*
X196035Y289297D01*
X194977Y289735D01*
X193842Y289884D01*
X192708Y289735D01*
X191650Y289297D01*
X190743Y288600D01*
X190046Y287692D01*
X189872Y287272D01*
X189372Y287371D01*
Y293629D01*
X189872Y293728D01*
X190046Y293308D01*
X190743Y292400D01*
X191650Y291703D01*
X192708Y291265D01*
X193842Y291116D01*
X194977Y291265D01*
X196035Y291703D01*
X196942Y292400D01*
X197639Y293308D01*
X198077Y294365D01*
X198226Y295500D01*
X198077Y296635D01*
X197639Y297692D01*
X196942Y298600D01*
X196035Y299297D01*
X194977Y299735D01*
X193842Y299884D01*
X192708Y299735D01*
X191650Y299297D01*
X190743Y298600D01*
X190046Y297692D01*
X189872Y297272D01*
X189372Y297371D01*
Y303629D01*
X189872Y303728D01*
X190046Y303308D01*
X190743Y302400D01*
X191650Y301703D01*
X192708Y301265D01*
X193842Y301116D01*
X194977Y301265D01*
X196035Y301703D01*
X196942Y302400D01*
X197639Y303308D01*
X197707Y303472D01*
X210344D01*
X210929Y303588D01*
X211425Y303920D01*
X213476Y305971D01*
X222547D01*
Y304063D01*
X224813D01*
Y289895D01*
X224384Y289453D01*
X219181D01*
X219126Y289930D01*
Y289984D01*
X211890D01*
Y281016D01*
X219126D01*
Y281070D01*
X219181Y281547D01*
X226693D01*
X227063Y281234D01*
Y278750D01*
X227180Y278165D01*
X227511Y277669D01*
X229761Y275419D01*
X230257Y275087D01*
X230842Y274971D01*
X239122D01*
Y274713D01*
X243484D01*
Y277807D01*
X243984Y278058D01*
X244201Y277896D01*
Y276819D01*
X244201Y276681D01*
Y276319D01*
X244201Y276181D01*
Y272744D01*
X248563D01*
Y273002D01*
X250678D01*
X251102Y272577D01*
Y267400D01*
X255313D01*
Y265601D01*
X255270Y265573D01*
X254788Y264851D01*
X254718Y264500D01*
X258967D01*
X258897Y264851D01*
X258415Y265573D01*
X258372Y265601D01*
Y267400D01*
X262583D01*
Y274050D01*
X257343D01*
Y270725D01*
X256343D01*
Y274050D01*
X253955D01*
X252393Y275613D01*
X252393Y275613D01*
X252393Y275613D01*
X252165Y275765D01*
X251897Y275944D01*
X251896Y275944D01*
X251896Y275945D01*
X251639Y275996D01*
X251311Y276061D01*
X251311Y276061D01*
X251311Y276061D01*
X248821D01*
X248563Y276319D01*
Y276681D01*
X248563Y276819D01*
Y277969D01*
X246382D01*
Y278469D01*
X245882D01*
Y280738D01*
X244838Y281782D01*
X245043Y282277D01*
X245072Y282500D01*
X239613D01*
X239642Y282277D01*
X239921Y281602D01*
X240366Y281023D01*
X240945Y280579D01*
X241619Y280300D01*
X242051Y280243D01*
X243522Y278772D01*
X243299Y278287D01*
X239122D01*
Y278029D01*
X231476D01*
X230122Y279383D01*
Y287374D01*
X230006Y287959D01*
X229674Y288455D01*
X227872Y290257D01*
Y304063D01*
X230138D01*
Y310787D01*
X227231D01*
X227132Y311287D01*
X227763Y311549D01*
X228588Y312182D01*
X228619Y312213D01*
X230138D01*
Y314408D01*
X230193Y314543D01*
X230329Y315575D01*
X230193Y316607D01*
X230138Y316741D01*
Y318937D01*
X229329D01*
Y325866D01*
X234216D01*
Y336134D01*
X216567D01*
X216284Y336557D01*
X221187Y341461D01*
X264498D01*
X267763Y338195D01*
X267622Y337854D01*
X267622D01*
Y330250D01*
X267063D01*
Y333500D01*
X263799D01*
Y334000D01*
X263299D01*
Y337854D01*
X260535D01*
Y335529D01*
X259163D01*
X258819Y335977D01*
X258240Y336421D01*
X257566Y336700D01*
X257343Y336730D01*
Y334000D01*
X256842D01*
Y333500D01*
X254113D01*
X254142Y333277D01*
X254421Y332602D01*
X254866Y332023D01*
X255313Y331680D01*
Y330250D01*
X255242D01*
Y316500D01*
X268543D01*
Y330146D01*
X271813D01*
X277542Y324416D01*
Y322246D01*
X284343D01*
Y324862D01*
X284747Y325266D01*
X285209Y325075D01*
Y310126D01*
X287983D01*
Y298083D01*
X285862D01*
Y288917D01*
X294122D01*
Y298083D01*
X292061D01*
Y310126D01*
X295476D01*
Y316961D01*
X299498D01*
X301799Y314660D01*
Y308457D01*
X310886D01*
Y317543D01*
X304683D01*
X301784Y320442D01*
X301123Y320884D01*
X300342Y321039D01*
X295476D01*
Y327874D01*
X288008D01*
X287816Y328336D01*
X288038Y328558D01*
X288233Y328849D01*
X292284Y332901D01*
X292726Y333562D01*
X292882Y334343D01*
Y375000D01*
X292726Y375780D01*
X292284Y376442D01*
X291084Y377643D01*
X290422Y378085D01*
X289642Y378240D01*
X289059D01*
Y379248D01*
X284492D01*
X284295Y379287D01*
X280597D01*
X280073Y379811D01*
X280280Y380311D01*
X283500D01*
Y384000D01*
X279811D01*
Y380780D01*
X279311Y380573D01*
X277701Y382183D01*
X277797Y382308D01*
X278235Y383365D01*
X278384Y384500D01*
X278235Y385635D01*
X277797Y386692D01*
X277100Y387600D01*
X276192Y388297D01*
X275135Y388735D01*
X274000Y388884D01*
D02*
G37*
G36*
X349476Y376500D02*
X344843D01*
Y368126D01*
X349476D01*
Y376500D01*
D02*
G37*
G36*
X92289Y365455D02*
X92248Y365446D01*
X91789D01*
X91368Y365363D01*
X91010Y365124D01*
X90772Y364766D01*
X90688Y364345D01*
Y364118D01*
X94122D01*
Y365446D01*
X92330D01*
X92289Y365455D01*
D02*
G37*
G36*
X343843Y376500D02*
X339209D01*
Y371010D01*
X331152Y362953D01*
X330494Y362993D01*
X330425Y363083D01*
X329229Y364000D01*
X327837Y364577D01*
X326842Y364708D01*
Y359000D01*
Y353292D01*
X327837Y353423D01*
X329229Y354000D01*
X330425Y354917D01*
X331343Y356113D01*
X331920Y357506D01*
X332070Y358651D01*
X332480Y358733D01*
X333141Y359175D01*
X342092Y368126D01*
X343843D01*
Y376500D01*
D02*
G37*
G36*
X325842Y364708D02*
X324848Y364577D01*
X323456Y364000D01*
X322260Y363083D01*
X321342Y361887D01*
X320765Y360494D01*
X320635Y359500D01*
X325842D01*
Y364708D01*
D02*
G37*
G36*
X107984Y361748D02*
Y357705D01*
X112028D01*
Y361748D01*
X107984D01*
D02*
G37*
G36*
X277842Y363030D02*
X276929Y362910D01*
X276077Y362557D01*
X275346Y361996D01*
X275151Y361742D01*
X274717Y361550D01*
X274717Y361550D01*
X274717Y361550D01*
X266968D01*
Y357450D01*
X274717D01*
X274717Y357450D01*
Y357450D01*
X275147Y357264D01*
X275346Y357004D01*
X276077Y356443D01*
X276929Y356090D01*
X277842Y355970D01*
X278756Y356090D01*
X279608Y356443D01*
X280339Y357004D01*
X280900Y357735D01*
X281252Y358586D01*
X281373Y359500D01*
X281252Y360414D01*
X280900Y361265D01*
X280339Y361996D01*
X279608Y362557D01*
X278756Y362910D01*
X277842Y363030D01*
D02*
G37*
G36*
X325842Y358500D02*
X320635D01*
X320765Y357506D01*
X321342Y356113D01*
X322260Y354917D01*
X323456Y354000D01*
X324848Y353423D01*
X325842Y353292D01*
Y358500D01*
D02*
G37*
G36*
X312067Y364724D02*
X300618D01*
Y353276D01*
X312067D01*
Y364724D01*
D02*
G37*
G36*
X112028Y356705D02*
X107984D01*
Y352661D01*
X112028D01*
Y356705D01*
D02*
G37*
G36*
X366342Y353708D02*
Y348500D01*
X371550D01*
X371420Y349494D01*
X370843Y350887D01*
X369925Y352083D01*
X368729Y353000D01*
X367337Y353577D01*
X366342Y353708D01*
D02*
G37*
G36*
X365342D02*
X364348Y353577D01*
X362956Y353000D01*
X361760Y352083D01*
X360842Y350887D01*
X360265Y349494D01*
X360135Y348500D01*
X365342D01*
Y353708D01*
D02*
G37*
G36*
X125201Y361787D02*
X124015Y361631D01*
X122909Y361173D01*
X121960Y360445D01*
X121232Y359496D01*
X120774Y358391D01*
X120618Y357205D01*
X120774Y356019D01*
X121232Y354913D01*
X121960Y353964D01*
X122909Y353236D01*
X123671Y352921D01*
Y352295D01*
X121906D01*
Y344705D01*
X121478Y344529D01*
X118323D01*
Y345000D01*
X114693D01*
Y340917D01*
X118323D01*
Y341471D01*
X121709D01*
X128761Y334419D01*
X129257Y334087D01*
X129764Y333986D01*
X130046Y333307D01*
X130743Y332399D01*
X131650Y331702D01*
X132708Y331264D01*
X133343Y331181D01*
Y335499D01*
Y339817D01*
X132708Y339733D01*
X131650Y339295D01*
X130743Y338598D01*
X130253Y337960D01*
X129620Y337885D01*
X126535Y340971D01*
X126742Y341471D01*
X137709D01*
X139313Y339866D01*
Y330134D01*
X137573Y328394D01*
X137074Y328427D01*
X136943Y328598D01*
X136035Y329295D01*
X134977Y329733D01*
X133843Y329883D01*
X132708Y329733D01*
X131650Y329295D01*
X130743Y328598D01*
X130046Y327691D01*
X129608Y326633D01*
X129459Y325499D01*
X129608Y324364D01*
X130046Y323307D01*
X130743Y322399D01*
X131650Y321702D01*
X132708Y321264D01*
X133843Y321115D01*
X134977Y321264D01*
X136035Y321702D01*
X136943Y322399D01*
X137639Y323307D01*
X138077Y324364D01*
X138161Y324998D01*
X138383Y325042D01*
X138879Y325374D01*
X141924Y328419D01*
X142255Y328915D01*
X142372Y329500D01*
Y340500D01*
X142255Y341085D01*
X141924Y341581D01*
X139424Y344081D01*
X138928Y344413D01*
X138342Y344529D01*
X137207D01*
X136779Y344705D01*
X136779Y345029D01*
Y346971D01*
X140241D01*
X140270Y346927D01*
X140991Y346445D01*
X141842Y346276D01*
X142693Y346445D01*
X143415Y346927D01*
X143897Y347649D01*
X144066Y348500D01*
X143897Y349351D01*
X143415Y350073D01*
X142693Y350555D01*
X141842Y350724D01*
X140991Y350555D01*
X140270Y350073D01*
X140241Y350029D01*
X136779D01*
Y352295D01*
X130055D01*
Y345029D01*
X130055Y344705D01*
X129628Y344529D01*
X129057D01*
X128630Y344705D01*
Y352295D01*
X126730D01*
Y352921D01*
X127492Y353236D01*
X128441Y353964D01*
X129169Y354913D01*
X129627Y356019D01*
X129783Y357205D01*
X129627Y358391D01*
X129169Y359496D01*
X128441Y360445D01*
X127492Y361173D01*
X126387Y361631D01*
X125201Y361787D01*
D02*
G37*
G36*
X118323Y350083D02*
X114693D01*
Y346000D01*
X118323D01*
Y350083D01*
D02*
G37*
G36*
X371550Y347500D02*
X366342D01*
Y342292D01*
X367337Y342423D01*
X368729Y343000D01*
X369925Y343917D01*
X370843Y345113D01*
X371420Y346506D01*
X371550Y347500D01*
D02*
G37*
G36*
X365342D02*
X360135D01*
X360265Y346506D01*
X360842Y345113D01*
X361760Y343917D01*
X362956Y343000D01*
X364348Y342423D01*
X365342Y342292D01*
Y347500D01*
D02*
G37*
G36*
X134343Y339817D02*
Y335999D01*
X138161D01*
X138077Y336633D01*
X137639Y337691D01*
X136943Y338598D01*
X136035Y339295D01*
X134977Y339733D01*
X134343Y339817D01*
D02*
G37*
G36*
X267063Y337854D02*
X264299D01*
Y334500D01*
X267063D01*
Y337854D01*
D02*
G37*
G36*
X256343Y336730D02*
X256119Y336700D01*
X255445Y336421D01*
X254866Y335977D01*
X254421Y335398D01*
X254142Y334723D01*
X254113Y334500D01*
X256343D01*
Y336730D01*
D02*
G37*
G36*
X138161Y334999D02*
X134343D01*
Y331181D01*
X134977Y331264D01*
X136035Y331702D01*
X136943Y332399D01*
X137639Y333307D01*
X138077Y334364D01*
X138161Y334999D01*
D02*
G37*
G36*
X101342Y318124D02*
Y316500D01*
X102967D01*
X102897Y316851D01*
X102415Y317572D01*
X101693Y318055D01*
X101342Y318124D01*
D02*
G37*
G36*
X254242Y330250D02*
X240943D01*
Y316500D01*
X254242D01*
Y330250D01*
D02*
G37*
G36*
X102967Y315500D02*
X101342D01*
Y313876D01*
X101693Y313945D01*
X102415Y314427D01*
X102897Y315149D01*
X102967Y315500D01*
D02*
G37*
G36*
X316843Y317517D02*
Y313500D01*
X320859D01*
X320769Y314186D01*
X320311Y315291D01*
X319583Y316240D01*
X318634Y316969D01*
X317529Y317426D01*
X316843Y317517D01*
D02*
G37*
G36*
X315843D02*
X315157Y317426D01*
X314051Y316969D01*
X313102Y316240D01*
X312374Y315291D01*
X311916Y314186D01*
X311826Y313500D01*
X315843D01*
Y317517D01*
D02*
G37*
G36*
X366342Y313708D02*
Y308500D01*
X371550D01*
X371420Y309494D01*
X370843Y310887D01*
X369925Y312083D01*
X368729Y313000D01*
X367337Y313577D01*
X366342Y313708D01*
D02*
G37*
G36*
X365342D02*
X364348Y313577D01*
X362956Y313000D01*
X361760Y312083D01*
X360842Y310887D01*
X360265Y309494D01*
X360135Y308500D01*
X365342D01*
Y313708D01*
D02*
G37*
G36*
X371550Y307500D02*
X366342D01*
Y302292D01*
X367337Y302423D01*
X368729Y303000D01*
X369925Y303917D01*
X370843Y305113D01*
X371420Y306506D01*
X371550Y307500D01*
D02*
G37*
G36*
X365342D02*
X360135D01*
X360265Y306506D01*
X360842Y305113D01*
X361760Y303917D01*
X362956Y303000D01*
X364348Y302423D01*
X365342Y302292D01*
Y307500D01*
D02*
G37*
G36*
X107193Y298583D02*
X103563D01*
Y294500D01*
X107193D01*
Y298583D01*
D02*
G37*
G36*
X320859Y312500D02*
X311826D01*
X311916Y311814D01*
X312374Y310709D01*
X313102Y309760D01*
X313658Y309333D01*
X313691Y308834D01*
X302939Y298083D01*
X302193D01*
Y294000D01*
X305823D01*
Y295199D01*
X317729Y307105D01*
X318171Y307767D01*
X318326Y308547D01*
Y308904D01*
X318634Y309031D01*
X319583Y309760D01*
X320311Y310709D01*
X320769Y311814D01*
X320859Y312500D01*
D02*
G37*
G36*
X301193Y298083D02*
X297563D01*
Y294000D01*
X301193D01*
Y298083D01*
D02*
G37*
G36*
X107193Y293500D02*
X103563D01*
Y289417D01*
X107193D01*
Y293500D01*
D02*
G37*
G36*
X305823Y293000D02*
X302193D01*
Y288917D01*
X305823D01*
Y293000D01*
D02*
G37*
G36*
X301193D02*
X297563D01*
Y288917D01*
X301193D01*
Y293000D01*
D02*
G37*
G36*
X326343Y317583D02*
X325156Y317426D01*
X324051Y316969D01*
X323102Y316240D01*
X322374Y315291D01*
X321916Y314186D01*
X321760Y313000D01*
X321916Y311814D01*
X322374Y310709D01*
X323102Y309760D01*
X324051Y309031D01*
X324303Y308927D01*
Y299134D01*
X316968D01*
Y288866D01*
X334717D01*
Y299134D01*
X328382D01*
Y308927D01*
X328634Y309031D01*
X329583Y309760D01*
X330311Y310709D01*
X330769Y311814D01*
X330925Y313000D01*
X330769Y314186D01*
X330311Y315291D01*
X329583Y316240D01*
X328634Y316969D01*
X327529Y317426D01*
X326343Y317583D01*
D02*
G37*
G36*
X234248Y289453D02*
X230992D01*
Y286000D01*
X234248D01*
Y289453D01*
D02*
G37*
G36*
X242843Y285730D02*
Y283500D01*
X245072D01*
X245043Y283723D01*
X244763Y284398D01*
X244319Y284977D01*
X243740Y285421D01*
X243066Y285700D01*
X242843Y285730D01*
D02*
G37*
G36*
X234248Y285000D02*
X230992D01*
Y281547D01*
X234248D01*
Y285000D01*
D02*
G37*
G36*
X248563Y280256D02*
X246882D01*
Y278969D01*
X248563D01*
Y280256D01*
D02*
G37*
G36*
X366342Y273708D02*
Y268500D01*
X371550D01*
X371420Y269494D01*
X370843Y270887D01*
X369925Y272083D01*
X368729Y273000D01*
X367337Y273577D01*
X366342Y273708D01*
D02*
G37*
G36*
X365342D02*
X364348Y273577D01*
X362956Y273000D01*
X361760Y272083D01*
X360842Y270887D01*
X360265Y269494D01*
X360135Y268500D01*
X365342D01*
Y273708D01*
D02*
G37*
G36*
X371550Y267500D02*
X366342D01*
Y262292D01*
X367337Y262423D01*
X368729Y263000D01*
X369925Y263917D01*
X370843Y265113D01*
X371420Y266506D01*
X371550Y267500D01*
D02*
G37*
G36*
X365342D02*
X360135D01*
X360265Y266506D01*
X360842Y265113D01*
X361760Y263917D01*
X362956Y263000D01*
X364348Y262423D01*
X365342Y262292D01*
Y267500D01*
D02*
G37*
G36*
X176842Y263624D02*
Y262000D01*
X178467D01*
X178397Y262351D01*
X177915Y263072D01*
X177193Y263555D01*
X176842Y263624D01*
D02*
G37*
G36*
X175842D02*
X175491Y263555D01*
X174770Y263072D01*
X174288Y262351D01*
X174218Y262000D01*
X175842D01*
Y263624D01*
D02*
G37*
G36*
X258967Y263500D02*
X257343D01*
Y261876D01*
X257694Y261945D01*
X258415Y262427D01*
X258897Y263149D01*
X258967Y263500D01*
D02*
G37*
G36*
X256343D02*
X254718D01*
X254788Y263149D01*
X255270Y262427D01*
X255992Y261945D01*
X256343Y261876D01*
Y263500D01*
D02*
G37*
G36*
X178467Y261000D02*
X176842D01*
Y259376D01*
X177193Y259445D01*
X177915Y259928D01*
X178397Y260649D01*
X178467Y261000D01*
D02*
G37*
G36*
X175842D02*
X174218D01*
X174288Y260649D01*
X174770Y259928D01*
X175491Y259445D01*
X175842Y259376D01*
Y261000D01*
D02*
G37*
G36*
X332842Y257730D02*
X332619Y257700D01*
X331945Y257421D01*
X331366Y256977D01*
X331221Y256788D01*
X330618Y256804D01*
X330590Y256846D01*
X330193Y257111D01*
X329725Y257205D01*
X327571D01*
Y255000D01*
Y252795D01*
X329725D01*
X330193Y252889D01*
X330590Y253154D01*
X330618Y253196D01*
X331221Y253212D01*
X331366Y253023D01*
X331945Y252579D01*
X332619Y252300D01*
X332842Y252270D01*
Y255000D01*
Y257730D01*
D02*
G37*
G36*
X333842D02*
Y255500D01*
X336072D01*
X336043Y255724D01*
X335764Y256398D01*
X335319Y256977D01*
X334740Y257421D01*
X334066Y257700D01*
X333842Y257730D01*
D02*
G37*
G36*
X326571Y257205D02*
X324417D01*
X323949Y257111D01*
X323552Y256846D01*
X323286Y256449D01*
X323193Y255980D01*
Y255500D01*
X326571D01*
Y257205D01*
D02*
G37*
G36*
Y254500D02*
X323193D01*
Y254020D01*
X323286Y253551D01*
X323552Y253154D01*
X323949Y252889D01*
X324417Y252795D01*
X326571D01*
Y254500D01*
D02*
G37*
G36*
X336072D02*
X333842D01*
Y252270D01*
X334066Y252300D01*
X334740Y252579D01*
X335319Y253023D01*
X335764Y253602D01*
X336043Y254276D01*
X336072Y254500D01*
D02*
G37*
G36*
X133843Y259883D02*
X132708Y259733D01*
X131650Y259295D01*
X130743Y258598D01*
X130046Y257691D01*
X129608Y256633D01*
X129459Y255499D01*
X129608Y254364D01*
X130046Y253307D01*
X130743Y252399D01*
X131650Y251702D01*
X132708Y251264D01*
X133843Y251115D01*
X134977Y251264D01*
X136035Y251702D01*
X136943Y252399D01*
X137639Y253307D01*
X138077Y254364D01*
X138226Y255499D01*
X138077Y256633D01*
X137639Y257691D01*
X136943Y258598D01*
X136035Y259295D01*
X134977Y259733D01*
X133843Y259883D01*
D02*
G37*
G36*
X227138Y256437D02*
X219547D01*
Y249713D01*
X227138D01*
Y250568D01*
X227638Y250815D01*
X227945Y250579D01*
X228619Y250300D01*
X229343Y250204D01*
X230066Y250300D01*
X230740Y250579D01*
X231319Y251023D01*
X231764Y251602D01*
X232043Y252276D01*
X232138Y253000D01*
X232043Y253724D01*
X231764Y254398D01*
X231319Y254977D01*
X230740Y255421D01*
X230066Y255700D01*
X229343Y255796D01*
X228619Y255700D01*
X227945Y255421D01*
X227638Y255186D01*
X227138Y255432D01*
Y256437D01*
D02*
G37*
G36*
X345638Y249787D02*
X342342D01*
Y246925D01*
X345638D01*
Y249787D01*
D02*
G37*
G36*
X341342D02*
X338047D01*
Y246925D01*
X341342D01*
Y249787D01*
D02*
G37*
G36*
X345638Y245925D02*
X341843D01*
X338047D01*
Y243063D01*
X339302D01*
X339548Y242563D01*
X339422Y242398D01*
X339142Y241723D01*
X339113Y241500D01*
X344572D01*
X344543Y241723D01*
X344264Y242398D01*
X344137Y242563D01*
X344383Y243063D01*
X345638D01*
Y245925D01*
D02*
G37*
G36*
X133843Y249883D02*
X132708Y249733D01*
X131650Y249295D01*
X130743Y248599D01*
X130046Y247691D01*
X129608Y246633D01*
X129459Y245499D01*
X129608Y244364D01*
X130046Y243307D01*
X130743Y242399D01*
X131650Y241702D01*
X132708Y241264D01*
X133843Y241115D01*
X134977Y241264D01*
X136035Y241702D01*
X136943Y242399D01*
X137639Y243307D01*
X138077Y244364D01*
X138226Y245499D01*
X138077Y246633D01*
X137639Y247691D01*
X136943Y248599D01*
X136035Y249295D01*
X134977Y249733D01*
X133843Y249883D01*
D02*
G37*
G36*
X344572Y240500D02*
X342342D01*
Y238270D01*
X342566Y238300D01*
X343240Y238579D01*
X343819Y239023D01*
X344264Y239602D01*
X344543Y240277D01*
X344572Y240500D01*
D02*
G37*
G36*
X284152Y240000D02*
X279533D01*
X279365Y239795D01*
X278906D01*
Y236500D01*
X285630D01*
Y239795D01*
X284320D01*
X284152Y240000D01*
D02*
G37*
G36*
X133843Y239883D02*
X132708Y239733D01*
X131650Y239295D01*
X130743Y238598D01*
X130046Y237691D01*
X129608Y236633D01*
X129459Y235499D01*
X129608Y234364D01*
X130046Y233307D01*
X130743Y232399D01*
X131650Y231702D01*
X132708Y231264D01*
X133843Y231115D01*
X134977Y231264D01*
X136035Y231702D01*
X136943Y232399D01*
X137639Y233307D01*
X138077Y234364D01*
X138226Y235499D01*
X138077Y236633D01*
X137639Y237691D01*
X136943Y238598D01*
X136035Y239295D01*
X134977Y239733D01*
X133843Y239883D01*
D02*
G37*
G36*
X366342Y233708D02*
Y228500D01*
X371550D01*
X371420Y229494D01*
X370843Y230887D01*
X369925Y232083D01*
X368729Y233000D01*
X367337Y233577D01*
X366342Y233708D01*
D02*
G37*
G36*
X365342D02*
X364348Y233577D01*
X362956Y233000D01*
X361760Y232083D01*
X360842Y230887D01*
X360265Y229494D01*
X360135Y228500D01*
X365342D01*
Y233708D01*
D02*
G37*
G36*
X108343Y225124D02*
Y223500D01*
X109967D01*
X109897Y223851D01*
X109415Y224572D01*
X108694Y225055D01*
X108343Y225124D01*
D02*
G37*
G36*
X107343D02*
X106992Y225055D01*
X106270Y224572D01*
X105788Y223851D01*
X105718Y223500D01*
X107343D01*
Y225124D01*
D02*
G37*
G36*
X371550Y227500D02*
X366342D01*
Y222292D01*
X367337Y222423D01*
X368729Y223000D01*
X369925Y223917D01*
X370843Y225113D01*
X371420Y226506D01*
X371550Y227500D01*
D02*
G37*
G36*
X365342D02*
X360135D01*
X360265Y226506D01*
X360842Y225113D01*
X361760Y223917D01*
X362956Y223000D01*
X364348Y222423D01*
X365342Y222292D01*
Y227500D01*
D02*
G37*
G36*
X193842Y229884D02*
X192708Y229735D01*
X191650Y229297D01*
X190743Y228600D01*
X190046Y227692D01*
X189608Y226635D01*
X189459Y225500D01*
X189608Y224365D01*
X190046Y223308D01*
X190743Y222400D01*
X191650Y221703D01*
X192708Y221265D01*
X193842Y221116D01*
X194977Y221265D01*
X196035Y221703D01*
X196942Y222400D01*
X197639Y223308D01*
X198077Y224365D01*
X198226Y225500D01*
X198077Y226635D01*
X197639Y227692D01*
X196942Y228600D01*
X196035Y229297D01*
X194977Y229735D01*
X193842Y229884D01*
D02*
G37*
G36*
X287842Y216000D02*
X286218D01*
X286288Y215649D01*
X286770Y214928D01*
X287491Y214445D01*
X287842Y214376D01*
Y216000D01*
D02*
G37*
G36*
X193842Y219884D02*
X192708Y219735D01*
X191650Y219297D01*
X190743Y218600D01*
X190046Y217692D01*
X189608Y216635D01*
X189459Y215500D01*
X189608Y214365D01*
X190046Y213308D01*
X190743Y212400D01*
X191650Y211703D01*
X192708Y211265D01*
X193842Y211116D01*
X194977Y211265D01*
X196035Y211703D01*
X196942Y212400D01*
X197639Y213308D01*
X198077Y214365D01*
X198226Y215500D01*
X198077Y216635D01*
X197639Y217692D01*
X196942Y218600D01*
X196035Y219297D01*
X194977Y219735D01*
X193842Y219884D01*
D02*
G37*
G36*
X164342Y209818D02*
Y206000D01*
X168161D01*
X168077Y206635D01*
X167639Y207692D01*
X166943Y208600D01*
X166034Y209297D01*
X164977Y209735D01*
X164342Y209818D01*
D02*
G37*
G36*
X163342D02*
X162708Y209735D01*
X161651Y209297D01*
X160743Y208600D01*
X160046Y207692D01*
X159608Y206635D01*
X159524Y206000D01*
X163342D01*
Y209818D01*
D02*
G37*
G36*
X168161Y205000D02*
X164342D01*
Y201182D01*
X164977Y201265D01*
X166034Y201703D01*
X166943Y202400D01*
X167639Y203308D01*
X168077Y204365D01*
X168161Y205000D01*
D02*
G37*
G36*
X163342D02*
X159524D01*
X159608Y204365D01*
X160046Y203308D01*
X160743Y202400D01*
X161651Y201703D01*
X162708Y201265D01*
X163342Y201182D01*
Y205000D01*
D02*
G37*
G36*
X153842Y209884D02*
X152708Y209735D01*
X151651Y209297D01*
X150743Y208600D01*
X150046Y207692D01*
X149608Y206635D01*
X149459Y205500D01*
X149608Y204365D01*
X150046Y203308D01*
X150743Y202400D01*
X151651Y201703D01*
X152708Y201265D01*
X153842Y201116D01*
X154977Y201265D01*
X156035Y201703D01*
X156942Y202400D01*
X157639Y203308D01*
X158077Y204365D01*
X158227Y205500D01*
X158077Y206635D01*
X157639Y207692D01*
X156942Y208600D01*
X156035Y209297D01*
X154977Y209735D01*
X153842Y209884D01*
D02*
G37*
G36*
X143842D02*
X142708Y209735D01*
X141650Y209297D01*
X140743Y208600D01*
X140046Y207692D01*
X139608Y206635D01*
X139459Y205500D01*
X139608Y204365D01*
X140046Y203308D01*
X140743Y202400D01*
X141650Y201703D01*
X142708Y201265D01*
X143842Y201116D01*
X144977Y201265D01*
X146035Y201703D01*
X146942Y202400D01*
X147639Y203308D01*
X148077Y204365D01*
X148226Y205500D01*
X148077Y206635D01*
X147639Y207692D01*
X146942Y208600D01*
X146035Y209297D01*
X144977Y209735D01*
X143842Y209884D01*
D02*
G37*
G36*
X290572Y199500D02*
X285113D01*
X285142Y199276D01*
X285421Y198602D01*
X285820Y198083D01*
X285705Y197583D01*
X283862D01*
Y193500D01*
X292122D01*
Y197583D01*
X290067D01*
X289920Y197844D01*
X289865Y198083D01*
X290264Y198602D01*
X290543Y199276D01*
X290572Y199500D01*
D02*
G37*
G36*
X284638Y181287D02*
X281343D01*
Y178425D01*
X284638D01*
Y181287D01*
D02*
G37*
G36*
X273843Y179730D02*
X273619Y179700D01*
X272945Y179421D01*
X272366Y178977D01*
X271921Y178398D01*
X271642Y177724D01*
X271613Y177500D01*
X273843D01*
Y179730D01*
D02*
G37*
G36*
Y176500D02*
X271613D01*
X271642Y176276D01*
X271921Y175602D01*
X272366Y175023D01*
X272945Y174579D01*
X273619Y174300D01*
X273843Y174270D01*
Y176500D01*
D02*
G37*
G36*
X346072Y176000D02*
X343843D01*
Y173770D01*
X344066Y173800D01*
X344740Y174079D01*
X345319Y174523D01*
X345763Y175102D01*
X346043Y175776D01*
X346072Y176000D01*
D02*
G37*
G36*
X222843Y175675D02*
Y171500D01*
X227017D01*
X226922Y172227D01*
X226448Y173370D01*
X225695Y174352D01*
X224713Y175105D01*
X223569Y175579D01*
X222843Y175675D01*
D02*
G37*
G36*
X124843D02*
Y171500D01*
X129017D01*
X128922Y172227D01*
X128448Y173370D01*
X127695Y174352D01*
X126713Y175105D01*
X125569Y175579D01*
X124843Y175675D01*
D02*
G37*
G36*
X221843D02*
X221116Y175579D01*
X219972Y175105D01*
X218990Y174352D01*
X218237Y173370D01*
X217763Y172227D01*
X217668Y171500D01*
X221843D01*
Y175675D01*
D02*
G37*
G36*
X123843D02*
X123116Y175579D01*
X121972Y175105D01*
X120990Y174352D01*
X120237Y173370D01*
X119764Y172227D01*
X119668Y171500D01*
X123843D01*
Y175675D01*
D02*
G37*
G36*
X227017Y170500D02*
X222843D01*
Y166325D01*
X223569Y166421D01*
X224713Y166895D01*
X225695Y167648D01*
X226448Y168630D01*
X226922Y169773D01*
X227017Y170500D01*
D02*
G37*
G36*
X129017D02*
X124843D01*
Y166325D01*
X125569Y166421D01*
X126713Y166895D01*
X127695Y167648D01*
X128448Y168630D01*
X128922Y169773D01*
X129017Y170500D01*
D02*
G37*
G36*
X221843D02*
X217668D01*
X217763Y169773D01*
X218237Y168630D01*
X218990Y167648D01*
X219972Y166895D01*
X221116Y166421D01*
X221843Y166325D01*
Y170500D01*
D02*
G37*
G36*
X123843D02*
X119668D01*
X119764Y169773D01*
X120237Y168630D01*
X120990Y167648D01*
X121972Y166895D01*
X123116Y166421D01*
X123843Y166325D01*
Y170500D01*
D02*
G37*
G36*
X212343Y175741D02*
X211116Y175579D01*
X209972Y175105D01*
X208990Y174352D01*
X208237Y173370D01*
X207764Y172227D01*
X207602Y171000D01*
X207764Y169773D01*
X208237Y168630D01*
X208990Y167648D01*
X209972Y166895D01*
X211116Y166421D01*
X212343Y166259D01*
X213569Y166421D01*
X214713Y166895D01*
X215695Y167648D01*
X216448Y168630D01*
X216921Y169773D01*
X217083Y171000D01*
X216921Y172227D01*
X216448Y173370D01*
X215695Y174352D01*
X214713Y175105D01*
X213569Y175579D01*
X212343Y175741D01*
D02*
G37*
G36*
X202343D02*
X201116Y175579D01*
X199972Y175105D01*
X198990Y174352D01*
X198237Y173370D01*
X197764Y172227D01*
X197602Y171000D01*
X197764Y169773D01*
X198237Y168630D01*
X198990Y167648D01*
X199972Y166895D01*
X201116Y166421D01*
X202343Y166259D01*
X203570Y166421D01*
X204713Y166895D01*
X205695Y167648D01*
X206448Y168630D01*
X206922Y169773D01*
X207083Y171000D01*
X206922Y172227D01*
X206448Y173370D01*
X205695Y174352D01*
X204713Y175105D01*
X203570Y175579D01*
X202343Y175741D01*
D02*
G37*
G36*
X192342D02*
X191116Y175579D01*
X189972Y175105D01*
X188990Y174352D01*
X188237Y173370D01*
X187764Y172227D01*
X187602Y171000D01*
X187764Y169773D01*
X188237Y168630D01*
X188990Y167648D01*
X189972Y166895D01*
X191116Y166421D01*
X192342Y166259D01*
X193570Y166421D01*
X194713Y166895D01*
X195695Y167648D01*
X196448Y168630D01*
X196922Y169773D01*
X197083Y171000D01*
X196922Y172227D01*
X196448Y173370D01*
X195695Y174352D01*
X194713Y175105D01*
X193570Y175579D01*
X192342Y175741D01*
D02*
G37*
G36*
X182343D02*
X181116Y175579D01*
X179972Y175105D01*
X178990Y174352D01*
X178237Y173370D01*
X177763Y172227D01*
X177602Y171000D01*
X177763Y169773D01*
X178237Y168630D01*
X178990Y167648D01*
X179972Y166895D01*
X181116Y166421D01*
X182343Y166259D01*
X183570Y166421D01*
X184713Y166895D01*
X185695Y167648D01*
X186448Y168630D01*
X186922Y169773D01*
X187083Y171000D01*
X186922Y172227D01*
X186448Y173370D01*
X185695Y174352D01*
X184713Y175105D01*
X183570Y175579D01*
X182343Y175741D01*
D02*
G37*
G36*
X114342D02*
X113116Y175579D01*
X111972Y175105D01*
X110990Y174352D01*
X110237Y173370D01*
X109764Y172227D01*
X109602Y171000D01*
X109764Y169773D01*
X110237Y168630D01*
X110990Y167648D01*
X111972Y166895D01*
X113116Y166421D01*
X114342Y166259D01*
X115569Y166421D01*
X116713Y166895D01*
X117695Y167648D01*
X118448Y168630D01*
X118922Y169773D01*
X119083Y171000D01*
X118922Y172227D01*
X118448Y173370D01*
X117695Y174352D01*
X116713Y175105D01*
X115569Y175579D01*
X114342Y175741D01*
D02*
G37*
G36*
X104342D02*
X103116Y175579D01*
X101972Y175105D01*
X100990Y174352D01*
X100237Y173370D01*
X99764Y172227D01*
X99602Y171000D01*
X99764Y169773D01*
X100237Y168630D01*
X100990Y167648D01*
X101972Y166895D01*
X103116Y166421D01*
X104342Y166259D01*
X105570Y166421D01*
X106713Y166895D01*
X107695Y167648D01*
X108448Y168630D01*
X108922Y169773D01*
X109083Y171000D01*
X108922Y172227D01*
X108448Y173370D01*
X107695Y174352D01*
X106713Y175105D01*
X105570Y175579D01*
X104342Y175741D01*
D02*
G37*
G36*
X94342D02*
X93116Y175579D01*
X91972Y175105D01*
X90990Y174352D01*
X90237Y173370D01*
X89763Y172227D01*
X89602Y171000D01*
X89763Y169773D01*
X90237Y168630D01*
X90990Y167648D01*
X91972Y166895D01*
X93116Y166421D01*
X94342Y166259D01*
X95569Y166421D01*
X96713Y166895D01*
X97695Y167648D01*
X98448Y168630D01*
X98922Y169773D01*
X99083Y171000D01*
X98922Y172227D01*
X98448Y173370D01*
X97695Y174352D01*
X96713Y175105D01*
X95569Y175579D01*
X94342Y175741D01*
D02*
G37*
G36*
X84342D02*
X83116Y175579D01*
X81972Y175105D01*
X80990Y174352D01*
X80237Y173370D01*
X79764Y172227D01*
X79602Y171000D01*
X79764Y169773D01*
X80237Y168630D01*
X80990Y167648D01*
X81972Y166895D01*
X83116Y166421D01*
X84342Y166259D01*
X85570Y166421D01*
X86713Y166895D01*
X87695Y167648D01*
X88448Y168630D01*
X88922Y169773D01*
X89083Y171000D01*
X88922Y172227D01*
X88448Y173370D01*
X87695Y174352D01*
X86713Y175105D01*
X85570Y175579D01*
X84342Y175741D01*
D02*
G37*
G36*
X366843Y168708D02*
Y163500D01*
X372050D01*
X371920Y164494D01*
X371343Y165887D01*
X370425Y167083D01*
X369229Y168000D01*
X367837Y168577D01*
X366843Y168708D01*
D02*
G37*
G36*
X365843D02*
X364848Y168577D01*
X363456Y168000D01*
X362260Y167083D01*
X361342Y165887D01*
X360766Y164494D01*
X360634Y163500D01*
X365843D01*
Y168708D01*
D02*
G37*
G36*
X31343Y172274D02*
X29848Y172077D01*
X28456Y171500D01*
X27260Y170583D01*
X26342Y169387D01*
X25765Y167994D01*
X25569Y166500D01*
X25765Y165006D01*
X26342Y163613D01*
X27260Y162417D01*
X28456Y161500D01*
X29848Y160923D01*
X31343Y160726D01*
X32837Y160923D01*
X34229Y161500D01*
X35425Y162417D01*
X36343Y163613D01*
X36920Y165006D01*
X37116Y166500D01*
X36920Y167994D01*
X36343Y169387D01*
X35425Y170583D01*
X34229Y171500D01*
X32837Y172077D01*
X31343Y172274D01*
D02*
G37*
G36*
X372050Y162500D02*
X366843D01*
Y157292D01*
X367837Y157423D01*
X369229Y158000D01*
X370425Y158917D01*
X371343Y160113D01*
X371920Y161506D01*
X372050Y162500D01*
D02*
G37*
G36*
X365843D02*
X360634D01*
X360766Y161506D01*
X361342Y160113D01*
X362260Y158917D01*
X363456Y158000D01*
X364848Y157423D01*
X365843Y157292D01*
Y162500D01*
D02*
G37*
G36*
X344843Y152230D02*
Y150000D01*
X347072D01*
X347043Y150224D01*
X346763Y150898D01*
X346319Y151477D01*
X345740Y151921D01*
X345066Y152200D01*
X344843Y152230D01*
D02*
G37*
G36*
X31343Y152274D02*
X29848Y152077D01*
X28456Y151500D01*
X27260Y150583D01*
X26342Y149387D01*
X25765Y147994D01*
X25569Y146500D01*
X25765Y145006D01*
X26342Y143613D01*
X27260Y142417D01*
X28456Y141500D01*
X29848Y140923D01*
X31343Y140726D01*
X32837Y140923D01*
X34229Y141500D01*
X35425Y142417D01*
X36343Y143613D01*
X36920Y145006D01*
X37116Y146500D01*
X36920Y147994D01*
X36343Y149387D01*
X35425Y150583D01*
X34229Y151500D01*
X32837Y152077D01*
X31343Y152274D01*
D02*
G37*
G36*
X222342Y145741D02*
X221116Y145579D01*
X219972Y145105D01*
X218990Y144352D01*
X218237Y143370D01*
X217763Y142227D01*
X217602Y141000D01*
X217763Y139773D01*
X218237Y138630D01*
X218990Y137648D01*
X219972Y136895D01*
X221116Y136421D01*
X222342Y136259D01*
X223569Y136421D01*
X224713Y136895D01*
X225695Y137648D01*
X226448Y138630D01*
X226922Y139773D01*
X227083Y141000D01*
X226922Y142227D01*
X226448Y143370D01*
X225695Y144352D01*
X224713Y145105D01*
X223569Y145579D01*
X222342Y145741D01*
D02*
G37*
G36*
X212343D02*
X211116Y145579D01*
X209972Y145105D01*
X208990Y144352D01*
X208237Y143370D01*
X207764Y142227D01*
X207602Y141000D01*
X207764Y139773D01*
X208237Y138630D01*
X208990Y137648D01*
X209972Y136895D01*
X211116Y136421D01*
X212343Y136259D01*
X213569Y136421D01*
X214713Y136895D01*
X215695Y137648D01*
X216448Y138630D01*
X216921Y139773D01*
X217083Y141000D01*
X216921Y142227D01*
X216448Y143370D01*
X215695Y144352D01*
X214713Y145105D01*
X213569Y145579D01*
X212343Y145741D01*
D02*
G37*
G36*
X124343D02*
X123116Y145579D01*
X121972Y145105D01*
X120990Y144352D01*
X120237Y143370D01*
X119764Y142227D01*
X119602Y141000D01*
X119764Y139773D01*
X120237Y138630D01*
X120990Y137648D01*
X121972Y136895D01*
X123116Y136421D01*
X124343Y136259D01*
X125569Y136421D01*
X126713Y136895D01*
X127695Y137648D01*
X128448Y138630D01*
X128922Y139773D01*
X129083Y141000D01*
X128922Y142227D01*
X128448Y143370D01*
X127695Y144352D01*
X126713Y145105D01*
X125569Y145579D01*
X124343Y145741D01*
D02*
G37*
G36*
X114342D02*
X113116Y145579D01*
X111972Y145105D01*
X110990Y144352D01*
X110237Y143370D01*
X109764Y142227D01*
X109602Y141000D01*
X109764Y139773D01*
X110237Y138630D01*
X110990Y137648D01*
X111972Y136895D01*
X113116Y136421D01*
X114342Y136259D01*
X115569Y136421D01*
X116713Y136895D01*
X117695Y137648D01*
X118448Y138630D01*
X118922Y139773D01*
X119083Y141000D01*
X118922Y142227D01*
X118448Y143370D01*
X117695Y144352D01*
X116713Y145105D01*
X115569Y145579D01*
X114342Y145741D01*
D02*
G37*
G36*
X366843Y128708D02*
Y123500D01*
X372050D01*
X371920Y124494D01*
X371343Y125887D01*
X370425Y127083D01*
X369229Y128000D01*
X367837Y128577D01*
X366843Y128708D01*
D02*
G37*
G36*
X365843D02*
X364848Y128577D01*
X363456Y128000D01*
X362260Y127083D01*
X361342Y125887D01*
X360766Y124494D01*
X360634Y123500D01*
X365843D01*
Y128708D01*
D02*
G37*
G36*
X31343Y132274D02*
X29848Y132077D01*
X28456Y131500D01*
X27260Y130583D01*
X26342Y129387D01*
X25765Y127994D01*
X25569Y126500D01*
X25765Y125006D01*
X26342Y123613D01*
X27260Y122417D01*
X28456Y121500D01*
X29848Y120923D01*
X31343Y120726D01*
X32837Y120923D01*
X34229Y121500D01*
X35425Y122417D01*
X36343Y123613D01*
X36920Y125006D01*
X37116Y126500D01*
X36920Y127994D01*
X36343Y129387D01*
X35425Y130583D01*
X34229Y131500D01*
X32837Y132077D01*
X31343Y132274D01*
D02*
G37*
G36*
X372050Y122500D02*
X366843D01*
Y117292D01*
X367837Y117423D01*
X369229Y118000D01*
X370425Y118917D01*
X371343Y120113D01*
X371920Y121506D01*
X372050Y122500D01*
D02*
G37*
G36*
X365843D02*
X360634D01*
X360766Y121506D01*
X361342Y120113D01*
X362260Y118917D01*
X363456Y118000D01*
X364848Y117423D01*
X365843Y117292D01*
Y122500D01*
D02*
G37*
G36*
X31842Y112208D02*
Y107000D01*
X37051D01*
X36920Y107994D01*
X36343Y109387D01*
X35425Y110583D01*
X34229Y111500D01*
X32837Y112077D01*
X31842Y112208D01*
D02*
G37*
G36*
X30843D02*
X29848Y112077D01*
X28456Y111500D01*
X27260Y110583D01*
X26342Y109387D01*
X25765Y107994D01*
X25635Y107000D01*
X30843D01*
Y112208D01*
D02*
G37*
G36*
X366843Y108708D02*
Y103500D01*
X372050D01*
X371920Y104494D01*
X371343Y105887D01*
X370425Y107083D01*
X369229Y108000D01*
X367837Y108577D01*
X366843Y108708D01*
D02*
G37*
G36*
X365843D02*
X364848Y108577D01*
X363456Y108000D01*
X362260Y107083D01*
X361342Y105887D01*
X360766Y104494D01*
X360634Y103500D01*
X365843D01*
Y108708D01*
D02*
G37*
G36*
X37051Y106000D02*
X31842D01*
Y100792D01*
X32837Y100923D01*
X34229Y101500D01*
X35425Y102417D01*
X36343Y103613D01*
X36920Y105006D01*
X37051Y106000D01*
D02*
G37*
G36*
X30843D02*
X25635D01*
X25765Y105006D01*
X26342Y103613D01*
X27260Y102417D01*
X28456Y101500D01*
X29848Y100923D01*
X30843Y100792D01*
Y106000D01*
D02*
G37*
G36*
X372050Y102500D02*
X366843D01*
Y97292D01*
X367837Y97423D01*
X369229Y98000D01*
X370425Y98917D01*
X371343Y100113D01*
X371920Y101506D01*
X372050Y102500D01*
D02*
G37*
G36*
X365843D02*
X360634D01*
X360766Y101506D01*
X361342Y100113D01*
X362260Y98917D01*
X363456Y98000D01*
X364848Y97423D01*
X365843Y97292D01*
Y102500D01*
D02*
G37*
G36*
X31842Y92208D02*
Y87000D01*
X37051D01*
X36920Y87994D01*
X36343Y89387D01*
X35425Y90583D01*
X34229Y91500D01*
X32837Y92077D01*
X31842Y92208D01*
D02*
G37*
G36*
X30843D02*
X29848Y92077D01*
X28456Y91500D01*
X27260Y90583D01*
X26342Y89387D01*
X25765Y87994D01*
X25635Y87000D01*
X30843D01*
Y92208D01*
D02*
G37*
G36*
X372067Y88724D02*
X366843D01*
Y83500D01*
X372067D01*
Y88724D01*
D02*
G37*
G36*
X365843D02*
X360618D01*
Y83500D01*
X365843D01*
Y88724D01*
D02*
G37*
G36*
X37051Y86000D02*
X31842D01*
Y80792D01*
X32837Y80923D01*
X34229Y81500D01*
X35425Y82417D01*
X36343Y83613D01*
X36920Y85006D01*
X37051Y86000D01*
D02*
G37*
G36*
X30843D02*
X25635D01*
X25765Y85006D01*
X26342Y83613D01*
X27260Y82417D01*
X28456Y81500D01*
X29848Y80923D01*
X30843Y80792D01*
Y86000D01*
D02*
G37*
G36*
X372067Y82500D02*
X366843D01*
Y77276D01*
X372067D01*
Y82500D01*
D02*
G37*
G36*
X365843D02*
X360618D01*
Y77276D01*
X365843D01*
Y82500D01*
D02*
G37*
G36*
X222843Y65675D02*
Y61500D01*
X227017D01*
X226922Y62227D01*
X226448Y63370D01*
X225695Y64352D01*
X224713Y65105D01*
X223569Y65579D01*
X222843Y65675D01*
D02*
G37*
G36*
X124843D02*
Y61500D01*
X129017D01*
X128922Y62227D01*
X128448Y63370D01*
X127695Y64352D01*
X126713Y65105D01*
X125569Y65579D01*
X124843Y65675D01*
D02*
G37*
G36*
X221843D02*
X221116Y65579D01*
X219972Y65105D01*
X218990Y64352D01*
X218237Y63370D01*
X217763Y62227D01*
X217668Y61500D01*
X221843D01*
Y65675D01*
D02*
G37*
G36*
X123843D02*
X123116Y65579D01*
X121972Y65105D01*
X120990Y64352D01*
X120237Y63370D01*
X119764Y62227D01*
X119668Y61500D01*
X123843D01*
Y65675D01*
D02*
G37*
G36*
X227017Y60500D02*
X222843D01*
Y56325D01*
X223569Y56421D01*
X224713Y56895D01*
X225695Y57648D01*
X226448Y58630D01*
X226922Y59773D01*
X227017Y60500D01*
D02*
G37*
G36*
X129017D02*
X124843D01*
Y56325D01*
X125569Y56421D01*
X126713Y56895D01*
X127695Y57648D01*
X128448Y58630D01*
X128922Y59773D01*
X129017Y60500D01*
D02*
G37*
G36*
X221843D02*
X217668D01*
X217763Y59773D01*
X218237Y58630D01*
X218990Y57648D01*
X219972Y56895D01*
X221116Y56421D01*
X221843Y56325D01*
Y60500D01*
D02*
G37*
G36*
X123843D02*
X119668D01*
X119764Y59773D01*
X120237Y58630D01*
X120990Y57648D01*
X121972Y56895D01*
X123116Y56421D01*
X123843Y56325D01*
Y60500D01*
D02*
G37*
G36*
X212343Y65741D02*
X211116Y65579D01*
X209972Y65105D01*
X208990Y64352D01*
X208237Y63370D01*
X207764Y62227D01*
X207602Y61000D01*
X207764Y59773D01*
X208237Y58630D01*
X208990Y57648D01*
X209972Y56895D01*
X211116Y56421D01*
X212343Y56259D01*
X213569Y56421D01*
X214713Y56895D01*
X215695Y57648D01*
X216448Y58630D01*
X216921Y59773D01*
X217083Y61000D01*
X216921Y62227D01*
X216448Y63370D01*
X215695Y64352D01*
X214713Y65105D01*
X213569Y65579D01*
X212343Y65741D01*
D02*
G37*
G36*
X202343D02*
X201116Y65579D01*
X199972Y65105D01*
X198990Y64352D01*
X198237Y63370D01*
X197764Y62227D01*
X197602Y61000D01*
X197764Y59773D01*
X198237Y58630D01*
X198990Y57648D01*
X199972Y56895D01*
X201116Y56421D01*
X202343Y56259D01*
X203570Y56421D01*
X204713Y56895D01*
X205695Y57648D01*
X206448Y58630D01*
X206922Y59773D01*
X207083Y61000D01*
X206922Y62227D01*
X206448Y63370D01*
X205695Y64352D01*
X204713Y65105D01*
X203570Y65579D01*
X202343Y65741D01*
D02*
G37*
G36*
X192342D02*
X191116Y65579D01*
X189972Y65105D01*
X188990Y64352D01*
X188237Y63370D01*
X187764Y62227D01*
X187602Y61000D01*
X187764Y59773D01*
X188237Y58630D01*
X188990Y57648D01*
X189972Y56895D01*
X191116Y56421D01*
X192342Y56259D01*
X193570Y56421D01*
X194713Y56895D01*
X195695Y57648D01*
X196448Y58630D01*
X196922Y59773D01*
X197083Y61000D01*
X196922Y62227D01*
X196448Y63370D01*
X195695Y64352D01*
X194713Y65105D01*
X193570Y65579D01*
X192342Y65741D01*
D02*
G37*
G36*
X182343D02*
X181116Y65579D01*
X179972Y65105D01*
X178990Y64352D01*
X178237Y63370D01*
X177763Y62227D01*
X177602Y61000D01*
X177763Y59773D01*
X178237Y58630D01*
X178990Y57648D01*
X179972Y56895D01*
X181116Y56421D01*
X182343Y56259D01*
X183570Y56421D01*
X184713Y56895D01*
X185695Y57648D01*
X186448Y58630D01*
X186922Y59773D01*
X187083Y61000D01*
X186922Y62227D01*
X186448Y63370D01*
X185695Y64352D01*
X184713Y65105D01*
X183570Y65579D01*
X182343Y65741D01*
D02*
G37*
G36*
X114342D02*
X113116Y65579D01*
X111972Y65105D01*
X110990Y64352D01*
X110237Y63370D01*
X109764Y62227D01*
X109602Y61000D01*
X109764Y59773D01*
X110237Y58630D01*
X110990Y57648D01*
X111972Y56895D01*
X113116Y56421D01*
X114342Y56259D01*
X115569Y56421D01*
X116713Y56895D01*
X117695Y57648D01*
X118448Y58630D01*
X118922Y59773D01*
X119083Y61000D01*
X118922Y62227D01*
X118448Y63370D01*
X117695Y64352D01*
X116713Y65105D01*
X115569Y65579D01*
X114342Y65741D01*
D02*
G37*
G36*
X104342D02*
X103116Y65579D01*
X101972Y65105D01*
X100990Y64352D01*
X100237Y63370D01*
X99764Y62227D01*
X99602Y61000D01*
X99764Y59773D01*
X100237Y58630D01*
X100990Y57648D01*
X101972Y56895D01*
X103116Y56421D01*
X104342Y56259D01*
X105570Y56421D01*
X106713Y56895D01*
X107695Y57648D01*
X108448Y58630D01*
X108922Y59773D01*
X109083Y61000D01*
X108922Y62227D01*
X108448Y63370D01*
X107695Y64352D01*
X106713Y65105D01*
X105570Y65579D01*
X104342Y65741D01*
D02*
G37*
G36*
X94342D02*
X93116Y65579D01*
X91972Y65105D01*
X90990Y64352D01*
X90237Y63370D01*
X89763Y62227D01*
X89602Y61000D01*
X89763Y59773D01*
X90237Y58630D01*
X90990Y57648D01*
X91972Y56895D01*
X93116Y56421D01*
X94342Y56259D01*
X95569Y56421D01*
X96713Y56895D01*
X97695Y57648D01*
X98448Y58630D01*
X98922Y59773D01*
X99083Y61000D01*
X98922Y62227D01*
X98448Y63370D01*
X97695Y64352D01*
X96713Y65105D01*
X95569Y65579D01*
X94342Y65741D01*
D02*
G37*
G36*
X84342D02*
X83116Y65579D01*
X81972Y65105D01*
X80990Y64352D01*
X80237Y63370D01*
X79764Y62227D01*
X79602Y61000D01*
X79764Y59773D01*
X80237Y58630D01*
X80990Y57648D01*
X81972Y56895D01*
X83116Y56421D01*
X84342Y56259D01*
X85570Y56421D01*
X86713Y56895D01*
X87695Y57648D01*
X88448Y58630D01*
X88922Y59773D01*
X89083Y61000D01*
X88922Y62227D01*
X88448Y63370D01*
X87695Y64352D01*
X86713Y65105D01*
X85570Y65579D01*
X84342Y65741D01*
D02*
G37*
G36*
X276068Y44241D02*
Y39033D01*
X281276D01*
X281146Y40027D01*
X280569Y41420D01*
X279651Y42615D01*
X278455Y43533D01*
X277063Y44110D01*
X276068Y44241D01*
D02*
G37*
G36*
X275068D02*
X274074Y44110D01*
X272681Y43533D01*
X271486Y42615D01*
X270568Y41420D01*
X269991Y40027D01*
X269860Y39033D01*
X275068D01*
Y44241D01*
D02*
G37*
G36*
X166842Y39208D02*
Y34000D01*
X172050D01*
X171920Y34994D01*
X171343Y36387D01*
X170425Y37583D01*
X169229Y38500D01*
X167837Y39077D01*
X166842Y39208D01*
D02*
G37*
G36*
X165842D02*
X164848Y39077D01*
X163456Y38500D01*
X162260Y37583D01*
X161342Y36387D01*
X160766Y34994D01*
X160635Y34000D01*
X165842D01*
Y39208D01*
D02*
G37*
G36*
X146843D02*
Y34000D01*
X152050D01*
X151920Y34994D01*
X151343Y36387D01*
X150425Y37583D01*
X149229Y38500D01*
X147837Y39077D01*
X146843Y39208D01*
D02*
G37*
G36*
X145843D02*
X144848Y39077D01*
X143456Y38500D01*
X142260Y37583D01*
X141342Y36387D01*
X140766Y34994D01*
X140635Y34000D01*
X145843D01*
Y39208D01*
D02*
G37*
G36*
X281276Y38033D02*
X276068D01*
Y32825D01*
X277063Y32956D01*
X278455Y33532D01*
X279651Y34450D01*
X280569Y35646D01*
X281146Y37038D01*
X281276Y38033D01*
D02*
G37*
G36*
X275068D02*
X269860D01*
X269991Y37038D01*
X270568Y35646D01*
X271486Y34450D01*
X272681Y33532D01*
X274074Y32956D01*
X275068Y32825D01*
Y38033D01*
D02*
G37*
G36*
X301293Y44257D02*
X289844D01*
Y32808D01*
X301293D01*
Y44257D01*
D02*
G37*
G36*
X172050Y33000D02*
X166842D01*
Y27792D01*
X167837Y27923D01*
X169229Y28500D01*
X170425Y29417D01*
X171343Y30613D01*
X171920Y32006D01*
X172050Y33000D01*
D02*
G37*
G36*
X165842D02*
X160635D01*
X160766Y32006D01*
X161342Y30613D01*
X162260Y29417D01*
X163456Y28500D01*
X164848Y27923D01*
X165842Y27792D01*
Y33000D01*
D02*
G37*
G36*
X152050D02*
X146843D01*
Y27792D01*
X147837Y27923D01*
X149229Y28500D01*
X150425Y29417D01*
X151343Y30613D01*
X151920Y32006D01*
X152050Y33000D01*
D02*
G37*
G36*
X145843D02*
X140635D01*
X140766Y32006D01*
X141342Y30613D01*
X142260Y29417D01*
X143456Y28500D01*
X144848Y27923D01*
X145843Y27792D01*
Y33000D01*
D02*
G37*
G36*
X72067Y39224D02*
X60618D01*
Y27776D01*
X72067D01*
Y39224D01*
D02*
G37*
G36*
X126342Y39274D02*
X124848Y39077D01*
X123456Y38500D01*
X122260Y37583D01*
X121342Y36387D01*
X120765Y34994D01*
X120569Y33500D01*
X120765Y32006D01*
X121342Y30613D01*
X122260Y29417D01*
X123456Y28500D01*
X124848Y27923D01*
X126342Y27726D01*
X127837Y27923D01*
X129229Y28500D01*
X130425Y29417D01*
X131343Y30613D01*
X131920Y32006D01*
X132116Y33500D01*
X131920Y34994D01*
X131343Y36387D01*
X130425Y37583D01*
X129229Y38500D01*
X127837Y39077D01*
X126342Y39274D01*
D02*
G37*
G36*
X106342D02*
X104848Y39077D01*
X103456Y38500D01*
X102260Y37583D01*
X101342Y36387D01*
X100765Y34994D01*
X100569Y33500D01*
X100765Y32006D01*
X101342Y30613D01*
X102260Y29417D01*
X103456Y28500D01*
X104848Y27923D01*
X106342Y27726D01*
X107837Y27923D01*
X109229Y28500D01*
X110425Y29417D01*
X111343Y30613D01*
X111920Y32006D01*
X112116Y33500D01*
X111920Y34994D01*
X111343Y36387D01*
X110425Y37583D01*
X109229Y38500D01*
X107837Y39077D01*
X106342Y39274D01*
D02*
G37*
G36*
X86343D02*
X84848Y39077D01*
X83456Y38500D01*
X82260Y37583D01*
X81342Y36387D01*
X80765Y34994D01*
X80569Y33500D01*
X80765Y32006D01*
X81342Y30613D01*
X82260Y29417D01*
X83456Y28500D01*
X84848Y27923D01*
X86343Y27726D01*
X87837Y27923D01*
X89229Y28500D01*
X90425Y29417D01*
X91343Y30613D01*
X91920Y32006D01*
X92116Y33500D01*
X91920Y34994D01*
X91343Y36387D01*
X90425Y37583D01*
X89229Y38500D01*
X87837Y39077D01*
X86343Y39274D01*
D02*
G37*
G36*
X380709Y20730D02*
X379201Y20582D01*
X377750Y20142D01*
X376414Y19427D01*
X375243Y18466D01*
X374281Y17295D01*
X373567Y15958D01*
X373127Y14508D01*
X372978Y13000D01*
X373127Y11492D01*
X373567Y10042D01*
X374281Y8705D01*
X375243Y7534D01*
X376414Y6573D01*
X377750Y5858D01*
X379201Y5418D01*
X380709Y5270D01*
X382217Y5418D01*
X383667Y5858D01*
X385003Y6573D01*
X386175Y7534D01*
X387136Y8705D01*
X387850Y10042D01*
X388290Y11492D01*
X388439Y13000D01*
X388290Y14508D01*
X387850Y15958D01*
X387136Y17295D01*
X386175Y18466D01*
X385003Y19427D01*
X383667Y20142D01*
X382217Y20582D01*
X380709Y20730D01*
D02*
G37*
G36*
X12843D02*
X11334Y20582D01*
X9884Y20142D01*
X8548Y19427D01*
X7377Y18466D01*
X6415Y17295D01*
X5701Y15958D01*
X5261Y14508D01*
X5112Y13000D01*
X5261Y11492D01*
X5701Y10042D01*
X6415Y8705D01*
X7377Y7534D01*
X8548Y6573D01*
X9884Y5858D01*
X11334Y5418D01*
X12843Y5270D01*
X14351Y5418D01*
X15801Y5858D01*
X17137Y6573D01*
X18308Y7534D01*
X19270Y8705D01*
X19984Y10042D01*
X20424Y11492D01*
X20573Y13000D01*
X20424Y14508D01*
X19984Y15958D01*
X19270Y17295D01*
X18308Y18466D01*
X17137Y19427D01*
X15801Y20142D01*
X14351Y20582D01*
X12843Y20730D01*
D02*
G37*
%LPD*%
G36*
X256343Y362969D02*
X256713Y362895D01*
X257027Y362685D01*
X257237Y362371D01*
X257311Y362000D01*
X257313D01*
Y359377D01*
X257250Y359329D01*
X256813Y359192D01*
X255424Y360581D01*
X254928Y360913D01*
X254343Y361029D01*
X253268D01*
Y361550D01*
X245517D01*
Y360906D01*
X244830Y360620D01*
X244203Y360140D01*
X243722Y359513D01*
X243420Y358783D01*
X243323Y358052D01*
X243313Y358000D01*
X243319Y357973D01*
X243187Y357656D01*
X242869Y357524D01*
X242843Y357529D01*
X241913D01*
Y360717D01*
X242075Y360784D01*
Y362971D01*
X245517D01*
Y362450D01*
X253268D01*
Y362971D01*
X256343D01*
Y362969D01*
D02*
G37*
G36*
X193842Y343971D02*
X217276D01*
X217467Y343509D01*
X210998Y337039D01*
X197909D01*
X197639Y337692D01*
X196942Y338600D01*
X196035Y339297D01*
X194977Y339735D01*
X193842Y339884D01*
X192708Y339735D01*
X191650Y339297D01*
X190743Y338600D01*
X190046Y337692D01*
X189872Y337272D01*
X189372Y337371D01*
Y339500D01*
X189361Y339554D01*
X189507Y340662D01*
X189955Y341744D01*
X190669Y342674D01*
X191598Y343387D01*
X192681Y343835D01*
X193789Y343981D01*
X193842Y343971D01*
D02*
G37*
G36*
X216469Y336035D02*
Y325866D01*
X221356D01*
Y318988D01*
X196436D01*
X196035Y319297D01*
X194977Y319735D01*
X193842Y319884D01*
X192708Y319735D01*
X191650Y319297D01*
X190743Y318600D01*
X190046Y317692D01*
X189872Y317272D01*
X189372Y317371D01*
Y323629D01*
X189872Y323728D01*
X190046Y323308D01*
X190743Y322400D01*
X191650Y321703D01*
X192708Y321265D01*
X193342Y321182D01*
Y325500D01*
Y329818D01*
X192708Y329735D01*
X191650Y329297D01*
X190743Y328600D01*
X190046Y327692D01*
X189872Y327272D01*
X189372Y327371D01*
Y333629D01*
X189872Y333728D01*
X190046Y333308D01*
X190743Y332400D01*
X191650Y331703D01*
X192708Y331265D01*
X193842Y331116D01*
X194977Y331265D01*
X196035Y331703D01*
X196942Y332400D01*
X197373Y332961D01*
X211842D01*
X212623Y333116D01*
X213284Y333558D01*
X216045Y336319D01*
X216469Y336035D01*
D02*
G37*
G36*
X190046Y313308D02*
X190743Y312400D01*
X191019Y312188D01*
X191023Y312182D01*
X191849Y311549D01*
X192811Y311150D01*
X193842Y311015D01*
X222141D01*
X222547Y310787D01*
X222547Y310514D01*
Y309029D01*
X212842D01*
X212257Y308913D01*
X211761Y308581D01*
X209710Y306531D01*
X198091D01*
X198077Y306635D01*
X197639Y307692D01*
X196942Y308600D01*
X196035Y309297D01*
X194977Y309735D01*
X193842Y309884D01*
X192708Y309735D01*
X191650Y309297D01*
X190743Y308600D01*
X190046Y307692D01*
X189872Y307272D01*
X189372Y307371D01*
Y313629D01*
X189872Y313728D01*
X190046Y313308D01*
D02*
G37*
G36*
X187576Y343687D02*
X186880Y342384D01*
X186451Y340970D01*
X186306Y339500D01*
X186313D01*
Y267500D01*
X186308D01*
X186445Y266456D01*
X186848Y265483D01*
X187489Y264648D01*
X188324Y264007D01*
X189297Y263604D01*
X189959Y263517D01*
X190046Y263308D01*
X190743Y262400D01*
X191650Y261703D01*
X192708Y261265D01*
X193842Y261116D01*
X194977Y261265D01*
X196035Y261703D01*
X196942Y262400D01*
X197639Y263308D01*
X197914Y263971D01*
X199969D01*
Y259866D01*
Y257029D01*
X197914D01*
X197639Y257692D01*
X196942Y258600D01*
X196035Y259297D01*
X194977Y259735D01*
X193842Y259884D01*
X192708Y259735D01*
X191650Y259297D01*
X190743Y258600D01*
X190046Y257692D01*
X189771Y257029D01*
X187343D01*
X187298Y257021D01*
X186582Y257163D01*
X185937Y257594D01*
X185506Y258239D01*
X185363Y258956D01*
X185372Y259000D01*
Y339500D01*
X185365Y339536D01*
X185486Y340764D01*
X185855Y341980D01*
X186454Y343101D01*
X187187Y343994D01*
X187576Y343687D01*
D02*
G37*
%LPC*%
G36*
X194343Y329818D02*
Y326000D01*
X198161D01*
X198077Y326635D01*
X197639Y327692D01*
X196942Y328600D01*
X196035Y329297D01*
X194977Y329735D01*
X194343Y329818D01*
D02*
G37*
G36*
X198161Y325000D02*
X194343D01*
Y321182D01*
X194977Y321265D01*
X196035Y321703D01*
X196942Y322400D01*
X197639Y323308D01*
X198077Y324365D01*
X198161Y325000D01*
D02*
G37*
G36*
X108343Y273730D02*
Y271500D01*
X110572D01*
X110543Y271724D01*
X110264Y272398D01*
X109819Y272977D01*
X109240Y273421D01*
X108566Y273700D01*
X108343Y273730D01*
D02*
G37*
G36*
X107343D02*
X107119Y273700D01*
X106445Y273421D01*
X105866Y272977D01*
X105421Y272398D01*
X105142Y271724D01*
X105113Y271500D01*
X107343D01*
Y273730D01*
D02*
G37*
G36*
X311343Y257224D02*
X310491Y257055D01*
X309803Y256594D01*
X309394Y256606D01*
X309287Y256615D01*
X309133Y256846D01*
X308736Y257111D01*
X308268Y257205D01*
X302961D01*
X302492Y257111D01*
X302095Y256846D01*
X301830Y256449D01*
X301736Y255980D01*
Y254020D01*
X301830Y253551D01*
X302095Y253154D01*
X302492Y252889D01*
X302961Y252795D01*
X308268D01*
X308736Y252889D01*
X309133Y253154D01*
X309287Y253384D01*
X309394Y253394D01*
X309803Y253405D01*
X310491Y252945D01*
X311343Y252776D01*
X312193Y252945D01*
X312915Y253428D01*
X313397Y254149D01*
X313566Y255000D01*
X313397Y255851D01*
X312915Y256573D01*
X312193Y257055D01*
X311343Y257224D01*
D02*
G37*
%LPD*%
D19*
X91343Y358500D02*
X90346Y358429D01*
X89370Y358216D01*
X88435Y357867D01*
X87558Y357389D01*
X86759Y356790D01*
X86052Y356084D01*
X85454Y355285D01*
X84975Y354408D01*
X84626Y353472D01*
X84414Y352496D01*
X84342Y351500D01*
X193842Y205001D02*
X194344Y204500D01*
X193842Y205001D02*
X194344Y204500D01*
X183843Y259000D02*
X184014Y257918D01*
X184511Y256943D01*
X185285Y256168D01*
X186261Y255671D01*
X187343Y255500D01*
X191842Y347500D02*
X190878Y347442D01*
X189928Y347268D01*
X189006Y346980D01*
X188125Y346584D01*
X187298Y346084D01*
X186538Y345488D01*
X185854Y344805D01*
X185259Y344044D01*
X184759Y343218D01*
X184362Y342337D01*
X184075Y341414D01*
X183901Y340464D01*
X183843Y339500D01*
X239004Y357000D02*
X239297Y356293D01*
X240004Y356000D01*
X252842Y347500D02*
X253770Y347647D01*
X254606Y348073D01*
X255270Y348737D01*
X255696Y349573D01*
X255842Y350500D01*
X242843Y356000D02*
X243843Y356268D01*
X244575Y357000D01*
X244843Y358000D01*
X246342Y359500D02*
X245282Y359061D01*
X244843Y358000D01*
X187843Y267500D02*
X188033Y266544D01*
X188574Y265733D01*
X189385Y265192D01*
X190341Y265002D01*
X193842Y345500D02*
X192801Y345409D01*
X191790Y345138D01*
X190842Y344696D01*
X189986Y344096D01*
X189246Y343357D01*
X188646Y342500D01*
X188204Y341552D01*
X187934Y340542D01*
X187843Y339500D01*
X258842Y362000D02*
X258652Y362957D01*
X258110Y363768D01*
X257299Y364310D01*
X256343Y364500D01*
X255842Y345500D02*
X256770Y345647D01*
X257606Y346073D01*
X258270Y346737D01*
X258696Y347573D01*
X258842Y348500D01*
X92254Y257441D02*
X91338Y257195D01*
X90667Y256525D01*
X90421Y255608D01*
Y259274D02*
X90667Y258357D01*
X91338Y257686D01*
X92254Y257441D01*
X91862Y305941D02*
X90843Y305519D01*
X90421Y304500D01*
X90421Y350079D02*
X90421Y350096D01*
X91362Y305941D02*
X91343Y305941D01*
X90421Y307500D02*
X90878Y306398D01*
X91980Y305941D01*
X91789Y352917D02*
X90822Y352517D01*
X90421Y351549D01*
X187843Y210000D02*
X187939Y209025D01*
X188223Y208087D01*
X188685Y207223D01*
X189307Y206466D01*
X190064Y205844D01*
X190928Y205382D01*
X191866Y205098D01*
X192841Y205001D01*
X314504Y203339D02*
X314349Y204315D01*
X313900Y205197D01*
X313201Y205896D01*
X312319Y206345D01*
X311343Y206500D01*
X249843Y204500D02*
X250799Y204690D01*
X251610Y205232D01*
X252152Y206043D01*
X252343Y207000D01*
X252842Y206500D01*
X115842Y220500D02*
X114761Y220329D01*
X113785Y219832D01*
X113011Y219057D01*
X112514Y218082D01*
X112343Y217000D01*
X187843Y212000D02*
X187780Y213024D01*
X187595Y214034D01*
X187290Y215014D01*
X186869Y215950D01*
X186338Y216828D01*
X185705Y217636D01*
X184979Y218362D01*
X184171Y218995D01*
X183293Y219526D01*
X182357Y219948D01*
X181377Y220253D01*
X180367Y220438D01*
X179342Y220500D01*
X84342Y207538D02*
X84395Y206541D01*
X84551Y205555D01*
X84809Y204591D01*
X85167Y203659D01*
X85620Y202769D01*
X86164Y201932D01*
X86792Y201156D01*
X87498Y200450D01*
X88274Y199822D01*
X89112Y199278D01*
X90001Y198825D01*
X90933Y198467D01*
X91897Y198208D01*
X92883Y198052D01*
X93880Y198000D01*
X112789D02*
X113793Y198072D01*
X114776Y198286D01*
X115719Y198637D01*
X116603Y199120D01*
X117408Y199723D01*
X118120Y200434D01*
X118723Y201240D01*
X119205Y202123D01*
X119557Y203066D01*
X119771Y204050D01*
X119843Y205053D01*
X178842Y204500D02*
X178934Y203458D01*
X179204Y202448D01*
X179646Y201500D01*
X180246Y200643D01*
X180986Y199904D01*
X181843Y199304D01*
X182790Y198862D01*
X183801Y198591D01*
X184843Y198500D01*
X98252Y214059D02*
X99262Y214477D01*
X99680Y215487D01*
X178842Y209500D02*
X178746Y210475D01*
X178462Y211413D01*
X178000Y212278D01*
X177378Y213035D01*
X176620Y213657D01*
X175756Y214119D01*
X174818Y214404D01*
X173843Y214500D01*
X124343Y215000D02*
X123341Y214887D01*
X122390Y214554D01*
X121537Y214018D01*
X120824Y213306D01*
X120288Y212453D01*
X119955Y211501D01*
X119843Y210500D01*
X276343Y198500D02*
X277299Y198690D01*
X278110Y199232D01*
X278652Y200043D01*
X278842Y201000D01*
X98998Y262620D02*
X99343Y262681D01*
X99269Y311000D02*
X99843Y311181D01*
X90976Y355634D02*
X90036Y355510D01*
X89159Y355147D01*
X88407Y354570D01*
X87829Y353817D01*
X87466Y352941D01*
X87343Y352000D01*
X133918Y202035D02*
X133966Y201055D01*
X134110Y200084D01*
X134349Y199132D01*
X134679Y198208D01*
X135099Y197321D01*
X135603Y196480D01*
X136188Y195691D01*
X136847Y194964D01*
X137574Y194305D01*
X138362Y193721D01*
X139204Y193216D01*
X140091Y192797D01*
X141015Y192466D01*
X141967Y192227D01*
X142938Y192083D01*
X143918Y192035D01*
X283724Y203382D02*
X282834Y203241D01*
X282031Y202832D01*
X281393Y202194D01*
X280984Y201391D01*
X280842Y200500D01*
X309386Y202045D02*
X308994Y202990D01*
X308049Y203382D01*
X106342Y216350D02*
X106127Y217432D01*
X105515Y218349D01*
X104597Y218962D01*
X103516Y219177D01*
X284768Y148500D02*
X284842Y148575D01*
X287992Y198850D02*
X287842Y199000D01*
X337417Y176500D02*
X337343Y176425D01*
X338342Y149575D02*
X338417Y149500D01*
X229343Y253000D02*
X229268Y253075D01*
X287992Y198850D02*
X287842Y199000D01*
X106342Y216350D02*
X106127Y217432D01*
X105515Y218349D01*
X104597Y218962D01*
X103516Y219177D01*
X282142Y177500D02*
X282567Y177925D01*
X299693Y199650D02*
X299417Y199925D01*
X309386Y202045D02*
X308994Y202990D01*
X308049Y203382D01*
X283724D02*
X282834Y203241D01*
X282031Y202832D01*
X281393Y202194D01*
X280984Y201391D01*
X280842Y200500D01*
X218342Y192500D02*
X218807Y192035D01*
X278378D02*
X279321Y192223D01*
X280121Y192757D01*
X280655Y193557D01*
X280842Y194500D01*
X133918Y202035D02*
X133966Y201055D01*
X134110Y200084D01*
X134349Y199132D01*
X134679Y198208D01*
X135099Y197321D01*
X135603Y196480D01*
X136188Y195691D01*
X136847Y194964D01*
X137574Y194305D01*
X138362Y193721D01*
X139204Y193216D01*
X140091Y192797D01*
X141015Y192466D01*
X141967Y192227D01*
X142938Y192083D01*
X143918Y192035D01*
X90976Y355634D02*
X90036Y355510D01*
X89159Y355147D01*
X88407Y354570D01*
X87829Y353817D01*
X87466Y352941D01*
X87343Y352000D01*
X99269Y311000D02*
X99843Y311181D01*
X98999Y262620D02*
X99342Y262681D01*
X311945Y203414D02*
X311515Y204452D01*
X310477Y204882D01*
X282724D02*
X281720Y204750D01*
X280784Y204362D01*
X279979Y203745D01*
X279363Y202941D01*
X278975Y202005D01*
X278842Y201000D01*
X178842Y204500D02*
X178934Y203458D01*
X179204Y202448D01*
X179646Y201500D01*
X180246Y200643D01*
X180986Y199904D01*
X181843Y199304D01*
X182790Y198862D01*
X183801Y198591D01*
X184843Y198500D01*
X178842Y209500D02*
X178746Y210475D01*
X178462Y211413D01*
X178000Y212278D01*
X177378Y213035D01*
X176620Y213657D01*
X175756Y214119D01*
X174818Y214404D01*
X173843Y214500D01*
X276343Y198500D02*
X277299Y198690D01*
X278110Y199232D01*
X278652Y200043D01*
X278842Y201000D01*
X98252Y214059D02*
X99262Y214477D01*
X99680Y215487D01*
X124343Y215000D02*
X123341Y214887D01*
X122390Y214554D01*
X121537Y214018D01*
X120824Y213306D01*
X120288Y212453D01*
X119955Y211501D01*
X119843Y210500D01*
X112789Y198000D02*
X113793Y198072D01*
X114776Y198286D01*
X115719Y198637D01*
X116603Y199120D01*
X117408Y199723D01*
X118120Y200434D01*
X118723Y201240D01*
X119205Y202123D01*
X119557Y203066D01*
X119771Y204050D01*
X119843Y205053D01*
X84342Y207538D02*
X84395Y206541D01*
X84551Y205555D01*
X84809Y204591D01*
X85167Y203659D01*
X85620Y202769D01*
X86164Y201932D01*
X86792Y201156D01*
X87498Y200450D01*
X88274Y199822D01*
X89112Y199278D01*
X90001Y198825D01*
X90933Y198467D01*
X91897Y198208D01*
X92883Y198052D01*
X93880Y198000D01*
X93778Y352917D02*
X94620Y353379D01*
X91967Y305941D02*
X91980Y305941D01*
X92239Y257441D02*
X92254Y257441D01*
X91362Y305941D02*
X91343Y305941D01*
X252343Y207000D02*
X252842Y206500D01*
X249843Y204500D02*
X250799Y204690D01*
X251610Y205232D01*
X252152Y206043D01*
X252343Y207000D01*
X187843Y210000D02*
X187939Y209025D01*
X188223Y208087D01*
X188685Y207223D01*
X189307Y206466D01*
X190064Y205844D01*
X190928Y205382D01*
X191866Y205098D01*
X192841Y205001D01*
X314504Y203339D02*
X314349Y204315D01*
X313900Y205197D01*
X313201Y205896D01*
X312319Y206345D01*
X311343Y206500D01*
X187843Y212000D02*
X187780Y213024D01*
X187595Y214034D01*
X187290Y215014D01*
X186869Y215950D01*
X186338Y216828D01*
X185705Y217636D01*
X184979Y218362D01*
X184171Y218995D01*
X183293Y219526D01*
X182357Y219948D01*
X181377Y220253D01*
X180367Y220438D01*
X179342Y220500D01*
X115842Y220500D02*
X114761Y220329D01*
X113785Y219832D01*
X113011Y219057D01*
X112514Y218082D01*
X112343Y217000D01*
X109178Y209088D02*
X110199Y209457D01*
X111082Y210086D01*
X111765Y210929D01*
X112195Y211925D01*
X112343Y213000D01*
X108973Y209067D02*
X109178Y209088D01*
X102760Y209067D02*
X102339Y208996D01*
X102011Y208941D02*
X102339Y208996D01*
X90421Y307486D02*
X90878Y306398D01*
X91967Y305941D01*
X91862Y305941D02*
X90848Y305523D01*
X90421Y304513D01*
X90421Y307500D02*
X90421Y307486D01*
X90421Y350092D02*
X90421Y350096D01*
X90421Y350079D02*
Y350092D01*
Y350079D02*
Y350079D01*
X90421Y259274D02*
X90421Y259259D01*
Y304513D02*
X90421Y304500D01*
X91932Y257470D02*
X92239Y257441D01*
X90421Y259259D02*
X90620Y258443D01*
X91161Y257802D01*
X91932Y257470D01*
X92239Y257441D02*
X91333Y257193D01*
X90669Y256529D01*
X90421Y255623D01*
X92254Y257441D02*
X92239Y257441D01*
X90421Y210207D02*
X90792Y209312D01*
X91687Y208941D01*
X90421Y255623D02*
X90421Y255608D01*
X258842Y362000D02*
X258652Y362957D01*
X258110Y363768D01*
X257299Y364310D01*
X256343Y364500D01*
X255842Y345500D02*
X256770Y345647D01*
X257606Y346073D01*
X258270Y346737D01*
X258696Y347573D01*
X258842Y348500D01*
X193842Y345500D02*
X192801Y345409D01*
X191790Y345138D01*
X190842Y344696D01*
X189986Y344096D01*
X189246Y343357D01*
X188646Y342500D01*
X188204Y341552D01*
X187934Y340542D01*
X187843Y339500D01*
Y267500D02*
X188033Y266544D01*
X188574Y265733D01*
X189385Y265192D01*
X190341Y265002D01*
X246342Y359500D02*
X245282Y359061D01*
X244843Y358000D01*
X242843Y356000D02*
X243843Y356268D01*
X244575Y357000D01*
X244843Y358000D01*
X252842Y347500D02*
X253770Y347647D01*
X254606Y348073D01*
X255270Y348737D01*
X255696Y349573D01*
X255842Y350500D01*
X239004Y357000D02*
X239297Y356293D01*
X240004Y356000D01*
X191842Y347500D02*
X190878Y347442D01*
X189928Y347268D01*
X189006Y346980D01*
X188125Y346584D01*
X187298Y346084D01*
X186538Y345488D01*
X185854Y344805D01*
X185259Y344044D01*
X184759Y343218D01*
X184362Y342337D01*
X184075Y341414D01*
X183901Y340464D01*
X183843Y339500D01*
Y259000D02*
X184014Y257918D01*
X184511Y256943D01*
X185285Y256168D01*
X186261Y255671D01*
X187343Y255500D01*
X133843Y205000D02*
X133918Y204012D01*
X335092Y284750D02*
X344843Y294500D01*
X372342D02*
X374843Y297000D01*
X344843Y294500D02*
X372342D01*
X45342Y345000D02*
X52457D01*
X290861Y183575D02*
X304268D01*
X288361Y186075D02*
X290861Y183575D01*
X30843Y213500D02*
Y214000D01*
X40843Y203500D02*
X50642D01*
X30843Y213500D02*
X40843Y203500D01*
X30843Y234000D02*
X31343Y233500D01*
X47404Y235772D02*
X53510D01*
X45132Y233500D02*
X47404Y235772D01*
X31343Y233500D02*
X45132D01*
X53510Y235772D02*
X56343Y232939D01*
Y229061D02*
Y232939D01*
X30843Y254000D02*
X31343Y254500D01*
X50642D01*
X63244Y271000D02*
X66257D01*
X36132Y274000D02*
X47404Y285272D01*
X30843Y274000D02*
X36132D01*
X49642Y296500D02*
X50642Y297500D01*
X30843Y294000D02*
X32267D01*
X34767Y296500D01*
X49642D01*
X30843Y314000D02*
X32120Y315278D01*
X34545D01*
X34767Y315500D02*
X50642D01*
X34545Y315278D02*
X34767Y315500D01*
X30843Y334000D02*
X32267D01*
X34767Y336500D01*
X52142D01*
X30843Y354000D02*
X52142D01*
X64193Y358500D02*
Y361500D01*
Y353850D02*
Y358500D01*
X72063D01*
X64193Y353850D02*
X64543Y353500D01*
X64228Y353185D02*
X64543Y353500D01*
X91343Y358500D02*
X94622D01*
X107846Y203319D02*
X113662D01*
X107343Y203823D02*
X107846Y203319D01*
X373843Y248000D02*
X383842Y238000D01*
X371342Y136500D02*
X379343Y144500D01*
X375842Y133500D02*
X383842Y141500D01*
X379343Y144500D02*
Y203000D01*
X383842Y141500D02*
Y238000D01*
X374843Y207500D02*
X379343Y203000D01*
X282724Y204882D02*
X310477D01*
X283724Y203382D02*
X308049D01*
X90421Y255608D02*
Y257603D01*
Y259274D01*
Y304500D02*
Y306000D01*
Y307500D01*
Y350079D01*
Y350096D02*
Y351549D01*
X90584Y257441D02*
X92254D01*
X91789Y352917D02*
X93778D01*
X108343Y209067D02*
X108973D01*
X192841Y205001D02*
X193842D01*
X63043Y222500D02*
Y223602D01*
X61161Y225484D02*
X63043Y223602D01*
X59920Y225484D02*
X61161D01*
X56343Y229061D02*
X59920Y225484D01*
X56965Y277939D02*
X60419Y274484D01*
X56965Y277939D02*
Y281817D01*
X60419Y274484D02*
X61362D01*
X63244Y271500D02*
Y272602D01*
X53510Y285272D02*
X56965Y281817D01*
X47404Y285272D02*
X53510D01*
X61362Y274484D02*
X63244Y272602D01*
X52142Y353500D02*
X55343D01*
X193842Y305001D02*
X210344D01*
X295708Y241754D02*
X300954D01*
X285396Y175000D02*
X291399D01*
X294399Y178000D01*
X292342Y148000D02*
X299614D01*
X187343Y255500D02*
X193842D01*
X183843Y259000D02*
Y339500D01*
X191842Y347500D02*
X252842D01*
X240004Y356000D02*
X242843D01*
X246342Y359500D02*
X249393D01*
X190341Y265001D02*
X193842D01*
X187843Y267500D02*
Y339500D01*
X193842Y345500D02*
X255842D01*
X258842Y348500D02*
Y362000D01*
X249393Y364500D02*
X256343D01*
X330842Y158000D02*
X333842Y155000D01*
X329842Y141925D02*
X338342D01*
X328458D02*
X329842D01*
X328458D02*
X328842D01*
X319342Y185500D02*
X336417D01*
X282842Y139925D02*
X290342D01*
X277428D02*
X282842D01*
X193842Y245001D02*
X223266D01*
X216508Y285500D02*
X224437D01*
X51957Y362500D02*
Y370000D01*
Y362035D02*
Y362500D01*
X72677Y355941D02*
X75305D01*
X78373D01*
X50142Y271500D02*
X51642Y270000D01*
X62693Y263500D02*
X62843D01*
X62343D02*
X62843D01*
X62693D02*
X62843D01*
X63342Y263000D01*
Y263500D02*
X66823D01*
X49957Y271685D02*
X50142Y271500D01*
X62843Y263500D02*
X63342D01*
X50457Y246500D02*
X50957Y246000D01*
X50492Y263047D02*
X54843Y258697D01*
Y254500D02*
Y255000D01*
Y258697D01*
X50992Y305000D02*
X53622Y307630D01*
X62728Y315500D02*
Y322000D01*
X57842Y287500D02*
X59862Y289520D01*
X62693Y295850D02*
Y304453D01*
Y305000D02*
X64252Y306559D01*
X62193Y205350D02*
Y212500D01*
X63193Y211500D01*
X63043Y197087D02*
Y204500D01*
X283642Y368500D02*
X284642Y369500D01*
X90480Y305941D02*
X91343D01*
Y305921D02*
Y305941D01*
X91362Y305941D02*
X91862D01*
X194344Y204500D02*
X249843D01*
X252842Y206500D02*
X311343D01*
X92254Y257441D02*
X94622D01*
X91862Y305941D02*
X91980D01*
X187843Y210000D02*
Y212000D01*
X112343Y213000D02*
Y217000D01*
X115842Y220500D02*
X179342D01*
X102760Y209067D02*
X108343D01*
X91980Y305941D02*
X94622D01*
X90421Y210207D02*
Y255608D01*
Y259274D02*
Y304500D01*
X84342Y207538D02*
Y214000D01*
X93880Y198000D02*
X112789D01*
X94622Y214059D02*
X98252D01*
X94183Y262620D02*
X98998D01*
X94622Y311000D02*
X99269D01*
X119843Y205053D02*
Y210500D01*
X178842Y204500D02*
Y209500D01*
X184843Y198500D02*
X276343D01*
X124343Y215000D02*
X133843D01*
X134343Y214500D02*
X173843D01*
X99343Y262681D02*
X100343Y263681D01*
X87343Y308319D02*
Y352000D01*
X94303Y259819D02*
X100024D01*
X94595Y355634D02*
X94902Y355941D01*
X280842Y194500D02*
Y200500D01*
X309386Y199142D02*
Y202045D01*
X143918Y192035D02*
X278378D01*
X321071Y178000D02*
X331939D01*
X329361Y150075D02*
X329842D01*
X327286Y148000D02*
X329361Y150075D01*
X329842Y147086D02*
Y150075D01*
X74228Y194535D02*
Y195500D01*
X94622Y219177D02*
X103516D01*
X61728Y279500D02*
X69342D01*
X113842Y343000D02*
X122343D01*
X278842Y148500D02*
X284768D01*
X274342Y177000D02*
X282917D01*
X287842Y199000D02*
Y200000D01*
X289211Y216000D02*
X293551D01*
X337417Y176500D02*
X343342D01*
X338417Y149500D02*
X344342D01*
X327299Y203500D02*
Y205500D01*
X117969Y295000D02*
X133843D01*
X116342Y275000D02*
X133843D01*
X107343Y253150D02*
X107843Y253650D01*
X103842Y343850D02*
X103992Y344000D01*
X223342Y253075D02*
X229268D01*
X71592Y257470D02*
X76813D01*
X71092Y305970D02*
X76813D01*
X241342Y376150D02*
Y382000D01*
X281842Y236425D02*
X282268Y236000D01*
X281842Y236425D02*
Y240500D01*
X109588Y303382D02*
X117969Y295000D01*
X94622Y303382D02*
X109588D01*
X107693Y294000D02*
X114342D01*
X95842Y288000D02*
Y293850D01*
X305614Y278000D02*
X306886D01*
X304343D02*
X305614D01*
Y276728D02*
Y278000D01*
X64925Y219516D02*
X66230D01*
X54909Y217370D02*
X58530D01*
X67339Y215849D02*
Y215888D01*
X63043Y221398D02*
X64925Y219516D01*
X63043Y221398D02*
Y221949D01*
X67339Y215849D02*
X68821Y214366D01*
X71756D02*
X72063Y214059D01*
X65856Y217370D02*
X67339Y215888D01*
X68821Y216925D02*
X71756D01*
X68821Y214366D02*
X71756D01*
X58530Y217370D02*
X65856D01*
X66230Y219516D02*
X68821Y216925D01*
X55343Y353500D02*
X58842Y357000D01*
X58776Y360384D02*
X58842Y360317D01*
Y357000D02*
Y360317D01*
X57275Y363086D02*
Y377433D01*
X59342Y379500D01*
X68343D01*
X58776Y376812D02*
X59964Y378000D01*
X58776Y360384D02*
Y376812D01*
X59964Y378000D02*
X67499D01*
X68343Y379500D02*
X77764Y370079D01*
X67499Y378000D02*
X76264Y369236D01*
X51957Y362035D02*
X52421Y362500D01*
X56690D01*
X57275Y363086D01*
X77764Y358707D02*
Y370079D01*
X257699Y299330D02*
Y300018D01*
Y313044D01*
X254743Y316000D02*
X257699Y313044D01*
Y299330D02*
X258844Y298185D01*
Y297998D02*
Y298185D01*
Y297998D02*
X259343Y297500D01*
X263799D01*
X306614Y136500D02*
X371342D01*
X299614Y143500D02*
X306614Y136500D01*
X273843Y170000D02*
X278118Y174276D01*
X284671D01*
X285396Y175000D01*
X287842Y158500D02*
X288342Y158000D01*
X299614D01*
X300114Y157500D01*
X273843Y139890D02*
Y170000D01*
X106020Y350823D02*
X108343Y348500D01*
X94622Y350823D02*
X106020D01*
X108343Y326500D02*
Y348500D01*
X103842Y338000D02*
Y343850D01*
X94622Y348264D02*
X96036D01*
X96343Y347957D01*
Y346542D02*
Y347957D01*
Y346542D02*
X97948Y344938D01*
X99362D01*
X100409Y343891D01*
X100909Y342477D02*
Y343891D01*
X287992Y193000D02*
Y198850D01*
X63728Y370000D02*
X69842D01*
X108343Y326500D02*
X119343Y315500D01*
X94799Y316000D02*
X100842D01*
X94622Y316177D02*
X94799Y316000D01*
X94803Y308319D02*
X104162D01*
X104342Y308500D01*
X94622D02*
X94803Y308319D01*
X100024Y311000D02*
X100842D01*
X99843Y311181D02*
X100024Y311000D01*
X113842Y261817D02*
Y272500D01*
X112713Y260687D02*
X113842Y261817D01*
X111959Y259933D02*
X112713Y260687D01*
X110716Y258691D02*
X111959Y259933D01*
X103325Y258691D02*
X110716D01*
X100343Y263681D02*
Y264000D01*
X107843Y216850D02*
Y223000D01*
X107343Y216350D02*
X107843Y216850D01*
X116935Y202801D02*
Y212407D01*
X116842Y212500D02*
X116935Y212407D01*
X114366Y200232D02*
X116935Y202801D01*
X92719Y200232D02*
X114366D01*
X99693Y215500D02*
X100343D01*
X94744Y211622D02*
X101274D01*
X94622Y211500D02*
X94744Y211622D01*
X99680Y215487D02*
X99693Y215500D01*
X94622Y203823D02*
X106342D01*
X90421Y202530D02*
X92719Y200232D01*
X90421Y202530D02*
Y205579D01*
X90917Y206075D01*
X100024Y259819D02*
X100343Y259500D01*
X99516Y254882D02*
X103325Y258691D01*
X94622Y254882D02*
X99516D01*
X94945Y252000D02*
X100343D01*
X94622Y252323D02*
X94945Y252000D01*
X100343D02*
X104693D01*
X54843Y254500D02*
X62543D01*
X66843Y267384D02*
Y270414D01*
X68801Y265425D02*
X71256D01*
X66843Y267384D02*
X68801Y265425D01*
X66827Y257984D02*
X68555Y259713D01*
X64425Y257984D02*
X66827D01*
X62543Y256102D02*
X64425Y257984D01*
X68555Y259713D02*
X71276D01*
X72004Y311000D02*
X72063Y311059D01*
X63043Y312500D02*
X64173Y311370D01*
X66726Y311000D02*
X72004D01*
X66356Y311370D02*
X66726Y311000D01*
X64173Y311370D02*
X66356D01*
X53622Y307630D02*
Y308780D01*
X59747Y314905D01*
X62448D01*
X63043Y315500D01*
X56842Y316500D02*
Y328414D01*
X51737Y313595D02*
X53938D01*
X56842Y316500D01*
X54184Y328192D02*
Y329938D01*
X50957Y324965D02*
X54184Y328192D01*
X67343Y314511D02*
Y328414D01*
X57428Y329000D02*
X66757D01*
X56842Y328414D02*
X57428Y329000D01*
X66757D02*
X67343Y328414D01*
X54184Y329938D02*
X54444Y330199D01*
X50957Y324000D02*
Y324965D01*
X67928Y313925D02*
X70756D01*
X67343Y314511D02*
X67928Y313925D01*
X64252Y308409D02*
X70973D01*
X64252Y306559D02*
Y308409D01*
X71276Y259713D02*
X71563Y260000D01*
X62543Y255000D02*
Y256102D01*
X277842Y368500D02*
Y369325D01*
X277667Y369500D02*
X277842Y369325D01*
Y368500D02*
X283642D01*
X104693Y252000D02*
X105342Y252650D01*
X87343Y260000D02*
Y308319D01*
X242829Y281628D02*
X245988Y278469D01*
X242829Y281628D02*
Y282513D01*
X245988Y278469D02*
X246382D01*
X242342Y283000D02*
X242829Y282513D01*
X239843Y285500D02*
X242342Y283000D01*
X234748Y285500D02*
X239843D01*
X107843Y264350D02*
Y271000D01*
X113842Y272500D02*
X116342Y275000D01*
X94622Y267677D02*
X101563D01*
X104890Y264350D01*
X105342D01*
X59862Y291217D02*
X63043Y294398D01*
X59862Y289520D02*
Y291217D01*
X63043Y294398D02*
Y295500D01*
X254743Y316000D02*
X256842Y318100D01*
Y334000D01*
X263799D01*
X71842Y316398D02*
Y320500D01*
Y316398D02*
X72063Y316177D01*
Y363618D02*
Y367780D01*
X69842Y370000D02*
X72063Y367780D01*
X76264Y362325D02*
Y369236D01*
X69342Y287228D02*
X69614Y287500D01*
X69342Y279500D02*
Y287228D01*
X68829Y189136D02*
X74228Y194535D01*
X68343Y187500D02*
X68829Y187987D01*
Y189136D01*
X288711Y216500D02*
X289211Y216000D01*
X288342Y216500D02*
X288711D01*
X288992Y223047D02*
Y223500D01*
X291689Y217862D02*
X293551Y216000D01*
X281842Y245500D02*
Y273000D01*
X284268Y243075D02*
X297342D01*
X281842Y245500D02*
X284268Y243075D01*
X278842Y276000D02*
Y283000D01*
Y276000D02*
X281842Y273000D01*
X278842Y283000D02*
X280592Y284750D01*
X282343Y280000D02*
X287768D01*
X280592Y284750D02*
X335092D01*
X287768Y280000D02*
X287842Y280075D01*
X288992Y223047D02*
X291689Y220350D01*
Y217862D02*
Y220350D01*
X290917Y236000D02*
X291992Y234925D01*
X297342D01*
X241193Y376000D02*
X241342Y376150D01*
X241193Y376000D02*
X242693Y374500D01*
X249393D01*
X263342Y361000D02*
X266843Y364500D01*
X270843D01*
X329858Y221858D02*
Y228016D01*
X332343Y230500D01*
X335842Y260000D02*
X335984D01*
X341409Y254575D02*
X341843D01*
X335984Y260000D02*
X341409Y254575D01*
X336842Y261000D02*
Y264425D01*
X335842Y260000D02*
X336842Y261000D01*
X256842Y264000D02*
Y270725D01*
X80843Y281000D02*
Y296424D01*
X76443Y300823D02*
X80843Y296424D01*
X84342Y311000D02*
Y351500D01*
X93343Y278000D02*
X126344D01*
X84342Y262500D02*
Y311000D01*
X95842Y293850D02*
X95992Y294000D01*
X126344Y278000D02*
X133843Y285499D01*
X94622Y295870D02*
X95992Y294500D01*
X94622Y295870D02*
Y300823D01*
X72063Y219177D02*
Y225280D01*
X70342Y227000D02*
X72063Y225280D01*
X70342Y227000D02*
Y231000D01*
X62228D02*
X70342D01*
X72063Y208941D02*
X72092Y208970D01*
X76813D01*
X76842Y209000D01*
X76813Y257470D02*
X76842Y257500D01*
X76813Y305970D02*
X76842Y306000D01*
X71063Y305941D02*
X71092Y305970D01*
X77201Y353321D02*
X77262Y353260D01*
X72404Y353321D02*
X77201D01*
X72342Y353382D02*
X72404Y353321D01*
X79943Y345809D02*
Y354370D01*
X70634Y336500D02*
X79943Y345809D01*
X78373Y355941D02*
X79943Y354370D01*
X193842Y255500D02*
X208343D01*
X208842Y255000D01*
X208343Y265500D02*
X208842Y265000D01*
X193842Y265500D02*
X208343D01*
X133417Y348500D02*
X141842D01*
X93843Y336500D02*
X94103Y336239D01*
Y326239D02*
X96842Y323500D01*
X94103Y326239D02*
Y336239D01*
X119343Y315500D02*
X133841D01*
X129842Y335500D02*
X133841D01*
X133843Y335499D01*
X122343Y343000D02*
X129842Y335500D01*
X125268Y344075D02*
Y348500D01*
X126342Y343000D02*
X138342D01*
X125268Y344075D02*
X126342Y343000D01*
X125201Y348567D02*
X125268Y348500D01*
X134799Y326455D02*
X137798D01*
X133843Y325499D02*
X134799Y326455D01*
X137798D02*
X140842Y329500D01*
Y340500D01*
X138342Y343000D02*
X140842Y340500D01*
X125201Y348567D02*
Y357205D01*
X92597Y363618D02*
X94622D01*
X92289Y363925D02*
X92597Y363618D01*
X94622D02*
X94740Y363500D01*
X99843D01*
X64543Y336500D02*
X70634D01*
X101342Y359000D02*
Y362000D01*
X99843Y363500D02*
X101342Y362000D01*
X103138Y357205D02*
X107484D01*
X101342Y359000D02*
X103138Y357205D01*
X72342Y342000D02*
Y347984D01*
X75305Y361366D02*
X76264Y362325D01*
X72370Y361366D02*
X75305D01*
Y356248D02*
X77764Y358707D01*
X72063Y361059D02*
X72370Y361366D01*
X64228Y345000D02*
Y353185D01*
X72063Y348264D02*
X72342Y347984D01*
X87343Y211319D02*
Y260000D01*
X91687Y208941D02*
X94622D01*
X102011D01*
X94620Y353379D02*
X94622Y353382D01*
X314504Y199142D02*
Y203339D01*
X77004Y267839D02*
X77173Y267669D01*
X72224Y267839D02*
X77004D01*
X72063Y267677D02*
X72224Y267839D01*
X71563Y257441D02*
X71592Y257470D01*
X62228Y245500D02*
X68343D01*
X327071Y255000D02*
X333343D01*
X320342Y251000D02*
X321342Y250000D01*
X320342Y258500D02*
X321843Y260000D01*
X320342Y251000D02*
Y258500D01*
X321342Y250000D02*
X327071D01*
X321843Y260000D02*
X327071D01*
X341843Y241000D02*
Y246425D01*
X327299Y203500D02*
X328842D01*
X329648Y199352D02*
X329858Y199142D01*
X329648Y199352D02*
Y202695D01*
X328842Y203500D02*
X329648Y202695D01*
X327299Y199142D02*
Y203500D01*
Y205500D02*
X327343D01*
X315843Y163000D02*
X321071D01*
X275342Y142011D02*
Y151000D01*
Y142011D02*
X277428Y139925D01*
X275342Y151000D02*
X277343Y153000D01*
X299614D01*
X273843Y139890D02*
X280232Y133500D01*
X375842D01*
X299693Y193000D02*
Y199650D01*
X226343Y289624D02*
Y307425D01*
Y289624D02*
X228592Y287374D01*
Y278750D02*
Y287374D01*
Y278750D02*
X230842Y276500D01*
X241303D01*
X193842Y285500D02*
X203177D01*
X193842Y235500D02*
X238342D01*
X265342Y208500D01*
X223342Y244925D02*
X231917D01*
X266342Y210500D01*
X133841Y315500D02*
X133843Y315499D01*
X255842Y350500D02*
Y358000D01*
X133918Y202035D02*
Y204012D01*
X253102Y270725D02*
Y272740D01*
X251311Y274532D02*
X253102Y272740D01*
X249393Y359500D02*
X254343D01*
X284642Y369500D02*
X285343Y368799D01*
X292843Y250500D02*
X293342Y250000D01*
X292342Y261500D02*
X293843Y260000D01*
X299693Y193000D02*
X301193Y194500D01*
X297342Y233425D02*
X297417Y233500D01*
X300954Y241754D02*
X302141Y240566D01*
X296768Y270500D02*
X300757D01*
X301343Y269914D01*
X306343Y157500D02*
X309842Y161000D01*
X304343Y173000D02*
X305842Y174500D01*
X306311Y194500D02*
X307343D01*
X309757Y234000D02*
X310343Y234586D01*
X305048Y240566D02*
X305614Y240000D01*
Y245000D02*
X309257D01*
X305614Y276728D02*
X306886Y278000D01*
X304343D02*
X305614Y276728D01*
X315843Y144000D02*
X317917Y141925D01*
X315843Y152000D02*
X316843Y153000D01*
X315428Y157914D02*
X316631D01*
X316717Y158000D01*
X312343Y161000D02*
X315428Y157914D01*
X314843Y169500D02*
X316428Y167914D01*
X316342Y174000D02*
X317342Y173000D01*
X312842Y208500D02*
X317063Y204280D01*
X321071Y148000D02*
X327286D01*
X320985Y167914D02*
X321071Y168000D01*
X321843Y194500D02*
X322181Y194839D01*
X321181Y194500D02*
X321843D01*
X322998D02*
X324154D01*
X321843D02*
X322998D01*
X332343Y168000D02*
X332842Y167500D01*
X328693Y177000D02*
X329343Y176350D01*
X329776D01*
X330466Y190000D02*
X334953Y194486D01*
X331343Y239500D02*
X332343Y240500D01*
X331343Y245000D02*
X332343Y244000D01*
X331343Y264500D02*
X332343Y265500D01*
X331343Y270000D02*
X332343Y269000D01*
X336417Y185500D02*
X337343Y184575D01*
X337268Y184500D02*
X337343Y184575D01*
X336417Y273000D02*
X336842Y272575D01*
X364536Y143000D02*
X366342D01*
X361844Y145692D02*
X364536Y143000D01*
X364768Y181425D02*
X366342Y183000D01*
X364643D02*
X366342D01*
X361718Y180075D02*
X364643Y183000D01*
X365843Y208000D02*
X366342Y207500D01*
X365843Y328000D02*
X366342Y327500D01*
X272668Y374500D02*
X277667Y369500D01*
X299614Y143500D02*
Y148000D01*
X301343Y267598D02*
Y269914D01*
X305842Y174500D02*
Y182000D01*
X305974Y163000D02*
X306474Y163500D01*
X306842D01*
X309842Y161000D02*
Y183379D01*
X307842Y172000D02*
Y183500D01*
X306827Y195016D02*
X307343Y194500D01*
X306827Y195016D02*
Y199142D01*
X306311Y194500D02*
X306827Y195016D01*
X310343Y234586D02*
Y243914D01*
X309257Y245000D02*
X310343Y243914D01*
X305614Y270000D02*
Y276728D01*
Y260000D02*
X306114Y259500D01*
X315843Y144000D02*
Y152000D01*
X316342Y174000D02*
Y182500D01*
X312343Y161000D02*
Y183500D01*
X314843Y169500D02*
Y183500D01*
X312343D02*
X318843Y190000D01*
X317063Y199142D02*
Y204280D01*
X324154Y194500D02*
X324740Y195086D01*
Y199142D01*
X322181Y194839D02*
Y195317D01*
Y195500D02*
Y199142D01*
Y195317D02*
Y195500D01*
Y195317D02*
X322998Y194500D01*
X321181D02*
X322181Y195500D01*
X327299Y217043D02*
Y221858D01*
X322181Y217783D02*
Y221858D01*
X324740Y217345D02*
Y221858D01*
X329842Y147086D02*
X331237Y145692D01*
X331939Y178000D02*
X334014Y180075D01*
X329179Y193000D02*
X331953Y195774D01*
X334953Y194486D02*
Y207132D01*
X331953Y195774D02*
Y205890D01*
X333453Y195153D02*
Y206511D01*
X332343Y240500D02*
Y244000D01*
Y265500D02*
Y269000D01*
X336453Y193865D02*
Y207890D01*
X370796Y327500D02*
X374843Y323454D01*
X314504Y221858D02*
Y247339D01*
X317063Y221858D02*
Y255780D01*
X313342Y259500D02*
X317063Y255780D01*
X329800Y191500D02*
X333453Y195153D01*
X374843Y297000D02*
Y323454D01*
X246382Y274532D02*
X251311D01*
X239165Y364500D02*
X249393D01*
X233343Y369500D02*
X249393D01*
X254343Y359500D02*
X255842Y358000D01*
X270843Y359500D02*
X277842D01*
X270843Y369500D02*
X277667D01*
X270843Y374500D02*
X272668D01*
X300114Y157500D02*
X306343D01*
X299614Y168000D02*
X303842D01*
X287842Y167500D02*
X288342Y168000D01*
X299614D01*
Y173000D02*
X304343D01*
X294399Y178000D02*
X299614D01*
X304268Y183575D02*
X305842Y182000D01*
X301193Y194500D02*
X306311D01*
X297912Y234000D02*
X309757D01*
X302141Y240566D02*
X305048D01*
X305614Y250000D02*
X311842D01*
X314504Y247339D01*
X293342Y250000D02*
X305614D01*
Y255000D02*
X311343D01*
X303941Y265000D02*
X305614D01*
X293843Y260000D02*
X305614D01*
X288342Y271425D02*
X295843D01*
X287842Y271925D02*
X288342Y271425D01*
X295843D02*
X296768Y270500D01*
X297417Y278000D02*
X304343D01*
X295843Y279575D02*
X297417Y278000D01*
X317917Y141925D02*
X328458D01*
X316843Y153000D02*
X321071D01*
Y158000D02*
X329842D01*
X316717D02*
X321071D01*
X316428Y167914D02*
X320985D01*
X321071Y168000D02*
X332343D01*
X317342Y173000D02*
X321071D01*
X316342Y182500D02*
X319342Y185500D01*
X331088Y188500D02*
X336453Y193865D01*
X318843Y190000D02*
X330466D01*
X319843Y188500D02*
X331088D01*
X317964Y191500D02*
X329800D01*
X317342Y193000D02*
X329179D01*
X319622Y221858D02*
X319685Y221796D01*
X327071Y240000D02*
X327571Y239500D01*
X331343D01*
X327071Y245000D02*
X331343D01*
X327071Y260000D02*
X335842D01*
X327071Y265000D02*
X327571Y264500D01*
X331343D01*
X327071Y270000D02*
X331343D01*
Y273000D02*
X336417D01*
X366342Y207500D02*
X374843D01*
X365843Y248000D02*
X373843D01*
X366342Y327500D02*
X370796D01*
X303842Y168000D02*
X307842Y172000D01*
X299614Y163000D02*
X305974D01*
X311945Y199142D02*
Y203414D01*
X301343Y267598D02*
X303941Y265000D01*
X306114Y259500D02*
X313342D01*
X319622Y199142D02*
Y204220D01*
X327299Y217043D02*
X336453Y207890D01*
X324740Y217345D02*
X334953Y207132D01*
X319685Y218158D02*
X331953Y205890D01*
X322181Y217783D02*
X333453Y206511D01*
X319685Y218158D02*
Y221796D01*
X281343Y186075D02*
X288361D01*
X331237Y145692D02*
X361844D01*
X334014Y180075D02*
X361718D01*
X307343Y194500D02*
X321181D01*
X313342Y210500D02*
X319622Y204220D01*
X306886Y278000D02*
X337842D01*
X347843Y288000D02*
X365843D01*
X314843Y183500D02*
X319843Y188500D01*
X337842Y278000D02*
X347843Y288000D01*
X309842Y183379D02*
X317964Y191500D01*
X307842Y183500D02*
X317342Y193000D01*
X266342Y210500D02*
X313342D01*
X265342Y208500D02*
X312842D01*
X81343Y205500D02*
Y237000D01*
X84342Y214000D02*
X84524Y214181D01*
X72063Y203823D02*
X79665D01*
X81343Y205500D01*
X94315Y206075D02*
X94622Y206382D01*
X90917Y206075D02*
X94315D01*
X90421Y306000D02*
X90480Y305941D01*
X90421Y257603D02*
X90584Y257441D01*
X81842Y240500D02*
Y250500D01*
X72063Y252323D02*
X80020D01*
X81842Y250500D01*
X84524Y214181D02*
Y262319D01*
X84342Y262500D02*
X84524Y262319D01*
X93843Y240500D02*
X114342D01*
X117342Y243500D01*
Y262500D01*
X120341Y265499D01*
X133843D01*
X72063Y300823D02*
X76443D01*
X96842Y323500D02*
X107343D01*
X109843Y309500D02*
Y321000D01*
Y309500D02*
X113844Y305499D01*
X133843D01*
X107343Y323500D02*
X109843Y321000D01*
X94122Y260000D02*
X94303Y259819D01*
X94622Y311000D02*
Y311059D01*
X90976Y355634D02*
X94595D01*
X133843Y215000D02*
X134343Y214500D01*
X223266Y245001D02*
X223342Y244925D01*
X226268Y307500D02*
X226343Y307425D01*
X212842Y307500D02*
X226268D01*
X210344Y305001D02*
X212842Y307500D01*
X50642Y213102D02*
X54909Y217370D01*
X54843Y247500D02*
Y254500D01*
X56928Y264000D02*
X62193D01*
X62457Y196500D02*
X63043Y197087D01*
X62193Y205350D02*
X63043Y204500D01*
X63193Y211500D02*
X72063D01*
X50457Y222685D02*
X50642Y222500D01*
X50457Y222685D02*
Y231000D01*
X50642Y213102D02*
Y222500D01*
X62693Y295850D02*
X63043Y295500D01*
X70973Y308409D02*
X71063Y308500D01*
X50957Y246000D02*
X53342D01*
X54843Y247500D01*
X49957Y271685D02*
Y279500D01*
X51642Y270000D02*
X53843D01*
X56343Y267500D01*
Y264586D02*
Y267500D01*
Y264586D02*
X56928Y264000D01*
X66823Y263500D02*
X67457Y262866D01*
X71256D01*
X71563Y262559D01*
X70756Y313925D02*
X71063Y313618D01*
X71256Y265425D02*
X71563Y265118D01*
X66257Y271000D02*
X66843Y270414D01*
X71756Y216925D02*
X72063Y216618D01*
D24*
X249393Y374500D02*
D03*
Y369500D02*
D03*
Y364500D02*
D03*
Y359500D02*
D03*
X270843D02*
D03*
Y364500D02*
D03*
Y369500D02*
D03*
Y374500D02*
D03*
D31*
X256842Y270725D02*
D03*
X253102Y282275D02*
D03*
X260583D02*
D03*
Y270725D02*
D03*
X253102D02*
D03*
D44*
X316342Y313000D02*
D03*
X326343D02*
D03*
X125201Y382795D02*
D03*
X107484D02*
D03*
X125201Y357205D02*
D03*
D57*
X260343Y282515D02*
X260583Y282275D01*
X285548Y328952D02*
X286596Y330000D01*
X281592Y324996D02*
X285548Y328952D01*
X286548Y330048D02*
X290843Y334343D01*
X274000Y384500D02*
X274898Y383602D01*
X279752Y377248D02*
X284295D01*
X274898Y382102D02*
X279752Y377248D01*
X274898Y382102D02*
Y383602D01*
X284295Y377248D02*
X285343Y376201D01*
X260343Y282515D02*
Y287000D01*
X253102Y284828D02*
X255274Y287000D01*
X260314D01*
X270886Y333409D02*
Y337957D01*
X247843Y293000D02*
X249342Y291500D01*
X268342D02*
X270886Y294043D01*
X249342Y291500D02*
X268342D01*
X280192Y325746D02*
X280943Y324996D01*
X272697Y332146D02*
X279097Y325746D01*
X272149Y332146D02*
X272697D01*
X270886Y333409D02*
X272149Y332146D01*
X279097Y325746D02*
X280192D01*
X280943Y324996D02*
X281592D01*
X290022Y318680D02*
X290342Y319000D01*
X300342D01*
X306343Y313000D01*
X327959Y360617D02*
X331699D01*
X326343Y359000D02*
X327959Y360617D01*
X344342Y373260D02*
Y377000D01*
X331699Y360617D02*
X344342Y373260D01*
X290022Y293530D02*
Y318680D01*
X289992Y293500D02*
X290022Y293530D01*
X316287Y312945D02*
X316342Y313000D01*
X301693Y293500D02*
Y293953D01*
X316287Y308547D01*
Y312945D01*
X220342Y343500D02*
X265342D01*
X193844Y335000D02*
X211842D01*
X220342Y343500D01*
X265342D02*
X270886Y337957D01*
X253067Y282275D02*
X253102D01*
X289642Y376201D02*
X290843Y375000D01*
X325842Y294000D02*
X326343Y294500D01*
X253102Y282275D02*
Y284828D01*
X290843Y334343D02*
Y375000D01*
X326343Y294500D02*
Y312500D01*
X285343Y376201D02*
X289642D01*
X193842Y335001D02*
X193844Y335000D01*
D58*
X231681Y362500D02*
X231181Y363000D01*
X231679Y362542D02*
X231181Y363000D01*
X231681Y362500D02*
X231679Y362542D01*
X193842Y315001D02*
X225769D01*
X231681Y357000D02*
Y362500D01*
X231181Y363000D02*
Y374311D01*
X229492Y376000D02*
X231181Y374311D01*
X221843Y376000D02*
X229492D01*
X225342Y316575D02*
X226343Y315575D01*
X225342Y316575D02*
Y331000D01*
X225769Y315001D02*
X226343Y315575D01*
D59*
X344342Y377000D02*
D03*
X290342Y319000D02*
D03*
D60*
X263799Y334000D02*
D03*
Y297500D02*
D03*
X270886Y334000D02*
D03*
Y297500D02*
D03*
D61*
X254743Y316000D02*
D03*
D62*
X301693Y293500D02*
D03*
X241193Y376000D02*
D03*
X114193Y345500D02*
D03*
X107693Y294000D02*
D03*
X288992Y223500D02*
D03*
X287992Y193000D02*
D03*
X229492Y376000D02*
D03*
X299693Y193000D02*
D03*
X102492Y345500D02*
D03*
X95992Y294000D02*
D03*
X300693Y223500D02*
D03*
X63193Y364500D02*
D03*
X51492D02*
D03*
X50992Y263000D02*
D03*
X62693D02*
D03*
X289992Y293500D02*
D03*
X50992Y306500D02*
D03*
X62693D02*
D03*
X50992Y212000D02*
D03*
X62693D02*
D03*
D63*
X234748Y285500D02*
D03*
X222937D02*
D03*
D64*
X341843Y246425D02*
D03*
X337343Y176425D02*
D03*
X338342Y149575D02*
D03*
X287842Y280075D02*
D03*
X280842Y177925D02*
D03*
X284842Y148575D02*
D03*
X226343Y315575D02*
D03*
X223342Y253075D02*
D03*
Y244925D02*
D03*
X280842Y186075D02*
D03*
X284842Y140425D02*
D03*
X287842Y271925D02*
D03*
X338342Y141425D02*
D03*
X337343Y184575D02*
D03*
X341843Y254575D02*
D03*
X336842Y272575D02*
D03*
Y264425D02*
D03*
X226343Y307425D02*
D03*
D65*
X327071Y255000D02*
D03*
X321071Y163000D02*
D03*
Y148000D02*
D03*
Y153000D02*
D03*
Y158000D02*
D03*
Y168000D02*
D03*
Y173000D02*
D03*
Y178000D02*
D03*
X299614Y148000D02*
D03*
Y153000D02*
D03*
Y158000D02*
D03*
Y163000D02*
D03*
Y168000D02*
D03*
Y173000D02*
D03*
Y178000D02*
D03*
X305614Y270000D02*
D03*
Y265000D02*
D03*
Y260000D02*
D03*
Y255000D02*
D03*
Y250000D02*
D03*
Y245000D02*
D03*
Y240000D02*
D03*
X327071Y270000D02*
D03*
Y265000D02*
D03*
Y260000D02*
D03*
Y250000D02*
D03*
Y245000D02*
D03*
Y240000D02*
D03*
D66*
X293551Y215500D02*
D03*
X301134D02*
D03*
D67*
X327299Y199142D02*
D03*
X329858D02*
D03*
X306827D02*
D03*
X324740D02*
D03*
X322181D02*
D03*
X306827Y221858D02*
D03*
X319622Y199142D02*
D03*
X317063D02*
D03*
X314504D02*
D03*
X311945D02*
D03*
X309386D02*
D03*
Y221858D02*
D03*
X311945D02*
D03*
X314504D02*
D03*
X317063D02*
D03*
X319622D02*
D03*
X322181D02*
D03*
X324740D02*
D03*
X327299D02*
D03*
X329858D02*
D03*
D68*
X282268Y236000D02*
D03*
X133417Y348500D02*
D03*
X290417Y236000D02*
D03*
X125268Y348500D02*
D03*
D69*
X246382Y278469D02*
D03*
X241303Y276500D02*
D03*
X246382Y274532D02*
D03*
D70*
X107843Y264350D02*
D03*
X107343Y216350D02*
D03*
X107843Y252650D02*
D03*
X107343Y204650D02*
D03*
D71*
X72063Y363618D02*
D03*
X94622D02*
D03*
Y316177D02*
D03*
X72063D02*
D03*
X94622Y267677D02*
D03*
X72063D02*
D03*
Y219177D02*
D03*
X94622D02*
D03*
Y348264D02*
D03*
Y203823D02*
D03*
Y300823D02*
D03*
Y252323D02*
D03*
X72063Y353382D02*
D03*
Y305941D02*
D03*
Y257441D02*
D03*
Y208941D02*
D03*
X94622Y350823D02*
D03*
X72063Y348264D02*
D03*
Y361059D02*
D03*
Y358500D02*
D03*
Y355941D02*
D03*
Y350823D02*
D03*
X94622Y353382D02*
D03*
Y355941D02*
D03*
Y358500D02*
D03*
Y361059D02*
D03*
Y206382D02*
D03*
Y254882D02*
D03*
Y303382D02*
D03*
X72063Y203823D02*
D03*
Y252323D02*
D03*
Y300823D02*
D03*
Y265118D02*
D03*
Y262559D02*
D03*
Y260000D02*
D03*
Y254882D02*
D03*
X94622Y257441D02*
D03*
Y260000D02*
D03*
Y262559D02*
D03*
Y265118D02*
D03*
X72063Y313618D02*
D03*
Y311059D02*
D03*
Y308500D02*
D03*
Y303382D02*
D03*
X94622Y305941D02*
D03*
Y308500D02*
D03*
Y311059D02*
D03*
Y313618D02*
D03*
X72063Y216618D02*
D03*
Y214059D02*
D03*
Y211500D02*
D03*
Y206382D02*
D03*
X94622Y208941D02*
D03*
Y211500D02*
D03*
Y214059D02*
D03*
Y216618D02*
D03*
D72*
X63614Y373000D02*
D03*
X52457Y345000D02*
D03*
X50957Y324000D02*
D03*
X69728Y289000D02*
D03*
X62228Y280500D02*
D03*
Y231000D02*
D03*
Y245500D02*
D03*
X74228Y195000D02*
D03*
X57957Y289000D02*
D03*
X50457Y280500D02*
D03*
X51842Y373000D02*
D03*
X64228Y345000D02*
D03*
X50457Y245500D02*
D03*
X62728Y324000D02*
D03*
X50457Y231000D02*
D03*
X62457Y195000D02*
D03*
D73*
X285343Y376201D02*
D03*
Y368799D02*
D03*
D74*
X325842Y294000D02*
D03*
X225342Y331000D02*
D03*
X247843Y293000D02*
D03*
X252343Y207000D02*
D03*
X286343Y168000D02*
D03*
X292342Y251000D02*
D03*
Y261500D02*
D03*
X286343Y158500D02*
D03*
X333842Y167500D02*
D03*
X233660Y198500D02*
D03*
X332343Y233500D02*
D03*
X334343Y157500D02*
D03*
X208842Y265000D02*
D03*
Y255000D02*
D03*
X168500Y191000D02*
D03*
D75*
X280943Y324996D02*
D03*
Y307004D02*
D03*
D76*
X231842Y364500D02*
D03*
X231681Y357000D02*
D03*
X239165Y364500D02*
D03*
X239004Y357000D02*
D03*
D77*
X329842Y149075D02*
D03*
Y140925D02*
D03*
X329343Y176350D02*
D03*
Y184500D02*
D03*
X297342Y243075D02*
D03*
Y234925D02*
D03*
X292342Y148075D02*
D03*
Y139925D02*
D03*
X295843Y279575D02*
D03*
Y271425D02*
D03*
X291342Y176425D02*
D03*
Y184575D02*
D03*
D78*
X203177Y285500D02*
D03*
D79*
X215508D02*
D03*
D80*
X52142Y354000D02*
D03*
X64543D02*
D03*
X52142Y336500D02*
D03*
X64543D02*
D03*
X63244Y271500D02*
D03*
X50842D02*
D03*
X50642Y254500D02*
D03*
X63043D02*
D03*
X50642Y315500D02*
D03*
X63043D02*
D03*
X50642Y297500D02*
D03*
X63043D02*
D03*
Y222500D02*
D03*
X50642D02*
D03*
Y203500D02*
D03*
X63043D02*
D03*
D81*
X279004Y229839D02*
X293264D01*
X270886Y237957D02*
X279004Y229839D01*
X270886Y237957D02*
Y294043D01*
X278055Y297500D02*
X279055Y298500D01*
X280730Y307004D02*
X280943D01*
X280511Y299956D02*
Y306785D01*
X279343Y298788D02*
X280511Y299956D01*
X279055Y298500D02*
X279343D01*
Y298788D01*
X270886Y297500D02*
X278055D01*
X280511Y306785D02*
X280730Y307004D01*
X270886Y294043D02*
Y297500D01*
X293264Y229839D02*
X293295Y229807D01*
X300913Y216220D02*
X301134Y216000D01*
X300913Y223280D02*
X301331Y222862D01*
X300693Y223500D02*
X300913Y223280D01*
X300693Y223500D02*
Y223953D01*
X300913Y216220D02*
Y223280D01*
X301331Y222862D02*
X305823D01*
X293295Y229807D02*
X294839D01*
X300693Y223953D01*
D82*
X264000Y384500D02*
D03*
X254000D02*
D03*
X274000D02*
D03*
X133843Y225499D02*
D03*
X173843Y205500D02*
D03*
X183843D02*
D03*
X193842D02*
D03*
Y225500D02*
D03*
Y215500D02*
D03*
Y235500D02*
D03*
Y245500D02*
D03*
Y255500D02*
D03*
Y265500D02*
D03*
Y275500D02*
D03*
Y285500D02*
D03*
Y295500D02*
D03*
Y305500D02*
D03*
X133843Y305499D02*
D03*
Y245499D02*
D03*
Y205499D02*
D03*
Y215499D02*
D03*
Y265499D02*
D03*
Y255499D02*
D03*
Y295499D02*
D03*
Y285499D02*
D03*
Y325499D02*
D03*
X143842Y205500D02*
D03*
X133843Y235499D02*
D03*
Y275499D02*
D03*
Y315499D02*
D03*
X153842Y205500D02*
D03*
X193842Y315500D02*
D03*
Y335500D02*
D03*
X163842Y205500D02*
D03*
X193842Y325500D02*
D03*
X133843Y335499D02*
D03*
D83*
X284000Y384500D02*
D03*
D84*
X30843Y354000D02*
D03*
X366342Y83000D02*
D03*
X31343Y186500D02*
D03*
X365843Y208000D02*
D03*
D85*
X30843Y334000D02*
D03*
Y314000D02*
D03*
Y294000D02*
D03*
Y274000D02*
D03*
Y254000D02*
D03*
Y234000D02*
D03*
Y214000D02*
D03*
X275568Y38533D02*
D03*
X365843Y348000D02*
D03*
X326343Y359000D02*
D03*
X365843Y308000D02*
D03*
Y268000D02*
D03*
Y228000D02*
D03*
X366342Y163000D02*
D03*
Y103000D02*
D03*
Y123000D02*
D03*
X166342Y33500D02*
D03*
X146343D02*
D03*
X31343Y86500D02*
D03*
Y106500D02*
D03*
Y166500D02*
D03*
Y146500D02*
D03*
Y126500D02*
D03*
X365843Y288000D02*
D03*
Y328000D02*
D03*
Y248000D02*
D03*
X86343Y33500D02*
D03*
X106342D02*
D03*
X126342D02*
D03*
X366342Y183000D02*
D03*
Y143000D02*
D03*
D86*
X295568Y38533D02*
D03*
X66343Y33500D02*
D03*
X306343Y359000D02*
D03*
D87*
X222342Y171000D02*
D03*
X124343Y61000D02*
D03*
Y171000D02*
D03*
X222342Y61000D02*
D03*
X192342Y171000D02*
D03*
X94342D02*
D03*
X182343D02*
D03*
X84342D02*
D03*
X222342Y141000D02*
D03*
X212343D02*
D03*
X182343Y61000D02*
D03*
X192342D02*
D03*
X202343D02*
D03*
X212343D02*
D03*
X202343Y171000D02*
D03*
X212343D02*
D03*
X124343Y141000D02*
D03*
X114342D02*
D03*
X84342Y61000D02*
D03*
X94342D02*
D03*
X104342D02*
D03*
X114342D02*
D03*
X104342Y171000D02*
D03*
X114342D02*
D03*
D88*
X107484Y357205D02*
D03*
D89*
X306343Y313000D02*
D03*
D90*
X380709Y380500D02*
D03*
Y13000D02*
D03*
X12843D02*
D03*
Y380500D02*
D03*
D91*
X45342Y345000D02*
D03*
X113662Y203319D02*
D03*
X281842Y240500D02*
D03*
X95842Y288000D02*
D03*
X103842Y338000D02*
D03*
X100842Y316000D02*
D03*
X104342Y308500D02*
D03*
X100842Y311000D02*
D03*
X100343Y264000D02*
D03*
X107843Y223000D02*
D03*
X116842Y212500D02*
D03*
X100343Y215500D02*
D03*
X101274Y211622D02*
D03*
X100343Y259500D02*
D03*
Y252000D02*
D03*
X54444Y330199D02*
D03*
X264342Y366000D02*
D03*
X71842Y320500D02*
D03*
X69842Y370000D02*
D03*
X288342Y216500D02*
D03*
X282343Y280000D02*
D03*
X263342Y361000D02*
D03*
X256842Y264000D02*
D03*
X80843Y281000D02*
D03*
X93343Y278000D02*
D03*
X70342Y231000D02*
D03*
X76842Y209000D02*
D03*
Y257500D02*
D03*
Y306000D02*
D03*
X77262Y353260D02*
D03*
X176342Y261500D02*
D03*
X141842Y348500D02*
D03*
X72342Y342000D02*
D03*
X87343Y260000D02*
D03*
X77173Y267669D02*
D03*
X327343Y205500D02*
D03*
X331343Y273000D02*
D03*
X306842Y163500D02*
D03*
X311343Y255000D02*
D03*
X94174Y236986D02*
D03*
X81343Y237000D02*
D03*
X84342Y214000D02*
D03*
X87343Y211319D02*
D03*
X81842Y240500D02*
D03*
X93843D02*
D03*
Y336500D02*
D03*
X87343Y308319D02*
D03*
X84342Y311000D02*
D03*
Y262500D02*
D03*
D92*
X260343Y287000D02*
D03*
X241342Y382000D02*
D03*
X114342Y294000D02*
D03*
X257699Y300018D02*
D03*
X287842Y200000D02*
D03*
X274342Y177000D02*
D03*
X242342Y283000D02*
D03*
X107843Y271000D02*
D03*
X256842Y334000D02*
D03*
X69342Y279500D02*
D03*
X68343Y187500D02*
D03*
X278842Y148500D02*
D03*
X229343Y253000D02*
D03*
X68343Y245500D02*
D03*
X333343Y255000D02*
D03*
X341843Y241000D02*
D03*
X344342Y149500D02*
D03*
X315843Y163000D02*
D03*
X343342Y176500D02*
D03*
X299417Y199925D02*
D03*
D93*
X277842Y368500D02*
D03*
X279343Y298500D02*
D03*
X277842Y359500D02*
D03*
X221843Y376000D02*
D03*
M02*
