G04*
G04 #@! TF.GenerationSoftware,Altium Limited,Altium Designer,20.1.14 (287)*
G04*
G04 Layer_Color=8388736*
%FSLAX25Y25*%
%MOIN*%
G70*
G04*
G04 #@! TF.SameCoordinates,4B9CFB74-A459-40F6-BE70-09C03D0B2D60*
G04*
G04*
G04 #@! TF.FilePolarity,Negative*
G04*
G01*
G75*
%ADD20R,0.08661X0.16142*%
%ADD21R,0.04921X0.06102*%
%ADD22R,0.25994X0.26894*%
%ADD23R,0.06653X0.07559*%
%ADD24R,0.05750X0.02100*%
%ADD25R,0.05906X0.06299*%
%ADD26R,0.05984X0.05118*%
G04:AMPARAMS|DCode=27|XSize=27.56mil|YSize=61.02mil|CornerRadius=3.98mil|HoleSize=0mil|Usage=FLASHONLY|Rotation=90.000|XOffset=0mil|YOffset=0mil|HoleType=Round|Shape=RoundedRectangle|*
%AMROUNDEDRECTD27*
21,1,0.02756,0.05307,0,0,90.0*
21,1,0.01961,0.06102,0,0,90.0*
1,1,0.00795,0.02653,0.00980*
1,1,0.00795,0.02653,-0.00980*
1,1,0.00795,-0.02653,-0.00980*
1,1,0.00795,-0.02653,0.00980*
%
%ADD27ROUNDEDRECTD27*%
%ADD28R,0.05118X0.06221*%
G04:AMPARAMS|DCode=29|XSize=69.29mil|YSize=26.38mil|CornerRadius=7.14mil|HoleSize=0mil|Usage=FLASHONLY|Rotation=270.000|XOffset=0mil|YOffset=0mil|HoleType=Round|Shape=RoundedRectangle|*
%AMROUNDEDRECTD29*
21,1,0.06929,0.01211,0,0,270.0*
21,1,0.05502,0.02638,0,0,270.0*
1,1,0.01427,-0.00605,-0.02751*
1,1,0.01427,-0.00605,0.02751*
1,1,0.01427,0.00605,0.02751*
1,1,0.01427,0.00605,-0.02751*
%
%ADD29ROUNDEDRECTD29*%
%ADD30R,0.05118X0.05984*%
%ADD31R,0.02000X0.04650*%
%ADD32R,0.02756X0.01968*%
%ADD33R,0.07559X0.06653*%
G04:AMPARAMS|DCode=34|XSize=68.5mil|YSize=26.38mil|CornerRadius=5.93mil|HoleSize=0mil|Usage=FLASHONLY|Rotation=0.000|XOffset=0mil|YOffset=0mil|HoleType=Round|Shape=RoundedRectangle|*
%AMROUNDEDRECTD34*
21,1,0.06850,0.01453,0,0,0.0*
21,1,0.05665,0.02638,0,0,0.0*
1,1,0.01185,0.02833,-0.00726*
1,1,0.01185,-0.02833,-0.00726*
1,1,0.01185,-0.02833,0.00726*
1,1,0.01185,0.02833,0.00726*
%
%ADD34ROUNDEDRECTD34*%
%ADD35R,0.05433X0.07362*%
%ADD36R,0.05827X0.04488*%
%ADD37R,0.16142X0.08661*%
%ADD38R,0.05194X0.03894*%
%ADD39R,0.04213X0.05827*%
G04:AMPARAMS|DCode=40|XSize=51.18mil|YSize=59.84mil|CornerRadius=7.87mil|HoleSize=0mil|Usage=FLASHONLY|Rotation=90.000|XOffset=0mil|YOffset=0mil|HoleType=Round|Shape=RoundedRectangle|*
%AMROUNDEDRECTD40*
21,1,0.05118,0.04409,0,0,90.0*
21,1,0.03543,0.05984,0,0,90.0*
1,1,0.01575,0.02205,0.01772*
1,1,0.01575,0.02205,-0.01772*
1,1,0.01575,-0.02205,-0.01772*
1,1,0.01575,-0.02205,0.01772*
%
%ADD40ROUNDEDRECTD40*%
%ADD41R,0.04842X0.07362*%
%ADD42R,0.05630X0.07362*%
%ADD43R,0.05158X0.07362*%
%ADD44C,0.07087*%
%ADD45R,0.06772X0.06772*%
%ADD46R,0.09843X0.09843*%
%ADD47C,0.09843*%
%ADD48R,0.09843X0.09843*%
%ADD49C,0.07480*%
%ADD50C,0.07794*%
%ADD51R,0.07480X0.07480*%
%ADD52R,0.07480X0.07480*%
%ADD53C,0.06394*%
%ADD54C,0.02756*%
%ADD55C,0.03937*%
%ADD56C,0.05394*%
D20*
X344342Y377000D02*
D03*
X290342Y319000D02*
D03*
D21*
X263799Y334000D02*
D03*
Y297500D02*
D03*
X270886Y334000D02*
D03*
Y297500D02*
D03*
D22*
X254743Y316000D02*
D03*
D23*
X301693Y293500D02*
D03*
X241193Y376000D02*
D03*
X114193Y345500D02*
D03*
X107693Y294000D02*
D03*
X288992Y223500D02*
D03*
X287992Y193000D02*
D03*
X229492Y376000D02*
D03*
X299693Y193000D02*
D03*
X102492Y345500D02*
D03*
X95992Y294000D02*
D03*
X300693Y223500D02*
D03*
X63193Y364500D02*
D03*
X51492D02*
D03*
X50992Y263000D02*
D03*
X62693D02*
D03*
X289992Y293500D02*
D03*
X50992Y306500D02*
D03*
X62693D02*
D03*
X50992Y212000D02*
D03*
X62693D02*
D03*
D24*
X249393Y374500D02*
D03*
Y369500D02*
D03*
Y364500D02*
D03*
Y359500D02*
D03*
X270843D02*
D03*
Y364500D02*
D03*
Y369500D02*
D03*
Y374500D02*
D03*
D25*
X234748Y285500D02*
D03*
X222937D02*
D03*
D26*
X341843Y246425D02*
D03*
X337343Y176425D02*
D03*
X338342Y149575D02*
D03*
X287842Y280075D02*
D03*
X280842Y177925D02*
D03*
X284842Y148575D02*
D03*
X226343Y315575D02*
D03*
X223342Y253075D02*
D03*
Y244925D02*
D03*
X280842Y186075D02*
D03*
X284842Y140425D02*
D03*
X287842Y271925D02*
D03*
X338342Y141425D02*
D03*
X337343Y184575D02*
D03*
X341843Y254575D02*
D03*
X336842Y272575D02*
D03*
Y264425D02*
D03*
X226343Y307425D02*
D03*
D27*
X327071Y255000D02*
D03*
X321071Y163000D02*
D03*
Y148000D02*
D03*
Y153000D02*
D03*
Y158000D02*
D03*
Y168000D02*
D03*
Y173000D02*
D03*
Y178000D02*
D03*
X299614Y148000D02*
D03*
Y153000D02*
D03*
Y158000D02*
D03*
Y163000D02*
D03*
Y168000D02*
D03*
Y173000D02*
D03*
Y178000D02*
D03*
X305614Y270000D02*
D03*
Y265000D02*
D03*
Y260000D02*
D03*
Y255000D02*
D03*
Y250000D02*
D03*
Y245000D02*
D03*
Y240000D02*
D03*
X327071Y270000D02*
D03*
Y265000D02*
D03*
Y260000D02*
D03*
Y250000D02*
D03*
Y245000D02*
D03*
Y240000D02*
D03*
D28*
X293551Y215500D02*
D03*
X301134D02*
D03*
D29*
X327299Y199142D02*
D03*
X329858D02*
D03*
X306827D02*
D03*
X324740D02*
D03*
X322181D02*
D03*
X306827Y221858D02*
D03*
X319622Y199142D02*
D03*
X317063D02*
D03*
X314504D02*
D03*
X311945D02*
D03*
X309386D02*
D03*
Y221858D02*
D03*
X311945D02*
D03*
X314504D02*
D03*
X317063D02*
D03*
X319622D02*
D03*
X322181D02*
D03*
X324740D02*
D03*
X327299D02*
D03*
X329858D02*
D03*
D30*
X282268Y236000D02*
D03*
X133417Y348500D02*
D03*
X290417Y236000D02*
D03*
X125268Y348500D02*
D03*
D31*
X256842Y270725D02*
D03*
X253102Y282275D02*
D03*
X260583D02*
D03*
Y270725D02*
D03*
X253102D02*
D03*
D32*
X246382Y278469D02*
D03*
X241303Y276500D02*
D03*
X246382Y274532D02*
D03*
D33*
X107843Y264350D02*
D03*
X107343Y216350D02*
D03*
X107843Y252650D02*
D03*
X107343Y204650D02*
D03*
D34*
X72063Y363618D02*
D03*
X94622D02*
D03*
Y316177D02*
D03*
X72063D02*
D03*
X94622Y267677D02*
D03*
X72063D02*
D03*
Y219177D02*
D03*
X94622D02*
D03*
Y348264D02*
D03*
Y203823D02*
D03*
Y300823D02*
D03*
Y252323D02*
D03*
X72063Y353382D02*
D03*
Y305941D02*
D03*
Y257441D02*
D03*
Y208941D02*
D03*
X94622Y350823D02*
D03*
X72063Y348264D02*
D03*
Y361059D02*
D03*
Y358500D02*
D03*
Y355941D02*
D03*
Y350823D02*
D03*
X94622Y353382D02*
D03*
Y355941D02*
D03*
Y358500D02*
D03*
Y361059D02*
D03*
Y206382D02*
D03*
Y254882D02*
D03*
Y303382D02*
D03*
X72063Y203823D02*
D03*
Y252323D02*
D03*
Y300823D02*
D03*
Y265118D02*
D03*
Y262559D02*
D03*
Y260000D02*
D03*
Y254882D02*
D03*
X94622Y257441D02*
D03*
Y260000D02*
D03*
Y262559D02*
D03*
Y265118D02*
D03*
X72063Y313618D02*
D03*
Y311059D02*
D03*
Y308500D02*
D03*
Y303382D02*
D03*
X94622Y305941D02*
D03*
Y308500D02*
D03*
Y311059D02*
D03*
Y313618D02*
D03*
X72063Y216618D02*
D03*
Y214059D02*
D03*
Y211500D02*
D03*
Y206382D02*
D03*
X94622Y208941D02*
D03*
Y211500D02*
D03*
Y214059D02*
D03*
Y216618D02*
D03*
D35*
X63614Y373000D02*
D03*
X52457Y345000D02*
D03*
X50957Y324000D02*
D03*
X69728Y289000D02*
D03*
X62228Y280500D02*
D03*
Y231000D02*
D03*
Y245500D02*
D03*
X74228Y195000D02*
D03*
X57957Y289000D02*
D03*
X50457Y280500D02*
D03*
X51842Y373000D02*
D03*
X64228Y345000D02*
D03*
X50457Y245500D02*
D03*
X62728Y324000D02*
D03*
X50457Y231000D02*
D03*
X62457Y195000D02*
D03*
D36*
X285343Y376201D02*
D03*
Y368799D02*
D03*
D37*
X325842Y294000D02*
D03*
X225342Y331000D02*
D03*
X247843Y293000D02*
D03*
X252343Y207000D02*
D03*
X286343Y168000D02*
D03*
X292342Y251000D02*
D03*
Y261500D02*
D03*
X286343Y158500D02*
D03*
X333842Y167500D02*
D03*
X233660Y198500D02*
D03*
X332343Y233500D02*
D03*
X334343Y157500D02*
D03*
X208842Y265000D02*
D03*
Y255000D02*
D03*
X168500Y191000D02*
D03*
D38*
X280943Y324996D02*
D03*
Y307004D02*
D03*
D39*
X231842Y364500D02*
D03*
X231681Y357000D02*
D03*
X239165Y364500D02*
D03*
X239004Y357000D02*
D03*
D40*
X329842Y149075D02*
D03*
Y140925D02*
D03*
X329343Y176350D02*
D03*
Y184500D02*
D03*
X297342Y243075D02*
D03*
Y234925D02*
D03*
X292342Y148075D02*
D03*
Y139925D02*
D03*
X295843Y279575D02*
D03*
Y271425D02*
D03*
X291342Y176425D02*
D03*
Y184575D02*
D03*
D41*
X203177Y285500D02*
D03*
D42*
X215508D02*
D03*
D43*
X52142Y354000D02*
D03*
X64543D02*
D03*
X52142Y336500D02*
D03*
X64543D02*
D03*
X63244Y271500D02*
D03*
X50842D02*
D03*
X50642Y254500D02*
D03*
X63043D02*
D03*
X50642Y315500D02*
D03*
X63043D02*
D03*
X50642Y297500D02*
D03*
X63043D02*
D03*
Y222500D02*
D03*
X50642D02*
D03*
Y203500D02*
D03*
X63043D02*
D03*
D44*
X264000Y384500D02*
D03*
X254000D02*
D03*
X274000D02*
D03*
X133843Y225499D02*
D03*
X173843Y205500D02*
D03*
X183843D02*
D03*
X193842D02*
D03*
Y225500D02*
D03*
Y215500D02*
D03*
Y235500D02*
D03*
Y245500D02*
D03*
Y255500D02*
D03*
Y265500D02*
D03*
Y275500D02*
D03*
Y285500D02*
D03*
Y295500D02*
D03*
Y305500D02*
D03*
X133843Y305499D02*
D03*
Y245499D02*
D03*
Y205499D02*
D03*
Y215499D02*
D03*
Y265499D02*
D03*
Y255499D02*
D03*
Y295499D02*
D03*
Y285499D02*
D03*
Y325499D02*
D03*
X143842Y205500D02*
D03*
X133843Y235499D02*
D03*
Y275499D02*
D03*
Y315499D02*
D03*
X153842Y205500D02*
D03*
X193842Y315500D02*
D03*
Y335500D02*
D03*
X163842Y205500D02*
D03*
X193842Y325500D02*
D03*
X133843Y335499D02*
D03*
D45*
X284000Y384500D02*
D03*
D46*
X30843Y354000D02*
D03*
X366342Y83000D02*
D03*
X31343Y186500D02*
D03*
X365843Y208000D02*
D03*
D47*
X30843Y334000D02*
D03*
Y314000D02*
D03*
Y294000D02*
D03*
Y274000D02*
D03*
Y254000D02*
D03*
Y234000D02*
D03*
Y214000D02*
D03*
X275568Y38533D02*
D03*
X365843Y348000D02*
D03*
X326343Y359000D02*
D03*
X365843Y308000D02*
D03*
Y268000D02*
D03*
Y228000D02*
D03*
X366342Y163000D02*
D03*
Y103000D02*
D03*
Y123000D02*
D03*
X166342Y33500D02*
D03*
X146343D02*
D03*
X31343Y86500D02*
D03*
Y106500D02*
D03*
Y166500D02*
D03*
Y146500D02*
D03*
Y126500D02*
D03*
X365843Y288000D02*
D03*
Y328000D02*
D03*
Y248000D02*
D03*
X86343Y33500D02*
D03*
X106342D02*
D03*
X126342D02*
D03*
X366342Y183000D02*
D03*
Y143000D02*
D03*
D48*
X295568Y38533D02*
D03*
X66343Y33500D02*
D03*
X306343Y359000D02*
D03*
D49*
X316342Y313000D02*
D03*
X326343D02*
D03*
X125201Y382795D02*
D03*
X107484D02*
D03*
X125201Y357205D02*
D03*
D50*
X222342Y171000D02*
D03*
X124343Y61000D02*
D03*
Y171000D02*
D03*
X222342Y61000D02*
D03*
X192342Y171000D02*
D03*
X94342D02*
D03*
X182343D02*
D03*
X84342D02*
D03*
X222342Y141000D02*
D03*
X212343D02*
D03*
X182343Y61000D02*
D03*
X192342D02*
D03*
X202343D02*
D03*
X212343D02*
D03*
X202343Y171000D02*
D03*
X212343D02*
D03*
X124343Y141000D02*
D03*
X114342D02*
D03*
X84342Y61000D02*
D03*
X94342D02*
D03*
X104342D02*
D03*
X114342D02*
D03*
X104342Y171000D02*
D03*
X114342D02*
D03*
D51*
X107484Y357205D02*
D03*
D52*
X306343Y313000D02*
D03*
D53*
X380709Y380500D02*
D03*
Y13000D02*
D03*
X12843D02*
D03*
Y380500D02*
D03*
D54*
X113662Y203319D02*
D03*
X103842Y338000D02*
D03*
X100842Y316000D02*
D03*
X104342Y308500D02*
D03*
X100842Y311000D02*
D03*
X100343Y264000D02*
D03*
X107843Y223000D02*
D03*
X100343Y215500D02*
D03*
X101274Y211622D02*
D03*
X100343Y259500D02*
D03*
Y252000D02*
D03*
X54444Y330199D02*
D03*
X71842Y320500D02*
D03*
X288342Y216500D02*
D03*
X70342Y231000D02*
D03*
X176342Y261500D02*
D03*
D55*
X287842Y200000D02*
D03*
X274342Y177000D02*
D03*
X242342Y283000D02*
D03*
X107843Y271000D02*
D03*
X256842Y334000D02*
D03*
X68343Y187500D02*
D03*
X278842Y148500D02*
D03*
X229343Y253000D02*
D03*
X333343Y255000D02*
D03*
X341843Y241000D02*
D03*
X344342Y149500D02*
D03*
X343342Y176500D02*
D03*
X299417Y199925D02*
D03*
D56*
X277842Y368500D02*
D03*
X279343Y298500D02*
D03*
X277842Y359500D02*
D03*
X221843Y376000D02*
D03*
M02*
