G04*
G04 #@! TF.GenerationSoftware,Altium Limited,Altium Designer,20.1.14 (287)*
G04*
G04 Layer_Physical_Order=1*
G04 Layer_Color=255*
%FSLAX25Y25*%
%MOIN*%
G70*
G04*
G04 #@! TF.SameCoordinates,DD365B87-7E12-4FF9-9A4B-DDFBE1D7E52F*
G04*
G04*
G04 #@! TF.FilePolarity,Positive*
G04*
G01*
G75*
%ADD19C,0.01000*%
%ADD24R,0.05750X0.02100*%
%ADD31R,0.02000X0.04650*%
%ADD44C,0.07087*%
%ADD57C,0.02000*%
%ADD58C,0.05906*%
%ADD59R,0.08268X0.15748*%
%ADD60R,0.04528X0.05709*%
%ADD61R,0.25600X0.26500*%
%ADD62R,0.06260X0.07165*%
%ADD63R,0.05512X0.05906*%
%ADD64R,0.05591X0.04724*%
G04:AMPARAMS|DCode=65|XSize=23.62mil|YSize=57.09mil|CornerRadius=2.01mil|HoleSize=0mil|Usage=FLASHONLY|Rotation=90.000|XOffset=0mil|YOffset=0mil|HoleType=Round|Shape=RoundedRectangle|*
%AMROUNDEDRECTD65*
21,1,0.02362,0.05307,0,0,90.0*
21,1,0.01961,0.05709,0,0,90.0*
1,1,0.00402,0.02653,0.00980*
1,1,0.00402,0.02653,-0.00980*
1,1,0.00402,-0.02653,-0.00980*
1,1,0.00402,-0.02653,0.00980*
%
%ADD65ROUNDEDRECTD65*%
%ADD66R,0.04724X0.05827*%
G04:AMPARAMS|DCode=67|XSize=59.06mil|YSize=16.14mil|CornerRadius=2.02mil|HoleSize=0mil|Usage=FLASHONLY|Rotation=270.000|XOffset=0mil|YOffset=0mil|HoleType=Round|Shape=RoundedRectangle|*
%AMROUNDEDRECTD67*
21,1,0.05906,0.01211,0,0,270.0*
21,1,0.05502,0.01614,0,0,270.0*
1,1,0.00404,-0.00605,-0.02751*
1,1,0.00404,-0.00605,0.02751*
1,1,0.00404,0.00605,0.02751*
1,1,0.00404,0.00605,-0.02751*
%
%ADD67ROUNDEDRECTD67*%
%ADD68R,0.04724X0.05591*%
%ADD69R,0.02362X0.01575*%
%ADD70R,0.07165X0.06260*%
G04:AMPARAMS|DCode=71|XSize=58.27mil|YSize=16.14mil|CornerRadius=0.81mil|HoleSize=0mil|Usage=FLASHONLY|Rotation=0.000|XOffset=0mil|YOffset=0mil|HoleType=Round|Shape=RoundedRectangle|*
%AMROUNDEDRECTD71*
21,1,0.05827,0.01453,0,0,0.0*
21,1,0.05665,0.01614,0,0,0.0*
1,1,0.00161,0.02833,-0.00726*
1,1,0.00161,-0.02833,-0.00726*
1,1,0.00161,-0.02833,0.00726*
1,1,0.00161,0.02833,0.00726*
%
%ADD71ROUNDEDRECTD71*%
%ADD72R,0.05039X0.06969*%
%ADD73R,0.05433X0.04095*%
%ADD74R,0.15748X0.08268*%
%ADD75R,0.04800X0.03500*%
%ADD76R,0.03819X0.05433*%
G04:AMPARAMS|DCode=77|XSize=47.24mil|YSize=55.91mil|CornerRadius=5.91mil|HoleSize=0mil|Usage=FLASHONLY|Rotation=90.000|XOffset=0mil|YOffset=0mil|HoleType=Round|Shape=RoundedRectangle|*
%AMROUNDEDRECTD77*
21,1,0.04724,0.04409,0,0,90.0*
21,1,0.03543,0.05591,0,0,90.0*
1,1,0.01181,0.02205,0.01772*
1,1,0.01181,0.02205,-0.01772*
1,1,0.01181,-0.02205,-0.01772*
1,1,0.01181,-0.02205,0.01772*
%
%ADD77ROUNDEDRECTD77*%
%ADD78R,0.04449X0.06969*%
%ADD79R,0.05236X0.06969*%
%ADD80R,0.04764X0.06969*%
%ADD81C,0.03937*%
%ADD82C,0.06693*%
%ADD83R,0.06378X0.06378*%
%ADD84R,0.09449X0.09449*%
%ADD85C,0.09449*%
%ADD86R,0.09449X0.09449*%
%ADD87C,0.07400*%
%ADD88R,0.07087X0.07087*%
%ADD89R,0.07087X0.07087*%
%ADD90C,0.06000*%
%ADD91C,0.02362*%
%ADD92C,0.03543*%
%ADD93C,0.05000*%
D19*
X91343Y358500D02*
X90346Y358429D01*
X89370Y358216D01*
X88435Y357867D01*
X87558Y357389D01*
X86759Y356790D01*
X86052Y356084D01*
X85454Y355285D01*
X84975Y354408D01*
X84626Y353472D01*
X84414Y352496D01*
X84342Y351500D01*
X193842Y205001D02*
X194344Y204500D01*
X193842Y205001D02*
X194344Y204500D01*
X183843Y259000D02*
X184014Y257918D01*
X184511Y256943D01*
X185285Y256168D01*
X186261Y255671D01*
X187343Y255500D01*
X191842Y347500D02*
X190878Y347442D01*
X189928Y347268D01*
X189006Y346980D01*
X188125Y346584D01*
X187298Y346084D01*
X186538Y345488D01*
X185854Y344805D01*
X185259Y344044D01*
X184759Y343218D01*
X184362Y342337D01*
X184075Y341414D01*
X183901Y340464D01*
X183843Y339500D01*
X239004Y357000D02*
X239297Y356293D01*
X240004Y356000D01*
X252842Y347500D02*
X253770Y347647D01*
X254606Y348073D01*
X255270Y348737D01*
X255696Y349573D01*
X255842Y350500D01*
X242843Y356000D02*
X243843Y356268D01*
X244575Y357000D01*
X244843Y358000D01*
X246342Y359500D02*
X245282Y359061D01*
X244843Y358000D01*
X187843Y267500D02*
X188033Y266544D01*
X188574Y265733D01*
X189385Y265192D01*
X190341Y265002D01*
X193842Y345500D02*
X192801Y345409D01*
X191790Y345138D01*
X190842Y344696D01*
X189986Y344096D01*
X189246Y343357D01*
X188646Y342500D01*
X188204Y341552D01*
X187934Y340542D01*
X187843Y339500D01*
X258842Y362000D02*
X258652Y362957D01*
X258110Y363768D01*
X257299Y364310D01*
X256343Y364500D01*
X255842Y345500D02*
X256770Y345647D01*
X257606Y346073D01*
X258270Y346737D01*
X258696Y347573D01*
X258842Y348500D01*
X92254Y257441D02*
X91338Y257195D01*
X90667Y256525D01*
X90421Y255608D01*
Y259274D02*
X90667Y258357D01*
X91338Y257686D01*
X92254Y257441D01*
X91862Y305941D02*
X90843Y305519D01*
X90421Y304500D01*
X90421Y350079D02*
X90421Y350096D01*
X91362Y305941D02*
X91343Y305941D01*
X90421Y307500D02*
X90878Y306398D01*
X91980Y305941D01*
X91789Y352917D02*
X90822Y352517D01*
X90421Y351549D01*
X187843Y210000D02*
X187939Y209025D01*
X188223Y208087D01*
X188685Y207223D01*
X189307Y206466D01*
X190064Y205844D01*
X190928Y205382D01*
X191866Y205098D01*
X192841Y205001D01*
X314504Y203339D02*
X314349Y204315D01*
X313900Y205197D01*
X313201Y205896D01*
X312319Y206345D01*
X311343Y206500D01*
X249843Y204500D02*
X250799Y204690D01*
X251610Y205232D01*
X252152Y206043D01*
X252343Y207000D01*
X252842Y206500D01*
X115842Y220500D02*
X114761Y220329D01*
X113785Y219832D01*
X113011Y219057D01*
X112514Y218082D01*
X112343Y217000D01*
X187843Y212000D02*
X187780Y213024D01*
X187595Y214034D01*
X187290Y215014D01*
X186869Y215950D01*
X186338Y216828D01*
X185705Y217636D01*
X184979Y218362D01*
X184171Y218995D01*
X183293Y219526D01*
X182357Y219948D01*
X181377Y220253D01*
X180367Y220438D01*
X179342Y220500D01*
X84342Y207538D02*
X84395Y206541D01*
X84551Y205555D01*
X84809Y204591D01*
X85167Y203659D01*
X85620Y202769D01*
X86164Y201932D01*
X86792Y201156D01*
X87498Y200450D01*
X88274Y199822D01*
X89112Y199278D01*
X90001Y198825D01*
X90933Y198467D01*
X91897Y198208D01*
X92883Y198052D01*
X93880Y198000D01*
X112789D02*
X113793Y198072D01*
X114776Y198286D01*
X115719Y198637D01*
X116603Y199120D01*
X117408Y199723D01*
X118120Y200434D01*
X118723Y201240D01*
X119205Y202123D01*
X119557Y203066D01*
X119771Y204050D01*
X119843Y205053D01*
X178842Y204500D02*
X178934Y203458D01*
X179204Y202448D01*
X179646Y201500D01*
X180246Y200643D01*
X180986Y199904D01*
X181843Y199304D01*
X182790Y198862D01*
X183801Y198591D01*
X184843Y198500D01*
X98252Y214059D02*
X99262Y214477D01*
X99680Y215487D01*
X178842Y209500D02*
X178746Y210475D01*
X178462Y211413D01*
X178000Y212278D01*
X177378Y213035D01*
X176620Y213657D01*
X175756Y214119D01*
X174818Y214404D01*
X173843Y214500D01*
X124343Y215000D02*
X123341Y214887D01*
X122390Y214554D01*
X121537Y214018D01*
X120824Y213306D01*
X120288Y212453D01*
X119955Y211501D01*
X119843Y210500D01*
X276343Y198500D02*
X277299Y198690D01*
X278110Y199232D01*
X278652Y200043D01*
X278842Y201000D01*
X98998Y262620D02*
X99343Y262681D01*
X99269Y311000D02*
X99843Y311181D01*
X90976Y355634D02*
X90036Y355510D01*
X89159Y355147D01*
X88407Y354570D01*
X87829Y353817D01*
X87466Y352941D01*
X87343Y352000D01*
X133918Y202035D02*
X133966Y201055D01*
X134110Y200084D01*
X134349Y199132D01*
X134679Y198208D01*
X135099Y197321D01*
X135603Y196480D01*
X136188Y195691D01*
X136847Y194964D01*
X137574Y194305D01*
X138362Y193721D01*
X139204Y193216D01*
X140091Y192797D01*
X141015Y192466D01*
X141967Y192227D01*
X142938Y192083D01*
X143918Y192035D01*
X283724Y203382D02*
X282834Y203241D01*
X282031Y202832D01*
X281393Y202194D01*
X280984Y201391D01*
X280842Y200500D01*
X309386Y202045D02*
X308994Y202990D01*
X308049Y203382D01*
X106342Y216350D02*
X106127Y217432D01*
X105515Y218349D01*
X104597Y218962D01*
X103516Y219177D01*
X284768Y148500D02*
X284842Y148575D01*
X287992Y198850D02*
X287842Y199000D01*
X337417Y176500D02*
X337343Y176425D01*
X338342Y149575D02*
X338417Y149500D01*
X229343Y253000D02*
X229268Y253075D01*
X287992Y198850D02*
X287842Y199000D01*
X106342Y216350D02*
X106127Y217432D01*
X105515Y218349D01*
X104597Y218962D01*
X103516Y219177D01*
X282142Y177500D02*
X282567Y177925D01*
X299693Y199650D02*
X299417Y199925D01*
X309386Y202045D02*
X308994Y202990D01*
X308049Y203382D01*
X283724D02*
X282834Y203241D01*
X282031Y202832D01*
X281393Y202194D01*
X280984Y201391D01*
X280842Y200500D01*
X218342Y192500D02*
X218807Y192035D01*
X278378D02*
X279321Y192223D01*
X280121Y192757D01*
X280655Y193557D01*
X280842Y194500D01*
X133918Y202035D02*
X133966Y201055D01*
X134110Y200084D01*
X134349Y199132D01*
X134679Y198208D01*
X135099Y197321D01*
X135603Y196480D01*
X136188Y195691D01*
X136847Y194964D01*
X137574Y194305D01*
X138362Y193721D01*
X139204Y193216D01*
X140091Y192797D01*
X141015Y192466D01*
X141967Y192227D01*
X142938Y192083D01*
X143918Y192035D01*
X90976Y355634D02*
X90036Y355510D01*
X89159Y355147D01*
X88407Y354570D01*
X87829Y353817D01*
X87466Y352941D01*
X87343Y352000D01*
X99269Y311000D02*
X99843Y311181D01*
X98999Y262620D02*
X99342Y262681D01*
X311945Y203414D02*
X311515Y204452D01*
X310477Y204882D01*
X282724D02*
X281720Y204750D01*
X280784Y204362D01*
X279979Y203745D01*
X279363Y202941D01*
X278975Y202005D01*
X278842Y201000D01*
X178842Y204500D02*
X178934Y203458D01*
X179204Y202448D01*
X179646Y201500D01*
X180246Y200643D01*
X180986Y199904D01*
X181843Y199304D01*
X182790Y198862D01*
X183801Y198591D01*
X184843Y198500D01*
X178842Y209500D02*
X178746Y210475D01*
X178462Y211413D01*
X178000Y212278D01*
X177378Y213035D01*
X176620Y213657D01*
X175756Y214119D01*
X174818Y214404D01*
X173843Y214500D01*
X276343Y198500D02*
X277299Y198690D01*
X278110Y199232D01*
X278652Y200043D01*
X278842Y201000D01*
X98252Y214059D02*
X99262Y214477D01*
X99680Y215487D01*
X124343Y215000D02*
X123341Y214887D01*
X122390Y214554D01*
X121537Y214018D01*
X120824Y213306D01*
X120288Y212453D01*
X119955Y211501D01*
X119843Y210500D01*
X112789Y198000D02*
X113793Y198072D01*
X114776Y198286D01*
X115719Y198637D01*
X116603Y199120D01*
X117408Y199723D01*
X118120Y200434D01*
X118723Y201240D01*
X119205Y202123D01*
X119557Y203066D01*
X119771Y204050D01*
X119843Y205053D01*
X84342Y207538D02*
X84395Y206541D01*
X84551Y205555D01*
X84809Y204591D01*
X85167Y203659D01*
X85620Y202769D01*
X86164Y201932D01*
X86792Y201156D01*
X87498Y200450D01*
X88274Y199822D01*
X89112Y199278D01*
X90001Y198825D01*
X90933Y198467D01*
X91897Y198208D01*
X92883Y198052D01*
X93880Y198000D01*
X93778Y352917D02*
X94620Y353379D01*
X91967Y305941D02*
X91980Y305941D01*
X92239Y257441D02*
X92254Y257441D01*
X91362Y305941D02*
X91343Y305941D01*
X252343Y207000D02*
X252842Y206500D01*
X249843Y204500D02*
X250799Y204690D01*
X251610Y205232D01*
X252152Y206043D01*
X252343Y207000D01*
X187843Y210000D02*
X187939Y209025D01*
X188223Y208087D01*
X188685Y207223D01*
X189307Y206466D01*
X190064Y205844D01*
X190928Y205382D01*
X191866Y205098D01*
X192841Y205001D01*
X314504Y203339D02*
X314349Y204315D01*
X313900Y205197D01*
X313201Y205896D01*
X312319Y206345D01*
X311343Y206500D01*
X187843Y212000D02*
X187780Y213024D01*
X187595Y214034D01*
X187290Y215014D01*
X186869Y215950D01*
X186338Y216828D01*
X185705Y217636D01*
X184979Y218362D01*
X184171Y218995D01*
X183293Y219526D01*
X182357Y219948D01*
X181377Y220253D01*
X180367Y220438D01*
X179342Y220500D01*
X115842Y220500D02*
X114761Y220329D01*
X113785Y219832D01*
X113011Y219057D01*
X112514Y218082D01*
X112343Y217000D01*
X109178Y209088D02*
X110199Y209457D01*
X111082Y210086D01*
X111765Y210929D01*
X112195Y211925D01*
X112343Y213000D01*
X108973Y209067D02*
X109178Y209088D01*
X102760Y209067D02*
X102339Y208996D01*
X102011Y208941D02*
X102339Y208996D01*
X90421Y307486D02*
X90878Y306398D01*
X91967Y305941D01*
X91862Y305941D02*
X90848Y305523D01*
X90421Y304513D01*
X90421Y307500D02*
X90421Y307486D01*
X90421Y350092D02*
X90421Y350096D01*
X90421Y350079D02*
Y350092D01*
Y350079D02*
Y350079D01*
X90421Y259274D02*
X90421Y259259D01*
Y304513D02*
X90421Y304500D01*
X91932Y257470D02*
X92239Y257441D01*
X90421Y259259D02*
X90620Y258443D01*
X91161Y257802D01*
X91932Y257470D01*
X92239Y257441D02*
X91333Y257193D01*
X90669Y256529D01*
X90421Y255623D01*
X92254Y257441D02*
X92239Y257441D01*
X90421Y210207D02*
X90792Y209312D01*
X91687Y208941D01*
X90421Y255623D02*
X90421Y255608D01*
X258842Y362000D02*
X258652Y362957D01*
X258110Y363768D01*
X257299Y364310D01*
X256343Y364500D01*
X255842Y345500D02*
X256770Y345647D01*
X257606Y346073D01*
X258270Y346737D01*
X258696Y347573D01*
X258842Y348500D01*
X193842Y345500D02*
X192801Y345409D01*
X191790Y345138D01*
X190842Y344696D01*
X189986Y344096D01*
X189246Y343357D01*
X188646Y342500D01*
X188204Y341552D01*
X187934Y340542D01*
X187843Y339500D01*
Y267500D02*
X188033Y266544D01*
X188574Y265733D01*
X189385Y265192D01*
X190341Y265002D01*
X246342Y359500D02*
X245282Y359061D01*
X244843Y358000D01*
X242843Y356000D02*
X243843Y356268D01*
X244575Y357000D01*
X244843Y358000D01*
X252842Y347500D02*
X253770Y347647D01*
X254606Y348073D01*
X255270Y348737D01*
X255696Y349573D01*
X255842Y350500D01*
X239004Y357000D02*
X239297Y356293D01*
X240004Y356000D01*
X191842Y347500D02*
X190878Y347442D01*
X189928Y347268D01*
X189006Y346980D01*
X188125Y346584D01*
X187298Y346084D01*
X186538Y345488D01*
X185854Y344805D01*
X185259Y344044D01*
X184759Y343218D01*
X184362Y342337D01*
X184075Y341414D01*
X183901Y340464D01*
X183843Y339500D01*
Y259000D02*
X184014Y257918D01*
X184511Y256943D01*
X185285Y256168D01*
X186261Y255671D01*
X187343Y255500D01*
X133843Y205000D02*
X133918Y204012D01*
X344342Y294000D02*
X371843D01*
X335092Y284750D02*
X344342Y294000D01*
X371843D02*
X374843Y297000D01*
X45342Y345000D02*
X52457D01*
X290861Y183575D02*
X304268D01*
X288361Y186075D02*
X290861Y183575D01*
X30843Y213500D02*
Y214000D01*
X40843Y203500D02*
X50642D01*
X30843Y213500D02*
X40843Y203500D01*
X30843Y234000D02*
X31343Y233500D01*
X47404Y235772D02*
X53510D01*
X45132Y233500D02*
X47404Y235772D01*
X31343Y233500D02*
X45132D01*
X53510Y235772D02*
X56343Y232939D01*
Y229061D02*
Y232939D01*
X30843Y254000D02*
X31343Y254500D01*
X50642D01*
X63244Y271000D02*
X66257D01*
X36132Y274000D02*
X47404Y285272D01*
X30843Y274000D02*
X36132D01*
X49642Y296500D02*
X50642Y297500D01*
X30843Y294000D02*
X32267D01*
X34767Y296500D01*
X49642D01*
X30843Y314000D02*
X32120Y315278D01*
X34545D01*
X34767Y315500D02*
X50642D01*
X34545Y315278D02*
X34767Y315500D01*
X30843Y334000D02*
X32267D01*
X34767Y336500D01*
X52142D01*
X30843Y354000D02*
X52142D01*
X64193Y358500D02*
Y361500D01*
Y353850D02*
Y358500D01*
X72063D01*
X64193Y353850D02*
X64543Y353500D01*
X64228Y353185D02*
X64543Y353500D01*
X91343Y358500D02*
X94622D01*
X107846Y203319D02*
X113662D01*
X107343Y203823D02*
X107846Y203319D01*
X373843Y248000D02*
X383842Y238000D01*
X371342Y136500D02*
X379343Y144500D01*
X375842Y133500D02*
X383842Y141500D01*
X379343Y144500D02*
Y203000D01*
X383842Y141500D02*
Y238000D01*
X374843Y207500D02*
X379343Y203000D01*
X282724Y204882D02*
X310477D01*
X283724Y203382D02*
X308049D01*
X90421Y255608D02*
Y257603D01*
Y259274D01*
Y304500D02*
Y306000D01*
Y307500D01*
Y350079D01*
Y350096D02*
Y351549D01*
X90584Y257441D02*
X92254D01*
X91789Y352917D02*
X93778D01*
X108343Y209067D02*
X108973D01*
X192841Y205001D02*
X193842D01*
X63043Y222500D02*
Y223602D01*
X61161Y225484D02*
X63043Y223602D01*
X59920Y225484D02*
X61161D01*
X56343Y229061D02*
X59920Y225484D01*
X56965Y277939D02*
X60419Y274484D01*
X56965Y277939D02*
Y281817D01*
X60419Y274484D02*
X61362D01*
X63244Y271500D02*
Y272602D01*
X53510Y285272D02*
X56965Y281817D01*
X47404Y285272D02*
X53510D01*
X61362Y274484D02*
X63244Y272602D01*
X52142Y353500D02*
X55343D01*
X193842Y305001D02*
X210344D01*
X295708Y241754D02*
X300954D01*
X285396Y175000D02*
X291399D01*
X294399Y178000D01*
X292342Y148000D02*
X299614D01*
X187343Y255500D02*
X193842D01*
X183843Y259000D02*
Y339500D01*
X191842Y347500D02*
X252842D01*
X240004Y356000D02*
X242843D01*
X246342Y359500D02*
X249393D01*
X190341Y265001D02*
X193842D01*
X187843Y267500D02*
Y339500D01*
X193842Y345500D02*
X255842D01*
X258842Y348500D02*
Y362000D01*
X249393Y364500D02*
X256343D01*
X330842Y158000D02*
X333842Y155000D01*
X329842Y141925D02*
X338342D01*
X328458D02*
X329842D01*
X328458D02*
X328842D01*
X319342Y185500D02*
X336417D01*
X282842Y139925D02*
X290342D01*
X277428D02*
X282842D01*
X193842Y245001D02*
X223266D01*
X216508Y285500D02*
X224437D01*
X51957Y362500D02*
Y370000D01*
Y362035D02*
Y362500D01*
X72677Y355941D02*
X75305D01*
X78373D01*
X50142Y271500D02*
X51642Y270000D01*
X62693Y263500D02*
X62843D01*
X62343D02*
X62843D01*
X62693D02*
X62843D01*
X63342Y263000D01*
Y263500D02*
X66823D01*
X49957Y271685D02*
X50142Y271500D01*
X62843Y263500D02*
X63342D01*
X50457Y246500D02*
X50957Y246000D01*
X50492Y263047D02*
X54843Y258697D01*
Y254500D02*
Y255000D01*
Y258697D01*
X50992Y305000D02*
X53622Y307630D01*
X62728Y315500D02*
Y322000D01*
X57842Y287500D02*
X59862Y289520D01*
X62693Y295850D02*
Y304453D01*
Y305000D02*
X64252Y306559D01*
X62193Y205350D02*
Y212500D01*
X63193Y211500D01*
X63043Y197087D02*
Y204500D01*
X283642Y368500D02*
X284642Y369500D01*
X90480Y305941D02*
X91343D01*
Y305921D02*
Y305941D01*
X91362Y305941D02*
X91862D01*
X194344Y204500D02*
X249843D01*
X252842Y206500D02*
X311343D01*
X92254Y257441D02*
X94622D01*
X91862Y305941D02*
X91980D01*
X187843Y210000D02*
Y212000D01*
X112343Y213000D02*
Y217000D01*
X115842Y220500D02*
X179342D01*
X102760Y209067D02*
X108343D01*
X91980Y305941D02*
X94622D01*
X90421Y210207D02*
Y255608D01*
Y259274D02*
Y304500D01*
X84342Y207538D02*
Y214000D01*
X93880Y198000D02*
X112789D01*
X94622Y214059D02*
X98252D01*
X94183Y262620D02*
X98998D01*
X94622Y311000D02*
X99269D01*
X119843Y205053D02*
Y210500D01*
X178842Y204500D02*
Y209500D01*
X184843Y198500D02*
X276343D01*
X124343Y215000D02*
X133843D01*
X134343Y214500D02*
X173843D01*
X99343Y262681D02*
X100343Y263681D01*
X87343Y308319D02*
Y352000D01*
X94303Y259819D02*
X100024D01*
X94595Y355634D02*
X94902Y355941D01*
X280842Y194500D02*
Y200500D01*
X309386Y199142D02*
Y202045D01*
X143918Y192035D02*
X278378D01*
X321071Y178000D02*
X331939D01*
X329361Y150075D02*
X329842D01*
X327286Y148000D02*
X329361Y150075D01*
X329842Y147086D02*
Y150075D01*
X74228Y194535D02*
Y195500D01*
X94622Y219177D02*
X103516D01*
X61728Y279500D02*
X69342D01*
X113842Y343000D02*
X122343D01*
X278842Y148500D02*
X284768D01*
X274342Y177000D02*
X282917D01*
X287842Y199000D02*
Y200000D01*
X289211Y216000D02*
X293551D01*
X337417Y176500D02*
X343342D01*
X338417Y149500D02*
X344342D01*
X327299Y203500D02*
Y205500D01*
X117969Y295000D02*
X133843D01*
X116342Y275000D02*
X133843D01*
X107343Y253150D02*
X107843Y253650D01*
X103842Y343850D02*
X103992Y344000D01*
X223342Y253075D02*
X229268D01*
X71592Y257470D02*
X76813D01*
X71092Y305970D02*
X76813D01*
X241342Y376150D02*
Y382000D01*
X281842Y236425D02*
X282268Y236000D01*
X281842Y236425D02*
Y240500D01*
X109588Y303382D02*
X117969Y295000D01*
X94622Y303382D02*
X109588D01*
X107693Y294000D02*
X114342D01*
X95842Y288000D02*
Y293850D01*
X305614Y278000D02*
X306886D01*
X304343D02*
X305614D01*
Y276728D02*
Y278000D01*
X64925Y219516D02*
X66230D01*
X54909Y217370D02*
X58530D01*
X67339Y215849D02*
Y215888D01*
X63043Y221398D02*
X64925Y219516D01*
X63043Y221398D02*
Y221949D01*
X67339Y215849D02*
X68821Y214366D01*
X71756D02*
X72063Y214059D01*
X65856Y217370D02*
X67339Y215888D01*
X68821Y216925D02*
X71756D01*
X68821Y214366D02*
X71756D01*
X58530Y217370D02*
X65856D01*
X66230Y219516D02*
X68821Y216925D01*
X55343Y353500D02*
X58842Y357000D01*
X58776Y360384D02*
X58842Y360317D01*
Y357000D02*
Y360317D01*
X57275Y363086D02*
Y377433D01*
X59342Y379500D01*
X68343D01*
X58776Y376812D02*
X59964Y378000D01*
X58776Y360384D02*
Y376812D01*
X59964Y378000D02*
X67499D01*
X68343Y379500D02*
X77764Y370079D01*
X67499Y378000D02*
X76264Y369236D01*
X51957Y362035D02*
X52421Y362500D01*
X56690D01*
X57275Y363086D01*
X77764Y358707D02*
Y370079D01*
X257699Y299330D02*
Y300018D01*
Y313044D01*
X254743Y316000D02*
X257699Y313044D01*
Y299330D02*
X258844Y298185D01*
Y297998D02*
Y298185D01*
Y297998D02*
X259343Y297500D01*
X263799D01*
X306614Y136500D02*
X371342D01*
X299614Y143500D02*
X306614Y136500D01*
X273843Y170000D02*
X278118Y174276D01*
X284671D01*
X285396Y175000D01*
X287842Y158500D02*
X288342Y158000D01*
X299614D01*
X300114Y157500D01*
X273843Y139890D02*
Y170000D01*
X106020Y350823D02*
X108343Y348500D01*
X94622Y350823D02*
X106020D01*
X108343Y326500D02*
Y348500D01*
X103842Y338000D02*
Y343850D01*
X94622Y348264D02*
X96036D01*
X96343Y347957D01*
Y346542D02*
Y347957D01*
Y346542D02*
X97948Y344938D01*
X99362D01*
X100409Y343891D01*
X100909Y342477D02*
Y343891D01*
X287992Y193000D02*
Y198850D01*
X63728Y370000D02*
X69842D01*
X108343Y326500D02*
X119343Y315500D01*
X94799Y316000D02*
X100842D01*
X94622Y316177D02*
X94799Y316000D01*
X94803Y308319D02*
X104162D01*
X104342Y308500D01*
X94622D02*
X94803Y308319D01*
X100024Y311000D02*
X100842D01*
X99843Y311181D02*
X100024Y311000D01*
X113842Y261817D02*
Y272500D01*
X112713Y260687D02*
X113842Y261817D01*
X111959Y259933D02*
X112713Y260687D01*
X110716Y258691D02*
X111959Y259933D01*
X103325Y258691D02*
X110716D01*
X100343Y263681D02*
Y264000D01*
X107843Y216850D02*
Y223000D01*
X107343Y216350D02*
X107843Y216850D01*
X116935Y202801D02*
Y212407D01*
X116842Y212500D02*
X116935Y212407D01*
X114366Y200232D02*
X116935Y202801D01*
X92719Y200232D02*
X114366D01*
X99693Y215500D02*
X100343D01*
X94744Y211622D02*
X101274D01*
X94622Y211500D02*
X94744Y211622D01*
X99680Y215487D02*
X99693Y215500D01*
X94622Y203823D02*
X106342D01*
X90421Y202530D02*
X92719Y200232D01*
X90421Y202530D02*
Y205579D01*
X90917Y206075D01*
X100024Y259819D02*
X100343Y259500D01*
X99516Y254882D02*
X103325Y258691D01*
X94622Y254882D02*
X99516D01*
X94945Y252000D02*
X100343D01*
X94622Y252323D02*
X94945Y252000D01*
X100343D02*
X104693D01*
X54843Y254500D02*
X62543D01*
X66843Y267384D02*
Y270414D01*
X68801Y265425D02*
X71256D01*
X66843Y267384D02*
X68801Y265425D01*
X66827Y257984D02*
X68555Y259713D01*
X64425Y257984D02*
X66827D01*
X62543Y256102D02*
X64425Y257984D01*
X68555Y259713D02*
X71276D01*
X72004Y311000D02*
X72063Y311059D01*
X63043Y312500D02*
X64173Y311370D01*
X66726Y311000D02*
X72004D01*
X66356Y311370D02*
X66726Y311000D01*
X64173Y311370D02*
X66356D01*
X53622Y307630D02*
Y308780D01*
X59747Y314905D01*
X62448D01*
X63043Y315500D01*
X56842Y316500D02*
Y328414D01*
X51737Y313595D02*
X53938D01*
X56842Y316500D01*
X54184Y328192D02*
Y329938D01*
X50957Y324965D02*
X54184Y328192D01*
X67343Y314511D02*
Y328414D01*
X57428Y329000D02*
X66757D01*
X56842Y328414D02*
X57428Y329000D01*
X66757D02*
X67343Y328414D01*
X54184Y329938D02*
X54444Y330199D01*
X50957Y324000D02*
Y324965D01*
X67928Y313925D02*
X70756D01*
X67343Y314511D02*
X67928Y313925D01*
X64252Y308409D02*
X70973D01*
X64252Y306559D02*
Y308409D01*
X71276Y259713D02*
X71563Y260000D01*
X62543Y255000D02*
Y256102D01*
X277842Y368500D02*
Y369325D01*
X277667Y369500D02*
X277842Y369325D01*
Y368500D02*
X283642D01*
X104693Y252000D02*
X105342Y252650D01*
X87343Y260000D02*
Y308319D01*
X242829Y281628D02*
X245988Y278469D01*
X242829Y281628D02*
Y282513D01*
X245988Y278469D02*
X246382D01*
X242342Y283000D02*
X242829Y282513D01*
X239843Y285500D02*
X242342Y283000D01*
X234748Y285500D02*
X239843D01*
X107843Y264350D02*
Y271000D01*
X113842Y272500D02*
X116342Y275000D01*
X94622Y267677D02*
X101563D01*
X104890Y264350D01*
X105342D01*
X59862Y291217D02*
X63043Y294398D01*
X59862Y289520D02*
Y291217D01*
X63043Y294398D02*
Y295500D01*
X254743Y316000D02*
X256842Y318100D01*
Y334000D01*
X263799D01*
X71842Y316398D02*
Y320500D01*
Y316398D02*
X72063Y316177D01*
Y363618D02*
Y367780D01*
X69842Y370000D02*
X72063Y367780D01*
X76264Y362325D02*
Y369236D01*
X69342Y287228D02*
X69614Y287500D01*
X69342Y279500D02*
Y287228D01*
X68829Y189136D02*
X74228Y194535D01*
X68343Y187500D02*
X68829Y187987D01*
Y189136D01*
X288711Y216500D02*
X289211Y216000D01*
X288342Y216500D02*
X288711D01*
X288992Y223047D02*
Y223500D01*
X291689Y217862D02*
X293551Y216000D01*
X281842Y245500D02*
Y273000D01*
X284268Y243075D02*
X297342D01*
X281842Y245500D02*
X284268Y243075D01*
X278842Y276000D02*
Y283000D01*
Y276000D02*
X281842Y273000D01*
X278842Y283000D02*
X280592Y284750D01*
X282343Y280000D02*
X287768D01*
X280592Y284750D02*
X335092D01*
X287768Y280000D02*
X287842Y280075D01*
X288992Y223047D02*
X291689Y220350D01*
Y217862D02*
Y220350D01*
X290917Y236000D02*
X291992Y234925D01*
X297342D01*
X241193Y376000D02*
X241342Y376150D01*
X241193Y376000D02*
X242693Y374500D01*
X249393D01*
X263342Y361000D02*
X266843Y364500D01*
X270843D01*
X329858Y221858D02*
Y228016D01*
X332343Y230500D01*
X335842Y260000D02*
X335984D01*
X341409Y254575D02*
X341843D01*
X335984Y260000D02*
X341409Y254575D01*
X336842Y261000D02*
Y264425D01*
X335842Y260000D02*
X336842Y261000D01*
X256842Y264000D02*
Y270725D01*
X80843Y281000D02*
Y296424D01*
X76443Y300823D02*
X80843Y296424D01*
X84342Y311000D02*
Y351500D01*
X93343Y278000D02*
X126344D01*
X84342Y262500D02*
Y311000D01*
X95842Y293850D02*
X95992Y294000D01*
X126344Y278000D02*
X133843Y285499D01*
X94622Y295870D02*
X95992Y294500D01*
X94622Y295870D02*
Y300823D01*
X72063Y219177D02*
Y225280D01*
X70342Y227000D02*
X72063Y225280D01*
X70342Y227000D02*
Y231000D01*
X62228D02*
X70342D01*
X72063Y208941D02*
X72092Y208970D01*
X76813D01*
X76842Y209000D01*
X76813Y257470D02*
X76842Y257500D01*
X76813Y305970D02*
X76842Y306000D01*
X71063Y305941D02*
X71092Y305970D01*
X77201Y353321D02*
X77262Y353260D01*
X72404Y353321D02*
X77201D01*
X72342Y353382D02*
X72404Y353321D01*
X79943Y345809D02*
Y354370D01*
X70634Y336500D02*
X79943Y345809D01*
X78373Y355941D02*
X79943Y354370D01*
X193842Y255500D02*
X208343D01*
X208842Y255000D01*
X208343Y265500D02*
X208842Y265000D01*
X193842Y265500D02*
X208343D01*
X133417Y348500D02*
X141842D01*
X93843Y336500D02*
X94103Y336239D01*
Y326239D02*
X96842Y323500D01*
X94103Y326239D02*
Y336239D01*
X119343Y315500D02*
X133841D01*
X129842Y335500D02*
X133841D01*
X133843Y335499D01*
X122343Y343000D02*
X129842Y335500D01*
X125268Y344075D02*
Y348500D01*
X126342Y343000D02*
X138342D01*
X125268Y344075D02*
X126342Y343000D01*
X125201Y348567D02*
X125268Y348500D01*
X134799Y326455D02*
X137798D01*
X133843Y325499D02*
X134799Y326455D01*
X137798D02*
X140842Y329500D01*
Y340500D01*
X138342Y343000D02*
X140842Y340500D01*
X125201Y348567D02*
Y357205D01*
X92597Y363618D02*
X94622D01*
X92289Y363925D02*
X92597Y363618D01*
X94622D02*
X94740Y363500D01*
X99843D01*
X64543Y336500D02*
X70634D01*
X101342Y359000D02*
Y362000D01*
X99843Y363500D02*
X101342Y362000D01*
X103138Y357205D02*
X107484D01*
X101342Y359000D02*
X103138Y357205D01*
X72342Y342000D02*
Y347984D01*
X75305Y361366D02*
X76264Y362325D01*
X72370Y361366D02*
X75305D01*
Y356248D02*
X77764Y358707D01*
X72063Y361059D02*
X72370Y361366D01*
X64228Y345000D02*
Y353185D01*
X72063Y348264D02*
X72342Y347984D01*
X87343Y211319D02*
Y260000D01*
X91687Y208941D02*
X94622D01*
X102011D01*
X94620Y353379D02*
X94622Y353382D01*
X314504Y199142D02*
Y203339D01*
X77004Y267839D02*
X77173Y267669D01*
X72224Y267839D02*
X77004D01*
X72063Y267677D02*
X72224Y267839D01*
X71563Y257441D02*
X71592Y257470D01*
X62228Y245500D02*
X68343D01*
X327071Y255000D02*
X333343D01*
X320342Y251000D02*
X321342Y250000D01*
X320342Y258500D02*
X321843Y260000D01*
X320342Y251000D02*
Y258500D01*
X321342Y250000D02*
X327071D01*
X321843Y260000D02*
X327071D01*
X341843Y241000D02*
Y246425D01*
X327299Y203500D02*
X328842D01*
X329648Y199352D02*
X329858Y199142D01*
X329648Y199352D02*
Y202695D01*
X328842Y203500D02*
X329648Y202695D01*
X327299Y199142D02*
Y203500D01*
Y205500D02*
X327343D01*
X315843Y163000D02*
X321071D01*
X275342Y142011D02*
Y151000D01*
Y142011D02*
X277428Y139925D01*
X275342Y151000D02*
X277343Y153000D01*
X299614D01*
X273843Y139890D02*
X280232Y133500D01*
X375842D01*
X299693Y193000D02*
Y199650D01*
X226343Y289624D02*
Y307425D01*
Y289624D02*
X228592Y287374D01*
Y278750D02*
Y287374D01*
Y278750D02*
X230842Y276500D01*
X241303D01*
X193842Y285500D02*
X203177D01*
X193842Y235500D02*
X238342D01*
X265342Y208500D01*
X223342Y244925D02*
X231917D01*
X266342Y210500D01*
X133841Y315500D02*
X133843Y315499D01*
X255842Y350500D02*
Y358000D01*
X133918Y202035D02*
Y204012D01*
X253102Y270725D02*
Y272740D01*
X251311Y274532D02*
X253102Y272740D01*
X249393Y359500D02*
X254343D01*
X284642Y369500D02*
X285343Y368799D01*
X292843Y250500D02*
X293342Y250000D01*
X292342Y261500D02*
X293843Y260000D01*
X299693Y193000D02*
X301193Y194500D01*
X297342Y233425D02*
X297417Y233500D01*
X300954Y241754D02*
X302141Y240566D01*
X296768Y270500D02*
X300757D01*
X301343Y269914D01*
X306343Y157500D02*
X309842Y161000D01*
X304343Y173000D02*
X305842Y174500D01*
X306311Y194500D02*
X307343D01*
X309757Y234000D02*
X310343Y234586D01*
X305048Y240566D02*
X305614Y240000D01*
Y245000D02*
X309257D01*
X305614Y276728D02*
X306886Y278000D01*
X304343D02*
X305614Y276728D01*
X315843Y144000D02*
X317917Y141925D01*
X315843Y152000D02*
X316843Y153000D01*
X315428Y157914D02*
X316631D01*
X316717Y158000D01*
X312343Y161000D02*
X315428Y157914D01*
X314843Y169500D02*
X316428Y167914D01*
X316342Y174000D02*
X317342Y173000D01*
X312842Y208500D02*
X317063Y204280D01*
X321071Y148000D02*
X327286D01*
X320985Y167914D02*
X321071Y168000D01*
X321843Y194500D02*
X322181Y194839D01*
X321181Y194500D02*
X321843D01*
X322998D02*
X324154D01*
X321843D02*
X322998D01*
X332343Y168000D02*
X332842Y167500D01*
X328693Y177000D02*
X329343Y176350D01*
X329776D01*
X330466Y190000D02*
X334953Y194486D01*
X331343Y239500D02*
X332343Y240500D01*
X331343Y245000D02*
X332343Y244000D01*
X331343Y264500D02*
X332343Y265500D01*
X331343Y270000D02*
X332343Y269000D01*
X336417Y185500D02*
X337343Y184575D01*
X337268Y184500D02*
X337343Y184575D01*
X336417Y273000D02*
X336842Y272575D01*
X364536Y143000D02*
X366342D01*
X361844Y145692D02*
X364536Y143000D01*
X364768Y181425D02*
X366342Y183000D01*
X364643D02*
X366342D01*
X361718Y180075D02*
X364643Y183000D01*
X365843Y208000D02*
X366342Y207500D01*
X365843Y328000D02*
X366342Y327500D01*
X272668Y374500D02*
X277667Y369500D01*
X299614Y143500D02*
Y148000D01*
X301343Y267598D02*
Y269914D01*
X305842Y174500D02*
Y182000D01*
X305974Y163000D02*
X306474Y163500D01*
X306842D01*
X309842Y161000D02*
Y183379D01*
X307842Y172000D02*
Y183500D01*
X306827Y195016D02*
X307343Y194500D01*
X306827Y195016D02*
Y199142D01*
X306311Y194500D02*
X306827Y195016D01*
X310343Y234586D02*
Y243914D01*
X309257Y245000D02*
X310343Y243914D01*
X305614Y270000D02*
Y276728D01*
Y260000D02*
X306114Y259500D01*
X315843Y144000D02*
Y152000D01*
X316342Y174000D02*
Y182500D01*
X312343Y161000D02*
Y183500D01*
X314843Y169500D02*
Y183500D01*
X312343D02*
X318843Y190000D01*
X317063Y199142D02*
Y204280D01*
X324154Y194500D02*
X324740Y195086D01*
Y199142D01*
X322181Y194839D02*
Y195317D01*
Y195500D02*
Y199142D01*
Y195317D02*
Y195500D01*
Y195317D02*
X322998Y194500D01*
X321181D02*
X322181Y195500D01*
X327299Y217043D02*
Y221858D01*
X322181Y217783D02*
Y221858D01*
X324740Y217345D02*
Y221858D01*
X329842Y147086D02*
X331237Y145692D01*
X331939Y178000D02*
X334014Y180075D01*
X329179Y193000D02*
X331953Y195774D01*
X334953Y194486D02*
Y207132D01*
X331953Y195774D02*
Y205890D01*
X333453Y195153D02*
Y206511D01*
X332343Y240500D02*
Y244000D01*
Y265500D02*
Y269000D01*
X336453Y193865D02*
Y207890D01*
X370796Y327500D02*
X374843Y323454D01*
X314504Y221858D02*
Y247339D01*
X317063Y221858D02*
Y255780D01*
X313342Y259500D02*
X317063Y255780D01*
X329800Y191500D02*
X333453Y195153D01*
X374843Y297000D02*
Y323454D01*
X246382Y274532D02*
X251311D01*
X239165Y364500D02*
X249393D01*
X233343Y369500D02*
X249393D01*
X254343Y359500D02*
X255842Y358000D01*
X270843Y359500D02*
X277842D01*
X270843Y369500D02*
X277667D01*
X270843Y374500D02*
X272668D01*
X300114Y157500D02*
X306343D01*
X299614Y168000D02*
X303842D01*
X287842Y167500D02*
X288342Y168000D01*
X299614D01*
Y173000D02*
X304343D01*
X294399Y178000D02*
X299614D01*
X304268Y183575D02*
X305842Y182000D01*
X301193Y194500D02*
X306311D01*
X297912Y234000D02*
X309757D01*
X302141Y240566D02*
X305048D01*
X305614Y250000D02*
X311842D01*
X314504Y247339D01*
X293342Y250000D02*
X305614D01*
Y255000D02*
X311343D01*
X303941Y265000D02*
X305614D01*
X293843Y260000D02*
X305614D01*
X288342Y271425D02*
X295843D01*
X287842Y271925D02*
X288342Y271425D01*
X295843D02*
X296768Y270500D01*
X297417Y278000D02*
X304343D01*
X295843Y279575D02*
X297417Y278000D01*
X317917Y141925D02*
X328458D01*
X316843Y153000D02*
X321071D01*
Y158000D02*
X329842D01*
X316717D02*
X321071D01*
X316428Y167914D02*
X320985D01*
X321071Y168000D02*
X332343D01*
X317342Y173000D02*
X321071D01*
X316342Y182500D02*
X319342Y185500D01*
X331088Y188500D02*
X336453Y193865D01*
X318843Y190000D02*
X330466D01*
X319843Y188500D02*
X331088D01*
X317964Y191500D02*
X329800D01*
X317342Y193000D02*
X329179D01*
X319622Y221858D02*
X319685Y221796D01*
X327071Y240000D02*
X327571Y239500D01*
X331343D01*
X327071Y245000D02*
X331343D01*
X327071Y260000D02*
X335842D01*
X327071Y265000D02*
X327571Y264500D01*
X331343D01*
X327071Y270000D02*
X331343D01*
Y273000D02*
X336417D01*
X366342Y207500D02*
X374843D01*
X365843Y248000D02*
X373843D01*
X366342Y327500D02*
X370796D01*
X303842Y168000D02*
X307842Y172000D01*
X299614Y163000D02*
X305974D01*
X311945Y199142D02*
Y203414D01*
X301343Y267598D02*
X303941Y265000D01*
X306114Y259500D02*
X313342D01*
X319622Y199142D02*
Y204220D01*
X327299Y217043D02*
X336453Y207890D01*
X324740Y217345D02*
X334953Y207132D01*
X319685Y218158D02*
X331953Y205890D01*
X322181Y217783D02*
X333453Y206511D01*
X319685Y218158D02*
Y221796D01*
X281343Y186075D02*
X288361D01*
X331237Y145692D02*
X361844D01*
X334014Y180075D02*
X361718D01*
X307343Y194500D02*
X321181D01*
X313342Y210500D02*
X319622Y204220D01*
X306886Y278000D02*
X337842D01*
X347843Y288000D02*
X365843D01*
X314843Y183500D02*
X319843Y188500D01*
X337842Y278000D02*
X347843Y288000D01*
X309842Y183379D02*
X317964Y191500D01*
X307842Y183500D02*
X317342Y193000D01*
X266342Y210500D02*
X313342D01*
X265342Y208500D02*
X312842D01*
X81343Y205500D02*
Y237000D01*
X84342Y214000D02*
X84524Y214181D01*
X72063Y203823D02*
X79665D01*
X81343Y205500D01*
X94315Y206075D02*
X94622Y206382D01*
X90917Y206075D02*
X94315D01*
X90421Y306000D02*
X90480Y305941D01*
X90421Y257603D02*
X90584Y257441D01*
X81842Y240500D02*
Y250500D01*
X72063Y252323D02*
X80020D01*
X81842Y250500D01*
X84524Y214181D02*
Y262319D01*
X84342Y262500D02*
X84524Y262319D01*
X93843Y240500D02*
X114342D01*
X117342Y243500D01*
Y262500D01*
X120341Y265499D01*
X133843D01*
X72063Y300823D02*
X76443D01*
X96842Y323500D02*
X107343D01*
X109843Y309500D02*
Y321000D01*
Y309500D02*
X113844Y305499D01*
X133843D01*
X107343Y323500D02*
X109843Y321000D01*
X94122Y260000D02*
X94303Y259819D01*
X94622Y311000D02*
Y311059D01*
X90976Y355634D02*
X94595D01*
X133843Y215000D02*
X134343Y214500D01*
X223266Y245001D02*
X223342Y244925D01*
X226268Y307500D02*
X226343Y307425D01*
X212842Y307500D02*
X226268D01*
X210344Y305001D02*
X212842Y307500D01*
X50642Y213102D02*
X54909Y217370D01*
X54843Y247500D02*
Y254500D01*
X56928Y264000D02*
X62193D01*
X62457Y196500D02*
X63043Y197087D01*
X62193Y205350D02*
X63043Y204500D01*
X63193Y211500D02*
X72063D01*
X50457Y222685D02*
X50642Y222500D01*
X50457Y222685D02*
Y231000D01*
X50642Y213102D02*
Y222500D01*
X62693Y295850D02*
X63043Y295500D01*
X70973Y308409D02*
X71063Y308500D01*
X50957Y246000D02*
X53342D01*
X54843Y247500D01*
X49957Y271685D02*
Y279500D01*
X51642Y270000D02*
X53843D01*
X56343Y267500D01*
Y264586D02*
Y267500D01*
Y264586D02*
X56928Y264000D01*
X66823Y263500D02*
X67457Y262866D01*
X71256D01*
X71563Y262559D01*
X70756Y313925D02*
X71063Y313618D01*
X71256Y265425D02*
X71563Y265118D01*
X66257Y271000D02*
X66843Y270414D01*
X71756Y216925D02*
X72063Y216618D01*
D24*
X249393Y374500D02*
D03*
Y369500D02*
D03*
Y364500D02*
D03*
Y359500D02*
D03*
X270843D02*
D03*
Y364500D02*
D03*
Y369500D02*
D03*
Y374500D02*
D03*
D31*
X256842Y270725D02*
D03*
X253102Y282275D02*
D03*
X260583D02*
D03*
Y270725D02*
D03*
X253102D02*
D03*
D44*
X316342Y313000D02*
D03*
X326343D02*
D03*
X125201Y382795D02*
D03*
X107484D02*
D03*
X125201Y357205D02*
D03*
D57*
X260343Y282515D02*
X260583Y282275D01*
X285548Y328952D02*
X286596Y330000D01*
X281592Y324996D02*
X285548Y328952D01*
X286548Y330048D02*
X290843Y334343D01*
X274000Y384500D02*
X274898Y383602D01*
X279752Y377248D02*
X284295D01*
X274898Y382102D02*
X279752Y377248D01*
X274898Y382102D02*
Y383602D01*
X284295Y377248D02*
X285343Y376201D01*
X260343Y282515D02*
Y287000D01*
X253102Y284828D02*
X255274Y287000D01*
X260314D01*
X270886Y333409D02*
Y337957D01*
X247843Y293000D02*
X249342Y291500D01*
X268342D02*
X270886Y294043D01*
X249342Y291500D02*
X268342D01*
X280192Y325746D02*
X280943Y324996D01*
X272697Y332146D02*
X279097Y325746D01*
X272149Y332146D02*
X272697D01*
X270886Y333409D02*
X272149Y332146D01*
X279097Y325746D02*
X280192D01*
X280943Y324996D02*
X281592D01*
X290022Y318680D02*
X290342Y319000D01*
X300342D01*
X306343Y313000D01*
X327959Y360617D02*
X331699D01*
X326343Y359000D02*
X327959Y360617D01*
X344342Y373260D02*
Y377000D01*
X331699Y360617D02*
X344342Y373260D01*
X290022Y293530D02*
Y318680D01*
X289992Y293500D02*
X290022Y293530D01*
X316287Y312945D02*
X316342Y313000D01*
X301693Y293500D02*
Y293953D01*
X316287Y308547D01*
Y312945D01*
X220342Y343500D02*
X265342D01*
X193844Y335000D02*
X211842D01*
X220342Y343500D01*
X265342D02*
X270886Y337957D01*
X253067Y282275D02*
X253102D01*
X289642Y376201D02*
X290843Y375000D01*
X325842Y294000D02*
X326343Y294500D01*
X253102Y282275D02*
Y284828D01*
X290843Y334343D02*
Y375000D01*
X326343Y294500D02*
Y312500D01*
X285343Y376201D02*
X289642D01*
X193842Y335001D02*
X193844Y335000D01*
D58*
X231681Y362500D02*
X231181Y363000D01*
X231679Y362542D02*
X231181Y363000D01*
X231681Y362500D02*
X231679Y362542D01*
X193842Y315001D02*
X225769D01*
X231681Y357000D02*
Y362500D01*
X231181Y363000D02*
Y374311D01*
X229492Y376000D02*
X231181Y374311D01*
X221843Y376000D02*
X229492D01*
X225342Y316575D02*
X226343Y315575D01*
X225342Y316575D02*
Y331000D01*
X225769Y315001D02*
X226343Y315575D01*
D59*
X344342Y377000D02*
D03*
X290342Y319000D02*
D03*
D60*
X263799Y334000D02*
D03*
Y297500D02*
D03*
X270886Y334000D02*
D03*
Y297500D02*
D03*
D61*
X254743Y316000D02*
D03*
D62*
X301693Y293500D02*
D03*
X241193Y376000D02*
D03*
X114193Y345500D02*
D03*
X107693Y294000D02*
D03*
X288992Y223500D02*
D03*
X287992Y193000D02*
D03*
X229492Y376000D02*
D03*
X299693Y193000D02*
D03*
X102492Y345500D02*
D03*
X95992Y294000D02*
D03*
X300693Y223500D02*
D03*
X63193Y364500D02*
D03*
X51492D02*
D03*
X50992Y263000D02*
D03*
X62693D02*
D03*
X289992Y293500D02*
D03*
X50992Y306500D02*
D03*
X62693D02*
D03*
X50992Y212000D02*
D03*
X62693D02*
D03*
D63*
X234748Y285500D02*
D03*
X222937D02*
D03*
D64*
X341843Y246425D02*
D03*
X337343Y176425D02*
D03*
X338342Y149575D02*
D03*
X287842Y280075D02*
D03*
X280842Y177925D02*
D03*
X284842Y148575D02*
D03*
X226343Y315575D02*
D03*
X223342Y253075D02*
D03*
Y244925D02*
D03*
X280842Y186075D02*
D03*
X284842Y140425D02*
D03*
X287842Y271925D02*
D03*
X338342Y141425D02*
D03*
X337343Y184575D02*
D03*
X341843Y254575D02*
D03*
X336842Y272575D02*
D03*
Y264425D02*
D03*
X226343Y307425D02*
D03*
D65*
X327071Y255000D02*
D03*
X321071Y163000D02*
D03*
Y148000D02*
D03*
Y153000D02*
D03*
Y158000D02*
D03*
Y168000D02*
D03*
Y173000D02*
D03*
Y178000D02*
D03*
X299614Y148000D02*
D03*
Y153000D02*
D03*
Y158000D02*
D03*
Y163000D02*
D03*
Y168000D02*
D03*
Y173000D02*
D03*
Y178000D02*
D03*
X305614Y270000D02*
D03*
Y265000D02*
D03*
Y260000D02*
D03*
Y255000D02*
D03*
Y250000D02*
D03*
Y245000D02*
D03*
Y240000D02*
D03*
X327071Y270000D02*
D03*
Y265000D02*
D03*
Y260000D02*
D03*
Y250000D02*
D03*
Y245000D02*
D03*
Y240000D02*
D03*
D66*
X293551Y215500D02*
D03*
X301134D02*
D03*
D67*
X327299Y199142D02*
D03*
X329858D02*
D03*
X306827D02*
D03*
X324740D02*
D03*
X322181D02*
D03*
X306827Y221858D02*
D03*
X319622Y199142D02*
D03*
X317063D02*
D03*
X314504D02*
D03*
X311945D02*
D03*
X309386D02*
D03*
Y221858D02*
D03*
X311945D02*
D03*
X314504D02*
D03*
X317063D02*
D03*
X319622D02*
D03*
X322181D02*
D03*
X324740D02*
D03*
X327299D02*
D03*
X329858D02*
D03*
D68*
X282268Y236000D02*
D03*
X133417Y348500D02*
D03*
X290417Y236000D02*
D03*
X125268Y348500D02*
D03*
D69*
X246382Y278469D02*
D03*
X241303Y276500D02*
D03*
X246382Y274532D02*
D03*
D70*
X107843Y264350D02*
D03*
X107343Y216350D02*
D03*
X107843Y252650D02*
D03*
X107343Y204650D02*
D03*
D71*
X72063Y363618D02*
D03*
X94622D02*
D03*
Y316177D02*
D03*
X72063D02*
D03*
X94622Y267677D02*
D03*
X72063D02*
D03*
Y219177D02*
D03*
X94622D02*
D03*
Y348264D02*
D03*
Y203823D02*
D03*
Y300823D02*
D03*
Y252323D02*
D03*
X72063Y353382D02*
D03*
Y305941D02*
D03*
Y257441D02*
D03*
Y208941D02*
D03*
X94622Y350823D02*
D03*
X72063Y348264D02*
D03*
Y361059D02*
D03*
Y358500D02*
D03*
Y355941D02*
D03*
Y350823D02*
D03*
X94622Y353382D02*
D03*
Y355941D02*
D03*
Y358500D02*
D03*
Y361059D02*
D03*
Y206382D02*
D03*
Y254882D02*
D03*
Y303382D02*
D03*
X72063Y203823D02*
D03*
Y252323D02*
D03*
Y300823D02*
D03*
Y265118D02*
D03*
Y262559D02*
D03*
Y260000D02*
D03*
Y254882D02*
D03*
X94622Y257441D02*
D03*
Y260000D02*
D03*
Y262559D02*
D03*
Y265118D02*
D03*
X72063Y313618D02*
D03*
Y311059D02*
D03*
Y308500D02*
D03*
Y303382D02*
D03*
X94622Y305941D02*
D03*
Y308500D02*
D03*
Y311059D02*
D03*
Y313618D02*
D03*
X72063Y216618D02*
D03*
Y214059D02*
D03*
Y211500D02*
D03*
Y206382D02*
D03*
X94622Y208941D02*
D03*
Y211500D02*
D03*
Y214059D02*
D03*
Y216618D02*
D03*
D72*
X63614Y373000D02*
D03*
X52457Y345000D02*
D03*
X50957Y324000D02*
D03*
X69728Y289000D02*
D03*
X62228Y280500D02*
D03*
Y231000D02*
D03*
Y245500D02*
D03*
X74228Y195000D02*
D03*
X57957Y289000D02*
D03*
X50457Y280500D02*
D03*
X51842Y373000D02*
D03*
X64228Y345000D02*
D03*
X50457Y245500D02*
D03*
X62728Y324000D02*
D03*
X50457Y231000D02*
D03*
X62457Y195000D02*
D03*
D73*
X285343Y376201D02*
D03*
Y368799D02*
D03*
D74*
X325842Y294000D02*
D03*
X225342Y331000D02*
D03*
X247843Y293000D02*
D03*
X252343Y207000D02*
D03*
X286343Y168000D02*
D03*
X292342Y251000D02*
D03*
Y261500D02*
D03*
X286343Y158500D02*
D03*
X333842Y167500D02*
D03*
X233660Y198500D02*
D03*
X332343Y233500D02*
D03*
X334343Y157500D02*
D03*
X208842Y265000D02*
D03*
Y255000D02*
D03*
X210842Y192000D02*
D03*
D75*
X280943Y324996D02*
D03*
Y307004D02*
D03*
D76*
X231842Y364500D02*
D03*
X231681Y357000D02*
D03*
X239165Y364500D02*
D03*
X239004Y357000D02*
D03*
D77*
X329842Y149075D02*
D03*
Y140925D02*
D03*
X329343Y176350D02*
D03*
Y184500D02*
D03*
X297342Y243075D02*
D03*
Y234925D02*
D03*
X292342Y148075D02*
D03*
Y139925D02*
D03*
X295843Y279575D02*
D03*
Y271425D02*
D03*
X291342Y176425D02*
D03*
Y184575D02*
D03*
D78*
X203177Y285500D02*
D03*
D79*
X215508D02*
D03*
D80*
X52142Y354000D02*
D03*
X64543D02*
D03*
X52142Y336500D02*
D03*
X64543D02*
D03*
X63244Y271500D02*
D03*
X50842D02*
D03*
X50642Y254500D02*
D03*
X63043D02*
D03*
X50642Y315500D02*
D03*
X63043D02*
D03*
X50642Y297500D02*
D03*
X63043D02*
D03*
Y222500D02*
D03*
X50642D02*
D03*
Y203500D02*
D03*
X63043D02*
D03*
D81*
X279004Y229839D02*
X293264D01*
X270886Y237957D02*
X279004Y229839D01*
X270886Y237957D02*
Y294043D01*
X278055Y297500D02*
X279055Y298500D01*
X280730Y307004D02*
X280943D01*
X280511Y299956D02*
Y306785D01*
X279343Y298788D02*
X280511Y299956D01*
X279055Y298500D02*
X279343D01*
Y298788D01*
X270886Y297500D02*
X278055D01*
X280511Y306785D02*
X280730Y307004D01*
X270886Y294043D02*
Y297500D01*
X293264Y229839D02*
X293295Y229807D01*
X300913Y216220D02*
X301134Y216000D01*
X300913Y223280D02*
X301331Y222862D01*
X300693Y223500D02*
X300913Y223280D01*
X300693Y223500D02*
Y223953D01*
X300913Y216220D02*
Y223280D01*
X301331Y222862D02*
X305823D01*
X293295Y229807D02*
X294839D01*
X300693Y223953D01*
D82*
X264000Y384500D02*
D03*
X254000D02*
D03*
X274000D02*
D03*
X133843Y225499D02*
D03*
X173843Y205500D02*
D03*
X183843D02*
D03*
X193842D02*
D03*
Y225500D02*
D03*
Y215500D02*
D03*
Y235500D02*
D03*
Y245500D02*
D03*
Y255500D02*
D03*
Y265500D02*
D03*
Y275500D02*
D03*
Y285500D02*
D03*
Y295500D02*
D03*
Y305500D02*
D03*
X133843Y305499D02*
D03*
Y245499D02*
D03*
Y205499D02*
D03*
Y215499D02*
D03*
Y265499D02*
D03*
Y255499D02*
D03*
Y295499D02*
D03*
Y285499D02*
D03*
Y325499D02*
D03*
X143842Y205500D02*
D03*
X133843Y235499D02*
D03*
Y275499D02*
D03*
Y315499D02*
D03*
X153842Y205500D02*
D03*
X193842Y315500D02*
D03*
Y335500D02*
D03*
X163842Y205500D02*
D03*
X193842Y325500D02*
D03*
X133843Y335499D02*
D03*
D83*
X284000Y384500D02*
D03*
D84*
X30843Y354000D02*
D03*
X366342Y83000D02*
D03*
X31343Y186500D02*
D03*
X365843Y208000D02*
D03*
D85*
X30843Y334000D02*
D03*
Y314000D02*
D03*
Y294000D02*
D03*
Y274000D02*
D03*
Y254000D02*
D03*
Y234000D02*
D03*
Y214000D02*
D03*
X275568Y38533D02*
D03*
X365843Y348000D02*
D03*
X326343Y359000D02*
D03*
X365843Y308000D02*
D03*
Y268000D02*
D03*
Y228000D02*
D03*
X366342Y163000D02*
D03*
Y103000D02*
D03*
Y123000D02*
D03*
X166342Y33500D02*
D03*
X146343D02*
D03*
X31343Y86500D02*
D03*
Y106500D02*
D03*
Y166500D02*
D03*
Y146500D02*
D03*
Y126500D02*
D03*
X365843Y288000D02*
D03*
Y328000D02*
D03*
Y248000D02*
D03*
X86343Y33500D02*
D03*
X106342D02*
D03*
X126342D02*
D03*
X366342Y183000D02*
D03*
Y143000D02*
D03*
D86*
X295568Y38533D02*
D03*
X66343Y33500D02*
D03*
X306343Y359000D02*
D03*
D87*
X222342Y171000D02*
D03*
X124343Y61000D02*
D03*
Y171000D02*
D03*
X222342Y61000D02*
D03*
X192342Y171000D02*
D03*
X94342D02*
D03*
X182343D02*
D03*
X84342D02*
D03*
X222342Y141000D02*
D03*
X212343D02*
D03*
X182343Y61000D02*
D03*
X192342D02*
D03*
X202343D02*
D03*
X212343D02*
D03*
X202343Y171000D02*
D03*
X212343D02*
D03*
X124343Y141000D02*
D03*
X114342D02*
D03*
X84342Y61000D02*
D03*
X94342D02*
D03*
X104342D02*
D03*
X114342D02*
D03*
X104342Y171000D02*
D03*
X114342D02*
D03*
D88*
X107484Y357205D02*
D03*
D89*
X306343Y313000D02*
D03*
D90*
X380709Y380500D02*
D03*
Y13000D02*
D03*
X12843D02*
D03*
Y380500D02*
D03*
D91*
X45342Y345000D02*
D03*
X113662Y203319D02*
D03*
X281842Y240500D02*
D03*
X95842Y288000D02*
D03*
X103842Y338000D02*
D03*
X100842Y316000D02*
D03*
X104342Y308500D02*
D03*
X100842Y311000D02*
D03*
X100343Y264000D02*
D03*
X107843Y223000D02*
D03*
X116842Y212500D02*
D03*
X100343Y215500D02*
D03*
X101274Y211622D02*
D03*
X100343Y259500D02*
D03*
Y252000D02*
D03*
X54444Y330199D02*
D03*
X264342Y366000D02*
D03*
X71842Y320500D02*
D03*
X69842Y370000D02*
D03*
X288342Y216500D02*
D03*
X282343Y280000D02*
D03*
X263342Y361000D02*
D03*
X256842Y264000D02*
D03*
X80843Y281000D02*
D03*
X93343Y278000D02*
D03*
X70342Y231000D02*
D03*
X76842Y209000D02*
D03*
Y257500D02*
D03*
Y306000D02*
D03*
X77262Y353260D02*
D03*
X176342Y261500D02*
D03*
X141842Y348500D02*
D03*
X72342Y342000D02*
D03*
X87343Y260000D02*
D03*
X77173Y267669D02*
D03*
X327343Y205500D02*
D03*
X331343Y273000D02*
D03*
X306842Y163500D02*
D03*
X311343Y255000D02*
D03*
X94174Y236986D02*
D03*
X81343Y237000D02*
D03*
X84342Y214000D02*
D03*
X87343Y211319D02*
D03*
X81842Y240500D02*
D03*
X93843D02*
D03*
Y336500D02*
D03*
X87343Y308319D02*
D03*
X84342Y311000D02*
D03*
Y262500D02*
D03*
D92*
X260343Y287000D02*
D03*
X241342Y382000D02*
D03*
X114342Y294000D02*
D03*
X257699Y300018D02*
D03*
X287842Y200000D02*
D03*
X274342Y177000D02*
D03*
X242342Y283000D02*
D03*
X107843Y271000D02*
D03*
X256842Y334000D02*
D03*
X69342Y279500D02*
D03*
X68343Y187500D02*
D03*
X278842Y148500D02*
D03*
X229343Y253000D02*
D03*
X68343Y245500D02*
D03*
X333343Y255000D02*
D03*
X341843Y241000D02*
D03*
X344342Y149500D02*
D03*
X315843Y163000D02*
D03*
X343342Y176500D02*
D03*
X299417Y199925D02*
D03*
D93*
X277842Y368500D02*
D03*
X279343Y298500D02*
D03*
X277842Y359500D02*
D03*
X221843Y376000D02*
D03*
M02*
