M48
;Layer_Color=9474304
;FILE_FORMAT=2:4
INCH,TZ
;TYPE=PLATED
T1F00S00C0.0118
T2F00S00C0.0177
T3F00S00C0.0280
T4F00S00C0.0394
T5F00S00C0.0400
T6F00S00C0.0402
T7F00S00C0.0433
T8F00S00C0.0512
T9F00S00C0.0630
;TYPE=NON_PLATED
T10F00S00C0.1339
%
T01
X30684Y16350
X32734Y20550
X11366Y20332
X10127Y21162
X8734Y21132
X7684Y20900
X5444Y33020
X4534Y34500
X7234Y34200
X7726Y35326
X9384Y33650
X10384Y33800
X10084Y31600
Y31100
X10434Y30850
X8734Y30832
X8434Y31100
X7684Y30600
X7184Y32050
X8084Y28100
X9334Y27800
X9584Y28800
X10034Y26400
Y25950
Y25200
X9384Y24050
X9417Y23699
X8134Y23700
X8184Y24050
X7034Y23100
X8434Y21400
X10034Y21550
X10784Y22300
X11684Y21250
X8734Y26000
X8434Y26250
X7717Y26767
X7684Y25750
X17634Y26150
X14184Y34850
X26334Y36100
X26434Y36600
X28234Y28000
X28184Y24050
X28834Y21650
X31134Y25500
X33134Y27300
X25684Y26400
X6984Y37000
T02
X27884Y14850
X27434Y17700
X28784Y20000
X29942Y19993
X31584Y16300
X34334Y17650
X34434Y14950
X6834Y18750
Y24550
X6934Y27950
X10784Y27100
X11434Y29400
X24234Y28300
X26034Y28700
X25770Y30002
X25684Y33400
X22934Y25300
X33334Y25500
X34184Y24100
X24134Y38200
T03
X27934Y29850
X27784Y35950
Y36850
X22184Y37600
T04
X13384Y20550
X14384Y20550
X15384
X16384
X17384
X18384
X19384
Y21550
Y22550
Y23550
Y24550
Y25550
Y26550
Y27550
Y28550
Y29550
Y30550
Y31550
Y32550
Y33550
X13384Y33550
Y32550
Y31550
Y30550
Y29550
Y28550
Y27550
Y26550
Y25550
Y24550
Y23550
Y22550
Y21550
X30634Y31300
X31634
X32634
T05
X8434Y6100
X9434
X10434
X11434
X12434
X18234
X19234
X20234
X21234
X22234
Y14100
X21234
Y17100
X22234
X20234
X19234
X18234
X12434
X11434
X10434
X9434
X8434
X11434Y14100
X12434
T06
X25400Y38450
X26400
X27400
X28400
T07
X10748Y35720
X12520
Y38280
X10748
T08
X6634Y3350
X8634
X10634
X12634
X14634
X16634
X36634Y8300
Y10300
Y12300
Y14300
Y16300
Y18300
X36584Y20800
X3134Y18650
Y16650
Y14650
Y12650
Y10650
Y8650
X3084Y21400
Y23400
Y25400
Y27400
Y29400
Y31400
Y33400
Y35400
X36584Y34800
Y32800
Y30800
Y28800
Y26800
Y24800
Y22800
T09
X27557Y3853
X29557
X30634Y35900
X32634
T10
X1284Y1300
X38071
Y38050
X1284
M30
