G04*
G04 #@! TF.GenerationSoftware,Altium Limited,Altium Designer,20.1.14 (287)*
G04*
G04 Layer_Physical_Order=3*
G04 Layer_Color=128*
%FSLAX25Y25*%
%MOIN*%
G70*
G04*
G04 #@! TF.SameCoordinates,7A970C34-DB54-4F81-A8C4-4C09E61C51C5*
G04*
G04*
G04 #@! TF.FilePolarity,Negative*
G04*
G01*
G75*
%ADD19C,0.01000*%
%ADD98C,0.04000*%
%ADD99C,0.08016*%
G04:AMPARAMS|DCode=100|XSize=100.157mil|YSize=100.157mil|CornerRadius=0mil|HoleSize=0mil|Usage=FLASHONLY|Rotation=0.000|XOffset=0mil|YOffset=0mil|HoleType=Round|Shape=Relief|Width=10mil|Gap=10mil|Entries=4|*
%AMTHD100*
7,0,0,0.10016,0.08016,0.01000,45*
%
%ADD100THD100*%
%ADD101C,0.09118*%
%ADD102C,0.07937*%
G04:AMPARAMS|DCode=103|XSize=99.37mil|YSize=99.37mil|CornerRadius=0mil|HoleSize=0mil|Usage=FLASHONLY|Rotation=0.000|XOffset=0mil|YOffset=0mil|HoleType=Round|Shape=Relief|Width=10mil|Gap=10mil|Entries=4|*
%AMTHD103*
7,0,0,0.09937,0.07937,0.01000,45*
%
%ADD103THD103*%
%ADD104C,0.10299*%
G04:AMPARAMS|DCode=107|XSize=100mil|YSize=100mil|CornerRadius=0mil|HoleSize=0mil|Usage=FLASHONLY|Rotation=0.000|XOffset=0mil|YOffset=0mil|HoleType=Round|Shape=Relief|Width=10mil|Gap=10mil|Entries=4|*
%AMTHD107*
7,0,0,0.10000,0.08000,0.01000,45*
%
%ADD107THD107*%
%ADD109C,0.08000*%
%ADD110C,0.08331*%
%ADD111C,0.17386*%
G04:AMPARAMS|DCode=112|XSize=71.811mil|YSize=71.811mil|CornerRadius=0mil|HoleSize=0mil|Usage=FLASHONLY|Rotation=0.000|XOffset=0mil|YOffset=0mil|HoleType=Round|Shape=Relief|Width=10mil|Gap=10mil|Entries=4|*
%AMTHD112*
7,0,0,0.07181,0.05181,0.01000,45*
%
%ADD112THD112*%
%ADD113C,0.05772*%
%ADD114C,0.05181*%
G04:AMPARAMS|DCode=115|XSize=77.716mil|YSize=77.716mil|CornerRadius=0mil|HoleSize=0mil|Usage=FLASHONLY|Rotation=0.000|XOffset=0mil|YOffset=0mil|HoleType=Round|Shape=Relief|Width=10mil|Gap=10mil|Entries=4|*
%AMTHD115*
7,0,0,0.07772,0.05772,0.01000,45*
%
%ADD115THD115*%
%ADD116C,0.06800*%
G04:AMPARAMS|DCode=117|XSize=88mil|YSize=88mil|CornerRadius=0mil|HoleSize=0mil|Usage=FLASHONLY|Rotation=0.000|XOffset=0mil|YOffset=0mil|HoleType=Round|Shape=Relief|Width=10mil|Gap=10mil|Entries=4|*
%AMTHD117*
7,0,0,0.08800,0.06800,0.01000,45*
%
%ADD117THD117*%
D19*
X388342Y307000D02*
X393843D01*
X319342D02*
X388342D01*
X309343Y317000D02*
X319342Y307000D01*
X267342Y317000D02*
X271342D01*
X309343D01*
X304343Y198000D02*
Y267000D01*
X297843Y273500D02*
X304343Y267000D01*
X251343Y273500D02*
X297843D01*
X254343Y293500D02*
X257842Y290000D01*
X254343Y293500D02*
Y304000D01*
X267342Y317000D01*
X257842Y290000D02*
X324843D01*
X224342Y325500D02*
X230343Y319500D01*
Y294500D02*
X251343Y273500D01*
X230343Y294500D02*
Y319500D01*
X191342Y325500D02*
X224342D01*
X260343Y393500D02*
X266342D01*
X260343Y350500D02*
Y393500D01*
X78342Y183500D02*
X85843Y191000D01*
X78342Y161500D02*
Y183500D01*
X85843Y191000D02*
Y394000D01*
X78342Y161500D02*
X83342Y156500D01*
X287343Y181000D02*
X304343Y198000D01*
X193342Y181000D02*
X287343D01*
X255842Y346000D02*
X260343Y350500D01*
X192842Y346000D02*
X255842D01*
X186843Y340000D02*
X192842Y346000D01*
X186843Y330000D02*
Y340000D01*
Y330000D02*
X191342Y325500D01*
X91343Y177500D02*
X139041D01*
X187843Y175500D02*
X193342Y181000D01*
X151842Y165500D02*
X186343D01*
X324843Y290000D02*
X338843Y276000D01*
X83342Y156500D02*
X292342D01*
X187843Y167000D02*
Y175500D01*
X89842Y176000D02*
X91343Y177500D01*
X139041D02*
X139842D01*
X292342Y156500D02*
X338843Y203000D01*
X186343Y165500D02*
X187843Y167000D01*
X139842Y177500D02*
X151842Y165500D01*
X78342Y394000D02*
X85843D01*
X338843Y203000D02*
Y276000D01*
X89842Y156500D02*
Y176000D01*
D98*
X0Y0D02*
X393000D01*
X393000Y393102D02*
X393000Y0D01*
X-0Y393102D02*
X393000D01*
X-0D02*
X0Y0D01*
X393701D02*
Y393701D01*
D99*
X264000Y384500D02*
D03*
X254000D02*
D03*
X284000D02*
D03*
D100*
X274000D02*
D03*
D101*
X30843Y354000D02*
D03*
Y334000D02*
D03*
Y314000D02*
D03*
Y294000D02*
D03*
Y274000D02*
D03*
Y254000D02*
D03*
Y234000D02*
D03*
Y214000D02*
D03*
X365843Y348000D02*
D03*
Y308000D02*
D03*
Y268000D02*
D03*
Y228000D02*
D03*
X366342Y163000D02*
D03*
Y103000D02*
D03*
Y83000D02*
D03*
Y123000D02*
D03*
X166342Y33500D02*
D03*
X146343D02*
D03*
X31343Y86500D02*
D03*
Y106500D02*
D03*
Y186500D02*
D03*
Y166500D02*
D03*
Y146500D02*
D03*
Y126500D02*
D03*
X365843Y288000D02*
D03*
Y328000D02*
D03*
Y248000D02*
D03*
Y208000D02*
D03*
X66343Y33500D02*
D03*
X86343D02*
D03*
X106342D02*
D03*
X126342D02*
D03*
X366342Y183000D02*
D03*
Y143000D02*
D03*
D102*
X133843Y225499D02*
D03*
X173843Y205500D02*
D03*
X183843D02*
D03*
X193842D02*
D03*
Y225500D02*
D03*
Y215500D02*
D03*
Y235500D02*
D03*
Y245500D02*
D03*
Y255500D02*
D03*
Y265500D02*
D03*
Y275500D02*
D03*
Y285500D02*
D03*
Y295500D02*
D03*
Y305500D02*
D03*
X133843Y305499D02*
D03*
Y245499D02*
D03*
Y205499D02*
D03*
Y215499D02*
D03*
Y265499D02*
D03*
Y255499D02*
D03*
Y295499D02*
D03*
Y285499D02*
D03*
Y325499D02*
D03*
X143842Y205500D02*
D03*
X133843Y235499D02*
D03*
Y275499D02*
D03*
Y315499D02*
D03*
X163842Y205500D02*
D03*
X193842Y325500D02*
D03*
X133843Y335499D02*
D03*
X316342Y313000D02*
D03*
X306343D02*
D03*
D103*
X153842Y205500D02*
D03*
X193842Y315500D02*
D03*
Y335500D02*
D03*
X326343Y313000D02*
D03*
D104*
X295568Y38533D02*
D03*
X275568D02*
D03*
X326343Y359000D02*
D03*
X306343D02*
D03*
D107*
X192342Y171000D02*
D03*
X94342D02*
D03*
X182343D02*
D03*
X84342D02*
D03*
D109*
X222342D02*
D03*
X124343Y61000D02*
D03*
Y171000D02*
D03*
X222342Y61000D02*
D03*
Y141000D02*
D03*
X212343D02*
D03*
X182343Y61000D02*
D03*
X192342D02*
D03*
X202343D02*
D03*
X212343D02*
D03*
X202343Y171000D02*
D03*
X212343D02*
D03*
X124343Y141000D02*
D03*
X114342D02*
D03*
X84342Y61000D02*
D03*
X94342D02*
D03*
X104342D02*
D03*
X114342D02*
D03*
X104342Y171000D02*
D03*
X114342D02*
D03*
D110*
X107484Y357205D02*
D03*
X125201Y382795D02*
D03*
X107484D02*
D03*
X125201Y357205D02*
D03*
D111*
X380709Y380500D02*
D03*
Y13000D02*
D03*
X12843D02*
D03*
Y380500D02*
D03*
D112*
X113662Y203319D02*
D03*
X95842Y288000D02*
D03*
X103842Y338000D02*
D03*
X100343Y252000D02*
D03*
X264342Y366000D02*
D03*
X76842Y209000D02*
D03*
Y257500D02*
D03*
Y306000D02*
D03*
X77262Y353260D02*
D03*
X141842Y348500D02*
D03*
D113*
X260343Y287000D02*
D03*
X241342Y382000D02*
D03*
X114342Y294000D02*
D03*
X257699Y300018D02*
D03*
X287842Y200000D02*
D03*
X274342Y177000D02*
D03*
X242342Y283000D02*
D03*
X107843Y271000D02*
D03*
X256842Y334000D02*
D03*
X69342Y279500D02*
D03*
X68343Y187500D02*
D03*
X278842Y148500D02*
D03*
X68343Y245500D02*
D03*
X333343Y255000D02*
D03*
X341843Y241000D02*
D03*
X344342Y149500D02*
D03*
X315843Y163000D02*
D03*
X343342Y176500D02*
D03*
D114*
X45342Y345000D02*
D03*
X281842Y240500D02*
D03*
X100842Y316000D02*
D03*
X104342Y308500D02*
D03*
X100842Y311000D02*
D03*
X100343Y264000D02*
D03*
X107843Y223000D02*
D03*
X116842Y212500D02*
D03*
X100343Y215500D02*
D03*
X101274Y211622D02*
D03*
X100343Y259500D02*
D03*
X54444Y330199D02*
D03*
X71842Y320500D02*
D03*
X69842Y370000D02*
D03*
X288342Y216500D02*
D03*
X282343Y280000D02*
D03*
X263342Y361000D02*
D03*
X256842Y264000D02*
D03*
X80843Y281000D02*
D03*
X93343Y278000D02*
D03*
X70342Y231000D02*
D03*
X176342Y261500D02*
D03*
X72342Y342000D02*
D03*
X87343Y260000D02*
D03*
X77173Y267669D02*
D03*
X327343Y205500D02*
D03*
X331343Y273000D02*
D03*
X306842Y163500D02*
D03*
X311343Y255000D02*
D03*
X94174Y236986D02*
D03*
X81343Y237000D02*
D03*
X84342Y214000D02*
D03*
X87343Y211319D02*
D03*
X81842Y240500D02*
D03*
X93843D02*
D03*
Y336500D02*
D03*
X87343Y308319D02*
D03*
X84342Y311000D02*
D03*
Y262500D02*
D03*
D115*
X229343Y253000D02*
D03*
X299417Y199925D02*
D03*
D116*
X277842Y368500D02*
D03*
Y359500D02*
D03*
D117*
X279343Y298500D02*
D03*
X221843Y376000D02*
D03*
M02*
