G04*
G04 #@! TF.GenerationSoftware,Altium Limited,Altium Designer,20.1.14 (287)*
G04*
G04 Layer_Physical_Order=2*
G04 Layer_Color=32768*
%FSLAX25Y25*%
%MOIN*%
G70*
G04*
G04 #@! TF.SameCoordinates,4B9CFB74-A459-40F6-BE70-09C03D0B2D60*
G04*
G04*
G04 #@! TF.FilePolarity,Negative*
G04*
G01*
G75*
%ADD11C,0.02362*%
%ADD94C,0.04000*%
%ADD95C,0.08016*%
G04:AMPARAMS|DCode=96|XSize=100.157mil|YSize=100.157mil|CornerRadius=0mil|HoleSize=0mil|Usage=FLASHONLY|Rotation=0.000|XOffset=0mil|YOffset=0mil|HoleType=Round|Shape=Relief|Width=10mil|Gap=10mil|Entries=4|*
%AMTHD96*
7,0,0,0.10016,0.08016,0.01000,45*
%
%ADD96THD96*%
%ADD97C,0.10299*%
%ADD98C,0.07937*%
G04:AMPARAMS|DCode=99|XSize=99.37mil|YSize=99.37mil|CornerRadius=0mil|HoleSize=0mil|Usage=FLASHONLY|Rotation=0.000|XOffset=0mil|YOffset=0mil|HoleType=Round|Shape=Relief|Width=10mil|Gap=10mil|Entries=4|*
%AMTHD99*
7,0,0,0.09937,0.07937,0.01000,45*
%
%ADD99THD99*%
G04:AMPARAMS|DCode=100|XSize=122.992mil|YSize=122.992mil|CornerRadius=0mil|HoleSize=0mil|Usage=FLASHONLY|Rotation=0.000|XOffset=0mil|YOffset=0mil|HoleType=Round|Shape=Relief|Width=10mil|Gap=10mil|Entries=4|*
%AMTHD100*
7,0,0,0.12299,0.10299,0.01000,45*
%
%ADD100THD100*%
G04:AMPARAMS|DCode=101|XSize=100mil|YSize=100mil|CornerRadius=0mil|HoleSize=0mil|Usage=FLASHONLY|Rotation=0.000|XOffset=0mil|YOffset=0mil|HoleType=Round|Shape=Relief|Width=10mil|Gap=10mil|Entries=4|*
%AMTHD101*
7,0,0,0.10000,0.08000,0.01000,45*
%
%ADD101THD101*%
G04:AMPARAMS|DCode=102|XSize=103.307mil|YSize=103.307mil|CornerRadius=0mil|HoleSize=0mil|Usage=FLASHONLY|Rotation=0.000|XOffset=0mil|YOffset=0mil|HoleType=Round|Shape=Relief|Width=10mil|Gap=10mil|Entries=4|*
%AMTHD102*
7,0,0,0.10331,0.08331,0.01000,45*
%
%ADD102THD102*%
%ADD103C,0.08000*%
%ADD104C,0.08331*%
%ADD105C,0.17386*%
G04:AMPARAMS|DCode=106|XSize=71.811mil|YSize=71.811mil|CornerRadius=0mil|HoleSize=0mil|Usage=FLASHONLY|Rotation=0.000|XOffset=0mil|YOffset=0mil|HoleType=Round|Shape=Relief|Width=10mil|Gap=10mil|Entries=4|*
%AMTHD106*
7,0,0,0.07181,0.05181,0.01000,45*
%
%ADD106THD106*%
%ADD107C,0.05772*%
%ADD108C,0.05181*%
G04:AMPARAMS|DCode=109|XSize=77.716mil|YSize=77.716mil|CornerRadius=0mil|HoleSize=0mil|Usage=FLASHONLY|Rotation=0.000|XOffset=0mil|YOffset=0mil|HoleType=Round|Shape=Relief|Width=10mil|Gap=10mil|Entries=4|*
%AMTHD109*
7,0,0,0.07772,0.05772,0.01000,45*
%
%ADD109THD109*%
%ADD110C,0.06800*%
D11*
X74343Y181000D02*
Y189000D01*
X54843Y181500D02*
Y188500D01*
X80343Y363000D02*
Y368000D01*
X74343Y374000D02*
X80343Y368000D01*
X59342Y374000D02*
X74343D01*
X55843D02*
X59342D01*
X48842Y367000D02*
X55843Y374000D01*
X48842Y194500D02*
Y367000D01*
Y194500D02*
X54843Y188500D01*
X74343Y189000D02*
X80343Y195000D01*
Y363000D01*
D94*
X0Y0D02*
X393000D01*
X393000Y393102D02*
X393000Y0D01*
X-0Y393102D02*
X393000D01*
X-0D02*
X0Y0D01*
D95*
X264000Y384500D02*
D03*
X254000D02*
D03*
X274000D02*
D03*
D96*
X284000D02*
D03*
D97*
X30843Y354000D02*
D03*
Y334000D02*
D03*
Y314000D02*
D03*
Y294000D02*
D03*
Y274000D02*
D03*
Y254000D02*
D03*
Y234000D02*
D03*
Y214000D02*
D03*
X295568Y38533D02*
D03*
X31343Y186500D02*
D03*
Y166500D02*
D03*
Y146500D02*
D03*
Y126500D02*
D03*
X365843Y288000D02*
D03*
Y328000D02*
D03*
Y248000D02*
D03*
Y208000D02*
D03*
X66343Y33500D02*
D03*
X86343D02*
D03*
X106342D02*
D03*
X126342D02*
D03*
X306343Y359000D02*
D03*
X366342Y183000D02*
D03*
Y143000D02*
D03*
D98*
X133843Y225499D02*
D03*
X173843Y205500D02*
D03*
X183843D02*
D03*
X193842D02*
D03*
Y225500D02*
D03*
Y215500D02*
D03*
Y235500D02*
D03*
Y245500D02*
D03*
Y255500D02*
D03*
Y265500D02*
D03*
Y275500D02*
D03*
Y285500D02*
D03*
Y295500D02*
D03*
Y305500D02*
D03*
X133843Y305499D02*
D03*
Y245499D02*
D03*
Y205499D02*
D03*
Y215499D02*
D03*
Y265499D02*
D03*
Y255499D02*
D03*
Y295499D02*
D03*
Y285499D02*
D03*
Y325499D02*
D03*
X143842Y205500D02*
D03*
X133843Y235499D02*
D03*
Y275499D02*
D03*
Y315499D02*
D03*
X153842Y205500D02*
D03*
X193842Y315500D02*
D03*
Y335500D02*
D03*
X326343Y313000D02*
D03*
X306343D02*
D03*
D99*
X163842Y205500D02*
D03*
X193842Y325500D02*
D03*
X133843Y335499D02*
D03*
X316342Y313000D02*
D03*
D100*
X275568Y38533D02*
D03*
X365843Y348000D02*
D03*
X326343Y359000D02*
D03*
X365843Y308000D02*
D03*
Y268000D02*
D03*
Y228000D02*
D03*
X366342Y163000D02*
D03*
Y103000D02*
D03*
Y83000D02*
D03*
Y123000D02*
D03*
X166342Y33500D02*
D03*
X146343D02*
D03*
X31343Y86500D02*
D03*
Y106500D02*
D03*
D101*
X222342Y171000D02*
D03*
X124343Y61000D02*
D03*
Y171000D02*
D03*
X222342Y61000D02*
D03*
D102*
X107484Y357205D02*
D03*
D103*
X192342Y171000D02*
D03*
X94342D02*
D03*
X182343D02*
D03*
X84342D02*
D03*
X222342Y141000D02*
D03*
X212343D02*
D03*
X182343Y61000D02*
D03*
X192342D02*
D03*
X202343D02*
D03*
X212343D02*
D03*
X202343Y171000D02*
D03*
X212343D02*
D03*
X124343Y141000D02*
D03*
X114342D02*
D03*
X84342Y61000D02*
D03*
X94342D02*
D03*
X104342D02*
D03*
X114342D02*
D03*
X104342Y171000D02*
D03*
X114342D02*
D03*
D104*
X125201Y382795D02*
D03*
X107484D02*
D03*
X125201Y357205D02*
D03*
D105*
X380709Y380500D02*
D03*
Y13000D02*
D03*
X12843D02*
D03*
Y380500D02*
D03*
D106*
X45342Y345000D02*
D03*
X281842Y240500D02*
D03*
X100842Y316000D02*
D03*
X107843Y223000D02*
D03*
X54444Y330199D02*
D03*
X71842Y320500D02*
D03*
X69842Y370000D02*
D03*
X288342Y216500D02*
D03*
X282343Y280000D02*
D03*
X256842Y264000D02*
D03*
X70342Y231000D02*
D03*
X176342Y261500D02*
D03*
X77173Y267669D02*
D03*
X327343Y205500D02*
D03*
D107*
X260343Y287000D02*
D03*
X229343Y253000D02*
D03*
X299417Y199925D02*
D03*
D108*
X113662Y203319D02*
D03*
X95842Y288000D02*
D03*
X103842Y338000D02*
D03*
X104342Y308500D02*
D03*
X100842Y311000D02*
D03*
X100343Y264000D02*
D03*
X116842Y212500D02*
D03*
X100343Y215500D02*
D03*
X101274Y211622D02*
D03*
X100343Y259500D02*
D03*
Y252000D02*
D03*
X264342Y366000D02*
D03*
X263342Y361000D02*
D03*
X80843Y281000D02*
D03*
X93343Y278000D02*
D03*
X76842Y209000D02*
D03*
Y257500D02*
D03*
Y306000D02*
D03*
X77262Y353260D02*
D03*
X141842Y348500D02*
D03*
X72342Y342000D02*
D03*
X87343Y260000D02*
D03*
X331343Y273000D02*
D03*
X306842Y163500D02*
D03*
X311343Y255000D02*
D03*
X94174Y236986D02*
D03*
X81343Y237000D02*
D03*
X84342Y214000D02*
D03*
X87343Y211319D02*
D03*
X81842Y240500D02*
D03*
X93843D02*
D03*
Y336500D02*
D03*
X87343Y308319D02*
D03*
X84342Y311000D02*
D03*
Y262500D02*
D03*
D109*
X241342Y382000D02*
D03*
X114342Y294000D02*
D03*
X257699Y300018D02*
D03*
X287842Y200000D02*
D03*
X274342Y177000D02*
D03*
X242342Y283000D02*
D03*
X107843Y271000D02*
D03*
X256842Y334000D02*
D03*
X69342Y279500D02*
D03*
X68343Y187500D02*
D03*
X278842Y148500D02*
D03*
X68343Y245500D02*
D03*
X333343Y255000D02*
D03*
X341843Y241000D02*
D03*
X344342Y149500D02*
D03*
X315843Y163000D02*
D03*
X343342Y176500D02*
D03*
D110*
X277842Y368500D02*
D03*
X279343Y298500D02*
D03*
X277842Y359500D02*
D03*
X221843Y376000D02*
D03*
M02*
