G04*
G04 #@! TF.GenerationSoftware,Altium Limited,Altium Designer,20.1.14 (287)*
G04*
G04 Layer_Color=65535*
%FSLAX25Y25*%
%MOIN*%
G70*
G04*
G04 #@! TF.SameCoordinates,7318F7DD-DD84-407A-85BD-0D47EC47BBB8*
G04*
G04*
G04 #@! TF.FilePolarity,Positive*
G04*
G01*
G75*
%ADD10C,0.00787*%
%ADD11C,0.02362*%
%ADD12C,0.00984*%
%ADD13C,0.01181*%
%ADD14C,0.00500*%
%ADD15C,0.00630*%
%ADD16C,0.00591*%
%ADD17C,0.00800*%
%ADD18C,0.00600*%
%ADD19C,0.01000*%
G36*
X338442Y35699D02*
X337513D01*
Y36759D01*
X338442D01*
Y35699D01*
D02*
G37*
G36*
X330113Y31600D02*
Y31589D01*
Y31556D01*
Y31512D01*
Y31447D01*
X330102Y31359D01*
Y31272D01*
X330081Y31064D01*
X330059Y30824D01*
X330015Y30572D01*
X329949Y30343D01*
X329873Y30124D01*
Y30113D01*
X329862Y30102D01*
X329829Y30037D01*
X329775Y29949D01*
X329698Y29829D01*
X329589Y29709D01*
X329468Y29578D01*
X329315Y29447D01*
X329141Y29337D01*
X329119Y29326D01*
X329053Y29294D01*
X328955Y29250D01*
X328813Y29206D01*
X328638Y29151D01*
X328441Y29108D01*
X328222Y29075D01*
X327982Y29064D01*
X327884D01*
X327818Y29075D01*
X327731Y29086D01*
X327643Y29097D01*
X327414Y29140D01*
X327173Y29206D01*
X326922Y29304D01*
X326791Y29370D01*
X326671Y29447D01*
X326561Y29534D01*
X326452Y29632D01*
X326441Y29643D01*
X326430Y29654D01*
X326408Y29698D01*
X326375Y29742D01*
X326332Y29796D01*
X326288Y29873D01*
X326244Y29960D01*
X326189Y30059D01*
X326146Y30168D01*
X326102Y30299D01*
X326058Y30430D01*
X326015Y30583D01*
X325993Y30747D01*
X325960Y30933D01*
X325949Y31119D01*
Y31326D01*
X326856Y31458D01*
Y31447D01*
Y31425D01*
Y31381D01*
X326867Y31315D01*
X326878Y31250D01*
Y31174D01*
X326911Y30988D01*
X326944Y30791D01*
X327009Y30594D01*
X327075Y30419D01*
X327119Y30343D01*
X327173Y30277D01*
X327184Y30266D01*
X327228Y30233D01*
X327293Y30179D01*
X327381Y30124D01*
X327501Y30059D01*
X327632Y30015D01*
X327796Y29971D01*
X327971Y29960D01*
X328037D01*
X328102Y29971D01*
X328201Y29982D01*
X328299Y30004D01*
X328408Y30026D01*
X328518Y30070D01*
X328627Y30124D01*
X328638Y30135D01*
X328671Y30157D01*
X328714Y30201D01*
X328780Y30244D01*
X328835Y30321D01*
X328900Y30397D01*
X328955Y30485D01*
X328998Y30594D01*
Y30605D01*
X329020Y30649D01*
X329031Y30725D01*
X329053Y30824D01*
X329075Y30955D01*
X329086Y31119D01*
X329108Y31315D01*
Y31545D01*
Y36759D01*
X330113D01*
Y31600D01*
D02*
G37*
G36*
X336059Y29195D02*
X335229D01*
Y29993D01*
X335218Y29982D01*
X335196Y29949D01*
X335163Y29906D01*
X335108Y29851D01*
X335043Y29785D01*
X334966Y29698D01*
X334879Y29621D01*
X334770Y29534D01*
X334649Y29447D01*
X334518Y29370D01*
X334376Y29294D01*
X334223Y29217D01*
X334048Y29162D01*
X333873Y29119D01*
X333677Y29086D01*
X333480Y29075D01*
X333403D01*
X333305Y29086D01*
X333185Y29097D01*
X333043Y29119D01*
X332890Y29151D01*
X332737Y29195D01*
X332573Y29261D01*
X332551Y29272D01*
X332507Y29294D01*
X332431Y29337D01*
X332343Y29392D01*
X332234Y29457D01*
X332136Y29534D01*
X332037Y29621D01*
X331950Y29720D01*
X331939Y29731D01*
X331917Y29774D01*
X331884Y29829D01*
X331840Y29917D01*
X331786Y30015D01*
X331742Y30135D01*
X331698Y30266D01*
X331665Y30408D01*
Y30419D01*
X331655Y30463D01*
X331644Y30529D01*
Y30616D01*
X331633Y30747D01*
X331622Y30889D01*
X331611Y31075D01*
Y31283D01*
Y34682D01*
X332540D01*
Y31633D01*
Y31622D01*
Y31600D01*
Y31567D01*
Y31512D01*
Y31392D01*
X332551Y31239D01*
Y31075D01*
X332562Y30911D01*
X332573Y30769D01*
X332594Y30649D01*
Y30638D01*
X332616Y30594D01*
X332638Y30529D01*
X332671Y30441D01*
X332726Y30354D01*
X332791Y30255D01*
X332868Y30168D01*
X332966Y30081D01*
X332977Y30070D01*
X333021Y30048D01*
X333075Y30015D01*
X333163Y29982D01*
X333261Y29938D01*
X333382Y29906D01*
X333513Y29884D01*
X333666Y29873D01*
X333742D01*
X333819Y29884D01*
X333917Y29895D01*
X334037Y29927D01*
X334168Y29960D01*
X334311Y30015D01*
X334453Y30081D01*
X334474Y30091D01*
X334518Y30124D01*
X334584Y30168D01*
X334660Y30233D01*
X334748Y30321D01*
X334835Y30419D01*
X334912Y30529D01*
X334977Y30660D01*
X334988Y30682D01*
X334999Y30725D01*
X335021Y30813D01*
X335054Y30933D01*
X335087Y31086D01*
X335108Y31272D01*
X335119Y31490D01*
X335130Y31742D01*
Y34682D01*
X336059D01*
Y29195D01*
D02*
G37*
G36*
X377200D02*
X376271D01*
Y35108D01*
X376260Y35097D01*
X376205Y35054D01*
X376140Y34988D01*
X376030Y34912D01*
X375910Y34813D01*
X375757Y34704D01*
X375582Y34584D01*
X375385Y34463D01*
X375375D01*
X375364Y34452D01*
X375298Y34409D01*
X375189Y34354D01*
X375058Y34288D01*
X374905Y34212D01*
X374741Y34135D01*
X374577Y34059D01*
X374413Y33993D01*
Y34890D01*
X374424D01*
X374446Y34912D01*
X374489Y34922D01*
X374544Y34955D01*
X374609Y34988D01*
X374686Y35032D01*
X374872Y35141D01*
X375090Y35261D01*
X375309Y35414D01*
X375538Y35589D01*
X375768Y35775D01*
X375779Y35786D01*
X375790Y35797D01*
X375823Y35830D01*
X375866Y35862D01*
X375965Y35972D01*
X376096Y36103D01*
X376227Y36256D01*
X376369Y36431D01*
X376489Y36606D01*
X376599Y36792D01*
X377200D01*
Y29195D01*
D02*
G37*
G36*
X370511Y36781D02*
X370598Y36770D01*
X370707Y36759D01*
X370828Y36737D01*
X370948Y36715D01*
X371232Y36639D01*
X371516Y36529D01*
X371658Y36464D01*
X371800Y36387D01*
X371932Y36289D01*
X372052Y36179D01*
X372063Y36169D01*
X372085Y36158D01*
X372107Y36114D01*
X372150Y36070D01*
X372205Y36015D01*
X372259Y35939D01*
X372314Y35862D01*
X372380Y35764D01*
X372489Y35556D01*
X372598Y35294D01*
X372642Y35163D01*
X372664Y35010D01*
X372686Y34857D01*
X372697Y34693D01*
Y34671D01*
Y34616D01*
X372686Y34529D01*
X372675Y34409D01*
X372653Y34278D01*
X372609Y34124D01*
X372566Y33961D01*
X372500Y33797D01*
X372489Y33775D01*
X372467Y33720D01*
X372423Y33633D01*
X372358Y33512D01*
X372270Y33381D01*
X372161Y33217D01*
X372030Y33053D01*
X371877Y32868D01*
X371855Y32846D01*
X371800Y32780D01*
X371746Y32726D01*
X371691Y32671D01*
X371626Y32605D01*
X371538Y32518D01*
X371451Y32430D01*
X371341Y32332D01*
X371232Y32223D01*
X371101Y32103D01*
X370959Y31982D01*
X370806Y31840D01*
X370631Y31698D01*
X370456Y31545D01*
X370445Y31534D01*
X370423Y31512D01*
X370379Y31479D01*
X370325Y31436D01*
X370259Y31370D01*
X370183Y31305D01*
X370008Y31163D01*
X369822Y30999D01*
X369647Y30835D01*
X369494Y30692D01*
X369429Y30638D01*
X369374Y30583D01*
X369363Y30572D01*
X369330Y30540D01*
X369286Y30496D01*
X369232Y30430D01*
X369177Y30354D01*
X369112Y30277D01*
X368981Y30091D01*
X372708D01*
Y29195D01*
X367691D01*
Y29206D01*
Y29250D01*
Y29315D01*
X367702Y29403D01*
X367713Y29501D01*
X367735Y29610D01*
X367756Y29720D01*
X367800Y29840D01*
Y29851D01*
X367811Y29862D01*
X367833Y29927D01*
X367877Y30026D01*
X367942Y30157D01*
X368030Y30310D01*
X368139Y30485D01*
X368259Y30660D01*
X368412Y30845D01*
Y30856D01*
X368434Y30867D01*
X368489Y30933D01*
X368587Y31031D01*
X368729Y31174D01*
X368893Y31337D01*
X369101Y31534D01*
X369352Y31753D01*
X369625Y31982D01*
X369636Y31993D01*
X369680Y32026D01*
X369746Y32081D01*
X369822Y32146D01*
X369920Y32234D01*
X370041Y32332D01*
X370161Y32441D01*
X370303Y32562D01*
X370576Y32824D01*
X370849Y33086D01*
X370981Y33217D01*
X371101Y33349D01*
X371210Y33469D01*
X371298Y33589D01*
Y33600D01*
X371320Y33611D01*
X371341Y33644D01*
X371363Y33687D01*
X371440Y33808D01*
X371527Y33950D01*
X371604Y34124D01*
X371680Y34310D01*
X371724Y34518D01*
X371746Y34715D01*
Y34726D01*
Y34737D01*
X371735Y34802D01*
X371724Y34912D01*
X371691Y35032D01*
X371647Y35185D01*
X371571Y35338D01*
X371473Y35491D01*
X371341Y35644D01*
X371320Y35666D01*
X371265Y35709D01*
X371188Y35764D01*
X371068Y35841D01*
X370915Y35906D01*
X370740Y35972D01*
X370532Y36015D01*
X370303Y36026D01*
X370237D01*
X370194Y36015D01*
X370063Y36004D01*
X369910Y35972D01*
X369746Y35928D01*
X369560Y35851D01*
X369385Y35753D01*
X369221Y35622D01*
X369199Y35600D01*
X369155Y35545D01*
X369090Y35458D01*
X369024Y35327D01*
X368948Y35174D01*
X368882Y34977D01*
X368838Y34758D01*
X368816Y34507D01*
X367866Y34606D01*
Y34616D01*
X367877Y34649D01*
Y34704D01*
X367887Y34780D01*
X367909Y34868D01*
X367931Y34966D01*
X367964Y35086D01*
X367997Y35207D01*
X368084Y35469D01*
X368215Y35731D01*
X368292Y35862D01*
X368390Y35994D01*
X368489Y36114D01*
X368598Y36223D01*
X368609Y36234D01*
X368631Y36245D01*
X368664Y36278D01*
X368718Y36311D01*
X368784Y36354D01*
X368860Y36398D01*
X368948Y36453D01*
X369057Y36507D01*
X369177Y36562D01*
X369308Y36617D01*
X369450Y36660D01*
X369603Y36704D01*
X369767Y36737D01*
X369942Y36770D01*
X370128Y36781D01*
X370325Y36792D01*
X370434D01*
X370511Y36781D01*
D02*
G37*
G36*
X358750D02*
X358837Y36770D01*
X358947Y36759D01*
X359067Y36737D01*
X359187Y36715D01*
X359471Y36639D01*
X359756Y36529D01*
X359898Y36464D01*
X360040Y36387D01*
X360171Y36289D01*
X360291Y36179D01*
X360302Y36169D01*
X360324Y36158D01*
X360346Y36114D01*
X360389Y36070D01*
X360444Y36015D01*
X360499Y35939D01*
X360554Y35862D01*
X360619Y35764D01*
X360728Y35556D01*
X360838Y35294D01*
X360881Y35163D01*
X360903Y35010D01*
X360925Y34857D01*
X360936Y34693D01*
Y34671D01*
Y34616D01*
X360925Y34529D01*
X360914Y34409D01*
X360892Y34278D01*
X360849Y34124D01*
X360805Y33961D01*
X360739Y33797D01*
X360728Y33775D01*
X360706Y33720D01*
X360663Y33633D01*
X360597Y33512D01*
X360510Y33381D01*
X360400Y33217D01*
X360269Y33053D01*
X360116Y32868D01*
X360094Y32846D01*
X360040Y32780D01*
X359985Y32726D01*
X359930Y32671D01*
X359865Y32605D01*
X359777Y32518D01*
X359690Y32430D01*
X359581Y32332D01*
X359471Y32223D01*
X359340Y32103D01*
X359198Y31982D01*
X359045Y31840D01*
X358870Y31698D01*
X358695Y31545D01*
X358684Y31534D01*
X358663Y31512D01*
X358619Y31479D01*
X358564Y31436D01*
X358499Y31370D01*
X358422Y31305D01*
X358247Y31163D01*
X358061Y30999D01*
X357887Y30835D01*
X357733Y30692D01*
X357668Y30638D01*
X357613Y30583D01*
X357602Y30572D01*
X357570Y30540D01*
X357526Y30496D01*
X357471Y30430D01*
X357417Y30354D01*
X357351Y30277D01*
X357220Y30091D01*
X360947D01*
Y29195D01*
X355930D01*
Y29206D01*
Y29250D01*
Y29315D01*
X355941Y29403D01*
X355952Y29501D01*
X355974Y29610D01*
X355996Y29720D01*
X356039Y29840D01*
Y29851D01*
X356050Y29862D01*
X356072Y29927D01*
X356116Y30026D01*
X356182Y30157D01*
X356269Y30310D01*
X356378Y30485D01*
X356498Y30660D01*
X356651Y30845D01*
Y30856D01*
X356673Y30867D01*
X356728Y30933D01*
X356826Y31031D01*
X356968Y31174D01*
X357132Y31337D01*
X357340Y31534D01*
X357591Y31753D01*
X357865Y31982D01*
X357876Y31993D01*
X357919Y32026D01*
X357985Y32081D01*
X358061Y32146D01*
X358160Y32234D01*
X358280Y32332D01*
X358400Y32441D01*
X358542Y32562D01*
X358816Y32824D01*
X359089Y33086D01*
X359220Y33217D01*
X359340Y33349D01*
X359450Y33469D01*
X359537Y33589D01*
Y33600D01*
X359559Y33611D01*
X359581Y33644D01*
X359603Y33687D01*
X359679Y33808D01*
X359767Y33950D01*
X359843Y34124D01*
X359920Y34310D01*
X359963Y34518D01*
X359985Y34715D01*
Y34726D01*
Y34737D01*
X359974Y34802D01*
X359963Y34912D01*
X359930Y35032D01*
X359887Y35185D01*
X359810Y35338D01*
X359712Y35491D01*
X359581Y35644D01*
X359559Y35666D01*
X359504Y35709D01*
X359428Y35764D01*
X359307Y35841D01*
X359154Y35906D01*
X358980Y35972D01*
X358772Y36015D01*
X358542Y36026D01*
X358477D01*
X358433Y36015D01*
X358302Y36004D01*
X358149Y35972D01*
X357985Y35928D01*
X357799Y35851D01*
X357624Y35753D01*
X357460Y35622D01*
X357438Y35600D01*
X357395Y35545D01*
X357329Y35458D01*
X357263Y35327D01*
X357187Y35174D01*
X357121Y34977D01*
X357078Y34758D01*
X357056Y34507D01*
X356105Y34606D01*
Y34616D01*
X356116Y34649D01*
Y34704D01*
X356127Y34780D01*
X356149Y34868D01*
X356171Y34966D01*
X356203Y35086D01*
X356236Y35207D01*
X356324Y35469D01*
X356455Y35731D01*
X356531Y35862D01*
X356630Y35994D01*
X356728Y36114D01*
X356837Y36223D01*
X356848Y36234D01*
X356870Y36245D01*
X356903Y36278D01*
X356958Y36311D01*
X357023Y36354D01*
X357100Y36398D01*
X357187Y36453D01*
X357296Y36507D01*
X357417Y36562D01*
X357548Y36617D01*
X357690Y36660D01*
X357843Y36704D01*
X358007Y36737D01*
X358182Y36770D01*
X358367Y36781D01*
X358564Y36792D01*
X358674D01*
X358750Y36781D01*
D02*
G37*
G36*
X343120Y29195D02*
X342191D01*
Y36759D01*
X343120D01*
Y29195D01*
D02*
G37*
G36*
X340770D02*
X339841D01*
Y36759D01*
X340770D01*
Y29195D01*
D02*
G37*
G36*
X338442D02*
X337513D01*
Y34682D01*
X338442D01*
Y29195D01*
D02*
G37*
G36*
X314877D02*
X313948D01*
Y35108D01*
X313937Y35097D01*
X313882Y35054D01*
X313817Y34988D01*
X313707Y34912D01*
X313587Y34813D01*
X313434Y34704D01*
X313259Y34584D01*
X313063Y34463D01*
X313052D01*
X313041Y34452D01*
X312975Y34409D01*
X312866Y34354D01*
X312735Y34288D01*
X312582Y34212D01*
X312418Y34135D01*
X312254Y34059D01*
X312090Y33993D01*
Y34890D01*
X312101D01*
X312123Y34912D01*
X312166Y34922D01*
X312221Y34955D01*
X312287Y34988D01*
X312363Y35032D01*
X312549Y35141D01*
X312768Y35261D01*
X312986Y35414D01*
X313216Y35589D01*
X313445Y35775D01*
X313456Y35786D01*
X313467Y35797D01*
X313500Y35830D01*
X313544Y35862D01*
X313642Y35972D01*
X313773Y36103D01*
X313904Y36256D01*
X314046Y36431D01*
X314166Y36606D01*
X314276Y36792D01*
X314877D01*
Y29195D01*
D02*
G37*
G36*
X351525Y34682D02*
X352465D01*
Y33961D01*
X351525D01*
Y30736D01*
Y30714D01*
Y30671D01*
Y30605D01*
X351536Y30529D01*
X351547Y30354D01*
X351558Y30277D01*
X351569Y30222D01*
X351580Y30201D01*
X351613Y30157D01*
X351656Y30102D01*
X351733Y30048D01*
X351755Y30037D01*
X351810Y30015D01*
X351908Y29993D01*
X352050Y29982D01*
X352159D01*
X352214Y29993D01*
X352290D01*
X352378Y30004D01*
X352465Y30015D01*
X352586Y29195D01*
X352564D01*
X352520Y29184D01*
X352443Y29173D01*
X352345Y29162D01*
X352236Y29140D01*
X352116Y29129D01*
X351875Y29119D01*
X351788D01*
X351700Y29129D01*
X351591Y29140D01*
X351460Y29151D01*
X351328Y29184D01*
X351208Y29217D01*
X351088Y29272D01*
X351077Y29283D01*
X351044Y29304D01*
X351001Y29337D01*
X350935Y29392D01*
X350880Y29447D01*
X350815Y29523D01*
X350749Y29599D01*
X350706Y29698D01*
Y29709D01*
X350684Y29753D01*
X350673Y29829D01*
X350651Y29938D01*
X350629Y30081D01*
X350618Y30168D01*
Y30266D01*
X350607Y30386D01*
X350596Y30507D01*
Y30638D01*
Y30791D01*
Y33961D01*
X349908D01*
Y34682D01*
X350596D01*
Y36037D01*
X351525Y36595D01*
Y34682D01*
D02*
G37*
G36*
X346989Y34791D02*
X347077Y34780D01*
X347186Y34758D01*
X347306Y34737D01*
X347448Y34704D01*
X347580Y34671D01*
X347733Y34616D01*
X347875Y34562D01*
X348028Y34485D01*
X348181Y34398D01*
X348334Y34299D01*
X348476Y34179D01*
X348607Y34048D01*
X348618Y34037D01*
X348640Y34015D01*
X348673Y33972D01*
X348716Y33906D01*
X348771Y33829D01*
X348826Y33742D01*
X348891Y33633D01*
X348957Y33501D01*
X349022Y33359D01*
X349088Y33206D01*
X349143Y33031D01*
X349197Y32846D01*
X349241Y32638D01*
X349274Y32419D01*
X349296Y32190D01*
X349307Y31938D01*
Y31928D01*
Y31884D01*
Y31807D01*
X349296Y31698D01*
X345197D01*
Y31687D01*
Y31654D01*
X345208Y31611D01*
Y31545D01*
X345219Y31469D01*
X345240Y31381D01*
X345273Y31184D01*
X345339Y30966D01*
X345426Y30725D01*
X345547Y30507D01*
X345700Y30310D01*
X345710D01*
X345722Y30288D01*
X345787Y30233D01*
X345885Y30157D01*
X346017Y30081D01*
X346191Y29993D01*
X346388Y29917D01*
X346607Y29862D01*
X346727Y29851D01*
X346858Y29840D01*
X346946D01*
X347044Y29851D01*
X347164Y29873D01*
X347295Y29906D01*
X347448Y29949D01*
X347590Y30015D01*
X347733Y30102D01*
X347744Y30113D01*
X347798Y30157D01*
X347864Y30222D01*
X347940Y30310D01*
X348028Y30430D01*
X348126Y30583D01*
X348224Y30758D01*
X348312Y30966D01*
X349274Y30845D01*
Y30835D01*
X349263Y30813D01*
X349252Y30769D01*
X349230Y30703D01*
X349197Y30638D01*
X349164Y30550D01*
X349077Y30365D01*
X348968Y30157D01*
X348815Y29938D01*
X348640Y29731D01*
X348421Y29534D01*
X348410D01*
X348388Y29512D01*
X348356Y29490D01*
X348312Y29457D01*
X348246Y29425D01*
X348181Y29392D01*
X348093Y29348D01*
X347995Y29304D01*
X347886Y29261D01*
X347776Y29217D01*
X347503Y29151D01*
X347197Y29097D01*
X346858Y29075D01*
X346738D01*
X346661Y29086D01*
X346563Y29097D01*
X346443Y29119D01*
X346312Y29140D01*
X346170Y29162D01*
X345864Y29250D01*
X345700Y29315D01*
X345547Y29381D01*
X345383Y29468D01*
X345230Y29567D01*
X345088Y29676D01*
X344945Y29807D01*
X344935Y29818D01*
X344913Y29840D01*
X344880Y29884D01*
X344836Y29949D01*
X344781Y30026D01*
X344727Y30113D01*
X344661Y30222D01*
X344596Y30343D01*
X344530Y30485D01*
X344464Y30638D01*
X344410Y30813D01*
X344355Y30999D01*
X344311Y31195D01*
X344279Y31414D01*
X344257Y31643D01*
X344246Y31884D01*
Y31895D01*
Y31949D01*
Y32015D01*
X344257Y32113D01*
X344268Y32234D01*
X344279Y32365D01*
X344301Y32518D01*
X344333Y32671D01*
X344421Y33021D01*
X344475Y33195D01*
X344541Y33381D01*
X344629Y33556D01*
X344727Y33720D01*
X344836Y33884D01*
X344956Y34037D01*
X344967Y34048D01*
X344989Y34070D01*
X345033Y34103D01*
X345088Y34157D01*
X345153Y34212D01*
X345240Y34278D01*
X345339Y34354D01*
X345459Y34420D01*
X345579Y34496D01*
X345722Y34562D01*
X345875Y34627D01*
X346038Y34682D01*
X346213Y34737D01*
X346399Y34769D01*
X346596Y34791D01*
X346803Y34802D01*
X346913D01*
X346989Y34791D01*
D02*
G37*
G36*
X364630Y36781D02*
X364772Y36759D01*
X364936Y36726D01*
X365111Y36682D01*
X365297Y36628D01*
X365472Y36540D01*
X365483D01*
X365494Y36529D01*
X365548Y36496D01*
X365636Y36442D01*
X365745Y36365D01*
X365865Y36256D01*
X365997Y36136D01*
X366117Y35994D01*
X366237Y35830D01*
X366248Y35808D01*
X366292Y35753D01*
X366335Y35655D01*
X366412Y35513D01*
X366477Y35349D01*
X366565Y35163D01*
X366641Y34944D01*
X366707Y34704D01*
Y34693D01*
X366718Y34671D01*
X366729Y34638D01*
X366740Y34584D01*
X366751Y34518D01*
X366762Y34442D01*
X366784Y34343D01*
X366794Y34234D01*
X366816Y34114D01*
X366827Y33983D01*
X366838Y33829D01*
X366860Y33676D01*
X366871Y33501D01*
Y33327D01*
X366882Y33130D01*
Y32922D01*
Y32911D01*
Y32868D01*
Y32791D01*
Y32704D01*
X366871Y32583D01*
Y32452D01*
X366860Y32310D01*
X366849Y32157D01*
X366816Y31807D01*
X366762Y31447D01*
X366696Y31097D01*
X366652Y30933D01*
X366598Y30769D01*
Y30758D01*
X366587Y30736D01*
X366565Y30692D01*
X366543Y30638D01*
X366521Y30561D01*
X366477Y30485D01*
X366390Y30299D01*
X366281Y30102D01*
X366139Y29884D01*
X365975Y29687D01*
X365778Y29501D01*
X365767D01*
X365756Y29479D01*
X365723Y29457D01*
X365680Y29436D01*
X365625Y29403D01*
X365570Y29359D01*
X365406Y29283D01*
X365210Y29206D01*
X364980Y29129D01*
X364707Y29086D01*
X364412Y29064D01*
X364302D01*
X364226Y29075D01*
X364139Y29086D01*
X364029Y29108D01*
X363909Y29129D01*
X363778Y29162D01*
X363647Y29206D01*
X363505Y29250D01*
X363363Y29315D01*
X363220Y29392D01*
X363078Y29479D01*
X362936Y29589D01*
X362805Y29709D01*
X362685Y29840D01*
X362674Y29851D01*
X362652Y29884D01*
X362619Y29938D01*
X362565Y30026D01*
X362510Y30124D01*
X362455Y30255D01*
X362379Y30408D01*
X362313Y30583D01*
X362248Y30780D01*
X362182Y31010D01*
X362116Y31261D01*
X362062Y31545D01*
X362007Y31851D01*
X361974Y32179D01*
X361952Y32540D01*
X361942Y32922D01*
Y32933D01*
Y32977D01*
Y33053D01*
Y33141D01*
X361952Y33261D01*
Y33392D01*
X361963Y33534D01*
X361974Y33698D01*
X362007Y34037D01*
X362062Y34398D01*
X362127Y34758D01*
X362171Y34922D01*
X362215Y35086D01*
Y35097D01*
X362226Y35119D01*
X362248Y35163D01*
X362269Y35217D01*
X362291Y35294D01*
X362335Y35371D01*
X362422Y35556D01*
X362532Y35753D01*
X362674Y35961D01*
X362838Y36169D01*
X363035Y36343D01*
X363046D01*
X363056Y36365D01*
X363089Y36387D01*
X363133Y36409D01*
X363188Y36453D01*
X363253Y36485D01*
X363417Y36573D01*
X363614Y36649D01*
X363843Y36726D01*
X364117Y36770D01*
X364412Y36792D01*
X364510D01*
X364630Y36781D01*
D02*
G37*
G36*
X319949D02*
X320091Y36759D01*
X320255Y36726D01*
X320429Y36682D01*
X320615Y36628D01*
X320790Y36540D01*
X320801D01*
X320812Y36529D01*
X320867Y36496D01*
X320954Y36442D01*
X321063Y36365D01*
X321184Y36256D01*
X321315Y36136D01*
X321435Y35994D01*
X321555Y35830D01*
X321566Y35808D01*
X321610Y35753D01*
X321654Y35655D01*
X321730Y35513D01*
X321796Y35349D01*
X321883Y35163D01*
X321960Y34944D01*
X322025Y34704D01*
Y34693D01*
X322036Y34671D01*
X322047Y34638D01*
X322058Y34584D01*
X322069Y34518D01*
X322080Y34442D01*
X322102Y34343D01*
X322113Y34234D01*
X322134Y34114D01*
X322145Y33983D01*
X322156Y33829D01*
X322178Y33676D01*
X322189Y33501D01*
Y33327D01*
X322200Y33130D01*
Y32922D01*
Y32911D01*
Y32868D01*
Y32791D01*
Y32704D01*
X322189Y32583D01*
Y32452D01*
X322178Y32310D01*
X322167Y32157D01*
X322134Y31807D01*
X322080Y31447D01*
X322014Y31097D01*
X321971Y30933D01*
X321916Y30769D01*
Y30758D01*
X321905Y30736D01*
X321883Y30692D01*
X321861Y30638D01*
X321839Y30561D01*
X321796Y30485D01*
X321708Y30299D01*
X321599Y30102D01*
X321457Y29884D01*
X321293Y29687D01*
X321096Y29501D01*
X321085D01*
X321074Y29479D01*
X321041Y29457D01*
X320998Y29436D01*
X320943Y29403D01*
X320888Y29359D01*
X320725Y29283D01*
X320528Y29206D01*
X320298Y29129D01*
X320025Y29086D01*
X319730Y29064D01*
X319621D01*
X319544Y29075D01*
X319457Y29086D01*
X319347Y29108D01*
X319227Y29129D01*
X319096Y29162D01*
X318965Y29206D01*
X318823Y29250D01*
X318681Y29315D01*
X318538Y29392D01*
X318396Y29479D01*
X318254Y29589D01*
X318123Y29709D01*
X318003Y29840D01*
X317992Y29851D01*
X317970Y29884D01*
X317937Y29938D01*
X317883Y30026D01*
X317828Y30124D01*
X317773Y30255D01*
X317697Y30408D01*
X317631Y30583D01*
X317566Y30780D01*
X317500Y31010D01*
X317435Y31261D01*
X317380Y31545D01*
X317325Y31851D01*
X317292Y32179D01*
X317271Y32540D01*
X317260Y32922D01*
Y32933D01*
Y32977D01*
Y33053D01*
Y33141D01*
X317271Y33261D01*
Y33392D01*
X317282Y33534D01*
X317292Y33698D01*
X317325Y34037D01*
X317380Y34398D01*
X317445Y34758D01*
X317489Y34922D01*
X317533Y35086D01*
Y35097D01*
X317544Y35119D01*
X317566Y35163D01*
X317588Y35217D01*
X317610Y35294D01*
X317653Y35371D01*
X317741Y35556D01*
X317850Y35753D01*
X317992Y35961D01*
X318156Y36169D01*
X318353Y36343D01*
X318364D01*
X318375Y36365D01*
X318407Y36387D01*
X318451Y36409D01*
X318506Y36453D01*
X318571Y36485D01*
X318735Y36573D01*
X318932Y36649D01*
X319162Y36726D01*
X319435Y36770D01*
X319730Y36792D01*
X319828D01*
X319949Y36781D01*
D02*
G37*
G36*
X383970Y46315D02*
X384046D01*
X384254Y46293D01*
X384483Y46260D01*
X384724Y46206D01*
X384986Y46140D01*
X385226Y46053D01*
X385238D01*
X385259Y46042D01*
X385292Y46020D01*
X385336Y45998D01*
X385445Y45943D01*
X385587Y45845D01*
X385751Y45736D01*
X385915Y45594D01*
X386068Y45430D01*
X386210Y45244D01*
Y45233D01*
X386221Y45222D01*
X386243Y45189D01*
X386265Y45156D01*
X386319Y45047D01*
X386385Y44905D01*
X386462Y44730D01*
X386516Y44522D01*
X386571Y44304D01*
X386593Y44063D01*
X385631Y43987D01*
Y43998D01*
Y44020D01*
X385620Y44052D01*
X385609Y44107D01*
X385576Y44227D01*
X385533Y44391D01*
X385467Y44566D01*
X385369Y44741D01*
X385248Y44905D01*
X385095Y45058D01*
X385073Y45069D01*
X385019Y45113D01*
X384910Y45178D01*
X384768Y45244D01*
X384582Y45309D01*
X384363Y45375D01*
X384090Y45419D01*
X383784Y45430D01*
X383631D01*
X383565Y45419D01*
X383478Y45408D01*
X383281Y45386D01*
X383062Y45342D01*
X382844Y45287D01*
X382636Y45200D01*
X382549Y45145D01*
X382461Y45091D01*
X382439Y45080D01*
X382396Y45036D01*
X382330Y44960D01*
X382264Y44872D01*
X382188Y44752D01*
X382122Y44621D01*
X382079Y44468D01*
X382057Y44293D01*
Y44271D01*
Y44227D01*
X382068Y44151D01*
X382090Y44063D01*
X382122Y43954D01*
X382177Y43845D01*
X382243Y43736D01*
X382341Y43626D01*
X382352Y43615D01*
X382407Y43582D01*
X382450Y43550D01*
X382494Y43528D01*
X382560Y43495D01*
X382636Y43451D01*
X382734Y43418D01*
X382844Y43375D01*
X382964Y43331D01*
X383106Y43276D01*
X383259Y43233D01*
X383434Y43178D01*
X383631Y43134D01*
X383849Y43080D01*
X383860D01*
X383904Y43069D01*
X383970Y43058D01*
X384046Y43036D01*
X384144Y43014D01*
X384265Y42981D01*
X384385Y42948D01*
X384516Y42916D01*
X384800Y42839D01*
X385073Y42763D01*
X385205Y42719D01*
X385325Y42675D01*
X385434Y42643D01*
X385522Y42599D01*
X385533D01*
X385554Y42588D01*
X385587Y42566D01*
X385631Y42544D01*
X385751Y42478D01*
X385893Y42391D01*
X386057Y42271D01*
X386221Y42140D01*
X386374Y41987D01*
X386505Y41823D01*
X386516Y41801D01*
X386560Y41746D01*
X386604Y41648D01*
X386669Y41517D01*
X386724Y41364D01*
X386779Y41178D01*
X386811Y40970D01*
X386822Y40752D01*
Y40741D01*
Y40730D01*
Y40697D01*
Y40653D01*
X386801Y40533D01*
X386779Y40380D01*
X386735Y40205D01*
X386680Y40019D01*
X386593Y39823D01*
X386473Y39615D01*
Y39604D01*
X386462Y39593D01*
X386407Y39527D01*
X386331Y39429D01*
X386221Y39320D01*
X386079Y39189D01*
X385904Y39046D01*
X385707Y38915D01*
X385478Y38795D01*
X385467D01*
X385445Y38784D01*
X385412Y38773D01*
X385369Y38751D01*
X385303Y38730D01*
X385226Y38697D01*
X385052Y38653D01*
X384844Y38598D01*
X384593Y38544D01*
X384319Y38511D01*
X384024Y38500D01*
X383849D01*
X383762Y38511D01*
X383664D01*
X383554Y38522D01*
X383423Y38533D01*
X383150Y38576D01*
X382866Y38620D01*
X382581Y38697D01*
X382308Y38795D01*
X382297D01*
X382275Y38806D01*
X382243Y38828D01*
X382199Y38850D01*
X382068Y38915D01*
X381915Y39014D01*
X381740Y39145D01*
X381554Y39298D01*
X381379Y39484D01*
X381215Y39691D01*
Y39702D01*
X381193Y39724D01*
X381182Y39757D01*
X381150Y39801D01*
X381128Y39855D01*
X381095Y39921D01*
X381018Y40085D01*
X380942Y40293D01*
X380876Y40522D01*
X380833Y40784D01*
X380811Y41058D01*
X381751Y41145D01*
Y41134D01*
Y41123D01*
X381762Y41090D01*
Y41047D01*
X381784Y40948D01*
X381816Y40806D01*
X381860Y40664D01*
X381904Y40500D01*
X381980Y40347D01*
X382057Y40205D01*
X382068Y40194D01*
X382101Y40150D01*
X382155Y40074D01*
X382243Y39997D01*
X382352Y39899D01*
X382472Y39801D01*
X382636Y39702D01*
X382811Y39615D01*
X382822D01*
X382833Y39604D01*
X382866Y39593D01*
X382898Y39582D01*
X383008Y39549D01*
X383150Y39506D01*
X383325Y39462D01*
X383522Y39429D01*
X383740Y39407D01*
X383980Y39396D01*
X384079D01*
X384188Y39407D01*
X384319Y39418D01*
X384472Y39440D01*
X384647Y39462D01*
X384822Y39506D01*
X384986Y39560D01*
X385008Y39571D01*
X385063Y39593D01*
X385139Y39637D01*
X385238Y39680D01*
X385336Y39757D01*
X385445Y39834D01*
X385554Y39921D01*
X385642Y40030D01*
X385653Y40041D01*
X385675Y40085D01*
X385707Y40139D01*
X385751Y40227D01*
X385795Y40314D01*
X385828Y40424D01*
X385849Y40544D01*
X385860Y40675D01*
Y40686D01*
Y40741D01*
X385849Y40806D01*
X385839Y40894D01*
X385806Y40981D01*
X385773Y41090D01*
X385718Y41200D01*
X385642Y41298D01*
X385631Y41309D01*
X385598Y41342D01*
X385554Y41385D01*
X385478Y41451D01*
X385390Y41517D01*
X385270Y41593D01*
X385128Y41670D01*
X384964Y41735D01*
X384953Y41746D01*
X384899Y41757D01*
X384811Y41790D01*
X384757Y41801D01*
X384680Y41823D01*
X384604Y41855D01*
X384505Y41877D01*
X384396Y41910D01*
X384265Y41943D01*
X384134Y41976D01*
X383980Y42020D01*
X383806Y42063D01*
X383620Y42107D01*
X383609D01*
X383576Y42118D01*
X383522Y42129D01*
X383456Y42151D01*
X383368Y42173D01*
X383270Y42194D01*
X383051Y42260D01*
X382811Y42336D01*
X382560Y42413D01*
X382341Y42489D01*
X382243Y42533D01*
X382155Y42577D01*
X382144D01*
X382133Y42588D01*
X382068Y42632D01*
X381969Y42686D01*
X381860Y42774D01*
X381729Y42872D01*
X381598Y42992D01*
X381467Y43134D01*
X381357Y43287D01*
X381346Y43309D01*
X381314Y43364D01*
X381270Y43451D01*
X381226Y43561D01*
X381182Y43703D01*
X381139Y43867D01*
X381106Y44041D01*
X381095Y44227D01*
Y44238D01*
Y44249D01*
Y44282D01*
Y44326D01*
X381117Y44435D01*
X381139Y44577D01*
X381171Y44741D01*
X381226Y44927D01*
X381303Y45113D01*
X381412Y45298D01*
Y45309D01*
X381423Y45320D01*
X381478Y45386D01*
X381554Y45473D01*
X381652Y45583D01*
X381784Y45703D01*
X381947Y45834D01*
X382144Y45954D01*
X382363Y46064D01*
X382374D01*
X382396Y46075D01*
X382429Y46085D01*
X382472Y46107D01*
X382527Y46129D01*
X382603Y46151D01*
X382767Y46195D01*
X382975Y46238D01*
X383215Y46282D01*
X383467Y46315D01*
X383751Y46326D01*
X383893D01*
X383970Y46315D01*
D02*
G37*
G36*
X356415D02*
X356513Y46304D01*
X356634Y46293D01*
X356754Y46282D01*
X356896Y46249D01*
X357191Y46184D01*
X357519Y46085D01*
X357683Y46020D01*
X357836Y45943D01*
X357989Y45845D01*
X358142Y45747D01*
X358153Y45736D01*
X358175Y45725D01*
X358219Y45692D01*
X358273Y45637D01*
X358328Y45583D01*
X358404Y45506D01*
X358481Y45419D01*
X358568Y45331D01*
X358656Y45222D01*
X358743Y45091D01*
X358841Y44960D01*
X358929Y44818D01*
X359005Y44654D01*
X359093Y44490D01*
X359158Y44315D01*
X359224Y44118D01*
X358240Y43889D01*
Y43899D01*
X358229Y43921D01*
X358208Y43965D01*
X358186Y44020D01*
X358164Y44085D01*
X358131Y44173D01*
X358044Y44348D01*
X357934Y44544D01*
X357803Y44741D01*
X357639Y44927D01*
X357464Y45091D01*
X357442Y45113D01*
X357377Y45156D01*
X357268Y45211D01*
X357125Y45287D01*
X356940Y45353D01*
X356732Y45419D01*
X356481Y45462D01*
X356207Y45473D01*
X356120D01*
X356065Y45462D01*
X355989D01*
X355901Y45452D01*
X355694Y45419D01*
X355464Y45375D01*
X355224Y45298D01*
X354972Y45189D01*
X354743Y45047D01*
X354732D01*
X354721Y45025D01*
X354644Y44971D01*
X354546Y44883D01*
X354426Y44752D01*
X354284Y44588D01*
X354153Y44402D01*
X354032Y44173D01*
X353923Y43921D01*
Y43910D01*
X353912Y43889D01*
X353901Y43856D01*
X353890Y43801D01*
X353868Y43736D01*
X353847Y43659D01*
X353814Y43473D01*
X353770Y43255D01*
X353726Y43014D01*
X353704Y42752D01*
X353694Y42468D01*
Y42457D01*
Y42424D01*
Y42369D01*
Y42304D01*
X353704Y42227D01*
Y42129D01*
X353715Y42020D01*
X353726Y41899D01*
X353759Y41637D01*
X353814Y41353D01*
X353879Y41069D01*
X353967Y40784D01*
Y40773D01*
X353978Y40752D01*
X353999Y40719D01*
X354021Y40664D01*
X354087Y40533D01*
X354185Y40380D01*
X354306Y40205D01*
X354459Y40019D01*
X354633Y39855D01*
X354841Y39702D01*
X354852D01*
X354874Y39691D01*
X354907Y39669D01*
X354950Y39648D01*
X355005Y39626D01*
X355071Y39593D01*
X355224Y39527D01*
X355420Y39462D01*
X355639Y39407D01*
X355879Y39364D01*
X356131Y39353D01*
X356207D01*
X356273Y39364D01*
X356349D01*
X356426Y39374D01*
X356623Y39418D01*
X356852Y39473D01*
X357082Y39560D01*
X357322Y39680D01*
X357442Y39746D01*
X357552Y39834D01*
X357563Y39844D01*
X357574Y39855D01*
X357606Y39888D01*
X357650Y39921D01*
X357694Y39976D01*
X357749Y40041D01*
X357814Y40107D01*
X357869Y40194D01*
X357934Y40293D01*
X358011Y40402D01*
X358076Y40511D01*
X358142Y40642D01*
X358197Y40784D01*
X358251Y40937D01*
X358306Y41101D01*
X358350Y41276D01*
X359355Y41025D01*
Y41014D01*
X359344Y40970D01*
X359322Y40905D01*
X359290Y40817D01*
X359257Y40719D01*
X359213Y40599D01*
X359158Y40467D01*
X359093Y40325D01*
X358940Y40019D01*
X358743Y39713D01*
X358623Y39560D01*
X358503Y39407D01*
X358371Y39276D01*
X358219Y39145D01*
X358208Y39134D01*
X358186Y39112D01*
X358131Y39090D01*
X358076Y39046D01*
X357989Y38992D01*
X357902Y38937D01*
X357781Y38882D01*
X357661Y38828D01*
X357519Y38762D01*
X357366Y38708D01*
X357202Y38653D01*
X357027Y38598D01*
X356841Y38555D01*
X356645Y38533D01*
X356437Y38511D01*
X356218Y38500D01*
X356098D01*
X356011Y38511D01*
X355912D01*
X355792Y38522D01*
X355661Y38544D01*
X355508Y38566D01*
X355191Y38620D01*
X354863Y38708D01*
X354535Y38828D01*
X354382Y38904D01*
X354229Y38992D01*
X354218Y39003D01*
X354196Y39014D01*
X354153Y39046D01*
X354109Y39090D01*
X354043Y39134D01*
X353967Y39200D01*
X353879Y39276D01*
X353792Y39364D01*
X353704Y39462D01*
X353606Y39560D01*
X353409Y39812D01*
X353223Y40107D01*
X353060Y40435D01*
Y40446D01*
X353038Y40478D01*
X353027Y40533D01*
X352994Y40599D01*
X352972Y40686D01*
X352939Y40795D01*
X352896Y40916D01*
X352863Y41047D01*
X352830Y41189D01*
X352786Y41353D01*
X352732Y41692D01*
X352688Y42074D01*
X352666Y42468D01*
Y42478D01*
Y42522D01*
Y42588D01*
X352677Y42664D01*
Y42774D01*
X352688Y42883D01*
X352699Y43025D01*
X352721Y43167D01*
X352775Y43484D01*
X352852Y43834D01*
X352961Y44184D01*
X353114Y44522D01*
X353125Y44533D01*
X353136Y44566D01*
X353158Y44610D01*
X353202Y44664D01*
X353245Y44741D01*
X353300Y44829D01*
X353442Y45025D01*
X353628Y45244D01*
X353847Y45462D01*
X354098Y45681D01*
X354393Y45867D01*
X354404Y45878D01*
X354437Y45889D01*
X354481Y45911D01*
X354535Y45943D01*
X354623Y45976D01*
X354710Y46009D01*
X354819Y46053D01*
X354940Y46096D01*
X355071Y46140D01*
X355213Y46184D01*
X355519Y46249D01*
X355869Y46304D01*
X356229Y46326D01*
X356339D01*
X356415Y46315D01*
D02*
G37*
G36*
X332719Y44227D02*
X332839Y44205D01*
X332981Y44162D01*
X333134Y44107D01*
X333309Y44031D01*
X333495Y43932D01*
X333156Y43080D01*
X333145Y43091D01*
X333101Y43112D01*
X333036Y43145D01*
X332948Y43178D01*
X332850Y43211D01*
X332730Y43244D01*
X332610Y43266D01*
X332489Y43276D01*
X332435D01*
X332380Y43266D01*
X332304Y43255D01*
X332227Y43233D01*
X332129Y43200D01*
X332030Y43156D01*
X331943Y43091D01*
X331932Y43080D01*
X331899Y43058D01*
X331866Y43014D01*
X331812Y42959D01*
X331757Y42883D01*
X331702Y42796D01*
X331648Y42697D01*
X331604Y42577D01*
X331593Y42555D01*
X331582Y42489D01*
X331560Y42391D01*
X331527Y42260D01*
X331495Y42096D01*
X331473Y41910D01*
X331462Y41713D01*
X331451Y41495D01*
Y38631D01*
X330522D01*
Y44118D01*
X331364D01*
Y43287D01*
X331374Y43298D01*
X331418Y43375D01*
X331473Y43473D01*
X331560Y43593D01*
X331648Y43714D01*
X331746Y43845D01*
X331844Y43954D01*
X331943Y44041D01*
X331954Y44052D01*
X331986Y44074D01*
X332052Y44107D01*
X332118Y44140D01*
X332205Y44173D01*
X332314Y44205D01*
X332424Y44227D01*
X332544Y44238D01*
X332620D01*
X332719Y44227D01*
D02*
G37*
G36*
X363487Y43123D02*
X366799Y38631D01*
X365476D01*
X362787Y42446D01*
X361552Y41254D01*
Y38631D01*
X360547D01*
Y46195D01*
X361552D01*
Y42435D01*
X365290Y46195D01*
X366656D01*
X363487Y43123D01*
D02*
G37*
G36*
X329079Y38631D02*
X328249D01*
Y39429D01*
X328238Y39418D01*
X328216Y39385D01*
X328183Y39342D01*
X328128Y39287D01*
X328063Y39221D01*
X327986Y39134D01*
X327899Y39057D01*
X327789Y38970D01*
X327669Y38882D01*
X327538Y38806D01*
X327396Y38730D01*
X327243Y38653D01*
X327068Y38598D01*
X326893Y38555D01*
X326696Y38522D01*
X326500Y38511D01*
X326423D01*
X326325Y38522D01*
X326204Y38533D01*
X326062Y38555D01*
X325909Y38587D01*
X325756Y38631D01*
X325592Y38697D01*
X325571Y38708D01*
X325527Y38730D01*
X325450Y38773D01*
X325363Y38828D01*
X325254Y38893D01*
X325155Y38970D01*
X325057Y39057D01*
X324970Y39156D01*
X324958Y39167D01*
X324937Y39210D01*
X324904Y39265D01*
X324860Y39353D01*
X324805Y39451D01*
X324762Y39571D01*
X324718Y39702D01*
X324685Y39844D01*
Y39855D01*
X324674Y39899D01*
X324663Y39965D01*
Y40052D01*
X324653Y40183D01*
X324642Y40325D01*
X324631Y40511D01*
Y40719D01*
Y44118D01*
X325560D01*
Y41069D01*
Y41058D01*
Y41036D01*
Y41003D01*
Y40948D01*
Y40828D01*
X325571Y40675D01*
Y40511D01*
X325582Y40347D01*
X325592Y40205D01*
X325614Y40085D01*
Y40074D01*
X325636Y40030D01*
X325658Y39965D01*
X325691Y39877D01*
X325746Y39790D01*
X325811Y39691D01*
X325888Y39604D01*
X325986Y39516D01*
X325997Y39506D01*
X326041Y39484D01*
X326095Y39451D01*
X326183Y39418D01*
X326281Y39374D01*
X326401Y39342D01*
X326532Y39320D01*
X326686Y39309D01*
X326762D01*
X326838Y39320D01*
X326937Y39331D01*
X327057Y39364D01*
X327188Y39396D01*
X327330Y39451D01*
X327472Y39516D01*
X327494Y39527D01*
X327538Y39560D01*
X327604Y39604D01*
X327680Y39669D01*
X327767Y39757D01*
X327855Y39855D01*
X327931Y39965D01*
X327997Y40096D01*
X328008Y40118D01*
X328019Y40161D01*
X328041Y40249D01*
X328074Y40369D01*
X328106Y40522D01*
X328128Y40708D01*
X328139Y40927D01*
X328150Y41178D01*
Y44118D01*
X329079D01*
Y38631D01*
D02*
G37*
G36*
X380111Y45298D02*
X377619D01*
Y38631D01*
X376614D01*
Y45298D01*
X374122D01*
Y46195D01*
X380111D01*
Y45298D01*
D02*
G37*
G36*
X373127D02*
X368657D01*
Y42992D01*
X372843D01*
Y42096D01*
X368657D01*
Y39527D01*
X373302D01*
Y38631D01*
X367651D01*
Y46195D01*
X373127D01*
Y45298D01*
D02*
G37*
G36*
X340720Y46184D02*
X340818D01*
X341048Y46173D01*
X341288Y46140D01*
X341550Y46107D01*
X341791Y46053D01*
X341911Y46020D01*
X342009Y45987D01*
X342020D01*
X342031Y45976D01*
X342097Y45943D01*
X342195Y45900D01*
X342315Y45823D01*
X342446Y45725D01*
X342589Y45594D01*
X342720Y45441D01*
X342851Y45266D01*
Y45255D01*
X342862Y45244D01*
X342906Y45178D01*
X342949Y45069D01*
X343015Y44927D01*
X343070Y44763D01*
X343124Y44566D01*
X343157Y44359D01*
X343168Y44129D01*
Y44118D01*
Y44096D01*
Y44052D01*
X343157Y43998D01*
Y43921D01*
X343146Y43845D01*
X343102Y43659D01*
X343037Y43440D01*
X342949Y43211D01*
X342818Y42981D01*
X342731Y42872D01*
X342643Y42763D01*
X342632Y42752D01*
X342621Y42741D01*
X342589Y42708D01*
X342545Y42675D01*
X342490Y42632D01*
X342425Y42588D01*
X342337Y42533D01*
X342250Y42468D01*
X342141Y42413D01*
X342020Y42358D01*
X341889Y42293D01*
X341747Y42238D01*
X341583Y42194D01*
X341419Y42140D01*
X341233Y42107D01*
X341037Y42074D01*
X341058Y42063D01*
X341102Y42041D01*
X341168Y41998D01*
X341255Y41954D01*
X341452Y41834D01*
X341550Y41757D01*
X341638Y41692D01*
X341660Y41670D01*
X341714Y41615D01*
X341802Y41528D01*
X341911Y41418D01*
X342031Y41265D01*
X342173Y41101D01*
X342315Y40905D01*
X342468Y40686D01*
X343769Y38631D01*
X342523D01*
X341528Y40205D01*
Y40216D01*
X341507Y40238D01*
X341485Y40271D01*
X341452Y40314D01*
X341375Y40435D01*
X341277Y40588D01*
X341157Y40752D01*
X341037Y40927D01*
X340916Y41090D01*
X340807Y41243D01*
X340796Y41254D01*
X340763Y41298D01*
X340709Y41364D01*
X340632Y41440D01*
X340468Y41604D01*
X340381Y41681D01*
X340293Y41746D01*
X340282Y41757D01*
X340261Y41768D01*
X340217Y41790D01*
X340151Y41823D01*
X340086Y41855D01*
X340009Y41888D01*
X339834Y41943D01*
X339823D01*
X339802Y41954D01*
X339758D01*
X339703Y41965D01*
X339627Y41976D01*
X339539D01*
X339419Y41987D01*
X338129D01*
Y38631D01*
X337124D01*
Y46195D01*
X340632D01*
X340720Y46184D01*
D02*
G37*
G36*
X315111D02*
X315296Y46173D01*
X315493Y46162D01*
X315679Y46140D01*
X315843Y46118D01*
X315865D01*
X315941Y46096D01*
X316040Y46075D01*
X316171Y46042D01*
X316313Y45987D01*
X316466Y45921D01*
X316630Y45845D01*
X316772Y45757D01*
X316794Y45747D01*
X316838Y45714D01*
X316903Y45648D01*
X316990Y45572D01*
X317089Y45473D01*
X317187Y45342D01*
X317297Y45200D01*
X317384Y45036D01*
X317395Y45014D01*
X317417Y44960D01*
X317460Y44861D01*
X317504Y44730D01*
X317537Y44577D01*
X317581Y44402D01*
X317603Y44205D01*
X317614Y43998D01*
Y43987D01*
Y43954D01*
Y43910D01*
X317603Y43834D01*
X317592Y43757D01*
X317581Y43659D01*
X317559Y43550D01*
X317537Y43429D01*
X317460Y43178D01*
X317417Y43047D01*
X317351Y42905D01*
X317275Y42763D01*
X317198Y42632D01*
X317100Y42500D01*
X316990Y42369D01*
X316980Y42358D01*
X316958Y42336D01*
X316925Y42304D01*
X316870Y42271D01*
X316805Y42216D01*
X316717Y42162D01*
X316608Y42096D01*
X316488Y42041D01*
X316346Y41976D01*
X316182Y41910D01*
X316007Y41855D01*
X315799Y41812D01*
X315581Y41768D01*
X315340Y41735D01*
X315067Y41713D01*
X314783Y41702D01*
X312848D01*
Y38631D01*
X311842D01*
Y46195D01*
X314947D01*
X315111Y46184D01*
D02*
G37*
G36*
X321177Y44227D02*
X321275Y44216D01*
X321384Y44194D01*
X321505Y44173D01*
X321647Y44151D01*
X321942Y44052D01*
X322095Y43998D01*
X322248Y43921D01*
X322401Y43845D01*
X322554Y43736D01*
X322696Y43626D01*
X322838Y43495D01*
X322849Y43484D01*
X322871Y43462D01*
X322904Y43418D01*
X322947Y43364D01*
X323002Y43287D01*
X323068Y43189D01*
X323133Y43080D01*
X323199Y42959D01*
X323264Y42828D01*
X323330Y42664D01*
X323395Y42500D01*
X323450Y42315D01*
X323494Y42118D01*
X323527Y41910D01*
X323549Y41692D01*
X323559Y41451D01*
Y41440D01*
Y41407D01*
Y41353D01*
Y41276D01*
X323549Y41189D01*
X323538Y41080D01*
Y40970D01*
X323516Y40850D01*
X323483Y40577D01*
X323417Y40303D01*
X323341Y40030D01*
X323232Y39779D01*
Y39768D01*
X323221Y39757D01*
X323199Y39724D01*
X323177Y39680D01*
X323100Y39571D01*
X323002Y39440D01*
X322871Y39287D01*
X322707Y39134D01*
X322521Y38981D01*
X322303Y38839D01*
X322292D01*
X322281Y38828D01*
X322248Y38806D01*
X322193Y38784D01*
X322139Y38762D01*
X322073Y38741D01*
X321909Y38675D01*
X321723Y38620D01*
X321494Y38566D01*
X321253Y38522D01*
X320991Y38511D01*
X320882D01*
X320794Y38522D01*
X320696Y38533D01*
X320586Y38555D01*
X320455Y38576D01*
X320324Y38598D01*
X320029Y38686D01*
X319865Y38751D01*
X319712Y38817D01*
X319559Y38904D01*
X319406Y39003D01*
X319264Y39112D01*
X319122Y39243D01*
X319111Y39254D01*
X319089Y39276D01*
X319056Y39320D01*
X319013Y39385D01*
X318958Y39462D01*
X318903Y39549D01*
X318838Y39659D01*
X318772Y39790D01*
X318707Y39932D01*
X318641Y40096D01*
X318586Y40271D01*
X318532Y40457D01*
X318488Y40664D01*
X318455Y40883D01*
X318433Y41123D01*
X318422Y41375D01*
Y41396D01*
Y41440D01*
X318433Y41517D01*
Y41626D01*
X318444Y41746D01*
X318466Y41899D01*
X318488Y42052D01*
X318532Y42227D01*
X318575Y42402D01*
X318630Y42588D01*
X318696Y42785D01*
X318783Y42970D01*
X318870Y43145D01*
X318991Y43320D01*
X319111Y43484D01*
X319264Y43626D01*
X319275Y43637D01*
X319297Y43648D01*
X319340Y43681D01*
X319395Y43725D01*
X319461Y43768D01*
X319548Y43823D01*
X319636Y43878D01*
X319745Y43932D01*
X319865Y43987D01*
X319996Y44041D01*
X320291Y44140D01*
X320630Y44216D01*
X320805Y44227D01*
X320991Y44238D01*
X321100D01*
X321177Y44227D01*
D02*
G37*
G36*
X348229Y46315D02*
X348327D01*
X348425Y46304D01*
X348556Y46282D01*
X348688Y46260D01*
X348972Y46206D01*
X349300Y46118D01*
X349617Y45987D01*
X349781Y45911D01*
X349944Y45823D01*
X349955Y45812D01*
X349977Y45801D01*
X350021Y45768D01*
X350087Y45736D01*
X350152Y45681D01*
X350240Y45615D01*
X350425Y45462D01*
X350622Y45266D01*
X350841Y45025D01*
X351048Y44741D01*
X351223Y44424D01*
Y44413D01*
X351245Y44380D01*
X351267Y44337D01*
X351289Y44271D01*
X351333Y44184D01*
X351365Y44085D01*
X351409Y43965D01*
X351453Y43834D01*
X351486Y43692D01*
X351529Y43539D01*
X351573Y43364D01*
X351606Y43189D01*
X351650Y42806D01*
X351671Y42391D01*
Y42380D01*
Y42336D01*
Y42282D01*
X351660Y42194D01*
Y42096D01*
X351650Y41976D01*
X351628Y41845D01*
X351617Y41702D01*
X351562Y41385D01*
X351475Y41036D01*
X351355Y40686D01*
X351289Y40511D01*
X351202Y40336D01*
Y40325D01*
X351180Y40293D01*
X351158Y40249D01*
X351114Y40183D01*
X351070Y40107D01*
X351016Y40030D01*
X350863Y39823D01*
X350677Y39604D01*
X350458Y39374D01*
X350196Y39156D01*
X349890Y38959D01*
X349879D01*
X349857Y38937D01*
X349802Y38915D01*
X349737Y38882D01*
X349660Y38850D01*
X349573Y38817D01*
X349464Y38773D01*
X349343Y38730D01*
X349212Y38686D01*
X349070Y38642D01*
X348753Y38576D01*
X348414Y38522D01*
X348054Y38500D01*
X347944D01*
X347879Y38511D01*
X347780D01*
X347671Y38533D01*
X347551Y38544D01*
X347409Y38566D01*
X347114Y38631D01*
X346797Y38719D01*
X346469Y38850D01*
X346305Y38926D01*
X346141Y39014D01*
X346130Y39025D01*
X346108Y39036D01*
X346064Y39068D01*
X345999Y39112D01*
X345933Y39156D01*
X345857Y39221D01*
X345671Y39385D01*
X345463Y39582D01*
X345245Y39823D01*
X345048Y40096D01*
X344862Y40413D01*
Y40424D01*
X344840Y40457D01*
X344818Y40500D01*
X344796Y40566D01*
X344764Y40653D01*
X344731Y40752D01*
X344687Y40861D01*
X344654Y40981D01*
X344611Y41123D01*
X344567Y41265D01*
X344501Y41593D01*
X344458Y41932D01*
X344436Y42304D01*
Y42315D01*
Y42325D01*
Y42391D01*
X344447Y42489D01*
Y42621D01*
X344469Y42774D01*
X344490Y42959D01*
X344523Y43167D01*
X344567Y43386D01*
X344611Y43615D01*
X344676Y43856D01*
X344764Y44096D01*
X344862Y44348D01*
X344971Y44588D01*
X345113Y44829D01*
X345267Y45047D01*
X345441Y45255D01*
X345452Y45266D01*
X345485Y45298D01*
X345551Y45353D01*
X345627Y45419D01*
X345725Y45506D01*
X345846Y45594D01*
X345988Y45692D01*
X346152Y45790D01*
X346327Y45889D01*
X346523Y45987D01*
X346742Y46075D01*
X346972Y46162D01*
X347223Y46227D01*
X347485Y46282D01*
X347759Y46315D01*
X348054Y46326D01*
X348152D01*
X348229Y46315D01*
D02*
G37*
G36*
X314695Y66132D02*
X313930D01*
X314608Y67575D01*
X315832D01*
X314695Y66132D01*
D02*
G37*
G36*
X362011Y64602D02*
X361082D01*
Y65662D01*
X362011D01*
Y64602D01*
D02*
G37*
G36*
X331451D02*
X330522D01*
Y65662D01*
X331451D01*
Y64602D01*
D02*
G37*
G36*
X335473Y63695D02*
X335550Y63684D01*
X335714Y63662D01*
X335910Y63618D01*
X336118Y63553D01*
X336326Y63454D01*
X336533Y63334D01*
X336544D01*
X336555Y63312D01*
X336621Y63268D01*
X336719Y63181D01*
X336839Y63072D01*
X336971Y62930D01*
X337102Y62755D01*
X337233Y62547D01*
X337342Y62318D01*
Y62307D01*
X337353Y62285D01*
X337364Y62252D01*
X337386Y62208D01*
X337408Y62143D01*
X337430Y62066D01*
X337484Y61891D01*
X337539Y61673D01*
X337583Y61432D01*
X337615Y61159D01*
X337626Y60875D01*
Y60864D01*
Y60842D01*
Y60798D01*
Y60733D01*
X337615Y60656D01*
Y60569D01*
X337594Y60372D01*
X337550Y60132D01*
X337495Y59880D01*
X337419Y59618D01*
X337320Y59355D01*
Y59345D01*
X337309Y59323D01*
X337288Y59290D01*
X337266Y59246D01*
X337189Y59126D01*
X337091Y58973D01*
X336971Y58809D01*
X336818Y58645D01*
X336643Y58481D01*
X336435Y58328D01*
X336424D01*
X336413Y58317D01*
X336380Y58295D01*
X336337Y58273D01*
X336227Y58219D01*
X336074Y58153D01*
X335889Y58088D01*
X335692Y58033D01*
X335462Y57989D01*
X335233Y57978D01*
X335156D01*
X335069Y57989D01*
X334960Y58000D01*
X334828Y58022D01*
X334686Y58055D01*
X334544Y58099D01*
X334402Y58164D01*
X334391Y58175D01*
X334336Y58197D01*
X334271Y58241D01*
X334183Y58306D01*
X334096Y58372D01*
X333987Y58459D01*
X333888Y58558D01*
X333801Y58667D01*
Y56000D01*
X332872D01*
Y63585D01*
X333714D01*
Y62864D01*
X333724Y62886D01*
X333768Y62930D01*
X333823Y63006D01*
X333910Y63094D01*
X334009Y63203D01*
X334118Y63301D01*
X334249Y63400D01*
X334380Y63487D01*
X334402Y63498D01*
X334446Y63520D01*
X334533Y63553D01*
X334643Y63596D01*
X334774Y63640D01*
X334927Y63673D01*
X335102Y63695D01*
X335298Y63706D01*
X335419D01*
X335473Y63695D01*
D02*
G37*
G36*
X366176D02*
X366296Y63684D01*
X366438Y63662D01*
X366591Y63629D01*
X366755Y63585D01*
X366908Y63520D01*
X366930Y63509D01*
X366973Y63487D01*
X367050Y63454D01*
X367137Y63400D01*
X367247Y63334D01*
X367345Y63247D01*
X367443Y63159D01*
X367531Y63050D01*
X367542Y63039D01*
X367564Y62995D01*
X367597Y62941D01*
X367651Y62864D01*
X367695Y62755D01*
X367739Y62645D01*
X367793Y62514D01*
X367826Y62372D01*
Y62361D01*
X367837Y62318D01*
X367848Y62252D01*
X367859Y62164D01*
Y62033D01*
X367870Y61880D01*
X367881Y61695D01*
Y61465D01*
Y58099D01*
X366952D01*
Y61421D01*
Y61432D01*
Y61443D01*
Y61520D01*
Y61618D01*
X366941Y61738D01*
X366930Y61880D01*
X366908Y62022D01*
X366875Y62154D01*
X366842Y62274D01*
Y62285D01*
X366820Y62318D01*
X366788Y62372D01*
X366755Y62438D01*
X366700Y62503D01*
X366635Y62580D01*
X366547Y62656D01*
X366449Y62722D01*
X366438Y62733D01*
X366405Y62755D01*
X366339Y62777D01*
X366263Y62809D01*
X366176Y62842D01*
X366066Y62875D01*
X365935Y62886D01*
X365804Y62897D01*
X365749D01*
X365706Y62886D01*
X365596Y62875D01*
X365454Y62853D01*
X365301Y62799D01*
X365126Y62733D01*
X364951Y62645D01*
X364787Y62514D01*
X364766Y62492D01*
X364722Y62438D01*
X364689Y62394D01*
X364656Y62339D01*
X364613Y62274D01*
X364580Y62197D01*
X364536Y62110D01*
X364492Y62001D01*
X364459Y61880D01*
X364427Y61749D01*
X364405Y61607D01*
X364383Y61454D01*
X364361Y61268D01*
Y61082D01*
Y58099D01*
X363432D01*
Y63585D01*
X364263D01*
Y62799D01*
X364274Y62809D01*
X364296Y62842D01*
X364328Y62886D01*
X364372Y62941D01*
X364438Y63006D01*
X364514Y63083D01*
X364602Y63170D01*
X364711Y63257D01*
X364820Y63334D01*
X364951Y63421D01*
X365093Y63498D01*
X365247Y63564D01*
X365421Y63618D01*
X365596Y63662D01*
X365793Y63695D01*
X366001Y63706D01*
X366088D01*
X366176Y63695D01*
D02*
G37*
G36*
X329068Y58099D02*
X328238D01*
Y58896D01*
X328227Y58886D01*
X328205Y58853D01*
X328172Y58809D01*
X328117Y58754D01*
X328052Y58689D01*
X327975Y58601D01*
X327888Y58525D01*
X327779Y58437D01*
X327658Y58350D01*
X327527Y58273D01*
X327385Y58197D01*
X327232Y58120D01*
X327057Y58066D01*
X326882Y58022D01*
X326686Y57989D01*
X326489Y57978D01*
X326412D01*
X326314Y57989D01*
X326194Y58000D01*
X326051Y58022D01*
X325899Y58055D01*
X325746Y58099D01*
X325582Y58164D01*
X325560Y58175D01*
X325516Y58197D01*
X325439Y58241D01*
X325352Y58295D01*
X325243Y58361D01*
X325144Y58437D01*
X325046Y58525D01*
X324958Y58623D01*
X324948Y58634D01*
X324926Y58678D01*
X324893Y58732D01*
X324849Y58820D01*
X324795Y58918D01*
X324751Y59039D01*
X324707Y59170D01*
X324674Y59312D01*
Y59323D01*
X324663Y59366D01*
X324653Y59432D01*
Y59519D01*
X324642Y59651D01*
X324631Y59793D01*
X324620Y59978D01*
Y60186D01*
Y63585D01*
X325549D01*
Y60536D01*
Y60525D01*
Y60503D01*
Y60470D01*
Y60416D01*
Y60295D01*
X325560Y60142D01*
Y59978D01*
X325571Y59815D01*
X325582Y59672D01*
X325603Y59552D01*
Y59541D01*
X325625Y59498D01*
X325647Y59432D01*
X325680Y59345D01*
X325734Y59257D01*
X325800Y59159D01*
X325877Y59071D01*
X325975Y58984D01*
X325986Y58973D01*
X326030Y58951D01*
X326084Y58918D01*
X326172Y58886D01*
X326270Y58842D01*
X326390Y58809D01*
X326521Y58787D01*
X326675Y58776D01*
X326751D01*
X326828Y58787D01*
X326926Y58798D01*
X327046Y58831D01*
X327177Y58864D01*
X327319Y58918D01*
X327462Y58984D01*
X327483Y58995D01*
X327527Y59028D01*
X327593Y59071D01*
X327669Y59137D01*
X327757Y59224D01*
X327844Y59323D01*
X327921Y59432D01*
X327986Y59563D01*
X327997Y59585D01*
X328008Y59629D01*
X328030Y59716D01*
X328063Y59836D01*
X328095Y59989D01*
X328117Y60175D01*
X328128Y60394D01*
X328139Y60645D01*
Y63585D01*
X329068D01*
Y58099D01*
D02*
G37*
G36*
X362011D02*
X361082D01*
Y63585D01*
X362011D01*
Y58099D01*
D02*
G37*
G36*
X356131Y62951D02*
X356142Y62962D01*
X356164Y62984D01*
X356196Y63017D01*
X356251Y63072D01*
X356306Y63126D01*
X356382Y63192D01*
X356481Y63257D01*
X356579Y63334D01*
X356688Y63400D01*
X356808Y63465D01*
X357093Y63585D01*
X357246Y63640D01*
X357410Y63673D01*
X357585Y63695D01*
X357759Y63706D01*
X357858D01*
X357978Y63695D01*
X358120Y63673D01*
X358284Y63651D01*
X358459Y63607D01*
X358634Y63542D01*
X358809Y63465D01*
X358831Y63454D01*
X358885Y63421D01*
X358962Y63367D01*
X359060Y63290D01*
X359158Y63192D01*
X359268Y63083D01*
X359366Y62951D01*
X359454Y62799D01*
X359465Y62777D01*
X359486Y62722D01*
X359519Y62624D01*
X359552Y62481D01*
X359585Y62307D01*
X359617Y62099D01*
X359639Y61848D01*
X359650Y61563D01*
Y58099D01*
X358721D01*
Y61574D01*
Y61585D01*
Y61607D01*
Y61640D01*
Y61684D01*
X358710Y61804D01*
X358688Y61957D01*
X358645Y62121D01*
X358590Y62285D01*
X358514Y62449D01*
X358415Y62580D01*
X358404Y62591D01*
X358361Y62634D01*
X358295Y62689D01*
X358197Y62744D01*
X358076Y62809D01*
X357934Y62853D01*
X357759Y62897D01*
X357563Y62908D01*
X357497D01*
X357421Y62897D01*
X357311Y62886D01*
X357202Y62853D01*
X357071Y62820D01*
X356940Y62766D01*
X356798Y62689D01*
X356787Y62678D01*
X356743Y62645D01*
X356677Y62602D01*
X356601Y62536D01*
X356513Y62449D01*
X356426Y62350D01*
X356349Y62230D01*
X356284Y62099D01*
X356273Y62077D01*
X356262Y62033D01*
X356240Y61946D01*
X356207Y61837D01*
X356175Y61695D01*
X356153Y61520D01*
X356142Y61323D01*
X356131Y61093D01*
Y58099D01*
X355202D01*
Y65662D01*
X356131D01*
Y62951D01*
D02*
G37*
G36*
X351300Y65651D02*
X351398D01*
X351628Y65640D01*
X351868Y65608D01*
X352131Y65575D01*
X352371Y65520D01*
X352491Y65487D01*
X352590Y65454D01*
X352601D01*
X352611Y65443D01*
X352677Y65411D01*
X352775Y65367D01*
X352896Y65290D01*
X353027Y65192D01*
X353169Y65061D01*
X353300Y64908D01*
X353431Y64733D01*
Y64722D01*
X353442Y64711D01*
X353486Y64646D01*
X353530Y64536D01*
X353595Y64394D01*
X353650Y64230D01*
X353704Y64034D01*
X353737Y63826D01*
X353748Y63596D01*
Y63585D01*
Y63564D01*
Y63520D01*
X353737Y63465D01*
Y63389D01*
X353726Y63312D01*
X353683Y63126D01*
X353617Y62908D01*
X353530Y62678D01*
X353398Y62449D01*
X353311Y62339D01*
X353223Y62230D01*
X353213Y62219D01*
X353202Y62208D01*
X353169Y62176D01*
X353125Y62143D01*
X353070Y62099D01*
X353005Y62055D01*
X352918Y62001D01*
X352830Y61935D01*
X352721Y61880D01*
X352601Y61826D01*
X352469Y61760D01*
X352327Y61705D01*
X352163Y61662D01*
X351999Y61607D01*
X351814Y61574D01*
X351617Y61541D01*
X351639Y61531D01*
X351682Y61509D01*
X351748Y61465D01*
X351835Y61421D01*
X352032Y61301D01*
X352131Y61225D01*
X352218Y61159D01*
X352240Y61137D01*
X352294Y61082D01*
X352382Y60995D01*
X352491Y60886D01*
X352611Y60733D01*
X352753Y60569D01*
X352896Y60372D01*
X353049Y60153D01*
X354349Y58099D01*
X353103D01*
X352109Y59672D01*
Y59683D01*
X352087Y59705D01*
X352065Y59738D01*
X352032Y59782D01*
X351956Y59902D01*
X351857Y60055D01*
X351737Y60219D01*
X351617Y60394D01*
X351497Y60558D01*
X351387Y60711D01*
X351376Y60722D01*
X351343Y60765D01*
X351289Y60831D01*
X351212Y60908D01*
X351048Y61071D01*
X350961Y61148D01*
X350873Y61214D01*
X350863Y61225D01*
X350841Y61235D01*
X350797Y61257D01*
X350731Y61290D01*
X350666Y61323D01*
X350589Y61356D01*
X350414Y61410D01*
X350404D01*
X350382Y61421D01*
X350338D01*
X350283Y61432D01*
X350207Y61443D01*
X350119D01*
X349999Y61454D01*
X348709D01*
Y58099D01*
X347704D01*
Y65662D01*
X351212D01*
X351300Y65651D01*
D02*
G37*
G36*
X331451Y58099D02*
X330522D01*
Y63585D01*
X331451D01*
Y58099D01*
D02*
G37*
G36*
X317318Y64766D02*
X312848D01*
Y62460D01*
X317034D01*
Y61563D01*
X312848D01*
Y58995D01*
X317493D01*
Y58099D01*
X311842D01*
Y65662D01*
X317318D01*
Y64766D01*
D02*
G37*
G36*
X371717Y63695D02*
X371815Y63684D01*
X371925Y63662D01*
X372045Y63640D01*
X372187Y63618D01*
X372482Y63520D01*
X372635Y63465D01*
X372788Y63389D01*
X372941Y63312D01*
X373094Y63203D01*
X373236Y63094D01*
X373378Y62962D01*
X373389Y62951D01*
X373411Y62930D01*
X373444Y62886D01*
X373488Y62831D01*
X373542Y62755D01*
X373608Y62656D01*
X373674Y62547D01*
X373739Y62427D01*
X373805Y62296D01*
X373870Y62132D01*
X373936Y61968D01*
X373991Y61782D01*
X374034Y61585D01*
X374067Y61378D01*
X374089Y61159D01*
X374100Y60918D01*
Y60908D01*
Y60875D01*
Y60820D01*
Y60744D01*
X374089Y60656D01*
X374078Y60547D01*
Y60438D01*
X374056Y60317D01*
X374023Y60044D01*
X373958Y59771D01*
X373881Y59498D01*
X373772Y59246D01*
Y59235D01*
X373761Y59224D01*
X373739Y59192D01*
X373717Y59148D01*
X373641Y59039D01*
X373542Y58907D01*
X373411Y58754D01*
X373247Y58601D01*
X373061Y58448D01*
X372843Y58306D01*
X372832D01*
X372821Y58295D01*
X372788Y58273D01*
X372734Y58252D01*
X372679Y58230D01*
X372613Y58208D01*
X372449Y58142D01*
X372264Y58088D01*
X372034Y58033D01*
X371794Y57989D01*
X371531Y57978D01*
X371422D01*
X371335Y57989D01*
X371236Y58000D01*
X371127Y58022D01*
X370996Y58044D01*
X370865Y58066D01*
X370569Y58153D01*
X370406Y58219D01*
X370252Y58284D01*
X370099Y58372D01*
X369946Y58470D01*
X369804Y58579D01*
X369662Y58711D01*
X369651Y58722D01*
X369629Y58743D01*
X369597Y58787D01*
X369553Y58853D01*
X369498Y58929D01*
X369444Y59017D01*
X369378Y59126D01*
X369313Y59257D01*
X369247Y59399D01*
X369181Y59563D01*
X369127Y59738D01*
X369072Y59924D01*
X369028Y60132D01*
X368995Y60350D01*
X368974Y60591D01*
X368963Y60842D01*
Y60864D01*
Y60908D01*
X368974Y60984D01*
Y61093D01*
X368985Y61214D01*
X369006Y61367D01*
X369028Y61520D01*
X369072Y61695D01*
X369116Y61869D01*
X369170Y62055D01*
X369236Y62252D01*
X369323Y62438D01*
X369411Y62613D01*
X369531Y62787D01*
X369651Y62951D01*
X369804Y63094D01*
X369815Y63104D01*
X369837Y63115D01*
X369881Y63148D01*
X369935Y63192D01*
X370001Y63236D01*
X370089Y63290D01*
X370176Y63345D01*
X370285Y63400D01*
X370406Y63454D01*
X370537Y63509D01*
X370832Y63607D01*
X371171Y63684D01*
X371345Y63695D01*
X371531Y63706D01*
X371640D01*
X371717Y63695D01*
D02*
G37*
G36*
X341179D02*
X341266Y63684D01*
X341375Y63662D01*
X341496Y63640D01*
X341638Y63607D01*
X341769Y63574D01*
X341922Y63520D01*
X342064Y63465D01*
X342217Y63389D01*
X342370Y63301D01*
X342523Y63203D01*
X342665Y63083D01*
X342796Y62951D01*
X342807Y62941D01*
X342829Y62919D01*
X342862Y62875D01*
X342906Y62809D01*
X342960Y62733D01*
X343015Y62645D01*
X343080Y62536D01*
X343146Y62405D01*
X343212Y62263D01*
X343277Y62110D01*
X343332Y61935D01*
X343387Y61749D01*
X343430Y61541D01*
X343463Y61323D01*
X343485Y61093D01*
X343496Y60842D01*
Y60831D01*
Y60787D01*
Y60711D01*
X343485Y60602D01*
X339386D01*
Y60591D01*
Y60558D01*
X339397Y60514D01*
Y60448D01*
X339408Y60372D01*
X339430Y60285D01*
X339463Y60088D01*
X339528Y59869D01*
X339616Y59629D01*
X339736Y59410D01*
X339889Y59213D01*
X339900D01*
X339911Y59192D01*
X339976Y59137D01*
X340075Y59060D01*
X340206Y58984D01*
X340381Y58896D01*
X340578Y58820D01*
X340796Y58765D01*
X340916Y58754D01*
X341048Y58743D01*
X341135D01*
X341233Y58754D01*
X341354Y58776D01*
X341485Y58809D01*
X341638Y58853D01*
X341780Y58918D01*
X341922Y59006D01*
X341933Y59017D01*
X341987Y59060D01*
X342053Y59126D01*
X342130Y59213D01*
X342217Y59334D01*
X342315Y59487D01*
X342414Y59662D01*
X342501Y59869D01*
X343463Y59749D01*
Y59738D01*
X343452Y59716D01*
X343441Y59672D01*
X343419Y59607D01*
X343387Y59541D01*
X343354Y59454D01*
X343266Y59268D01*
X343157Y59060D01*
X343004Y58842D01*
X342829Y58634D01*
X342611Y58437D01*
X342600D01*
X342578Y58416D01*
X342545Y58394D01*
X342501Y58361D01*
X342436Y58328D01*
X342370Y58295D01*
X342283Y58252D01*
X342184Y58208D01*
X342075Y58164D01*
X341966Y58120D01*
X341692Y58055D01*
X341386Y58000D01*
X341048Y57978D01*
X340927D01*
X340851Y57989D01*
X340752Y58000D01*
X340632Y58022D01*
X340501Y58044D01*
X340359Y58066D01*
X340053Y58153D01*
X339889Y58219D01*
X339736Y58284D01*
X339572Y58372D01*
X339419Y58470D01*
X339277Y58579D01*
X339135Y58711D01*
X339124Y58722D01*
X339102Y58743D01*
X339069Y58787D01*
X339025Y58853D01*
X338971Y58929D01*
X338916Y59017D01*
X338851Y59126D01*
X338785Y59246D01*
X338719Y59388D01*
X338654Y59541D01*
X338599Y59716D01*
X338545Y59902D01*
X338501Y60099D01*
X338468Y60317D01*
X338446Y60547D01*
X338435Y60787D01*
Y60798D01*
Y60853D01*
Y60918D01*
X338446Y61017D01*
X338457Y61137D01*
X338468Y61268D01*
X338490Y61421D01*
X338523Y61574D01*
X338610Y61924D01*
X338665Y62099D01*
X338730Y62285D01*
X338818Y62460D01*
X338916Y62624D01*
X339025Y62787D01*
X339146Y62941D01*
X339157Y62951D01*
X339178Y62973D01*
X339222Y63006D01*
X339277Y63061D01*
X339342Y63115D01*
X339430Y63181D01*
X339528Y63257D01*
X339648Y63323D01*
X339769Y63400D01*
X339911Y63465D01*
X340064Y63531D01*
X340228Y63585D01*
X340403Y63640D01*
X340588Y63673D01*
X340785Y63695D01*
X340993Y63706D01*
X341102D01*
X341179Y63695D01*
D02*
G37*
G36*
X320914D02*
X321002Y63684D01*
X321100Y63662D01*
X321210Y63629D01*
X321330Y63596D01*
X321461Y63553D01*
X321592Y63498D01*
X321723Y63421D01*
X321854Y63345D01*
X321986Y63247D01*
X322117Y63126D01*
X322237Y62995D01*
X322346Y62842D01*
Y63585D01*
X323177D01*
Y56000D01*
X322248D01*
Y58678D01*
X322237Y58667D01*
X322204Y58623D01*
X322160Y58569D01*
X322095Y58503D01*
X322007Y58416D01*
X321898Y58339D01*
X321778Y58252D01*
X321636Y58175D01*
X321614Y58164D01*
X321570Y58142D01*
X321494Y58109D01*
X321395Y58077D01*
X321264Y58044D01*
X321133Y58011D01*
X320980Y57989D01*
X320816Y57978D01*
X320718D01*
X320652Y57989D01*
X320565Y58000D01*
X320466Y58022D01*
X320357Y58044D01*
X320237Y58077D01*
X320116Y58120D01*
X319974Y58164D01*
X319843Y58230D01*
X319701Y58306D01*
X319548Y58394D01*
X319406Y58503D01*
X319264Y58623D01*
X319133Y58754D01*
X319122Y58765D01*
X319100Y58787D01*
X319067Y58831D01*
X319023Y58896D01*
X318969Y58973D01*
X318914Y59071D01*
X318849Y59181D01*
X318783Y59312D01*
X318718Y59454D01*
X318652Y59618D01*
X318597Y59793D01*
X318543Y59978D01*
X318499Y60186D01*
X318466Y60405D01*
X318444Y60634D01*
X318433Y60886D01*
Y60897D01*
Y60918D01*
Y60962D01*
Y61028D01*
X318444Y61093D01*
Y61181D01*
X318466Y61388D01*
X318499Y61618D01*
X318553Y61858D01*
X318619Y62121D01*
X318718Y62372D01*
Y62383D01*
X318728Y62405D01*
X318750Y62438D01*
X318772Y62481D01*
X318838Y62602D01*
X318925Y62744D01*
X319045Y62908D01*
X319187Y63072D01*
X319351Y63225D01*
X319548Y63367D01*
X319559D01*
X319570Y63378D01*
X319603Y63400D01*
X319647Y63421D01*
X319756Y63476D01*
X319909Y63542D01*
X320084Y63596D01*
X320291Y63651D01*
X320510Y63695D01*
X320750Y63706D01*
X320849D01*
X320914Y63695D01*
D02*
G37*
G36*
X334194Y49905D02*
X331320D01*
Y50834D01*
X334194D01*
Y49905D01*
D02*
G37*
G36*
X338851Y50298D02*
X339878D01*
Y49446D01*
X338851D01*
Y47631D01*
X337922D01*
Y49446D01*
X334632D01*
Y50298D01*
X338096Y55195D01*
X338851D01*
Y50298D01*
D02*
G37*
G36*
X330249Y54299D02*
X325778D01*
Y51992D01*
X329964D01*
Y51096D01*
X325778D01*
Y48527D01*
X330423D01*
Y47631D01*
X324773D01*
Y55195D01*
X330249D01*
Y54299D01*
D02*
G37*
G36*
X319843Y48527D02*
X323570D01*
Y47631D01*
X318838D01*
Y55195D01*
X319843D01*
Y48527D01*
D02*
G37*
G36*
X317318Y54299D02*
X312848D01*
Y51992D01*
X317034D01*
Y51096D01*
X312848D01*
Y48527D01*
X317493D01*
Y47631D01*
X311842D01*
Y55195D01*
X317318D01*
Y54299D01*
D02*
G37*
G36*
X349398Y55217D02*
X349540Y55195D01*
X349704Y55162D01*
X349879Y55118D01*
X350065Y55064D01*
X350240Y54976D01*
X350251D01*
X350261Y54965D01*
X350316Y54932D01*
X350404Y54878D01*
X350513Y54801D01*
X350633Y54692D01*
X350764Y54572D01*
X350885Y54430D01*
X351005Y54266D01*
X351016Y54244D01*
X351059Y54189D01*
X351103Y54091D01*
X351180Y53949D01*
X351245Y53785D01*
X351333Y53599D01*
X351409Y53380D01*
X351475Y53140D01*
Y53129D01*
X351486Y53107D01*
X351497Y53074D01*
X351507Y53020D01*
X351518Y52954D01*
X351529Y52878D01*
X351551Y52779D01*
X351562Y52670D01*
X351584Y52550D01*
X351595Y52419D01*
X351606Y52266D01*
X351628Y52113D01*
X351639Y51938D01*
Y51763D01*
X351650Y51566D01*
Y51358D01*
Y51347D01*
Y51304D01*
Y51227D01*
Y51140D01*
X351639Y51020D01*
Y50888D01*
X351628Y50746D01*
X351617Y50593D01*
X351584Y50243D01*
X351529Y49883D01*
X351464Y49533D01*
X351420Y49369D01*
X351365Y49205D01*
Y49194D01*
X351355Y49172D01*
X351333Y49129D01*
X351311Y49074D01*
X351289Y48997D01*
X351245Y48921D01*
X351158Y48735D01*
X351048Y48538D01*
X350906Y48320D01*
X350742Y48123D01*
X350546Y47937D01*
X350535D01*
X350524Y47915D01*
X350491Y47894D01*
X350447Y47872D01*
X350393Y47839D01*
X350338Y47795D01*
X350174Y47719D01*
X349977Y47642D01*
X349748Y47566D01*
X349475Y47522D01*
X349179Y47500D01*
X349070D01*
X348994Y47511D01*
X348906Y47522D01*
X348797Y47544D01*
X348677Y47566D01*
X348546Y47598D01*
X348414Y47642D01*
X348272Y47686D01*
X348130Y47751D01*
X347988Y47828D01*
X347846Y47915D01*
X347704Y48025D01*
X347573Y48145D01*
X347452Y48276D01*
X347442Y48287D01*
X347420Y48320D01*
X347387Y48374D01*
X347332Y48462D01*
X347278Y48560D01*
X347223Y48691D01*
X347146Y48844D01*
X347081Y49019D01*
X347015Y49216D01*
X346950Y49446D01*
X346884Y49697D01*
X346829Y49981D01*
X346775Y50287D01*
X346742Y50615D01*
X346720Y50976D01*
X346709Y51358D01*
Y51369D01*
Y51413D01*
Y51489D01*
Y51577D01*
X346720Y51697D01*
Y51828D01*
X346731Y51970D01*
X346742Y52134D01*
X346775Y52473D01*
X346829Y52834D01*
X346895Y53194D01*
X346939Y53359D01*
X346983Y53522D01*
Y53533D01*
X346993Y53555D01*
X347015Y53599D01*
X347037Y53654D01*
X347059Y53730D01*
X347103Y53807D01*
X347190Y53992D01*
X347299Y54189D01*
X347442Y54397D01*
X347605Y54605D01*
X347802Y54779D01*
X347813D01*
X347824Y54801D01*
X347857Y54823D01*
X347901Y54845D01*
X347955Y54889D01*
X348021Y54922D01*
X348185Y55009D01*
X348381Y55085D01*
X348611Y55162D01*
X348884Y55206D01*
X349179Y55228D01*
X349278D01*
X349398Y55217D01*
D02*
G37*
G36*
X343518D02*
X343660Y55195D01*
X343824Y55162D01*
X343999Y55118D01*
X344184Y55064D01*
X344359Y54976D01*
X344370D01*
X344381Y54965D01*
X344436Y54932D01*
X344523Y54878D01*
X344633Y54801D01*
X344753Y54692D01*
X344884Y54572D01*
X345004Y54430D01*
X345124Y54266D01*
X345135Y54244D01*
X345179Y54189D01*
X345223Y54091D01*
X345299Y53949D01*
X345365Y53785D01*
X345452Y53599D01*
X345529Y53380D01*
X345594Y53140D01*
Y53129D01*
X345605Y53107D01*
X345616Y53074D01*
X345627Y53020D01*
X345638Y52954D01*
X345649Y52878D01*
X345671Y52779D01*
X345682Y52670D01*
X345704Y52550D01*
X345715Y52419D01*
X345725Y52266D01*
X345747Y52113D01*
X345758Y51938D01*
Y51763D01*
X345769Y51566D01*
Y51358D01*
Y51347D01*
Y51304D01*
Y51227D01*
Y51140D01*
X345758Y51020D01*
Y50888D01*
X345747Y50746D01*
X345737Y50593D01*
X345704Y50243D01*
X345649Y49883D01*
X345583Y49533D01*
X345540Y49369D01*
X345485Y49205D01*
Y49194D01*
X345474Y49172D01*
X345452Y49129D01*
X345430Y49074D01*
X345409Y48997D01*
X345365Y48921D01*
X345277Y48735D01*
X345168Y48538D01*
X345026Y48320D01*
X344862Y48123D01*
X344665Y47937D01*
X344654D01*
X344643Y47915D01*
X344611Y47894D01*
X344567Y47872D01*
X344512Y47839D01*
X344458Y47795D01*
X344294Y47719D01*
X344097Y47642D01*
X343867Y47566D01*
X343594Y47522D01*
X343299Y47500D01*
X343190D01*
X343113Y47511D01*
X343026Y47522D01*
X342916Y47544D01*
X342796Y47566D01*
X342665Y47598D01*
X342534Y47642D01*
X342392Y47686D01*
X342250Y47751D01*
X342108Y47828D01*
X341966Y47915D01*
X341824Y48025D01*
X341692Y48145D01*
X341572Y48276D01*
X341561Y48287D01*
X341539Y48320D01*
X341507Y48374D01*
X341452Y48462D01*
X341397Y48560D01*
X341343Y48691D01*
X341266Y48844D01*
X341200Y49019D01*
X341135Y49216D01*
X341069Y49446D01*
X341004Y49697D01*
X340949Y49981D01*
X340895Y50287D01*
X340862Y50615D01*
X340840Y50976D01*
X340829Y51358D01*
Y51369D01*
Y51413D01*
Y51489D01*
Y51577D01*
X340840Y51697D01*
Y51828D01*
X340851Y51970D01*
X340862Y52134D01*
X340895Y52473D01*
X340949Y52834D01*
X341015Y53194D01*
X341058Y53359D01*
X341102Y53522D01*
Y53533D01*
X341113Y53555D01*
X341135Y53599D01*
X341157Y53654D01*
X341179Y53730D01*
X341222Y53807D01*
X341310Y53992D01*
X341419Y54189D01*
X341561Y54397D01*
X341725Y54605D01*
X341922Y54779D01*
X341933D01*
X341944Y54801D01*
X341976Y54823D01*
X342020Y54845D01*
X342075Y54889D01*
X342141Y54922D01*
X342304Y55009D01*
X342501Y55085D01*
X342731Y55162D01*
X343004Y55206D01*
X343299Y55228D01*
X343397D01*
X343518Y55217D01*
D02*
G37*
G36*
X247914Y376500D02*
X246500D01*
Y377914D01*
X247914D01*
Y376500D01*
D02*
G37*
G36*
X249843Y269000D02*
X248782D01*
Y270060D01*
X249843D01*
Y269000D01*
D02*
G37*
G36*
X284343Y301500D02*
X282575D01*
Y303267D01*
X284343D01*
Y301500D01*
D02*
G37*
%LPC*%
G36*
X346814Y34037D02*
X346749D01*
X346705Y34026D01*
X346585Y34015D01*
X346443Y33983D01*
X346268Y33928D01*
X346082Y33851D01*
X345907Y33742D01*
X345732Y33600D01*
X345710Y33578D01*
X345667Y33523D01*
X345590Y33425D01*
X345514Y33294D01*
X345426Y33141D01*
X345350Y32944D01*
X345284Y32715D01*
X345251Y32463D01*
X348323D01*
Y32474D01*
Y32496D01*
X348312Y32529D01*
Y32572D01*
X348290Y32704D01*
X348257Y32846D01*
X348203Y33021D01*
X348148Y33185D01*
X348060Y33349D01*
X347962Y33491D01*
Y33501D01*
X347940Y33512D01*
X347886Y33578D01*
X347787Y33665D01*
X347656Y33764D01*
X347492Y33862D01*
X347295Y33950D01*
X347066Y34015D01*
X346946Y34026D01*
X346814Y34037D01*
D02*
G37*
G36*
X364401Y36026D02*
X364335D01*
X364292Y36015D01*
X364171Y35994D01*
X364029Y35961D01*
X363865Y35895D01*
X363690Y35797D01*
X363603Y35731D01*
X363515Y35666D01*
X363439Y35578D01*
X363363Y35480D01*
Y35469D01*
X363341Y35447D01*
X363319Y35403D01*
X363286Y35349D01*
X363253Y35261D01*
X363210Y35163D01*
X363177Y35043D01*
X363133Y34901D01*
X363089Y34737D01*
X363046Y34551D01*
X363002Y34343D01*
X362969Y34114D01*
X362936Y33851D01*
X362914Y33567D01*
X362903Y33261D01*
X362893Y32922D01*
Y32900D01*
Y32846D01*
Y32747D01*
X362903Y32616D01*
Y32474D01*
X362914Y32299D01*
X362925Y32113D01*
X362947Y31917D01*
X363002Y31490D01*
X363035Y31283D01*
X363078Y31086D01*
X363122Y30900D01*
X363188Y30725D01*
X363253Y30572D01*
X363330Y30441D01*
Y30430D01*
X363351Y30419D01*
X363406Y30343D01*
X363505Y30244D01*
X363625Y30135D01*
X363789Y30026D01*
X363974Y29927D01*
X364182Y29851D01*
X364292Y29840D01*
X364412Y29829D01*
X364477D01*
X364521Y29840D01*
X364630Y29862D01*
X364783Y29906D01*
X364947Y29982D01*
X365133Y30091D01*
X365221Y30157D01*
X365308Y30244D01*
X365395Y30332D01*
X365483Y30441D01*
Y30452D01*
X365505Y30474D01*
X365527Y30507D01*
X365548Y30561D01*
X365592Y30638D01*
X365625Y30736D01*
X365669Y30845D01*
X365712Y30977D01*
X365745Y31141D01*
X365789Y31315D01*
X365833Y31523D01*
X365865Y31742D01*
X365887Y32004D01*
X365909Y32277D01*
X365931Y32583D01*
Y32922D01*
Y32933D01*
Y32944D01*
Y32999D01*
Y33097D01*
X365920Y33228D01*
Y33370D01*
X365909Y33545D01*
X365898Y33731D01*
X365876Y33939D01*
X365822Y34354D01*
X365789Y34562D01*
X365745Y34758D01*
X365702Y34944D01*
X365636Y35119D01*
X365570Y35272D01*
X365494Y35403D01*
Y35414D01*
X365472Y35425D01*
X365450Y35458D01*
X365417Y35502D01*
X365319Y35600D01*
X365199Y35720D01*
X365035Y35830D01*
X364849Y35928D01*
X364751Y35972D01*
X364641Y36004D01*
X364521Y36015D01*
X364401Y36026D01*
D02*
G37*
G36*
X319719D02*
X319653D01*
X319610Y36015D01*
X319489Y35994D01*
X319347Y35961D01*
X319183Y35895D01*
X319008Y35797D01*
X318921Y35731D01*
X318834Y35666D01*
X318757Y35578D01*
X318681Y35480D01*
Y35469D01*
X318659Y35447D01*
X318637Y35403D01*
X318604Y35349D01*
X318571Y35261D01*
X318528Y35163D01*
X318495Y35043D01*
X318451Y34901D01*
X318407Y34737D01*
X318364Y34551D01*
X318320Y34343D01*
X318287Y34114D01*
X318254Y33851D01*
X318232Y33567D01*
X318222Y33261D01*
X318211Y32922D01*
Y32900D01*
Y32846D01*
Y32747D01*
X318222Y32616D01*
Y32474D01*
X318232Y32299D01*
X318243Y32113D01*
X318265Y31917D01*
X318320Y31490D01*
X318353Y31283D01*
X318396Y31086D01*
X318440Y30900D01*
X318506Y30725D01*
X318571Y30572D01*
X318648Y30441D01*
Y30430D01*
X318670Y30419D01*
X318724Y30343D01*
X318823Y30244D01*
X318943Y30135D01*
X319107Y30026D01*
X319293Y29927D01*
X319500Y29851D01*
X319610Y29840D01*
X319730Y29829D01*
X319795D01*
X319839Y29840D01*
X319949Y29862D01*
X320101Y29906D01*
X320266Y29982D01*
X320451Y30091D01*
X320539Y30157D01*
X320626Y30244D01*
X320714Y30332D01*
X320801Y30441D01*
Y30452D01*
X320823Y30474D01*
X320845Y30507D01*
X320867Y30561D01*
X320910Y30638D01*
X320943Y30736D01*
X320987Y30845D01*
X321031Y30977D01*
X321063Y31141D01*
X321107Y31315D01*
X321151Y31523D01*
X321184Y31742D01*
X321205Y32004D01*
X321227Y32277D01*
X321249Y32583D01*
Y32922D01*
Y32933D01*
Y32944D01*
Y32999D01*
Y33097D01*
X321238Y33228D01*
Y33370D01*
X321227Y33545D01*
X321216Y33731D01*
X321195Y33939D01*
X321140Y34354D01*
X321107Y34562D01*
X321063Y34758D01*
X321020Y34944D01*
X320954Y35119D01*
X320888Y35272D01*
X320812Y35403D01*
Y35414D01*
X320790Y35425D01*
X320768Y35458D01*
X320736Y35502D01*
X320637Y35600D01*
X320517Y35720D01*
X320353Y35830D01*
X320167Y35928D01*
X320069Y35972D01*
X319959Y36004D01*
X319839Y36015D01*
X319719Y36026D01*
D02*
G37*
G36*
X340512Y45353D02*
X338129D01*
Y42850D01*
X340381D01*
X340512Y42861D01*
X340665Y42872D01*
X340840Y42883D01*
X341015Y42905D01*
X341190Y42938D01*
X341343Y42981D01*
X341364Y42992D01*
X341408Y43014D01*
X341474Y43047D01*
X341561Y43091D01*
X341660Y43156D01*
X341758Y43233D01*
X341856Y43331D01*
X341933Y43440D01*
X341944Y43451D01*
X341966Y43495D01*
X341998Y43561D01*
X342042Y43648D01*
X342075Y43746D01*
X342108Y43856D01*
X342130Y43987D01*
X342141Y44118D01*
Y44129D01*
Y44140D01*
X342130Y44205D01*
X342119Y44304D01*
X342097Y44435D01*
X342042Y44566D01*
X341976Y44719D01*
X341878Y44861D01*
X341747Y45003D01*
X341725Y45014D01*
X341670Y45058D01*
X341583Y45113D01*
X341441Y45178D01*
X341277Y45244D01*
X341058Y45298D01*
X340807Y45342D01*
X340512Y45353D01*
D02*
G37*
G36*
X315012Y45298D02*
X312848D01*
Y42599D01*
X314881D01*
X314958Y42610D01*
X315034D01*
X315122Y42621D01*
X315329Y42643D01*
X315559Y42686D01*
X315788Y42752D01*
X315996Y42839D01*
X316094Y42894D01*
X316171Y42959D01*
X316193Y42981D01*
X316236Y43025D01*
X316302Y43112D01*
X316378Y43222D01*
X316455Y43364D01*
X316521Y43539D01*
X316564Y43736D01*
X316586Y43965D01*
Y43976D01*
Y43987D01*
Y44041D01*
X316575Y44140D01*
X316553Y44249D01*
X316531Y44369D01*
X316488Y44512D01*
X316422Y44643D01*
X316346Y44774D01*
X316335Y44785D01*
X316302Y44829D01*
X316247Y44883D01*
X316182Y44960D01*
X316083Y45036D01*
X315974Y45102D01*
X315854Y45167D01*
X315712Y45222D01*
X315701D01*
X315657Y45233D01*
X315592Y45244D01*
X315504Y45266D01*
X315373Y45277D01*
X315209Y45287D01*
X315012Y45298D01*
D02*
G37*
G36*
X320991Y43473D02*
X320925D01*
X320871Y43462D01*
X320750Y43451D01*
X320586Y43408D01*
X320401Y43342D01*
X320204Y43255D01*
X320018Y43123D01*
X319920Y43036D01*
X319832Y42948D01*
Y42938D01*
X319811Y42927D01*
X319789Y42894D01*
X319756Y42850D01*
X319723Y42796D01*
X319690Y42730D01*
X319647Y42643D01*
X319603Y42555D01*
X319559Y42446D01*
X319515Y42336D01*
X319483Y42205D01*
X319450Y42063D01*
X319417Y41910D01*
X319395Y41746D01*
X319384Y41560D01*
X319373Y41375D01*
Y41364D01*
Y41331D01*
Y41276D01*
X319384Y41200D01*
Y41112D01*
X319395Y41014D01*
X319428Y40784D01*
X319483Y40522D01*
X319570Y40260D01*
X319679Y40008D01*
X319756Y39899D01*
X319832Y39790D01*
X319843D01*
X319854Y39768D01*
X319920Y39713D01*
X320018Y39626D01*
X320149Y39538D01*
X320313Y39440D01*
X320510Y39353D01*
X320740Y39298D01*
X320860Y39287D01*
X320991Y39276D01*
X321057D01*
X321111Y39287D01*
X321231Y39309D01*
X321395Y39342D01*
X321570Y39407D01*
X321767Y39495D01*
X321953Y39626D01*
X322051Y39713D01*
X322139Y39801D01*
X322149Y39812D01*
X322160Y39823D01*
X322182Y39855D01*
X322215Y39899D01*
X322248Y39954D01*
X322292Y40019D01*
X322335Y40107D01*
X322379Y40194D01*
X322423Y40303D01*
X322456Y40424D01*
X322499Y40555D01*
X322532Y40697D01*
X322565Y40861D01*
X322587Y41025D01*
X322609Y41211D01*
Y41407D01*
Y41418D01*
Y41451D01*
Y41506D01*
X322598Y41571D01*
Y41659D01*
X322587Y41757D01*
X322554Y41987D01*
X322499Y42227D01*
X322412Y42489D01*
X322292Y42730D01*
X322226Y42850D01*
X322139Y42948D01*
Y42959D01*
X322117Y42970D01*
X322051Y43036D01*
X321953Y43112D01*
X321822Y43211D01*
X321658Y43309D01*
X321461Y43397D01*
X321242Y43451D01*
X321122Y43462D01*
X320991Y43473D01*
D02*
G37*
G36*
X348054Y45462D02*
X347955D01*
X347879Y45452D01*
X347780Y45441D01*
X347682Y45419D01*
X347562Y45397D01*
X347431Y45375D01*
X347146Y45287D01*
X346993Y45222D01*
X346840Y45156D01*
X346676Y45069D01*
X346523Y44971D01*
X346370Y44861D01*
X346228Y44730D01*
X346217Y44719D01*
X346196Y44697D01*
X346163Y44654D01*
X346108Y44588D01*
X346053Y44512D01*
X345988Y44413D01*
X345922Y44293D01*
X345846Y44151D01*
X345780Y43998D01*
X345704Y43812D01*
X345638Y43615D01*
X345583Y43397D01*
X345529Y43156D01*
X345496Y42883D01*
X345474Y42599D01*
X345463Y42293D01*
Y42282D01*
Y42238D01*
Y42162D01*
X345474Y42063D01*
X345485Y41954D01*
X345507Y41823D01*
X345529Y41670D01*
X345551Y41517D01*
X345638Y41167D01*
X345704Y40992D01*
X345769Y40806D01*
X345857Y40631D01*
X345955Y40457D01*
X346064Y40293D01*
X346196Y40139D01*
X346206Y40129D01*
X346228Y40107D01*
X346272Y40063D01*
X346327Y40019D01*
X346403Y39954D01*
X346491Y39888D01*
X346589Y39823D01*
X346698Y39746D01*
X346829Y39669D01*
X346972Y39604D01*
X347125Y39538D01*
X347288Y39473D01*
X347463Y39429D01*
X347638Y39385D01*
X347835Y39364D01*
X348043Y39353D01*
X348097D01*
X348152Y39364D01*
X348229D01*
X348327Y39374D01*
X348436Y39396D01*
X348567Y39418D01*
X348698Y39451D01*
X348851Y39495D01*
X348994Y39549D01*
X349158Y39604D01*
X349311Y39680D01*
X349464Y39779D01*
X349617Y39877D01*
X349770Y39997D01*
X349912Y40139D01*
X349923Y40150D01*
X349944Y40172D01*
X349977Y40227D01*
X350032Y40293D01*
X350087Y40369D01*
X350141Y40467D01*
X350207Y40588D01*
X350283Y40719D01*
X350349Y40872D01*
X350414Y41047D01*
X350469Y41232D01*
X350535Y41429D01*
X350578Y41648D01*
X350611Y41888D01*
X350633Y42140D01*
X350644Y42402D01*
Y42413D01*
Y42446D01*
Y42489D01*
Y42555D01*
X350633Y42632D01*
Y42730D01*
X350622Y42828D01*
X350600Y42948D01*
X350568Y43200D01*
X350513Y43462D01*
X350436Y43746D01*
X350327Y44009D01*
Y44020D01*
X350316Y44041D01*
X350294Y44074D01*
X350272Y44118D01*
X350196Y44249D01*
X350097Y44402D01*
X349966Y44577D01*
X349802Y44752D01*
X349617Y44927D01*
X349409Y45080D01*
X349398D01*
X349387Y45102D01*
X349354Y45113D01*
X349300Y45145D01*
X349245Y45167D01*
X349179Y45200D01*
X349015Y45277D01*
X348819Y45342D01*
X348589Y45408D01*
X348327Y45452D01*
X348054Y45462D01*
D02*
G37*
G36*
X335211Y62973D02*
X335156D01*
X335113Y62962D01*
X335003Y62941D01*
X334861Y62908D01*
X334697Y62842D01*
X334522Y62744D01*
X334424Y62678D01*
X334336Y62602D01*
X334249Y62514D01*
X334162Y62416D01*
Y62405D01*
X334140Y62394D01*
X334118Y62361D01*
X334096Y62318D01*
X334063Y62252D01*
X334019Y62186D01*
X333976Y62099D01*
X333943Y62011D01*
X333899Y61902D01*
X333856Y61782D01*
X333823Y61651D01*
X333779Y61509D01*
X333757Y61345D01*
X333735Y61181D01*
X333714Y61006D01*
Y60809D01*
Y60798D01*
Y60765D01*
Y60711D01*
X333724Y60634D01*
Y60547D01*
X333735Y60448D01*
X333768Y60219D01*
X333823Y59957D01*
X333888Y59705D01*
X333998Y59454D01*
X334063Y59345D01*
X334140Y59246D01*
X334162Y59224D01*
X334216Y59170D01*
X334304Y59082D01*
X334424Y58995D01*
X334577Y58907D01*
X334752Y58820D01*
X334948Y58765D01*
X335058Y58754D01*
X335167Y58743D01*
X335233D01*
X335276Y58754D01*
X335386Y58776D01*
X335539Y58809D01*
X335703Y58875D01*
X335878Y58962D01*
X336052Y59093D01*
X336140Y59170D01*
X336227Y59257D01*
Y59268D01*
X336249Y59279D01*
X336271Y59312D01*
X336293Y59355D01*
X336337Y59410D01*
X336369Y59487D01*
X336413Y59563D01*
X336457Y59662D01*
X336490Y59760D01*
X336533Y59891D01*
X336577Y60022D01*
X336610Y60164D01*
X336632Y60328D01*
X336654Y60503D01*
X336676Y60689D01*
Y60886D01*
Y60897D01*
Y60929D01*
Y60984D01*
X336665Y61061D01*
Y61148D01*
X336654Y61246D01*
X336621Y61476D01*
X336566Y61727D01*
X336490Y61979D01*
X336380Y62230D01*
X336315Y62350D01*
X336238Y62449D01*
Y62460D01*
X336216Y62471D01*
X336162Y62536D01*
X336074Y62613D01*
X335954Y62711D01*
X335801Y62809D01*
X335626Y62897D01*
X335430Y62951D01*
X335320Y62962D01*
X335211Y62973D01*
D02*
G37*
G36*
X351092Y64820D02*
X348709D01*
Y62318D01*
X350961D01*
X351092Y62328D01*
X351245Y62339D01*
X351420Y62350D01*
X351595Y62372D01*
X351770Y62405D01*
X351923Y62449D01*
X351945Y62460D01*
X351988Y62481D01*
X352054Y62514D01*
X352141Y62558D01*
X352240Y62624D01*
X352338Y62700D01*
X352436Y62799D01*
X352513Y62908D01*
X352524Y62919D01*
X352546Y62962D01*
X352579Y63028D01*
X352622Y63115D01*
X352655Y63214D01*
X352688Y63323D01*
X352710Y63454D01*
X352721Y63585D01*
Y63596D01*
Y63607D01*
X352710Y63673D01*
X352699Y63771D01*
X352677Y63902D01*
X352622Y64034D01*
X352557Y64187D01*
X352458Y64329D01*
X352327Y64471D01*
X352305Y64482D01*
X352251Y64525D01*
X352163Y64580D01*
X352021Y64646D01*
X351857Y64711D01*
X351639Y64766D01*
X351387Y64810D01*
X351092Y64820D01*
D02*
G37*
G36*
X371531Y62941D02*
X371466D01*
X371411Y62930D01*
X371291Y62919D01*
X371127Y62875D01*
X370941Y62809D01*
X370744Y62722D01*
X370559Y62591D01*
X370460Y62503D01*
X370373Y62416D01*
Y62405D01*
X370351Y62394D01*
X370329Y62361D01*
X370296Y62318D01*
X370263Y62263D01*
X370231Y62197D01*
X370187Y62110D01*
X370143Y62022D01*
X370099Y61913D01*
X370056Y61804D01*
X370023Y61673D01*
X369990Y61531D01*
X369957Y61378D01*
X369935Y61214D01*
X369924Y61028D01*
X369914Y60842D01*
Y60831D01*
Y60798D01*
Y60744D01*
X369924Y60667D01*
Y60580D01*
X369935Y60481D01*
X369968Y60252D01*
X370023Y59989D01*
X370110Y59727D01*
X370220Y59476D01*
X370296Y59366D01*
X370373Y59257D01*
X370384D01*
X370394Y59235D01*
X370460Y59181D01*
X370559Y59093D01*
X370690Y59006D01*
X370854Y58907D01*
X371050Y58820D01*
X371280Y58765D01*
X371400Y58754D01*
X371531Y58743D01*
X371597D01*
X371652Y58754D01*
X371772Y58776D01*
X371936Y58809D01*
X372111Y58875D01*
X372307Y58962D01*
X372493Y59093D01*
X372591Y59181D01*
X372679Y59268D01*
X372690Y59279D01*
X372701Y59290D01*
X372723Y59323D01*
X372755Y59366D01*
X372788Y59421D01*
X372832Y59487D01*
X372876Y59574D01*
X372919Y59662D01*
X372963Y59771D01*
X372996Y59891D01*
X373040Y60022D01*
X373072Y60164D01*
X373105Y60328D01*
X373127Y60492D01*
X373149Y60678D01*
Y60875D01*
Y60886D01*
Y60918D01*
Y60973D01*
X373138Y61039D01*
Y61126D01*
X373127Y61225D01*
X373094Y61454D01*
X373040Y61695D01*
X372952Y61957D01*
X372832Y62197D01*
X372766Y62318D01*
X372679Y62416D01*
Y62427D01*
X372657Y62438D01*
X372591Y62503D01*
X372493Y62580D01*
X372362Y62678D01*
X372198Y62777D01*
X372001Y62864D01*
X371783Y62919D01*
X371662Y62930D01*
X371531Y62941D01*
D02*
G37*
G36*
X341004D02*
X340938D01*
X340895Y62930D01*
X340774Y62919D01*
X340632Y62886D01*
X340457Y62831D01*
X340271Y62755D01*
X340097Y62645D01*
X339922Y62503D01*
X339900Y62481D01*
X339856Y62427D01*
X339780Y62328D01*
X339703Y62197D01*
X339616Y62044D01*
X339539Y61848D01*
X339474Y61618D01*
X339441Y61367D01*
X342512D01*
Y61378D01*
Y61399D01*
X342501Y61432D01*
Y61476D01*
X342479Y61607D01*
X342446Y61749D01*
X342392Y61924D01*
X342337Y62088D01*
X342250Y62252D01*
X342151Y62394D01*
Y62405D01*
X342130Y62416D01*
X342075Y62481D01*
X341976Y62569D01*
X341845Y62667D01*
X341681Y62766D01*
X341485Y62853D01*
X341255Y62919D01*
X341135Y62930D01*
X341004Y62941D01*
D02*
G37*
G36*
X320827Y62973D02*
X320772D01*
X320729Y62962D01*
X320619Y62951D01*
X320477Y62908D01*
X320313Y62853D01*
X320138Y62755D01*
X319964Y62634D01*
X319887Y62547D01*
X319800Y62460D01*
Y62449D01*
X319778Y62438D01*
X319767Y62405D01*
X319734Y62361D01*
X319701Y62307D01*
X319668Y62241D01*
X319636Y62164D01*
X319592Y62066D01*
X319548Y61957D01*
X319515Y61837D01*
X319483Y61705D01*
X319450Y61563D01*
X319428Y61410D01*
X319406Y61235D01*
X319384Y61050D01*
Y60853D01*
Y60842D01*
Y60809D01*
Y60755D01*
X319395Y60678D01*
Y60591D01*
X319406Y60492D01*
X319439Y60263D01*
X319494Y60000D01*
X319570Y59738D01*
X319679Y59487D01*
X319745Y59377D01*
X319821Y59268D01*
X319832Y59257D01*
X319843Y59246D01*
X319898Y59192D01*
X319996Y59104D01*
X320128Y59006D01*
X320281Y58907D01*
X320466Y58831D01*
X320663Y58765D01*
X320783Y58754D01*
X320893Y58743D01*
X320947D01*
X320991Y58754D01*
X321100Y58765D01*
X321242Y58809D01*
X321395Y58864D01*
X321570Y58951D01*
X321745Y59082D01*
X321832Y59159D01*
X321909Y59246D01*
Y59257D01*
X321931Y59268D01*
X321953Y59301D01*
X321975Y59345D01*
X322007Y59399D01*
X322051Y59454D01*
X322084Y59541D01*
X322128Y59629D01*
X322171Y59727D01*
X322204Y59836D01*
X322248Y59968D01*
X322281Y60099D01*
X322303Y60252D01*
X322324Y60405D01*
X322346Y60580D01*
Y60765D01*
Y60776D01*
Y60809D01*
Y60875D01*
X322335Y60951D01*
Y61039D01*
X322324Y61148D01*
X322313Y61257D01*
X322292Y61388D01*
X322237Y61651D01*
X322149Y61924D01*
X322040Y62186D01*
X321964Y62307D01*
X321887Y62416D01*
Y62427D01*
X321865Y62438D01*
X321811Y62503D01*
X321712Y62591D01*
X321592Y62700D01*
X321428Y62799D01*
X321253Y62886D01*
X321046Y62951D01*
X320936Y62962D01*
X320827Y62973D01*
D02*
G37*
G36*
X337922Y53686D02*
X335539Y50298D01*
X337922D01*
Y53686D01*
D02*
G37*
G36*
X349168Y54462D02*
X349103D01*
X349059Y54452D01*
X348939Y54430D01*
X348797Y54397D01*
X348633Y54331D01*
X348458Y54233D01*
X348371Y54167D01*
X348283Y54102D01*
X348207Y54014D01*
X348130Y53916D01*
Y53905D01*
X348108Y53883D01*
X348086Y53839D01*
X348054Y53785D01*
X348021Y53697D01*
X347977Y53599D01*
X347944Y53479D01*
X347901Y53337D01*
X347857Y53173D01*
X347813Y52987D01*
X347769Y52779D01*
X347737Y52550D01*
X347704Y52287D01*
X347682Y52003D01*
X347671Y51697D01*
X347660Y51358D01*
Y51336D01*
Y51282D01*
Y51183D01*
X347671Y51052D01*
Y50910D01*
X347682Y50735D01*
X347693Y50550D01*
X347715Y50353D01*
X347769Y49926D01*
X347802Y49719D01*
X347846Y49522D01*
X347890Y49336D01*
X347955Y49161D01*
X348021Y49008D01*
X348097Y48877D01*
Y48866D01*
X348119Y48855D01*
X348174Y48779D01*
X348272Y48680D01*
X348392Y48571D01*
X348556Y48462D01*
X348742Y48364D01*
X348950Y48287D01*
X349059Y48276D01*
X349179Y48265D01*
X349245D01*
X349289Y48276D01*
X349398Y48298D01*
X349551Y48342D01*
X349715Y48418D01*
X349901Y48527D01*
X349988Y48593D01*
X350076Y48680D01*
X350163Y48768D01*
X350251Y48877D01*
Y48888D01*
X350272Y48910D01*
X350294Y48943D01*
X350316Y48997D01*
X350360Y49074D01*
X350393Y49172D01*
X350436Y49282D01*
X350480Y49413D01*
X350513Y49577D01*
X350557Y49752D01*
X350600Y49959D01*
X350633Y50178D01*
X350655Y50440D01*
X350677Y50713D01*
X350699Y51020D01*
Y51358D01*
Y51369D01*
Y51380D01*
Y51435D01*
Y51533D01*
X350688Y51664D01*
Y51806D01*
X350677Y51981D01*
X350666Y52167D01*
X350644Y52375D01*
X350589Y52790D01*
X350557Y52998D01*
X350513Y53194D01*
X350469Y53380D01*
X350404Y53555D01*
X350338Y53708D01*
X350261Y53839D01*
Y53850D01*
X350240Y53861D01*
X350218Y53894D01*
X350185Y53938D01*
X350087Y54036D01*
X349966Y54156D01*
X349802Y54266D01*
X349617Y54364D01*
X349518Y54408D01*
X349409Y54440D01*
X349289Y54452D01*
X349168Y54462D01*
D02*
G37*
G36*
X343288D02*
X343223D01*
X343179Y54452D01*
X343059Y54430D01*
X342916Y54397D01*
X342753Y54331D01*
X342578Y54233D01*
X342490Y54167D01*
X342403Y54102D01*
X342326Y54014D01*
X342250Y53916D01*
Y53905D01*
X342228Y53883D01*
X342206Y53839D01*
X342173Y53785D01*
X342141Y53697D01*
X342097Y53599D01*
X342064Y53479D01*
X342020Y53337D01*
X341976Y53173D01*
X341933Y52987D01*
X341889Y52779D01*
X341856Y52550D01*
X341824Y52287D01*
X341802Y52003D01*
X341791Y51697D01*
X341780Y51358D01*
Y51336D01*
Y51282D01*
Y51183D01*
X341791Y51052D01*
Y50910D01*
X341802Y50735D01*
X341813Y50550D01*
X341834Y50353D01*
X341889Y49926D01*
X341922Y49719D01*
X341966Y49522D01*
X342009Y49336D01*
X342075Y49161D01*
X342141Y49008D01*
X342217Y48877D01*
Y48866D01*
X342239Y48855D01*
X342294Y48779D01*
X342392Y48680D01*
X342512Y48571D01*
X342676Y48462D01*
X342862Y48364D01*
X343070Y48287D01*
X343179Y48276D01*
X343299Y48265D01*
X343365D01*
X343408Y48276D01*
X343518Y48298D01*
X343671Y48342D01*
X343835Y48418D01*
X344020Y48527D01*
X344108Y48593D01*
X344195Y48680D01*
X344283Y48768D01*
X344370Y48877D01*
Y48888D01*
X344392Y48910D01*
X344414Y48943D01*
X344436Y48997D01*
X344479Y49074D01*
X344512Y49172D01*
X344556Y49282D01*
X344600Y49413D01*
X344633Y49577D01*
X344676Y49752D01*
X344720Y49959D01*
X344753Y50178D01*
X344775Y50440D01*
X344796Y50713D01*
X344818Y51020D01*
Y51358D01*
Y51369D01*
Y51380D01*
Y51435D01*
Y51533D01*
X344807Y51664D01*
Y51806D01*
X344796Y51981D01*
X344785Y52167D01*
X344764Y52375D01*
X344709Y52790D01*
X344676Y52998D01*
X344633Y53194D01*
X344589Y53380D01*
X344523Y53555D01*
X344458Y53708D01*
X344381Y53839D01*
Y53850D01*
X344359Y53861D01*
X344337Y53894D01*
X344305Y53938D01*
X344206Y54036D01*
X344086Y54156D01*
X343922Y54266D01*
X343736Y54364D01*
X343638Y54408D01*
X343529Y54440D01*
X343408Y54452D01*
X343288Y54462D01*
D02*
G37*
%LPD*%
D10*
X291953Y384500D02*
X291165D01*
X291953D01*
X31236Y370000D02*
X30449D01*
X31236D01*
X295962Y61761D02*
X295175D01*
X295962D01*
X51815Y186500D02*
X51028D01*
X51815D01*
X346158Y208000D02*
X345370D01*
X346158D01*
X306736Y298236D02*
X305949D01*
X306736D01*
X66736Y53579D02*
X65949D01*
X66736D01*
X306736Y335772D02*
X305949D01*
X306736D01*
X107878Y351496D02*
X107091D01*
X107878D01*
X331866Y227764D02*
X331079D01*
X331866D01*
X346657Y83000D02*
X345870D01*
X346657D01*
X68130Y363547D02*
X67343D01*
X68130D01*
Y267606D02*
X67343D01*
X68130D01*
Y316106D02*
X67343D01*
X68130D01*
Y219106D02*
X67343D01*
X68130D01*
X289000Y379500D02*
Y389500D01*
X249000Y379500D02*
Y389500D01*
Y379500D02*
X289000D01*
X249000Y389500D02*
X289000D01*
X304043Y145776D02*
X316642D01*
X304043Y180224D02*
X316642D01*
Y145776D02*
Y180224D01*
X304043Y145776D02*
Y180224D01*
X226874Y282154D02*
X230811D01*
X226874Y288846D02*
X230811D01*
X232906Y281500D02*
X236842D01*
X232906Y289500D02*
X236842D01*
X267342Y295335D02*
Y299665D01*
Y331835D02*
Y336165D01*
X310043Y237776D02*
Y272224D01*
X322642Y237776D02*
Y272224D01*
X310043D02*
X322642D01*
X310043Y237776D02*
X322642D01*
D11*
X309161Y176386D02*
X308717Y177309D01*
X307717Y177537D01*
X306916Y176898D01*
Y175873D01*
X307717Y175234D01*
X308717Y175462D01*
X309161Y176386D01*
X315161Y268386D02*
X314717Y269309D01*
X313718Y269537D01*
X312916Y268898D01*
Y267873D01*
X313718Y267234D01*
X314717Y267462D01*
X315161Y268386D01*
D12*
X300106Y181346D02*
X299368Y181773D01*
Y180920D01*
X300106Y181346D01*
X306106Y273346D02*
X305368Y273773D01*
Y272920D01*
X306106Y273346D01*
D13*
X181933Y52000D02*
X181342Y52591D01*
X180752Y52000D01*
X181342Y51410D01*
X181933Y52000D01*
X83933D02*
X83342Y52591D01*
X82752Y52000D01*
X83342Y51410D01*
X83933Y52000D01*
D14*
X14701Y366500D02*
X46984D01*
X14701Y204000D02*
X46984D01*
Y366500D01*
X14701Y204000D02*
Y366500D01*
X305568Y17470D02*
Y57824D01*
X265568Y17470D02*
Y57824D01*
Y17470D02*
X305568D01*
X265568Y57824D02*
X305568D01*
X15201Y196500D02*
X47484D01*
X15201Y76500D02*
X47484D01*
Y196500D01*
X15201Y76500D02*
Y196500D01*
X61756Y285535D02*
X65929D01*
X61756Y292465D02*
X65929D01*
X381984Y195500D02*
Y358000D01*
X349701D02*
X381984D01*
X349701Y195500D02*
X381984D01*
X349701D02*
Y358000D01*
X333343Y144000D02*
Y146000D01*
X326343Y144000D02*
Y146000D01*
X325842Y179425D02*
Y181425D01*
X332842Y179425D02*
Y181425D01*
X300842Y238000D02*
Y240000D01*
X293843Y238000D02*
Y240000D01*
X295843Y143000D02*
Y145000D01*
X288843Y143000D02*
Y145000D01*
X299342Y274500D02*
Y276500D01*
X292342Y274500D02*
Y276500D01*
X287842Y179500D02*
Y181500D01*
X294843Y179500D02*
Y181500D01*
X54256Y277035D02*
X58429D01*
X54256Y283965D02*
X58429D01*
X56201Y360957D02*
X58484D01*
X56201Y368043D02*
X58484D01*
X55642Y376465D02*
X59815D01*
X55642Y369535D02*
X59815D01*
X55701Y266543D02*
X57984D01*
X55701Y259457D02*
X57984D01*
X295870Y333866D02*
X336815D01*
Y300008D02*
Y333866D01*
X295870Y300008D02*
X336815D01*
X295870D02*
Y333866D01*
X56343Y17358D02*
Y49642D01*
X176342Y17358D02*
Y49642D01*
X56343D02*
X176342D01*
X56343Y17358D02*
X176342D01*
X296342Y339709D02*
Y380063D01*
X336343Y339709D02*
Y380063D01*
X296342D02*
X336343D01*
X296342Y339709D02*
X336343D01*
X107201Y341957D02*
X109484D01*
X107201Y349043D02*
X109484D01*
X226098Y248528D02*
Y249472D01*
X220586Y248528D02*
Y249472D01*
X207256Y282035D02*
X211429D01*
X207256Y288965D02*
X211429D01*
X247342Y56000D02*
Y176000D01*
X157343D02*
X247342D01*
X157343Y56000D02*
Y176000D01*
Y56000D02*
X247342D01*
X149343D02*
Y176000D01*
X59342D02*
X149343D01*
X59342Y56000D02*
Y176000D01*
Y56000D02*
X149343D01*
X278086Y181528D02*
Y182472D01*
X283598Y181528D02*
Y182472D01*
X293701Y219957D02*
X295984D01*
X293701Y227043D02*
X295984D01*
X235032Y361823D02*
X235976D01*
X235032Y367177D02*
X235976D01*
X234870Y354323D02*
X235815D01*
X234870Y359677D02*
X235815D01*
X234201Y372457D02*
X236484D01*
X234201Y379543D02*
X236484D01*
X287598Y144028D02*
Y144972D01*
X282086Y144028D02*
Y144972D01*
X285870Y238756D02*
X286815D01*
X285870Y233244D02*
X286815D01*
X290599Y275528D02*
Y276472D01*
X285086Y275528D02*
Y276472D01*
X288020Y372106D02*
Y372894D01*
X282665Y372106D02*
Y372894D01*
X294701Y297043D02*
X296984D01*
X294701Y289957D02*
X296984D01*
X331925Y201642D02*
Y219358D01*
X304760Y201642D02*
Y219358D01*
X341098Y145028D02*
Y145972D01*
X335587Y145028D02*
Y145972D01*
X334587Y180028D02*
Y180972D01*
X340099Y180028D02*
Y180972D01*
X339087Y250028D02*
Y250972D01*
X344599Y250028D02*
Y250972D01*
X334086Y268028D02*
Y268972D01*
X339598Y268028D02*
Y268972D01*
X382484Y73000D02*
Y193000D01*
X350201Y73000D02*
Y193000D01*
X382484D01*
X350201Y73000D02*
X382484D01*
X292701Y189457D02*
X294984D01*
X292701Y196543D02*
X294984D01*
X74484Y365980D02*
X92201D01*
X74484Y345902D02*
X92201D01*
X229099Y311028D02*
Y311972D01*
X223587Y311028D02*
Y311972D01*
X74484Y270039D02*
X92201D01*
X74484Y249961D02*
X92201D01*
X74484Y318539D02*
X92201D01*
X74484Y298461D02*
X92201D01*
X74484Y221539D02*
X92201D01*
X74484Y201461D02*
X92201D01*
X55783Y357465D02*
X60901D01*
X55783Y350535D02*
X60901D01*
X55783Y339965D02*
X60901D01*
X55783Y333035D02*
X60901D01*
X54484Y268035D02*
X59602D01*
X54484Y274965D02*
X59602D01*
X54283Y257965D02*
X59402D01*
X54283Y251035D02*
X59402D01*
X54283Y318965D02*
X59402D01*
X54283Y312035D02*
X59402D01*
X54283Y300965D02*
X59402D01*
X54283Y294035D02*
X59402D01*
X54283Y219035D02*
X59402D01*
X54283Y225965D02*
X59402D01*
X54283Y206965D02*
X59402D01*
X54283Y200035D02*
X59402D01*
X128870Y351256D02*
X129815D01*
X128870Y345744D02*
X129815D01*
X104299Y257358D02*
Y259642D01*
X111386Y257358D02*
Y259642D01*
X56256Y341535D02*
X60429D01*
X56256Y348465D02*
X60429D01*
X54256Y242035D02*
X58429D01*
X54256Y248965D02*
X58429D01*
X100701Y297543D02*
X102984D01*
X100701Y290457D02*
X102984D01*
X103799Y209358D02*
Y211642D01*
X110886Y209358D02*
Y211642D01*
X54756Y320535D02*
X58929D01*
X54756Y327465D02*
X58929D01*
X54256Y234465D02*
X58429D01*
X54256Y227535D02*
X58429D01*
X66256Y191535D02*
X70429D01*
X66256Y198465D02*
X70429D01*
X55701Y310043D02*
X57984D01*
X55701Y302957D02*
X57984D01*
X55701Y215543D02*
X57984D01*
X55701Y208457D02*
X57984D01*
X275842Y294000D02*
X274843D01*
X275343Y293500D02*
Y294500D01*
X275842Y330500D02*
X274843D01*
X275343Y330000D02*
Y331000D01*
D15*
X127842Y341563D02*
X199343D01*
X127842Y199319D02*
X197780D01*
X127779D02*
Y341563D01*
X199354Y199319D02*
Y341563D01*
D16*
X149079Y325500D02*
X179079D01*
Y343925D01*
X149079Y325500D02*
Y343925D01*
X179079D01*
X168342Y13000D02*
X172343D01*
X168842Y12000D02*
X171843D01*
X169343Y11000D02*
X171343D01*
X170343Y13000D02*
Y15000D01*
X8843Y85500D02*
X10842D01*
X6842Y84500D02*
Y86500D01*
X7842Y84000D02*
Y87000D01*
X8843Y83500D02*
Y87500D01*
X386343Y80500D02*
Y84500D01*
X387343Y81000D02*
Y84000D01*
X388342Y81500D02*
Y83500D01*
X384343Y82500D02*
X386343D01*
X386842Y101500D02*
Y105500D01*
X387842Y102000D02*
Y105000D01*
X388843Y102500D02*
Y104500D01*
X384842Y103500D02*
X386842D01*
Y121000D02*
Y125000D01*
X387842Y121500D02*
Y124500D01*
X388843Y122000D02*
Y124000D01*
X384842Y123000D02*
X386842D01*
X386343Y160500D02*
Y164500D01*
X387343Y161000D02*
Y164000D01*
X388342Y161500D02*
Y163500D01*
X384343Y162500D02*
X386343D01*
X385842Y226500D02*
Y230500D01*
X386842Y227000D02*
Y230000D01*
X387842Y227500D02*
Y229500D01*
X383842Y228500D02*
X385842D01*
Y266000D02*
Y270000D01*
X386842Y266500D02*
Y269500D01*
X387842Y267000D02*
Y269000D01*
X383842Y268000D02*
X385842D01*
X385343Y306000D02*
Y310000D01*
X386343Y306500D02*
Y309500D01*
X387343Y307000D02*
Y309000D01*
X383343Y308000D02*
X385343D01*
X382842Y347000D02*
X384842D01*
X386842Y346000D02*
Y348000D01*
X385842Y345500D02*
Y348500D01*
X384842Y345000D02*
Y349000D01*
D17*
X316843Y100500D02*
X345342D01*
X316843Y124000D02*
X345342D01*
Y100500D02*
Y124000D01*
X316843Y100500D02*
Y124000D01*
X317342Y116000D02*
X344843D01*
X327760Y121799D02*
X330426D01*
X329093D01*
Y117800D01*
X331759D02*
Y121799D01*
X333758D01*
X334425Y121132D01*
Y119799D01*
X333758Y119133D01*
X331759D01*
X270402Y64032D02*
X269069D01*
X269736D01*
Y60700D01*
X269069Y60033D01*
X268403D01*
X267736Y60700D01*
X271735Y63366D02*
X272401Y64032D01*
X273734D01*
X274401Y63366D01*
Y62699D01*
X273734Y62033D01*
X274401Y61366D01*
Y60700D01*
X273734Y60033D01*
X272401D01*
X271735Y60700D01*
Y61366D01*
X272401Y62033D01*
X271735Y62699D01*
Y63366D01*
X272401Y62033D02*
X273734D01*
X187010Y351499D02*
Y348167D01*
X187677Y347501D01*
X189010D01*
X189676Y348167D01*
Y351499D01*
X193008Y347501D02*
Y351499D01*
X191009Y349500D01*
X193675D01*
X251844Y266999D02*
Y263667D01*
X252511Y263001D01*
X253843D01*
X254510Y263667D01*
Y266999D01*
X255843Y263001D02*
X257176D01*
X256509D01*
Y266999D01*
X255843Y266333D01*
X259175D02*
X259842Y266999D01*
X261175D01*
X261841Y266333D01*
Y265666D01*
X261175Y265000D01*
X260508D01*
X261175D01*
X261841Y264334D01*
Y263667D01*
X261175Y263001D01*
X259842D01*
X259175Y263667D01*
X236343Y306502D02*
X239675D01*
X240342Y307168D01*
Y308501D01*
X239675Y309167D01*
X236343D01*
X240342Y310500D02*
Y311833D01*
Y311167D01*
X236343D01*
X237010Y310500D01*
X240342Y316498D02*
Y313833D01*
X237676Y316498D01*
X237010D01*
X236343Y315832D01*
Y314499D01*
X237010Y313833D01*
X337842Y214332D02*
X334510D01*
X333843Y213666D01*
Y212333D01*
X334510Y211666D01*
X337842D01*
X333843Y210333D02*
Y209000D01*
Y209667D01*
X337842D01*
X337175Y210333D01*
X333843Y207001D02*
Y205668D01*
Y206334D01*
X337842D01*
X337175Y207001D01*
X44844Y60999D02*
Y57667D01*
X45511Y57001D01*
X46843D01*
X47510Y57667D01*
Y60999D01*
X48843Y57001D02*
X50176D01*
X49509D01*
Y60999D01*
X48843Y60333D01*
X52175D02*
X52842Y60999D01*
X54175D01*
X54841Y60333D01*
Y57667D01*
X54175Y57001D01*
X52842D01*
X52175Y57667D01*
Y60333D01*
X239010Y182499D02*
Y179167D01*
X239677Y178501D01*
X241010D01*
X241676Y179167D01*
Y182499D01*
X243009Y179167D02*
X243675Y178501D01*
X245008D01*
X245675Y179167D01*
Y181833D01*
X245008Y182499D01*
X243675D01*
X243009Y181833D01*
Y181167D01*
X243675Y180500D01*
X245675D01*
X78510Y372499D02*
Y369167D01*
X79177Y368501D01*
X80510D01*
X81176Y369167D01*
Y372499D01*
X82509Y371833D02*
X83175Y372499D01*
X84508D01*
X85175Y371833D01*
Y371166D01*
X84508Y370500D01*
X85175Y369834D01*
Y369167D01*
X84508Y368501D01*
X83175D01*
X82509Y369167D01*
Y369834D01*
X83175Y370500D01*
X82509Y371166D01*
Y371833D01*
X83175Y370500D02*
X84508D01*
X81010Y247999D02*
Y244667D01*
X81677Y244001D01*
X83010D01*
X83676Y244667D01*
Y247999D01*
X85009D02*
X87675D01*
Y247333D01*
X85009Y244667D01*
Y244001D01*
X80010Y324499D02*
Y321167D01*
X80677Y320501D01*
X82010D01*
X82676Y321167D01*
Y324499D01*
X86675D02*
X85342Y323833D01*
X84009Y322500D01*
Y321167D01*
X84675Y320501D01*
X86008D01*
X86675Y321167D01*
Y321834D01*
X86008Y322500D01*
X84009D01*
X81010Y199499D02*
Y196167D01*
X81677Y195501D01*
X83010D01*
X83676Y196167D01*
Y199499D01*
X87675D02*
X85009D01*
Y197500D01*
X86342Y198167D01*
X87008D01*
X87675Y197500D01*
Y196167D01*
X87008Y195501D01*
X85675D01*
X85009Y196167D01*
X257010Y354499D02*
Y351167D01*
X257677Y350501D01*
X259010D01*
X259676Y351167D01*
Y354499D01*
X261009Y353833D02*
X261675Y354499D01*
X263008D01*
X263675Y353833D01*
Y353166D01*
X263008Y352500D01*
X262342D01*
X263008D01*
X263675Y351834D01*
Y351167D01*
X263008Y350501D01*
X261675D01*
X261009Y351167D01*
X313010Y278999D02*
Y275667D01*
X313677Y275001D01*
X315010D01*
X315676Y275667D01*
Y278999D01*
X319675Y275001D02*
X317009D01*
X319675Y277666D01*
Y278333D01*
X319008Y278999D01*
X317675D01*
X317009Y278333D01*
X308177Y186499D02*
Y183167D01*
X308843Y182501D01*
X310176D01*
X310842Y183167D01*
Y186499D01*
X312175Y182501D02*
X313508D01*
X312842D01*
Y186499D01*
X312175Y185833D01*
X291842Y328502D02*
Y329835D01*
Y329168D01*
X287843D01*
X288510Y328502D01*
X291842Y334500D02*
Y331834D01*
X289176Y334500D01*
X288510D01*
X287843Y333833D01*
Y332500D01*
X288510Y331834D01*
X287843Y335833D02*
X290509D01*
X291842Y337165D01*
X290509Y338498D01*
X287843D01*
X216845Y324333D02*
X217512Y324999D01*
X218845D01*
X219511Y324333D01*
Y323666D01*
X218845Y323000D01*
X218178D01*
X218845D01*
X219511Y322334D01*
Y321667D01*
X218845Y321001D01*
X217512D01*
X216845Y321667D01*
X220844Y321001D02*
Y321667D01*
X221511D01*
Y321001D01*
X220844D01*
X224176Y324333D02*
X224843Y324999D01*
X226176D01*
X226842Y324333D01*
Y323666D01*
X226176Y323000D01*
X225509D01*
X226176D01*
X226842Y322334D01*
Y321667D01*
X226176Y321001D01*
X224843D01*
X224176Y321667D01*
X228175Y324999D02*
Y322334D01*
X229508Y321001D01*
X230841Y322334D01*
Y324999D01*
X232174D02*
Y321001D01*
X234173D01*
X234840Y321667D01*
Y324333D01*
X234173Y324999D01*
X232174D01*
X220345Y295333D02*
X221012Y295999D01*
X222345D01*
X223011Y295333D01*
Y294666D01*
X222345Y294000D01*
X221678D01*
X222345D01*
X223011Y293334D01*
Y292667D01*
X222345Y292001D01*
X221012D01*
X220345Y292667D01*
X224344Y292001D02*
Y292667D01*
X225011D01*
Y292001D01*
X224344D01*
X227676Y295333D02*
X228343Y295999D01*
X229676D01*
X230342Y295333D01*
Y294666D01*
X229676Y294000D01*
X229009D01*
X229676D01*
X230342Y293334D01*
Y292667D01*
X229676Y292001D01*
X228343D01*
X227676Y292667D01*
X231675Y295999D02*
Y293334D01*
X233008Y292001D01*
X234341Y293334D01*
Y295999D01*
X235674Y292001D02*
Y294666D01*
X237007Y295999D01*
X238340Y294666D01*
Y292001D01*
Y294000D01*
X235674D01*
X325176Y288499D02*
X322510D01*
Y286500D01*
X323843Y287166D01*
X324510D01*
X325176Y286500D01*
Y285167D01*
X324510Y284501D01*
X323177D01*
X322510Y285167D01*
X326509Y288499D02*
Y285834D01*
X327842Y284501D01*
X329175Y285834D01*
Y288499D01*
X351010Y374334D02*
X350343Y373668D01*
Y372335D01*
X351010Y371668D01*
X353675D01*
X354342Y372335D01*
Y373668D01*
X353675Y374334D01*
X352343D01*
Y373001D01*
X354342Y375667D02*
X350343D01*
X354342Y378333D01*
X350343D01*
Y379666D02*
X354342D01*
Y381665D01*
X353675Y382332D01*
X351010D01*
X350343Y381665D01*
Y379666D01*
X323012Y113499D02*
Y109501D01*
X325678D01*
X329677Y112833D02*
X329010Y113499D01*
X327677D01*
X327011Y112833D01*
Y110167D01*
X327677Y109501D01*
X329010D01*
X329677Y110167D01*
X331010Y112833D02*
X331676Y113499D01*
X333009D01*
X333675Y112833D01*
Y112167D01*
X333009Y111500D01*
X332343D01*
X333009D01*
X333675Y110834D01*
Y110167D01*
X333009Y109501D01*
X331676D01*
X331010Y110167D01*
X337674Y113499D02*
X335008D01*
Y111500D01*
X336341Y112167D01*
X337008D01*
X337674Y111500D01*
Y110167D01*
X337008Y109501D01*
X335675D01*
X335008Y110167D01*
X339007Y112833D02*
X339673Y113499D01*
X341006D01*
X341673Y112833D01*
Y110167D01*
X341006Y109501D01*
X339673D01*
X339007Y110167D01*
Y112833D01*
X323012Y106999D02*
Y103001D01*
X325677D01*
X329676Y106333D02*
X329010Y106999D01*
X327677D01*
X327010Y106333D01*
Y103667D01*
X327677Y103001D01*
X329010D01*
X329676Y103667D01*
X333675Y106999D02*
X331009D01*
Y105000D01*
X332342Y105666D01*
X333008D01*
X333675Y105000D01*
Y103667D01*
X333008Y103001D01*
X331675D01*
X331009Y103667D01*
X335008Y106333D02*
X335674Y106999D01*
X337007D01*
X337673Y106333D01*
Y103667D01*
X337007Y103001D01*
X335674D01*
X335008Y103667D01*
Y106333D01*
X270510Y160499D02*
X273176D01*
X271843D01*
Y156501D01*
X274509Y159833D02*
X275175Y160499D01*
X276508D01*
X277175Y159833D01*
Y157167D01*
X276508Y156501D01*
X275175D01*
X274509Y157167D01*
Y159833D01*
X276010Y252499D02*
X278676D01*
X277343D01*
Y248501D01*
X280009Y251833D02*
X280675Y252499D01*
X282008D01*
X282675Y251833D01*
Y251166D01*
X282008Y250500D01*
X281342D01*
X282008D01*
X282675Y249834D01*
Y249167D01*
X282008Y248501D01*
X280675D01*
X280009Y249167D01*
X276510Y262999D02*
X279176D01*
X277843D01*
Y259001D01*
X283175D02*
X280509D01*
X283175Y261666D01*
Y262333D01*
X282508Y262999D01*
X281175D01*
X280509Y262333D01*
X271677Y169999D02*
X274342D01*
X273010D01*
Y166001D01*
X275675D02*
X277008D01*
X276342D01*
Y169999D01*
X275675Y169333D01*
X308012Y234999D02*
Y232334D01*
X309345Y231001D01*
X310677Y232334D01*
Y234999D01*
X312010Y231001D02*
Y234999D01*
X314010D01*
X314676Y234333D01*
Y233000D01*
X314010Y232334D01*
X312010D01*
X313343D02*
X314676Y231001D01*
X318675Y234999D02*
X316009D01*
Y231001D01*
X318675D01*
X316009Y233000D02*
X317342D01*
X322674Y234999D02*
X320008D01*
Y233000D01*
X321341D01*
X320008D01*
Y231001D01*
X204677Y274833D02*
X204011Y275499D01*
X202678D01*
X202012Y274833D01*
Y274166D01*
X202678Y273500D01*
X204011D01*
X204677Y272834D01*
Y272167D01*
X204011Y271501D01*
X202678D01*
X202012Y272167D01*
X208676Y274833D02*
X208010Y275499D01*
X206677D01*
X206010Y274833D01*
Y272167D01*
X206677Y271501D01*
X208010D01*
X208676Y272167D01*
X210009Y275499D02*
Y271501D01*
X212675D01*
X214008Y274833D02*
X214674Y275499D01*
X216007D01*
X216673Y274833D01*
Y272167D01*
X216007Y271501D01*
X214674D01*
X214008Y272167D01*
Y274833D01*
X204177Y248833D02*
X203511Y249499D01*
X202178D01*
X201512Y248833D01*
Y248166D01*
X202178Y247500D01*
X203511D01*
X204177Y246834D01*
Y246167D01*
X203511Y245501D01*
X202178D01*
X201512Y246167D01*
X205510Y249499D02*
Y245501D01*
X207510D01*
X208176Y246167D01*
Y248833D01*
X207510Y249499D01*
X205510D01*
X209509Y245501D02*
Y248166D01*
X210842Y249499D01*
X212175Y248166D01*
Y245501D01*
Y247500D01*
X209509D01*
X213508Y248833D02*
X214174Y249499D01*
X215507D01*
X216174Y248833D01*
Y246167D01*
X215507Y245501D01*
X214174D01*
X213508Y246167D01*
Y248833D01*
X249677Y215833D02*
X249010Y216499D01*
X247677D01*
X247011Y215833D01*
Y215166D01*
X247677Y214500D01*
X249010D01*
X249677Y213834D01*
Y213167D01*
X249010Y212501D01*
X247677D01*
X247011Y213167D01*
X253675Y215833D02*
X253009Y216499D01*
X251676D01*
X251010Y215833D01*
Y213167D01*
X251676Y212501D01*
X253009D01*
X253675Y213167D01*
X255008Y216499D02*
Y212501D01*
Y213834D01*
X257674Y216499D01*
X255675Y214500D01*
X257674Y212501D01*
X165334Y184833D02*
X164668Y185499D01*
X163335D01*
X162668Y184833D01*
Y184167D01*
X163335Y183500D01*
X164668D01*
X165334Y182834D01*
Y182167D01*
X164668Y181501D01*
X163335D01*
X162668Y182167D01*
X166667Y185499D02*
Y181501D01*
X168667D01*
X169333Y182167D01*
Y184833D01*
X168667Y185499D01*
X166667D01*
X172665D02*
X171332D01*
X170666Y184833D01*
Y182167D01*
X171332Y181501D01*
X172665D01*
X173332Y182167D01*
Y184833D01*
X172665Y185499D01*
X231160Y207333D02*
X230494Y207999D01*
X229161D01*
X228494Y207333D01*
Y206666D01*
X229161Y206000D01*
X230494D01*
X231160Y205334D01*
Y204667D01*
X230494Y204001D01*
X229161D01*
X228494Y204667D01*
X232493Y207999D02*
Y204001D01*
X234492D01*
X235159Y204667D01*
Y207333D01*
X234492Y207999D01*
X232493D01*
X236492D02*
X237825D01*
X237158D01*
Y204001D01*
X236492D01*
X237825D01*
X99010Y375500D02*
X98343Y374834D01*
Y373501D01*
X99010Y372834D01*
X99676D01*
X100343Y373501D01*
Y374834D01*
X101009Y375500D01*
X101675D01*
X102342Y374834D01*
Y373501D01*
X101675Y372834D01*
X102342Y376833D02*
Y378166D01*
Y377499D01*
X98343D01*
X99010Y376833D01*
X221842Y307835D02*
X217843D01*
Y309834D01*
X218510Y310501D01*
X219843D01*
X220509Y309834D01*
Y307835D01*
Y309168D02*
X221842Y310501D01*
X218510Y311834D02*
X217843Y312500D01*
Y313833D01*
X218510Y314499D01*
X219176D01*
X219843Y313833D01*
Y313166D01*
Y313833D01*
X220509Y314499D01*
X221175D01*
X221842Y313833D01*
Y312500D01*
X221175Y311834D01*
X221842Y315832D02*
Y317165D01*
Y316499D01*
X217843D01*
X218510Y315832D01*
X331842Y126168D02*
X327843D01*
Y128168D01*
X328510Y128834D01*
X329842D01*
X330509Y128168D01*
Y126168D01*
Y127501D02*
X331842Y128834D01*
X328510Y130167D02*
X327843Y130833D01*
Y132167D01*
X328510Y132833D01*
X329176D01*
X329842Y132167D01*
Y131500D01*
Y132167D01*
X330509Y132833D01*
X331175D01*
X331842Y132167D01*
Y130833D01*
X331175Y130167D01*
X328510Y134166D02*
X327843Y134832D01*
Y136165D01*
X328510Y136832D01*
X331175D01*
X331842Y136165D01*
Y134832D01*
X331175Y134166D01*
X328510D01*
X323842Y181668D02*
X319843D01*
Y183668D01*
X320510Y184334D01*
X321843D01*
X322509Y183668D01*
Y181668D01*
Y183001D02*
X323842Y184334D01*
Y188333D02*
Y185667D01*
X321176Y188333D01*
X320510D01*
X319843Y187666D01*
Y186334D01*
X320510Y185667D01*
X323175Y189666D02*
X323842Y190332D01*
Y191665D01*
X323175Y192332D01*
X320510D01*
X319843Y191665D01*
Y190332D01*
X320510Y189666D01*
X321176D01*
X321843Y190332D01*
Y192332D01*
X336842Y240668D02*
X332843D01*
Y242668D01*
X333510Y243334D01*
X334842D01*
X335509Y242668D01*
Y240668D01*
Y242001D02*
X336842Y243334D01*
Y247333D02*
Y244667D01*
X334176Y247333D01*
X333510D01*
X332843Y246667D01*
Y245334D01*
X333510Y244667D01*
Y248666D02*
X332843Y249332D01*
Y250665D01*
X333510Y251332D01*
X334176D01*
X334842Y250665D01*
X335509Y251332D01*
X336175D01*
X336842Y250665D01*
Y249332D01*
X336175Y248666D01*
X335509D01*
X334842Y249332D01*
X334176Y248666D01*
X333510D01*
X334842Y249332D02*
Y250665D01*
X345842Y263668D02*
X341843D01*
Y265668D01*
X342510Y266334D01*
X343843D01*
X344509Y265668D01*
Y263668D01*
Y265001D02*
X345842Y266334D01*
Y270333D02*
Y267667D01*
X343176Y270333D01*
X342510D01*
X341843Y269666D01*
Y268334D01*
X342510Y267667D01*
X341843Y271666D02*
Y274332D01*
X342510D01*
X345175Y271666D01*
X345842D01*
X340342Y126668D02*
X336343D01*
Y128668D01*
X337010Y129334D01*
X338342D01*
X339009Y128668D01*
Y126668D01*
Y128001D02*
X340342Y129334D01*
Y133333D02*
Y130667D01*
X337676Y133333D01*
X337010D01*
X336343Y132667D01*
Y131333D01*
X337010Y130667D01*
X336343Y137332D02*
X337010Y135999D01*
X338342Y134666D01*
X339675D01*
X340342Y135332D01*
Y136665D01*
X339675Y137332D01*
X339009D01*
X338342Y136665D01*
Y134666D01*
X345842Y182168D02*
X341843D01*
Y184168D01*
X342510Y184834D01*
X343843D01*
X344509Y184168D01*
Y182168D01*
Y183501D02*
X345842Y184834D01*
Y188833D02*
Y186167D01*
X343176Y188833D01*
X342510D01*
X341843Y188166D01*
Y186834D01*
X342510Y186167D01*
X341843Y192832D02*
Y190166D01*
X343843D01*
X343176Y191499D01*
Y192165D01*
X343843Y192832D01*
X345175D01*
X345842Y192165D01*
Y190832D01*
X345175Y190166D01*
X282011Y240501D02*
Y244499D01*
X284010D01*
X284677Y243833D01*
Y242500D01*
X284010Y241834D01*
X282011D01*
X283344D02*
X284677Y240501D01*
X288675D02*
X286010D01*
X288675Y243166D01*
Y243833D01*
X288009Y244499D01*
X286676D01*
X286010Y243833D01*
X292008Y240501D02*
Y244499D01*
X290008Y242500D01*
X292674D01*
X294342Y125168D02*
X290343D01*
Y127168D01*
X291010Y127834D01*
X292342D01*
X293009Y127168D01*
Y125168D01*
Y126501D02*
X294342Y127834D01*
Y131833D02*
Y129167D01*
X291676Y131833D01*
X291010D01*
X290343Y131167D01*
Y129833D01*
X291010Y129167D01*
Y133166D02*
X290343Y133832D01*
Y135165D01*
X291010Y135832D01*
X291676D01*
X292342Y135165D01*
Y134499D01*
Y135165D01*
X293009Y135832D01*
X293675D01*
X294342Y135165D01*
Y133832D01*
X293675Y133166D01*
X291011Y283501D02*
Y287499D01*
X293010D01*
X293677Y286833D01*
Y285500D01*
X293010Y284834D01*
X291011D01*
X292344D02*
X293677Y283501D01*
X297675D02*
X295010D01*
X297675Y286166D01*
Y286833D01*
X297009Y287499D01*
X295676D01*
X295010Y286833D01*
X301674Y283501D02*
X299008D01*
X301674Y286166D01*
Y286833D01*
X301008Y287499D01*
X299675D01*
X299008Y286833D01*
X296177Y184001D02*
Y187999D01*
X298177D01*
X298843Y187333D01*
Y186000D01*
X298177Y185334D01*
X296177D01*
X297510D02*
X298843Y184001D01*
X302842D02*
X300176D01*
X302842Y186667D01*
Y187333D01*
X302175Y187999D01*
X300842D01*
X300176Y187333D01*
X304175Y184001D02*
X305508D01*
X304841D01*
Y187999D01*
X304175Y187333D01*
X286842Y125168D02*
X282843D01*
Y127168D01*
X283510Y127834D01*
X284842D01*
X285509Y127168D01*
Y125168D01*
Y126501D02*
X286842Y127834D01*
Y131833D02*
Y129167D01*
X284176Y131833D01*
X283510D01*
X282843Y131167D01*
Y129834D01*
X283510Y129167D01*
Y133166D02*
X282843Y133832D01*
Y135165D01*
X283510Y135832D01*
X286175D01*
X286842Y135165D01*
Y133832D01*
X286175Y133166D01*
X283510D01*
X268844Y234001D02*
Y237999D01*
X270844D01*
X271510Y237333D01*
Y236000D01*
X270844Y235334D01*
X268844D01*
X270177D02*
X271510Y234001D01*
X272843D02*
X274176D01*
X273509D01*
Y237999D01*
X272843Y237333D01*
X276175Y234667D02*
X276842Y234001D01*
X278174D01*
X278841Y234667D01*
Y237333D01*
X278174Y237999D01*
X276842D01*
X276175Y237333D01*
Y236666D01*
X276842Y236000D01*
X278841D01*
X283342Y271002D02*
X279343D01*
Y273001D01*
X280010Y273667D01*
X281343D01*
X282009Y273001D01*
Y271002D01*
Y272335D02*
X283342Y273667D01*
Y275000D02*
Y276333D01*
Y275667D01*
X279343D01*
X280010Y275000D01*
Y278333D02*
X279343Y278999D01*
Y280332D01*
X280010Y280998D01*
X280676D01*
X281343Y280332D01*
X282009Y280998D01*
X282675D01*
X283342Y280332D01*
Y278999D01*
X282675Y278333D01*
X282009D01*
X281343Y278999D01*
X280676Y278333D01*
X280010D01*
X281343Y278999D02*
Y280332D01*
X276342Y180502D02*
X272343D01*
Y182501D01*
X273010Y183167D01*
X274342D01*
X275009Y182501D01*
Y180502D01*
Y181834D02*
X276342Y183167D01*
Y184500D02*
Y185833D01*
Y185167D01*
X272343D01*
X273010Y184500D01*
X272343Y187833D02*
Y190498D01*
X273010D01*
X275675Y187833D01*
X276342D01*
X225342Y257502D02*
X221343D01*
Y259501D01*
X222010Y260167D01*
X223342D01*
X224009Y259501D01*
Y257502D01*
Y258835D02*
X225342Y260167D01*
Y261500D02*
Y262833D01*
Y262167D01*
X221343D01*
X222010Y261500D01*
X221343Y267498D02*
X222010Y266165D01*
X223342Y264833D01*
X224675D01*
X225342Y265499D01*
Y266832D01*
X224675Y267498D01*
X224009D01*
X223342Y266832D01*
Y264833D01*
X43842Y349002D02*
X39843D01*
Y351001D01*
X40510Y351667D01*
X41842D01*
X42509Y351001D01*
Y349002D01*
Y350335D02*
X43842Y351667D01*
Y353000D02*
Y354333D01*
Y353667D01*
X39843D01*
X40510Y353000D01*
X39843Y358998D02*
Y356333D01*
X41842D01*
X41176Y357665D01*
Y358332D01*
X41842Y358998D01*
X43175D01*
X43842Y358332D01*
Y356999D01*
X43175Y356333D01*
X68344Y334001D02*
Y337999D01*
X70344D01*
X71010Y337333D01*
Y336000D01*
X70344Y335334D01*
X68344D01*
X69677D02*
X71010Y334001D01*
X72343D02*
X73676D01*
X73009D01*
Y337999D01*
X72343Y337333D01*
X77675Y334001D02*
Y337999D01*
X75675Y336000D01*
X78341D01*
X67844Y272001D02*
Y275999D01*
X69844D01*
X70510Y275333D01*
Y274000D01*
X69844Y273334D01*
X67844D01*
X69177D02*
X70510Y272001D01*
X71843D02*
X73176D01*
X72509D01*
Y275999D01*
X71843Y275333D01*
X75175D02*
X75842Y275999D01*
X77175D01*
X77841Y275333D01*
Y274666D01*
X77175Y274000D01*
X76508D01*
X77175D01*
X77841Y273334D01*
Y272667D01*
X77175Y272001D01*
X75842D01*
X75175Y272667D01*
X44342Y249502D02*
X40343D01*
Y251501D01*
X41010Y252167D01*
X42342D01*
X43009Y251501D01*
Y249502D01*
Y250834D02*
X44342Y252167D01*
Y253500D02*
Y254833D01*
Y254167D01*
X40343D01*
X41010Y253500D01*
X44342Y259498D02*
Y256833D01*
X41676Y259498D01*
X41010D01*
X40343Y258832D01*
Y257499D01*
X41010Y256833D01*
X44999Y311668D02*
X41001D01*
Y313667D01*
X41667Y314334D01*
X43000D01*
X43666Y313667D01*
Y311668D01*
Y313001D02*
X44999Y314334D01*
Y315667D02*
Y317000D01*
Y316333D01*
X41001D01*
X41667Y315667D01*
X44999Y318999D02*
Y320332D01*
Y319666D01*
X41001D01*
X41667Y318999D01*
X73844Y285001D02*
Y288999D01*
X75844D01*
X76510Y288333D01*
Y287000D01*
X75844Y286334D01*
X73844D01*
X75177D02*
X76510Y285001D01*
X77843D02*
X79176D01*
X78509D01*
Y288999D01*
X77843Y288333D01*
X81175D02*
X81842Y288999D01*
X83175D01*
X83841Y288333D01*
Y285667D01*
X83175Y285001D01*
X81842D01*
X81175Y285667D01*
Y288333D01*
X66510Y222501D02*
Y226499D01*
X68510D01*
X69176Y225833D01*
Y224500D01*
X68510Y223834D01*
X66510D01*
X67843D02*
X69176Y222501D01*
X70509Y223167D02*
X71175Y222501D01*
X72508D01*
X73175Y223167D01*
Y225833D01*
X72508Y226499D01*
X71175D01*
X70509Y225833D01*
Y225166D01*
X71175Y224500D01*
X73175D01*
X50510Y194001D02*
Y197999D01*
X52510D01*
X53176Y197333D01*
Y196000D01*
X52510Y195334D01*
X50510D01*
X51843D02*
X53176Y194001D01*
X54509Y197333D02*
X55175Y197999D01*
X56508D01*
X57175Y197333D01*
Y196667D01*
X56508Y196000D01*
X57175Y195334D01*
Y194667D01*
X56508Y194001D01*
X55175D01*
X54509Y194667D01*
Y195334D01*
X55175Y196000D01*
X54509Y196667D01*
Y197333D01*
X55175Y196000D02*
X56508D01*
X137510Y346001D02*
Y349999D01*
X139510D01*
X140176Y349333D01*
Y348000D01*
X139510Y347334D01*
X137510D01*
X138843D02*
X140176Y346001D01*
X141509Y349999D02*
X144175D01*
Y349333D01*
X141509Y346667D01*
Y346001D01*
X205510Y291001D02*
Y294999D01*
X207510D01*
X208176Y294333D01*
Y293000D01*
X207510Y292334D01*
X205510D01*
X206843D02*
X208176Y291001D01*
X212175Y294999D02*
X210842Y294333D01*
X209509Y293000D01*
Y291667D01*
X210175Y291001D01*
X211508D01*
X212175Y291667D01*
Y292334D01*
X211508Y293000D01*
X209509D01*
X287342Y358668D02*
X283343D01*
Y360667D01*
X284010Y361334D01*
X285343D01*
X286009Y360667D01*
Y358668D01*
Y360001D02*
X287342Y361334D01*
X284010Y362667D02*
X283343Y363333D01*
Y364666D01*
X284010Y365332D01*
X284676D01*
X285343Y364666D01*
Y363999D01*
Y364666D01*
X286009Y365332D01*
X286675D01*
X287342Y364666D01*
Y363333D01*
X286675Y362667D01*
X220672Y362501D02*
Y366499D01*
X222671D01*
X223338Y365833D01*
Y364500D01*
X222671Y363834D01*
X220672D01*
X222005D02*
X223338Y362501D01*
X227336D02*
X224670D01*
X227336Y365166D01*
Y365833D01*
X226670Y366499D01*
X225337D01*
X224670Y365833D01*
X220677Y356501D02*
Y360499D01*
X222676D01*
X223342Y359833D01*
Y358500D01*
X222676Y357834D01*
X220677D01*
X222010D02*
X223342Y356501D01*
X224675D02*
X226008D01*
X225342D01*
Y360499D01*
X224675Y359833D01*
X243843Y267667D02*
Y270333D01*
X243176Y270999D01*
X241843D01*
X241177Y270333D01*
Y267667D01*
X241843Y267001D01*
X243176D01*
X242510Y268334D02*
X243843Y267001D01*
X243176D02*
X243843Y267667D01*
X245175Y267001D02*
X246508D01*
X245842D01*
Y270999D01*
X245175Y270333D01*
X343342Y314168D02*
X339343D01*
Y316167D01*
X340010Y316834D01*
X341342D01*
X342009Y316167D01*
Y314168D01*
X340010Y320832D02*
X339343Y320166D01*
Y318833D01*
X340010Y318166D01*
X340676D01*
X341342Y318833D01*
Y320166D01*
X342009Y320832D01*
X342675D01*
X343342Y320166D01*
Y318833D01*
X342675Y318166D01*
X338343Y344834D02*
Y343501D01*
Y344167D01*
X341675D01*
X342342Y343501D01*
Y342834D01*
X341675Y342168D01*
X338343Y346166D02*
Y348832D01*
X339010D01*
X341675Y346166D01*
X342342D01*
X344343Y76334D02*
Y75001D01*
Y75667D01*
X347675D01*
X348342Y75001D01*
Y74334D01*
X347675Y73668D01*
X344343Y80332D02*
X345010Y78999D01*
X346342Y77666D01*
X347675D01*
X348342Y78333D01*
Y79666D01*
X347675Y80332D01*
X347009D01*
X346342Y79666D01*
Y77666D01*
X343343Y200834D02*
Y199501D01*
Y200167D01*
X346675D01*
X347342Y199501D01*
Y198834D01*
X346675Y198168D01*
X343343Y204832D02*
Y202167D01*
X345342D01*
X344676Y203499D01*
Y204166D01*
X345342Y204832D01*
X346675D01*
X347342Y204166D01*
Y202833D01*
X346675Y202167D01*
X7676Y202999D02*
X6343D01*
X7010D01*
Y199667D01*
X6343Y199001D01*
X5677D01*
X5010Y199667D01*
X11008Y199001D02*
Y202999D01*
X9009Y201000D01*
X11675D01*
X49676Y47499D02*
X48343D01*
X49010D01*
Y44167D01*
X48343Y43501D01*
X47677D01*
X47010Y44167D01*
X51009Y46833D02*
X51675Y47499D01*
X53008D01*
X53675Y46833D01*
Y46166D01*
X53008Y45500D01*
X52342D01*
X53008D01*
X53675Y44834D01*
Y44167D01*
X53008Y43501D01*
X51675D01*
X51009Y44167D01*
X23676Y372499D02*
X22343D01*
X23010D01*
Y369167D01*
X22343Y368501D01*
X21677D01*
X21010Y369167D01*
X27675Y368501D02*
X25009D01*
X27675Y371166D01*
Y371833D01*
X27008Y372499D01*
X25675D01*
X25009Y371833D01*
X244000Y387999D02*
X242667D01*
X243334D01*
Y384667D01*
X242667Y384001D01*
X242001D01*
X241334Y384667D01*
X245333Y384001D02*
X246666D01*
X245999D01*
Y387999D01*
X245333Y387333D01*
X226177Y279999D02*
Y276001D01*
X228176D01*
X228842Y276667D01*
Y279333D01*
X228176Y279999D01*
X226177D01*
X230175Y276001D02*
X231508D01*
X230842D01*
Y279999D01*
X230175Y279333D01*
X307510Y288334D02*
X306843Y287668D01*
Y286335D01*
X307510Y285668D01*
X310175D01*
X310842Y286335D01*
Y287668D01*
X310175Y288334D01*
X310842Y292333D02*
Y289667D01*
X308176Y292333D01*
X307510D01*
X306843Y291667D01*
Y290334D01*
X307510Y289667D01*
Y293666D02*
X306843Y294332D01*
Y295665D01*
X307510Y296332D01*
X308176D01*
X308842Y295665D01*
X309509Y296332D01*
X310175D01*
X310842Y295665D01*
Y294332D01*
X310175Y293666D01*
X309509D01*
X308842Y294332D01*
X308176Y293666D01*
X307510D01*
X308842Y294332D02*
Y295665D01*
X229677Y384833D02*
X229010Y385499D01*
X227677D01*
X227011Y384833D01*
Y382167D01*
X227677Y381501D01*
X229010D01*
X229677Y382167D01*
X233675Y381501D02*
X231010D01*
X233675Y384166D01*
Y384833D01*
X233009Y385499D01*
X231676D01*
X231010Y384833D01*
X235008Y385499D02*
X237674D01*
Y384833D01*
X235008Y382167D01*
Y381501D01*
X264677Y292833D02*
X264010Y293499D01*
X262677D01*
X262011Y292833D01*
Y290167D01*
X262677Y289501D01*
X264010D01*
X264677Y290167D01*
X268675Y289501D02*
X266010D01*
X268675Y292166D01*
Y292833D01*
X268009Y293499D01*
X266676D01*
X266010Y292833D01*
X272674Y293499D02*
X271341Y292833D01*
X270008Y291500D01*
Y290167D01*
X270675Y289501D01*
X272008D01*
X272674Y290167D01*
Y290834D01*
X272008Y291500D01*
X270008D01*
X265177Y341333D02*
X264510Y341999D01*
X263177D01*
X262511Y341333D01*
Y338667D01*
X263177Y338001D01*
X264510D01*
X265177Y338667D01*
X269175Y338001D02*
X266510D01*
X269175Y340666D01*
Y341333D01*
X268509Y341999D01*
X267176D01*
X266510Y341333D01*
X273174Y341999D02*
X270508D01*
Y340000D01*
X271841Y340666D01*
X272508D01*
X273174Y340000D01*
Y338667D01*
X272508Y338001D01*
X271175D01*
X270508Y338667D01*
X276177Y224833D02*
X275510Y225499D01*
X274177D01*
X273511Y224833D01*
Y222167D01*
X274177Y221501D01*
X275510D01*
X276177Y222167D01*
X280175Y221501D02*
X277510D01*
X280175Y224166D01*
Y224833D01*
X279509Y225499D01*
X278176D01*
X277510Y224833D01*
X283508Y221501D02*
Y225499D01*
X281508Y223500D01*
X284174D01*
X276177Y216833D02*
X275510Y217499D01*
X274177D01*
X273511Y216833D01*
Y214167D01*
X274177Y213501D01*
X275510D01*
X276177Y214167D01*
X280175Y213501D02*
X277510D01*
X280175Y216166D01*
Y216833D01*
X279509Y217499D01*
X278176D01*
X277510Y216833D01*
X281508D02*
X282175Y217499D01*
X283508D01*
X284174Y216833D01*
Y216166D01*
X283508Y215500D01*
X282841D01*
X283508D01*
X284174Y214834D01*
Y214167D01*
X283508Y213501D01*
X282175D01*
X281508Y214167D01*
X306677Y193333D02*
X306010Y193999D01*
X304677D01*
X304011Y193333D01*
Y190667D01*
X304677Y190001D01*
X306010D01*
X306677Y190667D01*
X310675Y190001D02*
X308010D01*
X310675Y192666D01*
Y193333D01*
X310009Y193999D01*
X308676D01*
X308010Y193333D01*
X314674Y190001D02*
X312008D01*
X314674Y192666D01*
Y193333D01*
X314008Y193999D01*
X312675D01*
X312008Y193333D01*
X110510Y339333D02*
X109844Y339999D01*
X108511D01*
X107844Y339333D01*
Y336667D01*
X108511Y336001D01*
X109844D01*
X110510Y336667D01*
X111843Y336001D02*
X113176D01*
X112509D01*
Y339999D01*
X111843Y339333D01*
X115175Y336667D02*
X115842Y336001D01*
X117174D01*
X117841Y336667D01*
Y339333D01*
X117174Y339999D01*
X115842D01*
X115175Y339333D01*
Y338666D01*
X115842Y338000D01*
X117841D01*
X106510Y240167D02*
X105843Y239501D01*
Y238168D01*
X106510Y237502D01*
X109175D01*
X109842Y238168D01*
Y239501D01*
X109175Y240167D01*
X109842Y241500D02*
Y242833D01*
Y242167D01*
X105843D01*
X106510Y241500D01*
Y244833D02*
X105843Y245499D01*
Y246832D01*
X106510Y247498D01*
X107176D01*
X107843Y246832D01*
X108509Y247498D01*
X109175D01*
X109842Y246832D01*
Y245499D01*
X109175Y244833D01*
X108509D01*
X107843Y245499D01*
X107176Y244833D01*
X106510D01*
X107843Y245499D02*
Y246832D01*
X71010Y343333D02*
X70344Y343999D01*
X69011D01*
X68344Y343333D01*
Y340667D01*
X69011Y340001D01*
X70344D01*
X71010Y340667D01*
X72343Y340001D02*
X73676D01*
X73009D01*
Y343999D01*
X72343Y343333D01*
X75675Y343999D02*
X78341D01*
Y343333D01*
X75675Y340667D01*
Y340001D01*
X55896Y381833D02*
X55229Y382499D01*
X53896D01*
X53230Y381833D01*
Y379167D01*
X53896Y378501D01*
X55229D01*
X55896Y379167D01*
X57229Y378501D02*
X58562D01*
X57895D01*
Y382499D01*
X57229Y381833D01*
X63227Y382499D02*
X61894Y381833D01*
X60561Y380500D01*
Y379167D01*
X61227Y378501D01*
X62560D01*
X63227Y379167D01*
Y379834D01*
X62560Y380500D01*
X60561D01*
X69510Y281333D02*
X68844Y281999D01*
X67511D01*
X66844Y281333D01*
Y278667D01*
X67511Y278001D01*
X68844D01*
X69510Y278667D01*
X70843Y278001D02*
X72176D01*
X71509D01*
Y281999D01*
X70843Y281333D01*
X76841Y281999D02*
X74175D01*
Y280000D01*
X75508Y280666D01*
X76174D01*
X76841Y280000D01*
Y278667D01*
X76174Y278001D01*
X74842D01*
X74175Y278667D01*
X37510Y246833D02*
X36843Y247499D01*
X35511D01*
X34844Y246833D01*
Y244167D01*
X35511Y243501D01*
X36843D01*
X37510Y244167D01*
X38843Y243501D02*
X40176D01*
X39509D01*
Y247499D01*
X38843Y246833D01*
X44175Y243501D02*
Y247499D01*
X42175Y245500D01*
X44841D01*
X39010Y371833D02*
X38344Y372499D01*
X37011D01*
X36344Y371833D01*
Y369167D01*
X37011Y368501D01*
X38344D01*
X39010Y369167D01*
X40343Y368501D02*
X41676D01*
X41009D01*
Y372499D01*
X40343Y371833D01*
X43675D02*
X44342Y372499D01*
X45674D01*
X46341Y371833D01*
Y371166D01*
X45674Y370500D01*
X45008D01*
X45674D01*
X46341Y369834D01*
Y369167D01*
X45674Y368501D01*
X44342D01*
X43675Y369167D01*
X37510Y265333D02*
X36843Y265999D01*
X35511D01*
X34844Y265333D01*
Y262667D01*
X35511Y262001D01*
X36843D01*
X37510Y262667D01*
X38843Y262001D02*
X40176D01*
X39509D01*
Y265999D01*
X38843Y265333D01*
X44841Y262001D02*
X42175D01*
X44841Y264666D01*
Y265333D01*
X44175Y265999D01*
X42842D01*
X42175Y265333D01*
X100676Y287333D02*
X100010Y287999D01*
X98677D01*
X98010Y287333D01*
Y284667D01*
X98677Y284001D01*
X100010D01*
X100676Y284667D01*
X102009D02*
X102675Y284001D01*
X104008D01*
X104675Y284667D01*
Y287333D01*
X104008Y287999D01*
X102675D01*
X102009Y287333D01*
Y286666D01*
X102675Y286000D01*
X104675D01*
X106010Y195834D02*
X105343Y195167D01*
Y193834D01*
X106010Y193168D01*
X108675D01*
X109342Y193834D01*
Y195167D01*
X108675Y195834D01*
X106010Y197167D02*
X105343Y197833D01*
Y199166D01*
X106010Y199832D01*
X106676D01*
X107343Y199166D01*
X108009Y199832D01*
X108675D01*
X109342Y199166D01*
Y197833D01*
X108675Y197167D01*
X108009D01*
X107343Y197833D01*
X106676Y197167D01*
X106010D01*
X107343Y197833D02*
Y199166D01*
X69676Y326333D02*
X69010Y326999D01*
X67677D01*
X67010Y326333D01*
Y323667D01*
X67677Y323001D01*
X69010D01*
X69676Y323667D01*
X71009Y326999D02*
X73675D01*
Y326333D01*
X71009Y323667D01*
Y323001D01*
X69252Y298181D02*
X68662Y298771D01*
X67481D01*
X66891Y298181D01*
Y295819D01*
X67481Y295229D01*
X68662D01*
X69252Y295819D01*
X72794Y298771D02*
X71614Y298181D01*
X70433Y297000D01*
Y295819D01*
X71023Y295229D01*
X72204D01*
X72794Y295819D01*
Y296410D01*
X72204Y297000D01*
X70433D01*
X41176Y232333D02*
X40510Y232999D01*
X39177D01*
X38510Y232333D01*
Y229667D01*
X39177Y229001D01*
X40510D01*
X41176Y229667D01*
X45175Y232999D02*
X42509D01*
Y231000D01*
X43842Y231666D01*
X44508D01*
X45175Y231000D01*
Y229667D01*
X44508Y229001D01*
X43175D01*
X42509Y229667D01*
X59676Y188833D02*
X59010Y189499D01*
X57677D01*
X57010Y188833D01*
Y186167D01*
X57677Y185501D01*
X59010D01*
X59676Y186167D01*
X63008Y185501D02*
Y189499D01*
X61009Y187500D01*
X63675D01*
X41176Y307333D02*
X40510Y307999D01*
X39177D01*
X38510Y307333D01*
Y304667D01*
X39177Y304001D01*
X40510D01*
X41176Y304667D01*
X42509Y307333D02*
X43175Y307999D01*
X44508D01*
X45175Y307333D01*
Y306666D01*
X44508Y306000D01*
X43842D01*
X44508D01*
X45175Y305334D01*
Y304667D01*
X44508Y304001D01*
X43175D01*
X42509Y304667D01*
X41176Y213333D02*
X40510Y213999D01*
X39177D01*
X38510Y213333D01*
Y210667D01*
X39177Y210001D01*
X40510D01*
X41176Y210667D01*
X45175Y210001D02*
X42509D01*
X45175Y212666D01*
Y213333D01*
X44508Y213999D01*
X43175D01*
X42509Y213333D01*
D18*
X104532Y361713D02*
Y378287D01*
X111992Y381811D02*
X120693D01*
X128154Y361713D02*
Y378287D01*
X111992Y358189D02*
X120693D01*
X250342Y272550D02*
Y280450D01*
X255412D02*
X258273D01*
X263342Y272550D02*
Y280450D01*
X251767Y356650D02*
X268467D01*
X251767Y377350D02*
X268467D01*
X269942Y305354D02*
X277143D01*
X269942Y323346D02*
X277143D01*
X269942Y308654D02*
X277143D01*
X269942Y326646D02*
X277143D01*
D19*
X179938Y180866D02*
Y181793D01*
X180866Y182721D01*
X181794D01*
X182257Y182257D01*
Y181329D01*
X181794Y180866D01*
X182257Y181329D01*
X183185Y181329D01*
X183649Y180866D01*
Y179938D01*
X182721Y179010D01*
X181794D01*
X182257Y184112D02*
X184113Y182257D01*
X185968D01*
Y184112D01*
X184113Y185968D01*
X185504Y186431D02*
Y187359D01*
X186432Y188287D01*
X187360Y188287D01*
X187823Y187823D01*
Y186895D01*
X187360Y186431D01*
X187823Y186895D01*
X188751Y186895D01*
X189215Y186431D01*
X189215Y185504D01*
X188287Y184576D01*
X187360D01*
X191330Y183185D02*
X189474Y181329D01*
X190866Y179938D01*
X191330Y181329D01*
X191794Y181793D01*
X192721D01*
X193649Y180866D01*
Y179938D01*
X192721Y179010D01*
X191794D01*
X192257Y184112D02*
X194113Y182257D01*
X195968D01*
Y184112D01*
X194113Y185968D01*
X199475Y181329D02*
X202257Y178546D01*
X203649Y179938D01*
Y180866D01*
X201794Y182721D01*
X200866D01*
X199475Y181329D01*
X205041D02*
X203185Y183185D01*
X203185Y185040D01*
X205041Y185040D01*
X206896Y183185D01*
X205504Y184576D01*
X203649Y182721D01*
X205041Y186895D02*
X206896Y188751D01*
X205968Y187823D01*
X208751Y185040D01*
X210607Y186895D02*
X208751Y188751D01*
Y190606D01*
X210607D01*
X212462Y188751D01*
X211070Y190142D01*
X209215Y188287D01*
X211794Y182721D02*
X210866D01*
X209938Y181793D01*
Y180866D01*
X211794Y179010D01*
X212721D01*
X213649Y179938D01*
Y180866D01*
X212258Y184112D02*
X215040Y181329D01*
X216896Y183185D01*
X215040Y186895D02*
X217824Y184112D01*
X216896Y185040D01*
X216896Y188751D01*
X216896Y185968D01*
X219679D01*
X221794Y182721D02*
X220866D01*
X219938Y181793D01*
Y180866D01*
X221794Y179010D01*
X222721D01*
X223649Y179938D01*
Y180866D01*
X222721Y181793D01*
X221794Y180866D01*
X225041Y181329D02*
X222257Y184112D01*
X226896Y183185D01*
X224113Y185968D01*
X225041Y186895D02*
X227823Y184112D01*
X229215Y185504D01*
X229215Y186431D01*
X227360Y188287D01*
X226432Y188287D01*
X225041Y186895D01*
X123879Y183589D02*
X122951D01*
X122023Y182661D01*
Y181733D01*
X123879Y179878D01*
X124806D01*
X125734Y180806D01*
Y181733D01*
X124806Y182661D01*
X123879Y181733D01*
X127126Y182197D02*
X124343Y184980D01*
X128981Y184053D01*
X126198Y186836D01*
X127126Y187763D02*
X129909Y184980D01*
X131300Y186372D01*
X131300Y187299D01*
X129445Y189155D01*
X128517Y189155D01*
X127126Y187763D01*
X113879Y183589D02*
X112951D01*
X112023Y182661D01*
Y181733D01*
X113879Y179878D01*
X114806D01*
X115734Y180806D01*
Y181733D01*
X114342Y184980D02*
X117125Y182197D01*
X118981Y184053D01*
X117125Y187763D02*
X119908Y184980D01*
X118981Y185908D01*
X118981Y189619D01*
X118981Y186836D01*
X121764D01*
X101559Y182197D02*
X104342Y179414D01*
X105734Y180806D01*
Y181733D01*
X103879Y183589D01*
X102951D01*
X101559Y182197D01*
X107125D02*
X105270Y184053D01*
X105270Y185908D01*
X107125Y185908D01*
X108981Y184053D01*
X107589Y185444D01*
X105734Y183589D01*
X107125Y187763D02*
X108981Y189619D01*
X108053Y188691D01*
X110836Y185908D01*
X112691Y187763D02*
X110836Y189619D01*
Y191474D01*
X112691D01*
X114547Y189619D01*
X113155Y191010D01*
X111300Y189155D01*
X93415Y184053D02*
X91559Y182197D01*
X92951Y180806D01*
X93415Y182197D01*
X93879Y182661D01*
X94806D01*
X95734Y181733D01*
Y180806D01*
X94806Y179878D01*
X93879D01*
X94342Y184980D02*
X96198Y183125D01*
X98053D01*
Y184980D01*
X96198Y186836D01*
X82023Y181733D02*
Y182661D01*
X82951Y183589D01*
X83879D01*
X84342Y183125D01*
Y182197D01*
X83879Y181733D01*
X84342Y182197D01*
X85270Y182197D01*
X85734Y181733D01*
Y180806D01*
X84806Y179878D01*
X83879D01*
X84342Y184980D02*
X86198Y183125D01*
X88053D01*
Y184980D01*
X86198Y186836D01*
X87589Y187299D02*
Y188227D01*
X88517Y189155D01*
X89445Y189155D01*
X89908Y188691D01*
Y187763D01*
X89445Y187299D01*
X89908Y187763D01*
X90836Y187763D01*
X91300Y187299D01*
X91300Y186372D01*
X90372Y185444D01*
X89445D01*
X295568Y12344D02*
X298192D01*
X296880Y13656D02*
Y11033D01*
X271192Y14312D02*
X270536Y14968D01*
X269224D01*
X268568Y14312D01*
Y11689D01*
X269224Y11033D01*
X270536D01*
X271192Y11689D01*
Y13001D01*
X269880D01*
X272504Y11033D02*
Y14968D01*
X275128Y11033D01*
Y14968D01*
X276440D02*
Y11033D01*
X278408D01*
X279064Y11689D01*
Y14312D01*
X278408Y14968D01*
X276440D01*
X15342Y71998D02*
X16342Y72997D01*
X18342D01*
X19341Y71998D01*
Y70998D01*
X18342Y69998D01*
X17342D01*
X18342D01*
X19341Y68999D01*
Y67999D01*
X18342Y66999D01*
X16342D01*
X15342Y67999D01*
X25339Y72997D02*
X21341D01*
Y69998D01*
X23340Y70998D01*
X24340D01*
X25339Y69998D01*
Y67999D01*
X24340Y66999D01*
X22340D01*
X21341Y67999D01*
X27339Y71998D02*
X28338Y72997D01*
X30338D01*
X31337Y71998D01*
Y67999D01*
X30338Y66999D01*
X28338D01*
X27339Y67999D01*
Y71998D01*
X39335Y72997D02*
Y66999D01*
Y68999D01*
X43334Y72997D01*
X40334Y69998D01*
X43334Y66999D01*
X47332Y65000D02*
X48332D01*
X49332Y66000D01*
Y70998D01*
X46332D01*
X45333Y69998D01*
Y67999D01*
X46332Y66999D01*
X49332D01*
X186341Y34497D02*
X182343D01*
Y31498D01*
X184342Y32498D01*
X185342D01*
X186341Y31498D01*
Y29499D01*
X185342Y28499D01*
X183342D01*
X182343Y29499D01*
X188341Y33498D02*
X189340Y34497D01*
X191340D01*
X192339Y33498D01*
Y29499D01*
X191340Y28499D01*
X189340D01*
X188341Y29499D01*
Y33498D01*
X200337Y34497D02*
Y28499D01*
Y30499D01*
X204335Y34497D01*
X201336Y31498D01*
X204335Y28499D01*
X208334Y26500D02*
X209334D01*
X210333Y27500D01*
Y32498D01*
X207334D01*
X206335Y31498D01*
Y29499D01*
X207334Y28499D01*
X210333D01*
X329719Y383720D02*
X330375Y383064D01*
X331687D01*
X332343Y383720D01*
Y386344D01*
X331687Y387000D01*
X330375D01*
X329719Y386344D01*
Y385032D01*
X331031D01*
X328407Y387000D02*
Y383064D01*
X325783Y387000D01*
Y383064D01*
X324471D02*
Y387000D01*
X322503D01*
X321847Y386344D01*
Y383720D01*
X322503Y383064D01*
X324471D01*
X309842Y387500D02*
X308531D01*
X309187D01*
Y383564D01*
X309842Y384220D01*
X303939Y387500D02*
X306563D01*
X303939Y384876D01*
Y384220D01*
X304595Y383564D01*
X305907D01*
X306563Y384220D01*
X302627Y383564D02*
Y386188D01*
X301315Y387500D01*
X300003Y386188D01*
Y383564D01*
X104342Y14936D02*
Y11000D01*
X105654Y12312D01*
X106966Y11000D01*
Y14936D01*
X108278D02*
Y11000D01*
Y12968D01*
X110902D01*
Y14936D01*
Y11000D01*
X112214Y14936D02*
X114838D01*
X113526D01*
Y11000D01*
X118774Y14936D02*
X116150D01*
Y11000D01*
X118774D01*
X116150Y12968D02*
X117462D01*
X82342Y14936D02*
Y11000D01*
X84310D01*
X84966Y11656D01*
Y12312D01*
X84310Y12968D01*
X82342D01*
X84310D01*
X84966Y13624D01*
Y14280D01*
X84310Y14936D01*
X82342D01*
X86278D02*
Y11000D01*
X88902D01*
X92838Y14280D02*
X92182Y14936D01*
X90870D01*
X90214Y14280D01*
Y11656D01*
X90870Y11000D01*
X92182D01*
X92838Y11656D01*
X94150Y14936D02*
Y11000D01*
Y12312D01*
X96774Y14936D01*
X94806Y12968D01*
X96774Y11000D01*
X63842D02*
Y14936D01*
X65810D01*
X66466Y14280D01*
Y12968D01*
X65810Y12312D01*
X63842D01*
X65154D02*
X66466Y11000D01*
X70402Y14936D02*
X67778D01*
Y11000D01*
X70402D01*
X67778Y12968D02*
X69090D01*
X71714Y14936D02*
Y11000D01*
X73682D01*
X74338Y11656D01*
Y14280D01*
X73682Y14936D01*
X71714D01*
X125966Y13780D02*
X125310Y14436D01*
X123998D01*
X123343Y13780D01*
Y11156D01*
X123998Y10500D01*
X125310D01*
X125966Y11156D01*
Y12468D01*
X124654D01*
X127278Y10500D02*
Y14436D01*
X129246D01*
X129902Y13780D01*
Y12468D01*
X129246Y11812D01*
X127278D01*
X128590D02*
X129902Y10500D01*
X131214D02*
Y14436D01*
X133838Y10500D01*
Y14436D01*
X142342Y14936D02*
Y14280D01*
X143654Y12968D01*
X144966Y14280D01*
Y14936D01*
X143654Y12968D02*
Y11000D01*
X146278Y14936D02*
Y11000D01*
X148902D01*
X150214Y14936D02*
Y11000D01*
X151526Y12312D01*
X152838Y11000D01*
Y14936D01*
X10778Y113500D02*
X10122D01*
X8810Y112188D01*
X10122Y110876D01*
X10778D01*
X8810Y112188D02*
X6842D01*
X10778Y109564D02*
X6842D01*
Y106940D01*
X10778Y105629D02*
X6842D01*
X8154Y104317D01*
X6842Y103005D01*
X10778D01*
X9622Y129876D02*
X10278Y130532D01*
Y131844D01*
X9622Y132500D01*
X6999D01*
X6342Y131844D01*
Y130532D01*
X6999Y129876D01*
X8310D01*
Y131188D01*
X6342Y128564D02*
X10278D01*
Y126596D01*
X9622Y125940D01*
X8310D01*
X7654Y126596D01*
Y128564D01*
Y127252D02*
X6342Y125940D01*
Y124628D02*
X10278D01*
X6342Y122005D01*
X10278D01*
X6842Y192000D02*
X10778D01*
Y190032D01*
X10122Y189376D01*
X8810D01*
X8154Y190032D01*
Y192000D01*
Y190688D02*
X6842Y189376D01*
X10778Y185440D02*
Y188064D01*
X6842D01*
Y185440D01*
X8810Y188064D02*
Y186752D01*
X10778Y184128D02*
X6842D01*
Y182161D01*
X7498Y181505D01*
X10122D01*
X10778Y182161D01*
Y184128D01*
Y173500D02*
X6842D01*
Y171532D01*
X7498Y170876D01*
X8154D01*
X8810Y171532D01*
Y173500D01*
Y171532D01*
X9466Y170876D01*
X10122D01*
X10778Y171532D01*
Y173500D01*
Y169564D02*
X6842D01*
Y166940D01*
X10122Y163005D02*
X10778Y163661D01*
Y164973D01*
X10122Y165629D01*
X7498D01*
X6842Y164973D01*
Y163661D01*
X7498Y163005D01*
X10778Y161693D02*
X6842D01*
X8154D01*
X10778Y159069D01*
X8810Y161037D01*
X6842Y159069D01*
X10778Y151500D02*
X6842D01*
X8154Y150188D01*
X6842Y148876D01*
X10778D01*
Y147564D02*
X6842D01*
X8810D01*
Y144940D01*
X10778D01*
X6842D01*
X10778Y143629D02*
Y141005D01*
Y142317D01*
X6842D01*
X10778Y137069D02*
Y139693D01*
X6842D01*
Y137069D01*
X8810Y139693D02*
Y138381D01*
X11278Y321000D02*
Y318376D01*
Y319688D01*
X7343D01*
Y314440D02*
Y317064D01*
X9966Y314440D01*
X10622D01*
X11278Y315096D01*
Y316408D01*
X10622Y317064D01*
X9310Y313128D02*
Y310505D01*
X11278Y301500D02*
Y298876D01*
Y300188D01*
X7343D01*
Y294940D02*
Y297564D01*
X9966Y294940D01*
X10622D01*
X11278Y295596D01*
Y296908D01*
X10622Y297564D01*
X9310Y293629D02*
Y291005D01*
X10622Y292317D02*
X7999D01*
X385251Y133500D02*
X389187D01*
Y136124D01*
X385907Y140060D02*
X385251Y139404D01*
Y138092D01*
X385907Y137436D01*
X388531D01*
X389187Y138092D01*
Y139404D01*
X388531Y140060D01*
X389843Y141372D02*
Y143995D01*
X385251Y147931D02*
Y145307D01*
X387219D01*
X386563Y146619D01*
Y147275D01*
X387219Y147931D01*
X388531D01*
X389187Y147275D01*
Y145963D01*
X388531Y145307D01*
X385907Y149243D02*
X385251Y149899D01*
Y151211D01*
X385907Y151867D01*
X388531D01*
X389187Y151211D01*
Y149899D01*
X388531Y149243D01*
X385907D01*
X384751Y170000D02*
X388687D01*
Y172624D01*
X385407Y176560D02*
X384751Y175904D01*
Y174592D01*
X385407Y173936D01*
X388031D01*
X388687Y174592D01*
Y175904D01*
X388031Y176560D01*
X389342Y177872D02*
Y180495D01*
X385407Y181807D02*
X384751Y182463D01*
Y183775D01*
X385407Y184431D01*
X386063D01*
X386719Y183775D01*
Y183119D01*
Y183775D01*
X387375Y184431D01*
X388031D01*
X388687Y183775D01*
Y182463D01*
X388031Y181807D01*
X384751Y188367D02*
Y185743D01*
X386719D01*
X386063Y187055D01*
Y187711D01*
X386719Y188367D01*
X388031D01*
X388687Y187711D01*
Y186399D01*
X388031Y185743D01*
X385407Y189679D02*
X384751Y190335D01*
Y191647D01*
X385407Y192303D01*
X388031D01*
X388687Y191647D01*
Y190335D01*
X388031Y189679D01*
X385407D01*
X384907Y203500D02*
Y206124D01*
Y204812D01*
X388843D01*
X385563Y207436D02*
X384907Y208092D01*
Y209404D01*
X385563Y210060D01*
X388187D01*
X388843Y209404D01*
Y208092D01*
X388187Y207436D01*
X385563D01*
X384907Y245500D02*
Y248124D01*
Y246812D01*
X388843D01*
Y249436D02*
Y250748D01*
Y250092D01*
X384907D01*
X385563Y249436D01*
X384907Y284000D02*
Y286624D01*
Y285312D01*
X388843D01*
Y290560D02*
Y287936D01*
X386219Y290560D01*
X385563D01*
X384907Y289904D01*
Y288592D01*
X385563Y287936D01*
X384907Y324500D02*
Y327124D01*
Y325812D01*
X388843D01*
X385563Y328436D02*
X384907Y329092D01*
Y330404D01*
X385563Y331060D01*
X386219D01*
X386875Y330404D01*
Y329748D01*
Y330404D01*
X387531Y331060D01*
X388187D01*
X388843Y330404D01*
Y329092D01*
X388187Y328436D01*
X11278Y241000D02*
Y238376D01*
Y239688D01*
X7343D01*
X10622Y237064D02*
X11278Y236408D01*
Y235096D01*
X10622Y234440D01*
X7999D01*
X7343Y235096D01*
Y236408D01*
X7999Y237064D01*
X10622D01*
X9310Y233128D02*
Y230505D01*
X11278Y220000D02*
Y217376D01*
Y218688D01*
X7343D01*
X10622Y216064D02*
X11278Y215408D01*
Y214096D01*
X10622Y213440D01*
X7999D01*
X7343Y214096D01*
Y215408D01*
X7999Y216064D01*
X10622D01*
X9310Y212128D02*
Y209505D01*
X10622Y210817D02*
X7999D01*
X11278Y281500D02*
Y278876D01*
Y280188D01*
X7343D01*
Y277564D02*
Y276252D01*
Y276908D01*
X11278D01*
X10622Y277564D01*
X9310Y274285D02*
Y271661D01*
X11278Y262000D02*
Y259376D01*
Y260688D01*
X7343D01*
Y258064D02*
Y256752D01*
Y257408D01*
X11278D01*
X10622Y258064D01*
X9310Y254784D02*
Y252161D01*
X10622Y253473D02*
X7999D01*
X11278Y342000D02*
Y339376D01*
Y340688D01*
X7343D01*
X10622Y338064D02*
X11278Y337408D01*
Y336096D01*
X10622Y335440D01*
X9966D01*
X9310Y336096D01*
Y336752D01*
Y336096D01*
X8654Y335440D01*
X7999D01*
X7343Y336096D01*
Y337408D01*
X7999Y338064D01*
X9310Y334128D02*
Y331505D01*
X10622Y332817D02*
X7999D01*
X11278Y360000D02*
Y357376D01*
Y358688D01*
X7343D01*
X10622Y356064D02*
X11278Y355408D01*
Y354096D01*
X10622Y353440D01*
X9966D01*
X9310Y354096D01*
Y354752D01*
Y354096D01*
X8654Y353440D01*
X7999D01*
X7343Y354096D01*
Y355408D01*
X7999Y356064D01*
X9310Y352129D02*
Y349505D01*
M02*
