G04*
G04 #@! TF.GenerationSoftware,Altium Limited,Altium Designer,20.1.14 (287)*
G04*
G04 Layer_Physical_Order=4*
G04 Layer_Color=16711680*
%FSLAX25Y25*%
%MOIN*%
G70*
G04*
G04 #@! TF.SameCoordinates,4B9CFB74-A459-40F6-BE70-09C03D0B2D60*
G04*
G04*
G04 #@! TF.FilePolarity,Positive*
G04*
G01*
G75*
%ADD19C,0.01000*%
%ADD44C,0.07087*%
%ADD57C,0.02000*%
%ADD62R,0.06260X0.07165*%
%ADD70R,0.07165X0.06260*%
%ADD82C,0.06693*%
%ADD83R,0.06378X0.06378*%
%ADD84R,0.09449X0.09449*%
%ADD85C,0.09449*%
%ADD86R,0.09449X0.09449*%
%ADD87C,0.07400*%
%ADD88R,0.07087X0.07087*%
%ADD89R,0.07087X0.07087*%
%ADD90C,0.06000*%
%ADD91C,0.02362*%
%ADD92C,0.03543*%
%ADD93C,0.05000*%
%ADD112R,0.06811X0.05000*%
%ADD113R,0.05433X0.03819*%
%ADD114R,0.09055X0.18110*%
%ADD115R,0.04528X0.04528*%
%ADD116R,0.06811X0.04842*%
%ADD117C,0.07874*%
G36*
X391679Y1321D02*
X1321D01*
X1321Y177500D01*
X17813D01*
Y76000D01*
X17930Y75415D01*
X18261Y74919D01*
X33261Y59919D01*
X33757Y59587D01*
X34343Y59471D01*
X79889D01*
X80237Y58630D01*
X80990Y57648D01*
X81972Y56895D01*
X83116Y56421D01*
X84342Y56259D01*
X85570Y56421D01*
X86713Y56895D01*
X87695Y57648D01*
X88448Y58630D01*
X88922Y59773D01*
X89083Y61000D01*
X88922Y62227D01*
X88448Y63370D01*
X87695Y64352D01*
X86713Y65105D01*
X85570Y65579D01*
X84342Y65741D01*
X83116Y65579D01*
X81972Y65105D01*
X80990Y64352D01*
X80237Y63370D01*
X79889Y62529D01*
X34976D01*
X20872Y76634D01*
Y77623D01*
X20935Y77671D01*
X21372Y77808D01*
X29649Y69531D01*
X30145Y69199D01*
X30730Y69083D01*
X84097D01*
X90112Y63068D01*
X89763Y62227D01*
X89602Y61000D01*
X89763Y59773D01*
X90237Y58630D01*
X90990Y57648D01*
X91972Y56895D01*
X93116Y56421D01*
X94342Y56259D01*
X95569Y56421D01*
X96713Y56895D01*
X97695Y57648D01*
X97791Y57774D01*
X98392Y57735D01*
X101195Y54931D01*
X101691Y54600D01*
X102277Y54483D01*
X109355D01*
X109940Y54600D01*
X110437Y54931D01*
X112275Y56769D01*
X113116Y56421D01*
X114342Y56259D01*
X115569Y56421D01*
X116713Y56895D01*
X117695Y57648D01*
X118448Y58630D01*
X118922Y59773D01*
X119083Y61000D01*
X118922Y62227D01*
X118448Y63370D01*
X117695Y64352D01*
X116713Y65105D01*
X115569Y65579D01*
X114342Y65741D01*
X113116Y65579D01*
X111972Y65105D01*
X110990Y64352D01*
X110237Y63370D01*
X109764Y62227D01*
X109602Y61000D01*
X109764Y59773D01*
X110112Y58932D01*
X108722Y57542D01*
X108244D01*
X107997Y58042D01*
X108448Y58630D01*
X108922Y59773D01*
X109083Y61000D01*
X108922Y62227D01*
X108448Y63370D01*
X107695Y64352D01*
X106713Y65105D01*
X105872Y65454D01*
Y128500D01*
X105755Y129085D01*
X105424Y129581D01*
X87424Y147581D01*
X86928Y147913D01*
X86343Y148029D01*
X36905D01*
X36343Y149387D01*
X35425Y150583D01*
X34229Y151500D01*
X32837Y152077D01*
X31343Y152274D01*
X29848Y152077D01*
X28456Y151500D01*
X27260Y150583D01*
X26342Y149387D01*
X25765Y147994D01*
X25569Y146500D01*
X25765Y145006D01*
X26342Y143613D01*
X27260Y142417D01*
X28456Y141500D01*
X29848Y140923D01*
X31343Y140726D01*
X32837Y140923D01*
X34229Y141500D01*
X35425Y142417D01*
X36343Y143613D01*
X36905Y144971D01*
X85709D01*
X102813Y127866D01*
Y65454D01*
X101972Y65105D01*
X101359Y64635D01*
X100859Y64882D01*
Y114513D01*
X100743Y115098D01*
X100411Y115594D01*
X89209Y126796D01*
X88713Y127128D01*
X88128Y127244D01*
X37018D01*
X36920Y127994D01*
X36343Y129387D01*
X35425Y130583D01*
X34229Y131500D01*
X32837Y132077D01*
X31343Y132274D01*
X29848Y132077D01*
X28456Y131500D01*
X27260Y130583D01*
X26342Y129387D01*
X25765Y127994D01*
X25569Y126500D01*
X25765Y125006D01*
X26342Y123613D01*
X27260Y122417D01*
X28456Y121500D01*
X29848Y120923D01*
X31343Y120726D01*
X32837Y120923D01*
X34229Y121500D01*
X35425Y122417D01*
X36343Y123613D01*
X36580Y124185D01*
X87494D01*
X97800Y113879D01*
Y64901D01*
X97300Y64654D01*
X96713Y65105D01*
X95569Y65579D01*
X94342Y65741D01*
X93116Y65579D01*
X92275Y65231D01*
X85812Y71694D01*
X85316Y72025D01*
X84730Y72142D01*
X31364D01*
X23872Y79633D01*
Y162866D01*
X25519Y164514D01*
X26010Y164416D01*
X26342Y163613D01*
X27260Y162417D01*
X28456Y161500D01*
X29848Y160923D01*
X31343Y160726D01*
X32837Y160923D01*
X34229Y161500D01*
X35425Y162417D01*
X36343Y163613D01*
X36920Y165006D01*
X37116Y166500D01*
X36920Y167994D01*
X36343Y169387D01*
X35425Y170583D01*
X34229Y171500D01*
X32837Y172077D01*
X31343Y172274D01*
X29848Y172077D01*
X28456Y171500D01*
X27260Y170583D01*
X26342Y169387D01*
X25780Y168029D01*
X25343D01*
X24757Y167913D01*
X24261Y167581D01*
X21372Y164692D01*
X20935Y164829D01*
X20872Y164877D01*
Y177500D01*
X77500D01*
X81000Y181000D01*
Y211417D01*
X81823D01*
Y212742D01*
X81912Y212811D01*
X82589Y212699D01*
X82770Y212427D01*
X83491Y211945D01*
X84342Y211776D01*
X84715Y211850D01*
X85140Y211425D01*
X85119Y211319D01*
X85288Y210468D01*
X85770Y209747D01*
X86074Y209543D01*
X86331Y208697D01*
X86964Y207512D01*
X87816Y206474D01*
X88855Y205622D01*
X90039Y204989D01*
X91325Y204599D01*
X92661Y204467D01*
Y204471D01*
X101342D01*
Y204451D01*
X101441Y204471D01*
X103244D01*
X103342Y204451D01*
Y204471D01*
X111252D01*
X111567Y203971D01*
X111438Y203319D01*
X111607Y202468D01*
X112089Y201746D01*
X112811Y201264D01*
X113662Y201095D01*
X114513Y201264D01*
X115234Y201746D01*
X115716Y202468D01*
X115885Y203319D01*
X115756Y203971D01*
X116071Y204471D01*
X129594D01*
X129608Y204364D01*
X130046Y203307D01*
X130743Y202399D01*
X131650Y201702D01*
X132708Y201264D01*
X133843Y201115D01*
X134977Y201264D01*
X136035Y201702D01*
X136943Y202399D01*
X137639Y203307D01*
X138077Y204364D01*
X138226Y205499D01*
X138077Y206633D01*
X137639Y207691D01*
X136943Y208598D01*
X136035Y209295D01*
X134977Y209733D01*
X133843Y209883D01*
X132708Y209733D01*
X131650Y209295D01*
X130743Y208598D01*
X130046Y207691D01*
X129979Y207529D01*
X103872D01*
Y210395D01*
X103887Y210409D01*
X103887D01*
X103698Y211361D01*
X103487Y211676D01*
X103328Y212473D01*
X102846Y213194D01*
X102248Y213594D01*
X102122Y213720D01*
X102092Y214193D01*
X102397Y214649D01*
X102566Y215500D01*
X102397Y216351D01*
X101915Y217073D01*
X101193Y217555D01*
X100343Y217724D01*
X99492Y217555D01*
X98770Y217073D01*
X98288Y216351D01*
X98124Y215529D01*
X85944D01*
X85915Y215573D01*
X85194Y216055D01*
X84342Y216224D01*
X83491Y216055D01*
X82770Y215573D01*
X82589Y215301D01*
X81912Y215189D01*
X81823Y215258D01*
Y220583D01*
X81000D01*
Y234495D01*
X81343Y234776D01*
X82193Y234945D01*
X82915Y235427D01*
X82944Y235471D01*
X92563D01*
X92601Y235414D01*
X93322Y234932D01*
X94174Y234763D01*
X95025Y234932D01*
X95746Y235414D01*
X95775Y235457D01*
X118829D01*
X119414Y235573D01*
X119910Y235905D01*
X123924Y239919D01*
X124256Y240415D01*
X124313Y240704D01*
X124813Y240655D01*
Y217133D01*
X122209Y214529D01*
X117731D01*
X117693Y214555D01*
X116842Y214724D01*
X115991Y214555D01*
X115270Y214072D01*
X114788Y213351D01*
X114619Y212500D01*
X114788Y211649D01*
X115270Y210928D01*
X115991Y210445D01*
X116842Y210276D01*
X117693Y210445D01*
X118415Y210928D01*
X118778Y211471D01*
X122843D01*
X123428Y211587D01*
X123924Y211919D01*
X127424Y215419D01*
X127755Y215915D01*
X127872Y216500D01*
Y242367D01*
X129309Y243804D01*
X129873Y243724D01*
X130046Y243307D01*
X130743Y242399D01*
X131650Y241702D01*
X132708Y241264D01*
X133843Y241115D01*
X134977Y241264D01*
X136035Y241702D01*
X136943Y242399D01*
X137639Y243307D01*
X138077Y244364D01*
X138226Y245499D01*
X138077Y246633D01*
X137639Y247691D01*
X136943Y248599D01*
X136035Y249295D01*
X134977Y249733D01*
X133843Y249883D01*
X132708Y249733D01*
X131650Y249295D01*
X130743Y248599D01*
X130046Y247691D01*
X129771Y247028D01*
X128841D01*
X128256Y246912D01*
X127760Y246580D01*
X125261Y244081D01*
X124929Y243585D01*
X124872Y243296D01*
X124372Y243345D01*
Y250366D01*
X127975Y253969D01*
X129771D01*
X130046Y253307D01*
X130743Y252399D01*
X131650Y251702D01*
X132708Y251264D01*
X133843Y251115D01*
X134977Y251264D01*
X136035Y251702D01*
X136943Y252399D01*
X137639Y253307D01*
X138077Y254364D01*
X138226Y255499D01*
X138077Y256633D01*
X137639Y257691D01*
X136943Y258598D01*
X136035Y259295D01*
X134977Y259733D01*
X133843Y259883D01*
X132708Y259733D01*
X131650Y259295D01*
X130743Y258598D01*
X130046Y257691D01*
X129771Y257028D01*
X127341D01*
X126756Y256912D01*
X126260Y256580D01*
X121761Y252081D01*
X121430Y251585D01*
X121313Y251000D01*
Y241634D01*
X118195Y238516D01*
X95775D01*
X95746Y238559D01*
X95720Y238576D01*
X95625Y239241D01*
X95897Y239649D01*
X96066Y240500D01*
X95897Y241351D01*
X95415Y242073D01*
X94693Y242555D01*
X93843Y242724D01*
X92992Y242555D01*
X92270Y242073D01*
X92241Y242029D01*
X83444D01*
X83415Y242073D01*
X82693Y242555D01*
X81842Y242724D01*
X81387Y242633D01*
X81000Y242950D01*
Y278026D01*
X81462Y278218D01*
X82761Y276919D01*
X83257Y276587D01*
X83842Y276471D01*
X91741D01*
X91770Y276428D01*
X92492Y275945D01*
X93343Y275776D01*
X94194Y275945D01*
X94915Y276428D01*
X95397Y277149D01*
X95566Y278000D01*
X95397Y278851D01*
X94915Y279573D01*
X94194Y280055D01*
X93343Y280224D01*
X92492Y280055D01*
X91770Y279573D01*
X91741Y279529D01*
X84476D01*
X83056Y280949D01*
X83066Y281000D01*
X82897Y281851D01*
X82415Y282573D01*
X81694Y283055D01*
X81000Y283192D01*
Y334971D01*
X92241D01*
X92270Y334928D01*
X92992Y334445D01*
X93843Y334276D01*
X94693Y334445D01*
X95415Y334928D01*
X95897Y335649D01*
X96066Y336500D01*
X95897Y337351D01*
X95415Y338072D01*
X94693Y338555D01*
X93843Y338724D01*
X92992Y338555D01*
X92270Y338072D01*
X92241Y338029D01*
X81000D01*
Y391782D01*
X391679D01*
X391679Y1321D01*
D02*
G37*
G36*
X98680Y212451D02*
X98706Y212456D01*
X99131Y212031D01*
X99050Y211622D01*
X99219Y210771D01*
X99701Y210050D01*
X100423Y209567D01*
X100813Y209490D01*
Y207529D01*
X92661D01*
X92625Y207522D01*
X91677Y207647D01*
X90761Y208027D01*
X89973Y208631D01*
X89369Y209418D01*
X89112Y210041D01*
X89397Y210468D01*
X89566Y211319D01*
X89437Y211971D01*
X89752Y212471D01*
X98680D01*
X98680Y212451D01*
D02*
G37*
%LPC*%
G36*
X283500Y388689D02*
X279811D01*
Y385000D01*
X283500D01*
Y388689D01*
D02*
G37*
G36*
X241843Y384730D02*
Y382500D01*
X244072D01*
X244043Y382723D01*
X243763Y383398D01*
X243319Y383977D01*
X242740Y384421D01*
X242066Y384700D01*
X241843Y384730D01*
D02*
G37*
G36*
X240843D02*
X240619Y384700D01*
X239945Y384421D01*
X239366Y383977D01*
X238921Y383398D01*
X238642Y382723D01*
X238613Y382500D01*
X240843D01*
Y384730D01*
D02*
G37*
G36*
X244072Y381500D02*
X241843D01*
Y379270D01*
X242066Y379300D01*
X242740Y379579D01*
X243319Y380023D01*
X243763Y380602D01*
X244043Y381276D01*
X244072Y381500D01*
D02*
G37*
G36*
X240843D02*
X238613D01*
X238642Y381276D01*
X238921Y380602D01*
X239366Y380023D01*
X239945Y379579D01*
X240619Y379300D01*
X240843Y379270D01*
Y381500D01*
D02*
G37*
G36*
X125201Y387378D02*
X124015Y387222D01*
X122909Y386764D01*
X121960Y386035D01*
X121232Y385086D01*
X120774Y383981D01*
X120618Y382795D01*
X120774Y381609D01*
X121232Y380504D01*
X121960Y379555D01*
X122909Y378827D01*
X124015Y378369D01*
X125201Y378213D01*
X126387Y378369D01*
X127492Y378827D01*
X128441Y379555D01*
X129169Y380504D01*
X129627Y381609D01*
X129783Y382795D01*
X129627Y383981D01*
X129169Y385086D01*
X128441Y386035D01*
X127492Y386764D01*
X126387Y387222D01*
X125201Y387378D01*
D02*
G37*
G36*
X107484D02*
X106298Y387222D01*
X105193Y386764D01*
X104244Y386035D01*
X103516Y385086D01*
X103058Y383981D01*
X102902Y382795D01*
X103058Y381609D01*
X103516Y380504D01*
X104244Y379555D01*
X105193Y378827D01*
X106298Y378369D01*
X107484Y378213D01*
X108670Y378369D01*
X109776Y378827D01*
X110725Y379555D01*
X111453Y380504D01*
X111911Y381609D01*
X112067Y382795D01*
X111911Y383981D01*
X111453Y385086D01*
X110725Y386035D01*
X109776Y386764D01*
X108670Y387222D01*
X107484Y387378D01*
D02*
G37*
G36*
X288189Y388689D02*
X284500D01*
Y384500D01*
Y380311D01*
X286063D01*
Y377000D01*
X290193D01*
X294323D01*
Y381083D01*
X292073D01*
Y382299D01*
X291956Y382885D01*
X291625Y383381D01*
X289424Y385581D01*
X288928Y385913D01*
X288342Y386029D01*
X288189D01*
Y388689D01*
D02*
G37*
G36*
X380709Y388230D02*
X379201Y388082D01*
X377750Y387642D01*
X376414Y386927D01*
X375243Y385966D01*
X374281Y384795D01*
X373567Y383458D01*
X373127Y382008D01*
X372978Y380500D01*
X373127Y378992D01*
X373567Y377542D01*
X374281Y376205D01*
X375243Y375034D01*
X376414Y374073D01*
X377750Y373358D01*
X379201Y372918D01*
X380709Y372770D01*
X382217Y372918D01*
X383667Y373358D01*
X385003Y374073D01*
X386175Y375034D01*
X387136Y376205D01*
X387850Y377542D01*
X388290Y378992D01*
X388439Y380500D01*
X388290Y382008D01*
X387850Y383458D01*
X387136Y384795D01*
X386175Y385966D01*
X385003Y386927D01*
X383667Y387642D01*
X382217Y388082D01*
X380709Y388230D01*
D02*
G37*
G36*
X221843Y379530D02*
X220929Y379410D01*
X220077Y379057D01*
X219346Y378496D01*
X218785Y377765D01*
X218433Y376914D01*
X218312Y376000D01*
X218433Y375086D01*
X218785Y374235D01*
X219346Y373504D01*
X220077Y372943D01*
X220929Y372590D01*
X221843Y372470D01*
X222756Y372590D01*
X223608Y372943D01*
X224339Y373504D01*
X224900Y374235D01*
X225252Y375086D01*
X225373Y376000D01*
X225252Y376914D01*
X224900Y377765D01*
X224339Y378496D01*
X223608Y379057D01*
X222756Y379410D01*
X221843Y379530D01*
D02*
G37*
G36*
X294323Y376000D02*
X290693D01*
Y371917D01*
X294323D01*
Y376000D01*
D02*
G37*
G36*
X289693D02*
X286063D01*
Y371917D01*
X289693D01*
Y376000D01*
D02*
G37*
G36*
X274000Y388884D02*
X272865Y388735D01*
X271808Y388297D01*
X270900Y387600D01*
X270203Y386692D01*
X269765Y385635D01*
X269616Y384500D01*
X269765Y383365D01*
X270203Y382308D01*
X270900Y381400D01*
X271808Y380703D01*
X272865Y380265D01*
X274000Y380116D01*
X274362Y379798D01*
Y371917D01*
X275725D01*
X275895Y371417D01*
X275346Y370996D01*
X274785Y370265D01*
X274433Y369414D01*
X274312Y368500D01*
X274433Y367586D01*
X274785Y366735D01*
X275346Y366004D01*
X276077Y365443D01*
X276929Y365090D01*
X277842Y364970D01*
X278756Y365090D01*
X279608Y365443D01*
X280339Y366004D01*
X280900Y366735D01*
X281252Y367586D01*
X281373Y368500D01*
X281252Y369414D01*
X280900Y370265D01*
X280339Y370996D01*
X279790Y371417D01*
X279960Y371917D01*
X282622D01*
Y380311D01*
X283500D01*
Y384000D01*
X279811D01*
Y381083D01*
X277474D01*
X277240Y381583D01*
X277797Y382308D01*
X278235Y383365D01*
X278384Y384500D01*
X278235Y385635D01*
X277797Y386692D01*
X277100Y387600D01*
X276192Y388297D01*
X275135Y388735D01*
X274000Y388884D01*
D02*
G37*
G36*
X254000D02*
X252865Y388735D01*
X251808Y388297D01*
X250900Y387600D01*
X250203Y386692D01*
X249765Y385635D01*
X249616Y384500D01*
X249765Y383365D01*
X250203Y382308D01*
X250900Y381400D01*
X251808Y380703D01*
X252377Y380468D01*
X252626Y380071D01*
Y378561D01*
X251905Y378263D01*
X251247Y377757D01*
X250741Y377098D01*
X250424Y376331D01*
X250320Y375541D01*
X250313Y375508D01*
Y365500D01*
X250293D01*
X250488Y364525D01*
X251040Y363698D01*
X251867Y363145D01*
X252842Y362951D01*
Y362971D01*
X259209D01*
X261129Y361051D01*
X261119Y361000D01*
X261288Y360149D01*
X261770Y359427D01*
X262491Y358945D01*
X263342Y358776D01*
X264194Y358945D01*
X264915Y359427D01*
X265397Y360149D01*
X265566Y361000D01*
X265397Y361851D01*
X264915Y362573D01*
X264194Y363055D01*
X263342Y363224D01*
X263292Y363214D01*
X262707Y363799D01*
X262705Y363870D01*
X263197Y364142D01*
X263492Y363945D01*
X264342Y363776D01*
X265194Y363945D01*
X265915Y364427D01*
X266397Y365149D01*
X266566Y366000D01*
X266449Y366590D01*
X266793Y367091D01*
X268559D01*
Y372909D01*
X261126D01*
Y371368D01*
X260059D01*
Y372748D01*
X253372D01*
Y374252D01*
X260059D01*
Y380071D01*
X258529D01*
Y381474D01*
X258413Y382060D01*
X258081Y382556D01*
X257953Y382685D01*
X258235Y383365D01*
X258384Y384500D01*
X258235Y385635D01*
X257797Y386692D01*
X257100Y387600D01*
X256192Y388297D01*
X255135Y388735D01*
X254000Y388884D01*
D02*
G37*
G36*
X326842Y364708D02*
Y359500D01*
X332050D01*
X331920Y360494D01*
X331343Y361887D01*
X330425Y363083D01*
X329229Y364000D01*
X327837Y364577D01*
X326842Y364708D01*
D02*
G37*
G36*
X325842D02*
X324848Y364577D01*
X323456Y364000D01*
X322260Y363083D01*
X321342Y361887D01*
X320765Y360494D01*
X320635Y359500D01*
X325842D01*
Y364708D01*
D02*
G37*
G36*
X112028Y361748D02*
X107984D01*
Y357705D01*
X112028D01*
Y361748D01*
D02*
G37*
G36*
X106984D02*
X102941D01*
Y357705D01*
X106984D01*
Y361748D01*
D02*
G37*
G36*
X264000Y388884D02*
X262865Y388735D01*
X261808Y388297D01*
X260900Y387600D01*
X260203Y386692D01*
X259765Y385635D01*
X259616Y384500D01*
X259765Y383365D01*
X260203Y382308D01*
X260900Y381400D01*
X261770Y380732D01*
X261772Y380677D01*
X261461Y380232D01*
X261126D01*
Y374413D01*
X268559D01*
Y375971D01*
X269313D01*
Y362500D01*
X269304D01*
X269458Y361325D01*
X269912Y360231D01*
X270633Y359291D01*
X271573Y358569D01*
X272668Y358116D01*
X273843Y357961D01*
Y357971D01*
X274688D01*
X274785Y357735D01*
X275346Y357004D01*
X276077Y356443D01*
X276929Y356090D01*
X277842Y355970D01*
X278756Y356090D01*
X279608Y356443D01*
X280339Y357004D01*
X280900Y357735D01*
X281252Y358586D01*
X281373Y359500D01*
X281252Y360414D01*
X280900Y361265D01*
X280339Y361996D01*
X279608Y362557D01*
X278756Y362910D01*
X277842Y363030D01*
X276929Y362910D01*
X276077Y362557D01*
X275346Y361996D01*
X274785Y361265D01*
X274688Y361029D01*
X273843D01*
X273823Y361026D01*
X273277Y361134D01*
X272797Y361455D01*
X272477Y361934D01*
X272368Y362480D01*
X272372Y362500D01*
Y376914D01*
X272255Y377500D01*
X271924Y377996D01*
X271338Y378581D01*
X270842Y378913D01*
X270257Y379029D01*
X268559D01*
Y380232D01*
X266539D01*
X266228Y380677D01*
X266230Y380732D01*
X267100Y381400D01*
X267797Y382308D01*
X268235Y383365D01*
X268384Y384500D01*
X268235Y385635D01*
X267797Y386692D01*
X267100Y387600D01*
X266192Y388297D01*
X265135Y388735D01*
X264000Y388884D01*
D02*
G37*
G36*
X332050Y358500D02*
X326842D01*
Y353292D01*
X327837Y353423D01*
X329229Y354000D01*
X330425Y354917D01*
X331343Y356113D01*
X331920Y357506D01*
X332050Y358500D01*
D02*
G37*
G36*
X325842D02*
X320635D01*
X320765Y357506D01*
X321342Y356113D01*
X322260Y354917D01*
X323456Y354000D01*
X324848Y353423D01*
X325842Y353292D01*
Y358500D01*
D02*
G37*
G36*
X112028Y356705D02*
X107984D01*
Y352661D01*
X112028D01*
Y356705D01*
D02*
G37*
G36*
X106984D02*
X102941D01*
Y352661D01*
X106984D01*
Y356705D01*
D02*
G37*
G36*
X125201Y361787D02*
X124015Y361631D01*
X122909Y361173D01*
X121960Y360445D01*
X121232Y359496D01*
X120774Y358391D01*
X120618Y357205D01*
X120774Y356019D01*
X121232Y354913D01*
X121960Y353964D01*
X122909Y353236D01*
X124015Y352778D01*
X125201Y352622D01*
X126387Y352778D01*
X127492Y353236D01*
X128441Y353964D01*
X129169Y354913D01*
X129627Y356019D01*
X129783Y357205D01*
X129627Y358391D01*
X129169Y359496D01*
X128441Y360445D01*
X127492Y361173D01*
X126387Y361631D01*
X125201Y361787D01*
D02*
G37*
G36*
X366342Y353708D02*
Y348500D01*
X371550D01*
X371420Y349494D01*
X370843Y350887D01*
X369925Y352083D01*
X368729Y353000D01*
X367337Y353577D01*
X366342Y353708D01*
D02*
G37*
G36*
X365342D02*
X364348Y353577D01*
X362956Y353000D01*
X361760Y352083D01*
X360842Y350887D01*
X360265Y349494D01*
X360135Y348500D01*
X365342D01*
Y353708D01*
D02*
G37*
G36*
X141842Y350724D02*
X140991Y350555D01*
X140270Y350073D01*
X139788Y349351D01*
X139619Y348500D01*
X139788Y347649D01*
X140270Y346927D01*
X140991Y346445D01*
X141842Y346276D01*
X142693Y346445D01*
X143415Y346927D01*
X143897Y347649D01*
X144066Y348500D01*
X143897Y349351D01*
X143415Y350073D01*
X142693Y350555D01*
X141842Y350724D01*
D02*
G37*
G36*
X371550Y347500D02*
X366342D01*
Y342292D01*
X367337Y342423D01*
X368729Y343000D01*
X369925Y343917D01*
X370843Y345113D01*
X371420Y346506D01*
X371550Y347500D01*
D02*
G37*
G36*
X365342D02*
X360135D01*
X360265Y346506D01*
X360842Y345113D01*
X361760Y343917D01*
X362956Y343000D01*
X364348Y342423D01*
X365342Y342292D01*
Y347500D01*
D02*
G37*
G36*
X336906Y345555D02*
X325850D01*
Y336728D01*
X320591D01*
X320591Y336728D01*
X319303Y336559D01*
X318102Y336061D01*
X317070Y335270D01*
X317070Y335270D01*
X302821Y321021D01*
X302030Y319990D01*
X301533Y318789D01*
X301363Y317500D01*
X301363Y317500D01*
Y313000D01*
Y289039D01*
X262238D01*
X261740Y289421D01*
X261066Y289700D01*
X260343Y289796D01*
X259619Y289700D01*
X258945Y289421D01*
X258366Y288977D01*
X257922Y288398D01*
X257642Y287723D01*
X257547Y287000D01*
X257642Y286277D01*
X257922Y285602D01*
X258366Y285023D01*
X258945Y284579D01*
X259619Y284300D01*
X260343Y284204D01*
X261066Y284300D01*
X261740Y284579D01*
X262238Y284961D01*
X301363D01*
Y273000D01*
Y259613D01*
X301363Y259612D01*
X301363Y259612D01*
Y252325D01*
X301363Y252325D01*
X301533Y251036D01*
X302030Y249835D01*
X302821Y248804D01*
X302863Y248762D01*
Y246500D01*
X302863Y246500D01*
X302863Y246500D01*
Y167063D01*
X301971Y166171D01*
X301180Y165139D01*
X300682Y163938D01*
X300513Y162650D01*
X300513Y162650D01*
Y157000D01*
X300682Y155711D01*
X301180Y154510D01*
X301362Y154272D01*
Y152417D01*
X303655D01*
X304203Y152190D01*
X305492Y152020D01*
X306781Y152190D01*
X307330Y152417D01*
X309622D01*
Y154272D01*
X309805Y154510D01*
X310302Y155711D01*
X310472Y157000D01*
Y160587D01*
X311364Y161479D01*
X311364Y161479D01*
X312155Y162510D01*
X312512Y163371D01*
X312652Y163711D01*
X313127Y163610D01*
X313113Y163500D01*
X315342D01*
Y165730D01*
X315119Y165700D01*
X314445Y165421D01*
X313866Y164977D01*
X313422Y164398D01*
X313142Y163724D01*
X312667Y163825D01*
X312716Y164192D01*
X312822Y165000D01*
Y242520D01*
X317492D01*
X318781Y242690D01*
X319330Y242917D01*
X321622D01*
Y244772D01*
X321805Y245010D01*
X322302Y246211D01*
X322472Y247500D01*
X322302Y248789D01*
X321805Y249990D01*
X321622Y250228D01*
Y252083D01*
X319952D01*
X316214Y255820D01*
X316152Y256289D01*
X315655Y257490D01*
X314864Y258521D01*
X313832Y259313D01*
X313580Y259417D01*
X311322Y261675D01*
Y268020D01*
X331343D01*
X332631Y268190D01*
X333832Y268688D01*
X334864Y269479D01*
X335655Y270510D01*
X336152Y271711D01*
X336322Y273000D01*
X336152Y274289D01*
X335655Y275490D01*
X334864Y276521D01*
X333832Y277312D01*
X332631Y277810D01*
X331343Y277980D01*
X311322D01*
Y287000D01*
Y312495D01*
X311822Y312528D01*
X311916Y311814D01*
X312374Y310709D01*
X313102Y309760D01*
X314051Y309031D01*
X315157Y308574D01*
X315843Y308483D01*
Y313000D01*
Y317517D01*
X315157Y317426D01*
X314051Y316969D01*
X313102Y316240D01*
X312374Y315291D01*
X311916Y314186D01*
X311822Y313472D01*
X311322Y313505D01*
Y315437D01*
X322654Y326769D01*
X325850D01*
Y325445D01*
X336906D01*
Y345555D01*
D02*
G37*
G36*
X134343Y339817D02*
Y335999D01*
X138161D01*
X138077Y336633D01*
X137639Y337691D01*
X136943Y338598D01*
X136035Y339295D01*
X134977Y339733D01*
X134343Y339817D01*
D02*
G37*
G36*
X133343D02*
X132708Y339733D01*
X131650Y339295D01*
X130743Y338598D01*
X130046Y337691D01*
X129608Y336633D01*
X129524Y335999D01*
X133343D01*
Y339817D01*
D02*
G37*
G36*
X103842Y340224D02*
X102991Y340055D01*
X102270Y339573D01*
X101788Y338851D01*
X101619Y338000D01*
X101788Y337149D01*
X102270Y336427D01*
X102991Y335945D01*
X103842Y335776D01*
X104693Y335945D01*
X105415Y336427D01*
X105897Y337149D01*
X106066Y338000D01*
X105897Y338851D01*
X105415Y339573D01*
X104693Y340055D01*
X103842Y340224D01*
D02*
G37*
G36*
X257343Y336730D02*
Y334500D01*
X259572D01*
X259543Y334723D01*
X259263Y335398D01*
X258819Y335977D01*
X258240Y336421D01*
X257566Y336700D01*
X257343Y336730D01*
D02*
G37*
G36*
X256343D02*
X256119Y336700D01*
X255445Y336421D01*
X254866Y335977D01*
X254421Y335398D01*
X254142Y334723D01*
X254113Y334500D01*
X256343D01*
Y336730D01*
D02*
G37*
G36*
X259572Y333500D02*
X257343D01*
Y331270D01*
X257566Y331300D01*
X258240Y331579D01*
X258819Y332023D01*
X259263Y332602D01*
X259543Y333277D01*
X259572Y333500D01*
D02*
G37*
G36*
X256343D02*
X254113D01*
X254142Y333277D01*
X254421Y332602D01*
X254866Y332023D01*
X255445Y331579D01*
X256119Y331300D01*
X256343Y331270D01*
Y333500D01*
D02*
G37*
G36*
X138161Y334999D02*
X134343D01*
Y331181D01*
X134977Y331264D01*
X136035Y331702D01*
X136943Y332399D01*
X137639Y333307D01*
X138077Y334364D01*
X138161Y334999D01*
D02*
G37*
G36*
X133343D02*
X129524D01*
X129608Y334364D01*
X130046Y333307D01*
X130743Y332399D01*
X131650Y331702D01*
X132708Y331264D01*
X133343Y331181D01*
Y334999D01*
D02*
G37*
G36*
X193842Y339884D02*
X192708Y339735D01*
X191650Y339297D01*
X190743Y338600D01*
X190046Y337692D01*
X189608Y336635D01*
X189459Y335500D01*
X189608Y334365D01*
X190046Y333308D01*
X190743Y332400D01*
X191650Y331703D01*
X192708Y331265D01*
X193842Y331116D01*
X194977Y331265D01*
X196035Y331703D01*
X196942Y332400D01*
X197639Y333308D01*
X198077Y334365D01*
X198226Y335500D01*
X198077Y336635D01*
X197639Y337692D01*
X196942Y338600D01*
X196035Y339297D01*
X194977Y339735D01*
X193842Y339884D01*
D02*
G37*
G36*
X194343Y329818D02*
Y326000D01*
X198161D01*
X198077Y326635D01*
X197639Y327692D01*
X196942Y328600D01*
X196035Y329297D01*
X194977Y329735D01*
X194343Y329818D01*
D02*
G37*
G36*
X193342D02*
X192708Y329735D01*
X191650Y329297D01*
X190743Y328600D01*
X190046Y327692D01*
X189608Y326635D01*
X189524Y326000D01*
X193342D01*
Y329818D01*
D02*
G37*
G36*
X312067Y364724D02*
X300618D01*
Y353276D01*
X301363D01*
Y350126D01*
X296792Y345555D01*
X292780D01*
Y325445D01*
X303835D01*
Y338513D01*
X309864Y344542D01*
X309864Y344542D01*
X310655Y345573D01*
X311153Y346774D01*
X311322Y348063D01*
Y353276D01*
X312067D01*
Y364724D01*
D02*
G37*
G36*
X365843Y333774D02*
X364348Y333577D01*
X362956Y333000D01*
X361760Y332083D01*
X360842Y330887D01*
X360265Y329494D01*
X360069Y328000D01*
X360265Y326506D01*
X360842Y325113D01*
X361760Y323917D01*
X362956Y323000D01*
X364348Y322423D01*
X365843Y322226D01*
X367337Y322423D01*
X368729Y323000D01*
X369925Y323917D01*
X370843Y325113D01*
X371420Y326506D01*
X371616Y328000D01*
X371420Y329494D01*
X370843Y330887D01*
X369925Y332083D01*
X368729Y333000D01*
X367337Y333577D01*
X365843Y333774D01*
D02*
G37*
G36*
X198161Y325000D02*
X194343D01*
Y321182D01*
X194977Y321265D01*
X196035Y321703D01*
X196942Y322400D01*
X197639Y323308D01*
X198077Y324365D01*
X198161Y325000D01*
D02*
G37*
G36*
X193342D02*
X189524D01*
X189608Y324365D01*
X190046Y323308D01*
X190743Y322400D01*
X191650Y321703D01*
X192708Y321265D01*
X193342Y321182D01*
Y325000D01*
D02*
G37*
G36*
X133843Y329883D02*
X132708Y329733D01*
X131650Y329295D01*
X130743Y328598D01*
X130046Y327691D01*
X129608Y326633D01*
X129459Y325499D01*
X129608Y324364D01*
X130046Y323307D01*
X130743Y322399D01*
X131650Y321702D01*
X132708Y321264D01*
X133843Y321115D01*
X134977Y321264D01*
X136035Y321702D01*
X136943Y322399D01*
X137639Y323307D01*
X138077Y324364D01*
X138226Y325499D01*
X138077Y326633D01*
X137639Y327691D01*
X136943Y328598D01*
X136035Y329295D01*
X134977Y329733D01*
X133843Y329883D01*
D02*
G37*
G36*
X101342Y318124D02*
Y316500D01*
X102967D01*
X102897Y316851D01*
X102415Y317572D01*
X101693Y318055D01*
X101342Y318124D01*
D02*
G37*
G36*
X100343D02*
X99992Y318055D01*
X99270Y317572D01*
X98788Y316851D01*
X98718Y316500D01*
X100343D01*
Y318124D01*
D02*
G37*
G36*
X102967Y315500D02*
X101342D01*
Y313876D01*
X101693Y313945D01*
X102415Y314427D01*
X102897Y315149D01*
X102967Y315500D01*
D02*
G37*
G36*
X100343D02*
X98718D01*
X98788Y315149D01*
X99270Y314427D01*
X99992Y313945D01*
X100343Y313876D01*
Y315500D01*
D02*
G37*
G36*
X316843Y317517D02*
Y313500D01*
X320859D01*
X320769Y314186D01*
X320311Y315291D01*
X319583Y316240D01*
X318634Y316969D01*
X317529Y317426D01*
X316843Y317517D01*
D02*
G37*
G36*
X100842Y313224D02*
X99992Y313055D01*
X99322Y312607D01*
X99257Y312594D01*
X99160Y312529D01*
X85944D01*
X85915Y312573D01*
X85194Y313055D01*
X84342Y313224D01*
X83491Y313055D01*
X82770Y312573D01*
X82288Y311851D01*
X82119Y311000D01*
X82288Y310149D01*
X82770Y309427D01*
X83491Y308945D01*
X84342Y308776D01*
X84715Y308850D01*
X85140Y308425D01*
X85119Y308319D01*
X85288Y307468D01*
X85770Y306747D01*
X86492Y306264D01*
X87343Y306095D01*
X88194Y306264D01*
X88915Y306747D01*
X88944Y306790D01*
X102976D01*
X103491Y306445D01*
X104342Y306276D01*
X105193Y306445D01*
X105915Y306927D01*
X106397Y307649D01*
X106566Y308500D01*
X106397Y309351D01*
X105915Y310072D01*
X105193Y310555D01*
X104342Y310724D01*
X103491Y310555D01*
X103442Y310522D01*
X103026Y310799D01*
X103066Y311000D01*
X102897Y311851D01*
X102415Y312573D01*
X101693Y313055D01*
X100842Y313224D01*
D02*
G37*
G36*
X193842Y319884D02*
X192708Y319735D01*
X191650Y319297D01*
X190743Y318600D01*
X190046Y317692D01*
X189608Y316635D01*
X189459Y315500D01*
X189608Y314365D01*
X190046Y313308D01*
X190743Y312400D01*
X191650Y311703D01*
X192708Y311265D01*
X193842Y311116D01*
X194977Y311265D01*
X196035Y311703D01*
X196942Y312400D01*
X197639Y313308D01*
X198077Y314365D01*
X198226Y315500D01*
X198077Y316635D01*
X197639Y317692D01*
X196942Y318600D01*
X196035Y319297D01*
X194977Y319735D01*
X193842Y319884D01*
D02*
G37*
G36*
X133843Y319883D02*
X132708Y319733D01*
X131650Y319295D01*
X130743Y318599D01*
X130046Y317691D01*
X129608Y316633D01*
X129459Y315499D01*
X129608Y314364D01*
X130046Y313307D01*
X130743Y312399D01*
X131650Y311702D01*
X132708Y311264D01*
X133843Y311115D01*
X134977Y311264D01*
X136035Y311702D01*
X136943Y312399D01*
X137639Y313307D01*
X138077Y314364D01*
X138226Y315499D01*
X138077Y316633D01*
X137639Y317691D01*
X136943Y318599D01*
X136035Y319295D01*
X134977Y319733D01*
X133843Y319883D01*
D02*
G37*
G36*
X366342Y313708D02*
Y308500D01*
X371550D01*
X371420Y309494D01*
X370843Y310887D01*
X369925Y312083D01*
X368729Y313000D01*
X367337Y313577D01*
X366342Y313708D01*
D02*
G37*
G36*
X365342D02*
X364348Y313577D01*
X362956Y313000D01*
X361760Y312083D01*
X360842Y310887D01*
X360265Y309494D01*
X360135Y308500D01*
X365342D01*
Y313708D01*
D02*
G37*
G36*
X320859Y312500D02*
X316843D01*
Y308483D01*
X317529Y308574D01*
X318634Y309031D01*
X319583Y309760D01*
X320311Y310709D01*
X320769Y311814D01*
X320859Y312500D01*
D02*
G37*
G36*
X326343Y317583D02*
X325156Y317426D01*
X324051Y316969D01*
X323102Y316240D01*
X322374Y315291D01*
X321916Y314186D01*
X321760Y313000D01*
X321916Y311814D01*
X322374Y310709D01*
X323102Y309760D01*
X324051Y309031D01*
X325156Y308574D01*
X326343Y308418D01*
X327529Y308574D01*
X328634Y309031D01*
X329583Y309760D01*
X330311Y310709D01*
X330769Y311814D01*
X330925Y313000D01*
X330769Y314186D01*
X330311Y315291D01*
X329583Y316240D01*
X328634Y316969D01*
X327529Y317426D01*
X326343Y317583D01*
D02*
G37*
G36*
X371550Y307500D02*
X366342D01*
Y302292D01*
X367337Y302423D01*
X368729Y303000D01*
X369925Y303917D01*
X370843Y305113D01*
X371420Y306506D01*
X371550Y307500D01*
D02*
G37*
G36*
X365342D02*
X360135D01*
X360265Y306506D01*
X360842Y305113D01*
X361760Y303917D01*
X362956Y303000D01*
X364348Y302423D01*
X365342Y302292D01*
Y307500D01*
D02*
G37*
G36*
X193842Y309884D02*
X192708Y309735D01*
X191650Y309297D01*
X190743Y308600D01*
X190046Y307692D01*
X189608Y306635D01*
X189459Y305500D01*
X189608Y304365D01*
X190046Y303308D01*
X190743Y302400D01*
X191650Y301703D01*
X192708Y301265D01*
X193842Y301116D01*
X194977Y301265D01*
X196035Y301703D01*
X196942Y302400D01*
X197639Y303308D01*
X198077Y304365D01*
X198226Y305500D01*
X198077Y306635D01*
X197639Y307692D01*
X196942Y308600D01*
X196035Y309297D01*
X194977Y309735D01*
X193842Y309884D01*
D02*
G37*
G36*
X133843Y309883D02*
X132708Y309733D01*
X131650Y309295D01*
X130743Y308598D01*
X130046Y307691D01*
X129608Y306633D01*
X129459Y305499D01*
X129608Y304364D01*
X130046Y303307D01*
X130743Y302399D01*
X131650Y301702D01*
X132708Y301264D01*
X133843Y301115D01*
X134977Y301264D01*
X136035Y301702D01*
X136943Y302399D01*
X137639Y303307D01*
X138077Y304364D01*
X138226Y305499D01*
X138077Y306633D01*
X137639Y307691D01*
X136943Y308598D01*
X136035Y309295D01*
X134977Y309733D01*
X133843Y309883D01*
D02*
G37*
G36*
X258199Y302748D02*
Y300518D01*
X260429D01*
X260399Y300742D01*
X260120Y301416D01*
X259676Y301995D01*
X259097Y302439D01*
X258422Y302719D01*
X258199Y302748D01*
D02*
G37*
G36*
X257199D02*
X256975Y302719D01*
X256301Y302439D01*
X255722Y301995D01*
X255278Y301416D01*
X254998Y300742D01*
X254969Y300518D01*
X257199D01*
Y302748D01*
D02*
G37*
G36*
X260429Y299518D02*
X258199D01*
Y297289D01*
X258422Y297318D01*
X259097Y297597D01*
X259676Y298042D01*
X260120Y298621D01*
X260399Y299295D01*
X260429Y299518D01*
D02*
G37*
G36*
X257199D02*
X254969D01*
X254998Y299295D01*
X255278Y298621D01*
X255722Y298042D01*
X256301Y297597D01*
X256975Y297318D01*
X257199Y297289D01*
Y299518D01*
D02*
G37*
G36*
X279343Y302030D02*
X278429Y301910D01*
X277577Y301557D01*
X276846Y300996D01*
X276285Y300265D01*
X275933Y299414D01*
X275812Y298500D01*
X275933Y297586D01*
X276285Y296735D01*
X276846Y296004D01*
X277577Y295443D01*
X278429Y295090D01*
X279343Y294970D01*
X280256Y295090D01*
X281108Y295443D01*
X281839Y296004D01*
X282400Y296735D01*
X282752Y297586D01*
X282873Y298500D01*
X282752Y299414D01*
X282400Y300265D01*
X281839Y300996D01*
X281108Y301557D01*
X280256Y301910D01*
X279343Y302030D01*
D02*
G37*
G36*
X114842Y296730D02*
Y294500D01*
X117072D01*
X117043Y294724D01*
X116764Y295398D01*
X116319Y295977D01*
X115740Y296421D01*
X115066Y296700D01*
X114842Y296730D01*
D02*
G37*
G36*
X113842D02*
X113619Y296700D01*
X112945Y296421D01*
X112366Y295977D01*
X111922Y295398D01*
X111642Y294724D01*
X111613Y294500D01*
X113842D01*
Y296730D01*
D02*
G37*
G36*
X117072Y293500D02*
X114842D01*
Y291270D01*
X115066Y291300D01*
X115740Y291579D01*
X116319Y292023D01*
X116764Y292602D01*
X117043Y293277D01*
X117072Y293500D01*
D02*
G37*
G36*
X113842D02*
X111613D01*
X111642Y293277D01*
X111922Y292602D01*
X112366Y292023D01*
X112945Y291579D01*
X113619Y291300D01*
X113842Y291270D01*
Y293500D01*
D02*
G37*
G36*
X193842Y299884D02*
X192708Y299735D01*
X191650Y299297D01*
X190743Y298600D01*
X190046Y297692D01*
X189771Y297029D01*
X173343D01*
X172757Y296913D01*
X172261Y296581D01*
X167761Y292081D01*
X167429Y291585D01*
X167313Y291000D01*
Y253926D01*
X164579D01*
Y247399D01*
X171106D01*
Y253926D01*
X170372D01*
Y290367D01*
X173976Y293971D01*
X189771D01*
X190046Y293308D01*
X190743Y292400D01*
X191650Y291703D01*
X192708Y291265D01*
X193842Y291116D01*
X194977Y291265D01*
X196035Y291703D01*
X196942Y292400D01*
X197639Y293308D01*
X198077Y294365D01*
X198226Y295500D01*
X198077Y296635D01*
X197639Y297692D01*
X196942Y298600D01*
X196035Y299297D01*
X194977Y299735D01*
X193842Y299884D01*
D02*
G37*
G36*
X133843Y299883D02*
X132708Y299733D01*
X131650Y299295D01*
X130743Y298599D01*
X130046Y297691D01*
X129608Y296633D01*
X129459Y295499D01*
X129608Y294364D01*
X130046Y293307D01*
X130743Y292399D01*
X131650Y291702D01*
X132708Y291264D01*
X133843Y291115D01*
X134977Y291264D01*
X136035Y291702D01*
X136943Y292399D01*
X137639Y293307D01*
X138077Y294364D01*
X138226Y295499D01*
X138077Y296633D01*
X137639Y297691D01*
X136943Y298599D01*
X136035Y299295D01*
X134977Y299733D01*
X133843Y299883D01*
D02*
G37*
G36*
X95842Y290224D02*
X94991Y290055D01*
X94270Y289573D01*
X93788Y288851D01*
X93619Y288000D01*
X93788Y287149D01*
X94270Y286427D01*
X94991Y285945D01*
X95842Y285776D01*
X96693Y285945D01*
X97415Y286427D01*
X97897Y287149D01*
X98066Y288000D01*
X97897Y288851D01*
X97415Y289573D01*
X96693Y290055D01*
X95842Y290224D01*
D02*
G37*
G36*
X242843Y285730D02*
Y283500D01*
X245072D01*
X245043Y283723D01*
X244763Y284398D01*
X244319Y284977D01*
X243740Y285421D01*
X243066Y285700D01*
X242843Y285730D01*
D02*
G37*
G36*
X241843D02*
X241619Y285700D01*
X240945Y285421D01*
X240366Y284977D01*
X239921Y284398D01*
X239642Y283723D01*
X239613Y283500D01*
X241843D01*
Y285730D01*
D02*
G37*
G36*
X365843Y293774D02*
X364348Y293577D01*
X362956Y293000D01*
X361760Y292083D01*
X360842Y290887D01*
X360265Y289494D01*
X360069Y288000D01*
X360265Y286506D01*
X360842Y285113D01*
X361760Y283917D01*
X362956Y283000D01*
X364348Y282423D01*
X365843Y282226D01*
X367337Y282423D01*
X368729Y283000D01*
X369925Y283917D01*
X370843Y285113D01*
X371420Y286506D01*
X371616Y288000D01*
X371420Y289494D01*
X370843Y290887D01*
X369925Y292083D01*
X368729Y293000D01*
X367337Y293577D01*
X365843Y293774D01*
D02*
G37*
G36*
X193842Y289884D02*
X192708Y289735D01*
X191650Y289297D01*
X190743Y288600D01*
X190046Y287692D01*
X189608Y286635D01*
X189459Y285500D01*
X189608Y284365D01*
X190046Y283308D01*
X190743Y282400D01*
X191650Y281703D01*
X192708Y281265D01*
X193842Y281116D01*
X194977Y281265D01*
X196035Y281703D01*
X196942Y282400D01*
X197639Y283308D01*
X198077Y284365D01*
X198226Y285500D01*
X198077Y286635D01*
X197639Y287692D01*
X196942Y288600D01*
X196035Y289297D01*
X194977Y289735D01*
X193842Y289884D01*
D02*
G37*
G36*
X133843Y289883D02*
X132708Y289733D01*
X131650Y289295D01*
X130743Y288598D01*
X130046Y287691D01*
X129608Y286633D01*
X129459Y285499D01*
X129608Y284364D01*
X130046Y283307D01*
X130743Y282399D01*
X131650Y281702D01*
X132708Y281264D01*
X133843Y281115D01*
X134977Y281264D01*
X136035Y281702D01*
X136943Y282399D01*
X137639Y283307D01*
X138077Y284364D01*
X138226Y285499D01*
X138077Y286633D01*
X137639Y287691D01*
X136943Y288598D01*
X136035Y289295D01*
X134977Y289733D01*
X133843Y289883D01*
D02*
G37*
G36*
X282842Y282124D02*
Y280500D01*
X284467D01*
X284397Y280851D01*
X283915Y281573D01*
X283193Y282055D01*
X282842Y282124D01*
D02*
G37*
G36*
X281842D02*
X281491Y282055D01*
X280770Y281573D01*
X280288Y280851D01*
X280218Y280500D01*
X281842D01*
Y282124D01*
D02*
G37*
G36*
X245072Y282500D02*
X242843D01*
Y280270D01*
X243066Y280300D01*
X243740Y280579D01*
X244319Y281023D01*
X244763Y281602D01*
X245043Y282277D01*
X245072Y282500D01*
D02*
G37*
G36*
X241843D02*
X239613D01*
X239642Y282277D01*
X239921Y281602D01*
X240366Y281023D01*
X240945Y280579D01*
X241619Y280300D01*
X241843Y280270D01*
Y282500D01*
D02*
G37*
G36*
X284467Y279500D02*
X282842D01*
Y277876D01*
X283193Y277945D01*
X283915Y278428D01*
X284397Y279149D01*
X284467Y279500D01*
D02*
G37*
G36*
X281842D02*
X280218D01*
X280288Y279149D01*
X280770Y278428D01*
X281491Y277945D01*
X281842Y277876D01*
Y279500D01*
D02*
G37*
G36*
X108343Y273730D02*
Y271500D01*
X110572D01*
X110543Y271724D01*
X110264Y272398D01*
X109819Y272977D01*
X109240Y273421D01*
X108566Y273700D01*
X108343Y273730D01*
D02*
G37*
G36*
X107343D02*
X107119Y273700D01*
X106445Y273421D01*
X105866Y272977D01*
X105421Y272398D01*
X105142Y271724D01*
X105113Y271500D01*
X107343D01*
Y273730D01*
D02*
G37*
G36*
X193842Y279884D02*
X192708Y279735D01*
X191650Y279297D01*
X190743Y278600D01*
X190046Y277692D01*
X189608Y276635D01*
X189459Y275500D01*
X189608Y274365D01*
X190046Y273308D01*
X190743Y272400D01*
X191650Y271703D01*
X192708Y271265D01*
X193842Y271116D01*
X194977Y271265D01*
X196035Y271703D01*
X196942Y272400D01*
X197639Y273308D01*
X198077Y274365D01*
X198226Y275500D01*
X198077Y276635D01*
X197639Y277692D01*
X196942Y278600D01*
X196035Y279297D01*
X194977Y279735D01*
X193842Y279884D01*
D02*
G37*
G36*
X133843Y279883D02*
X132708Y279733D01*
X131650Y279295D01*
X130743Y278598D01*
X130046Y277691D01*
X129608Y276633D01*
X129459Y275499D01*
X129608Y274364D01*
X130046Y273307D01*
X130743Y272399D01*
X131650Y271702D01*
X132708Y271264D01*
X133843Y271115D01*
X134977Y271264D01*
X136035Y271702D01*
X136943Y272399D01*
X137639Y273307D01*
X138077Y274364D01*
X138226Y275499D01*
X138077Y276633D01*
X137639Y277691D01*
X136943Y278598D01*
X136035Y279295D01*
X134977Y279733D01*
X133843Y279883D01*
D02*
G37*
G36*
X366342Y273708D02*
Y268500D01*
X371550D01*
X371420Y269494D01*
X370843Y270887D01*
X369925Y272083D01*
X368729Y273000D01*
X367337Y273577D01*
X366342Y273708D01*
D02*
G37*
G36*
X365342D02*
X364348Y273577D01*
X362956Y273000D01*
X361760Y272083D01*
X360842Y270887D01*
X360265Y269494D01*
X360135Y268500D01*
X365342D01*
Y273708D01*
D02*
G37*
G36*
X110572Y270500D02*
X108343D01*
Y268270D01*
X108566Y268300D01*
X109240Y268579D01*
X109819Y269023D01*
X110264Y269602D01*
X110543Y270276D01*
X110572Y270500D01*
D02*
G37*
G36*
X107343D02*
X105113D01*
X105142Y270276D01*
X105421Y269602D01*
X105866Y269023D01*
X106445Y268579D01*
X107119Y268300D01*
X107343Y268270D01*
Y270500D01*
D02*
G37*
G36*
X100343Y266224D02*
X99492Y266055D01*
X98770Y265573D01*
X98741Y265529D01*
X85843D01*
X85257Y265413D01*
X84761Y265081D01*
X84393Y264714D01*
X84342Y264724D01*
X83491Y264555D01*
X82770Y264072D01*
X82288Y263351D01*
X82119Y262500D01*
X82288Y261649D01*
X82770Y260928D01*
X83491Y260445D01*
X84342Y260276D01*
X84677Y260343D01*
X85119Y260000D01*
X85126Y259961D01*
X85288Y259149D01*
X85770Y258428D01*
X86492Y257945D01*
X87343Y257776D01*
X88194Y257945D01*
X88915Y258428D01*
X88944Y258471D01*
X98407D01*
X98770Y257927D01*
X99492Y257445D01*
X100343Y257276D01*
X101193Y257445D01*
X101915Y257927D01*
X102397Y258649D01*
X102566Y259500D01*
X102397Y260351D01*
X101915Y261072D01*
X101317Y261472D01*
X101286Y261591D01*
Y261909D01*
X101317Y262028D01*
X101915Y262427D01*
X102397Y263149D01*
X102566Y264000D01*
X102397Y264851D01*
X101915Y265573D01*
X101193Y266055D01*
X100343Y266224D01*
D02*
G37*
G36*
X257343Y266124D02*
Y264500D01*
X258967D01*
X258897Y264851D01*
X258415Y265573D01*
X257694Y266055D01*
X257343Y266124D01*
D02*
G37*
G36*
X256343D02*
X255992Y266055D01*
X255270Y265573D01*
X254788Y264851D01*
X254718Y264500D01*
X256343D01*
Y266124D01*
D02*
G37*
G36*
X371550Y267500D02*
X366342D01*
Y262292D01*
X367337Y262423D01*
X368729Y263000D01*
X369925Y263917D01*
X370843Y265113D01*
X371420Y266506D01*
X371550Y267500D01*
D02*
G37*
G36*
X365342D02*
X360135D01*
X360265Y266506D01*
X360842Y265113D01*
X361760Y263917D01*
X362956Y263000D01*
X364348Y262423D01*
X365342Y262292D01*
Y267500D01*
D02*
G37*
G36*
X176842Y263624D02*
Y262000D01*
X178467D01*
X178397Y262351D01*
X177915Y263072D01*
X177193Y263555D01*
X176842Y263624D01*
D02*
G37*
G36*
X175842D02*
X175491Y263555D01*
X174770Y263072D01*
X174288Y262351D01*
X174218Y262000D01*
X175842D01*
Y263624D01*
D02*
G37*
G36*
X258967Y263500D02*
X257343D01*
Y261876D01*
X257694Y261945D01*
X258415Y262427D01*
X258897Y263149D01*
X258967Y263500D01*
D02*
G37*
G36*
X256343D02*
X254718D01*
X254788Y263149D01*
X255270Y262427D01*
X255992Y261945D01*
X256343Y261876D01*
Y263500D01*
D02*
G37*
G36*
X193842Y269884D02*
X192708Y269735D01*
X191650Y269297D01*
X190743Y268600D01*
X190046Y267692D01*
X189608Y266635D01*
X189459Y265500D01*
X189608Y264365D01*
X190046Y263308D01*
X190743Y262400D01*
X191650Y261703D01*
X192708Y261265D01*
X193842Y261116D01*
X194977Y261265D01*
X196035Y261703D01*
X196942Y262400D01*
X197639Y263308D01*
X198077Y264365D01*
X198226Y265500D01*
X198077Y266635D01*
X197639Y267692D01*
X196942Y268600D01*
X196035Y269297D01*
X194977Y269735D01*
X193842Y269884D01*
D02*
G37*
G36*
X133843Y269883D02*
X132708Y269733D01*
X131650Y269295D01*
X130743Y268599D01*
X130046Y267691D01*
X129608Y266633D01*
X129459Y265499D01*
X129608Y264364D01*
X130046Y263307D01*
X130743Y262399D01*
X131650Y261702D01*
X132708Y261264D01*
X133843Y261115D01*
X134977Y261264D01*
X136035Y261702D01*
X136943Y262399D01*
X137639Y263307D01*
X138077Y264364D01*
X138226Y265499D01*
X138077Y266633D01*
X137639Y267691D01*
X136943Y268599D01*
X136035Y269295D01*
X134977Y269733D01*
X133843Y269883D01*
D02*
G37*
G36*
X333842Y257730D02*
Y255500D01*
X336072D01*
X336043Y255724D01*
X335764Y256398D01*
X335319Y256977D01*
X334740Y257421D01*
X334066Y257700D01*
X333842Y257730D01*
D02*
G37*
G36*
X332842D02*
X332619Y257700D01*
X331945Y257421D01*
X331366Y256977D01*
X330922Y256398D01*
X330642Y255724D01*
X330613Y255500D01*
X332842D01*
Y257730D01*
D02*
G37*
G36*
X178467Y261000D02*
X174218D01*
X174288Y260649D01*
X174770Y259928D01*
X174813Y259899D01*
Y257102D01*
X171937D01*
Y254102D01*
X176342D01*
X180748D01*
Y257102D01*
X177872D01*
Y259899D01*
X177915Y259928D01*
X178397Y260649D01*
X178467Y261000D01*
D02*
G37*
G36*
X193842Y259884D02*
X192708Y259735D01*
X191650Y259297D01*
X190743Y258600D01*
X190046Y257692D01*
X189608Y256635D01*
X189459Y255500D01*
X189608Y254365D01*
X190046Y253308D01*
X190743Y252400D01*
X191650Y251703D01*
X192708Y251265D01*
X193842Y251116D01*
X194977Y251265D01*
X196035Y251703D01*
X196942Y252400D01*
X197639Y253308D01*
X198077Y254365D01*
X198226Y255500D01*
X198077Y256635D01*
X197639Y257692D01*
X196942Y258600D01*
X196035Y259297D01*
X194977Y259735D01*
X193842Y259884D01*
D02*
G37*
G36*
X229343Y255796D02*
X228619Y255700D01*
X227945Y255421D01*
X227366Y254977D01*
X226922Y254398D01*
X226642Y253724D01*
X226547Y253000D01*
X226642Y252276D01*
X226922Y251602D01*
X227366Y251023D01*
X227945Y250579D01*
X228619Y250300D01*
X229343Y250204D01*
X230066Y250300D01*
X230740Y250579D01*
X231319Y251023D01*
X231764Y251602D01*
X232043Y252276D01*
X232138Y253000D01*
X232043Y253724D01*
X231764Y254398D01*
X231319Y254977D01*
X230740Y255421D01*
X230066Y255700D01*
X229343Y255796D01*
D02*
G37*
G36*
X180748Y253102D02*
X176842D01*
Y250102D01*
X180748D01*
Y253102D01*
D02*
G37*
G36*
X175842D02*
X171937D01*
Y250102D01*
X175842D01*
Y253102D01*
D02*
G37*
G36*
X100343Y254224D02*
X99492Y254055D01*
X98770Y253573D01*
X98288Y252851D01*
X98119Y252000D01*
X98288Y251149D01*
X98770Y250428D01*
X99492Y249945D01*
X100343Y249776D01*
X101193Y249945D01*
X101915Y250428D01*
X102397Y251149D01*
X102566Y252000D01*
X102397Y252851D01*
X101915Y253573D01*
X101193Y254055D01*
X100343Y254224D01*
D02*
G37*
G36*
X336072Y254500D02*
X330613D01*
X330642Y254276D01*
X330789Y253921D01*
X330741Y253873D01*
X330410Y253377D01*
X330293Y252792D01*
Y252083D01*
X329693D01*
Y248000D01*
X333323D01*
Y249982D01*
X333352Y250130D01*
Y252159D01*
X333406Y252213D01*
X334066Y252300D01*
X334740Y252579D01*
X335319Y253023D01*
X335764Y253602D01*
X336043Y254276D01*
X336072Y254500D01*
D02*
G37*
G36*
X328693Y252083D02*
X325063D01*
Y248000D01*
X328693D01*
Y252083D01*
D02*
G37*
G36*
X333323Y247000D02*
X329693D01*
Y242917D01*
X333323D01*
Y247000D01*
D02*
G37*
G36*
X328693D02*
X325063D01*
Y242917D01*
X328693D01*
Y247000D01*
D02*
G37*
G36*
X365843Y253774D02*
X364348Y253577D01*
X362956Y253000D01*
X361760Y252083D01*
X360842Y250887D01*
X360265Y249494D01*
X360069Y248000D01*
X360265Y246506D01*
X360842Y245113D01*
X361760Y243917D01*
X362956Y243000D01*
X364348Y242423D01*
X365843Y242226D01*
X367337Y242423D01*
X368729Y243000D01*
X369925Y243917D01*
X370843Y245113D01*
X371420Y246506D01*
X371616Y248000D01*
X371420Y249494D01*
X370843Y250887D01*
X369925Y252083D01*
X368729Y253000D01*
X367337Y253577D01*
X365843Y253774D01*
D02*
G37*
G36*
X193842Y249884D02*
X192708Y249735D01*
X191650Y249297D01*
X190743Y248600D01*
X190046Y247692D01*
X189608Y246635D01*
X189459Y245500D01*
X189608Y244365D01*
X190046Y243308D01*
X190643Y242529D01*
X190461Y242029D01*
X180748D01*
Y244819D01*
X171937D01*
Y242029D01*
X171106D01*
Y244674D01*
X164579D01*
Y238147D01*
X171106D01*
Y238971D01*
X171937D01*
Y237976D01*
X180748D01*
Y238971D01*
X190461D01*
X190643Y238471D01*
X190046Y237692D01*
X189608Y236635D01*
X189459Y235500D01*
X189608Y234365D01*
X190046Y233308D01*
X190743Y232400D01*
X191650Y231703D01*
X192708Y231265D01*
X193842Y231116D01*
X194977Y231265D01*
X196035Y231703D01*
X196942Y232400D01*
X197639Y233308D01*
X198077Y234365D01*
X198226Y235500D01*
X198077Y236635D01*
X197639Y237692D01*
X197081Y238419D01*
X197313Y238919D01*
X266260D01*
X268813Y236367D01*
Y63758D01*
X268930Y63173D01*
X269261Y62677D01*
X289844Y42094D01*
Y32808D01*
X301293D01*
Y44257D01*
X292007D01*
X271872Y64392D01*
Y174846D01*
X272342Y175015D01*
X272372Y175019D01*
X272945Y174579D01*
X273619Y174300D01*
X273843Y174270D01*
Y177000D01*
Y179730D01*
X273619Y179700D01*
X272945Y179421D01*
X272372Y178981D01*
X272342Y178985D01*
X271872Y179155D01*
Y237000D01*
X271756Y237585D01*
X271424Y238081D01*
X267975Y241530D01*
X267479Y241862D01*
X266894Y241978D01*
X197136D01*
X197002Y242478D01*
X197639Y243308D01*
X198077Y244365D01*
X198226Y245500D01*
X198077Y246635D01*
X197639Y247692D01*
X196942Y248600D01*
X196035Y249297D01*
X194977Y249735D01*
X193842Y249884D01*
D02*
G37*
G36*
X342342Y243730D02*
Y241500D01*
X344572D01*
X344543Y241723D01*
X344264Y242398D01*
X343819Y242977D01*
X343240Y243421D01*
X342566Y243700D01*
X342342Y243730D01*
D02*
G37*
G36*
X341342D02*
X341119Y243700D01*
X340445Y243421D01*
X339866Y242977D01*
X339422Y242398D01*
X339142Y241723D01*
X339113Y241500D01*
X341342D01*
Y243730D01*
D02*
G37*
G36*
X282343Y242624D02*
Y241000D01*
X283967D01*
X283897Y241351D01*
X283415Y242073D01*
X282694Y242555D01*
X282343Y242624D01*
D02*
G37*
G36*
X281343D02*
X280992Y242555D01*
X280270Y242073D01*
X279788Y241351D01*
X279718Y241000D01*
X281343D01*
Y242624D01*
D02*
G37*
G36*
X283967Y240000D02*
X282343D01*
Y238376D01*
X282694Y238445D01*
X283415Y238928D01*
X283897Y239649D01*
X283967Y240000D01*
D02*
G37*
G36*
X281343D02*
X279718D01*
X279788Y239649D01*
X280270Y238928D01*
X280992Y238445D01*
X281343Y238376D01*
Y240000D01*
D02*
G37*
G36*
X344572Y240500D02*
X342342D01*
Y238270D01*
X342566Y238300D01*
X343240Y238579D01*
X343819Y239023D01*
X344264Y239602D01*
X344543Y240277D01*
X344572Y240500D01*
D02*
G37*
G36*
X341342D02*
X339113D01*
X339142Y240277D01*
X339422Y239602D01*
X339866Y239023D01*
X340445Y238579D01*
X341119Y238300D01*
X341342Y238270D01*
Y240500D01*
D02*
G37*
G36*
X366342Y233708D02*
Y228500D01*
X371550D01*
X371420Y229494D01*
X370843Y230887D01*
X369925Y232083D01*
X368729Y233000D01*
X367337Y233577D01*
X366342Y233708D01*
D02*
G37*
G36*
X365342D02*
X364348Y233577D01*
X362956Y233000D01*
X361760Y232083D01*
X360842Y230887D01*
X360265Y229494D01*
X360135Y228500D01*
X365342D01*
Y233708D01*
D02*
G37*
G36*
X108343Y225124D02*
Y223500D01*
X109967D01*
X109897Y223851D01*
X109415Y224572D01*
X108694Y225055D01*
X108343Y225124D01*
D02*
G37*
G36*
X107343D02*
X106992Y225055D01*
X106270Y224572D01*
X105788Y223851D01*
X105718Y223500D01*
X107343D01*
Y225124D01*
D02*
G37*
G36*
X371550Y227500D02*
X366342D01*
Y222292D01*
X367337Y222423D01*
X368729Y223000D01*
X369925Y223917D01*
X370843Y225113D01*
X371420Y226506D01*
X371550Y227500D01*
D02*
G37*
G36*
X365342D02*
X360135D01*
X360265Y226506D01*
X360842Y225113D01*
X361760Y223917D01*
X362956Y223000D01*
X364348Y222423D01*
X365342Y222292D01*
Y227500D01*
D02*
G37*
G36*
X109967Y222500D02*
X108343D01*
Y220876D01*
X108694Y220945D01*
X109415Y221427D01*
X109897Y222149D01*
X109967Y222500D01*
D02*
G37*
G36*
X107343D02*
X105718D01*
X105788Y222149D01*
X106270Y221427D01*
X106992Y220945D01*
X107343Y220876D01*
Y222500D01*
D02*
G37*
G36*
X288843Y218624D02*
Y217000D01*
X290467D01*
X290397Y217351D01*
X289915Y218073D01*
X289194Y218555D01*
X288843Y218624D01*
D02*
G37*
G36*
X287842D02*
X287491Y218555D01*
X286770Y218073D01*
X286288Y217351D01*
X286218Y217000D01*
X287842D01*
Y218624D01*
D02*
G37*
G36*
X290467Y216000D02*
X288843D01*
Y214376D01*
X289194Y214445D01*
X289915Y214928D01*
X290397Y215649D01*
X290467Y216000D01*
D02*
G37*
G36*
X287842D02*
X286218D01*
X286288Y215649D01*
X286770Y214928D01*
X287491Y214445D01*
X287842Y214376D01*
Y216000D01*
D02*
G37*
G36*
X133843Y219883D02*
X132708Y219733D01*
X131650Y219295D01*
X130743Y218599D01*
X130046Y217691D01*
X129608Y216633D01*
X129459Y215499D01*
X129608Y214364D01*
X130046Y213307D01*
X130743Y212399D01*
X131650Y211702D01*
X132708Y211264D01*
X133843Y211115D01*
X134977Y211264D01*
X136035Y211702D01*
X136943Y212399D01*
X137639Y213307D01*
X138077Y214364D01*
X138226Y215499D01*
X138077Y216633D01*
X137639Y217691D01*
X136943Y218599D01*
X136035Y219295D01*
X134977Y219733D01*
X133843Y219883D01*
D02*
G37*
G36*
Y239883D02*
X132708Y239733D01*
X131650Y239295D01*
X130743Y238598D01*
X130046Y237691D01*
X129608Y236633D01*
X129459Y235499D01*
X129608Y234364D01*
X130046Y233307D01*
X130743Y232399D01*
X131650Y231702D01*
X132708Y231264D01*
X133843Y231115D01*
X134977Y231264D01*
X136035Y231702D01*
X136943Y232399D01*
X137639Y233307D01*
X137914Y233969D01*
X148844D01*
X148844Y233969D01*
Y233969D01*
X149332Y233941D01*
X150500Y233826D01*
X152093Y233343D01*
X153560Y232559D01*
X154847Y231503D01*
X155903Y230217D01*
X156687Y228749D01*
X157170Y227156D01*
X157327Y225568D01*
X157313Y225500D01*
Y208882D01*
X156813Y208699D01*
X156035Y209297D01*
X154977Y209735D01*
X153842Y209884D01*
X152708Y209735D01*
X151651Y209297D01*
X150872Y208699D01*
X150372Y208882D01*
Y219000D01*
X150381D01*
X150227Y220568D01*
X149769Y222076D01*
X149027Y223465D01*
X148027Y224683D01*
X146809Y225683D01*
X145420Y226426D01*
X143912Y226883D01*
X142344Y227037D01*
Y227028D01*
X142344Y227028D01*
X137914D01*
X137639Y227691D01*
X136943Y228598D01*
X136035Y229295D01*
X134977Y229733D01*
X133843Y229883D01*
X132708Y229733D01*
X131650Y229295D01*
X130743Y228598D01*
X130046Y227691D01*
X129608Y226633D01*
X129459Y225499D01*
X129608Y224364D01*
X130046Y223307D01*
X130743Y222399D01*
X131650Y221702D01*
X132708Y221264D01*
X133843Y221115D01*
X134977Y221264D01*
X136035Y221702D01*
X136943Y222399D01*
X137639Y223307D01*
X137914Y223969D01*
X142344D01*
X142344Y223969D01*
Y223969D01*
X142827Y223928D01*
X143636Y223821D01*
X144840Y223323D01*
X145873Y222529D01*
X146667Y221496D01*
X147165Y220292D01*
X147326Y219067D01*
X147313Y219000D01*
Y208882D01*
X146813Y208699D01*
X146035Y209297D01*
X144977Y209735D01*
X143842Y209884D01*
X142708Y209735D01*
X141650Y209297D01*
X140743Y208600D01*
X140046Y207692D01*
X139608Y206635D01*
X139459Y205500D01*
X139608Y204365D01*
X140046Y203308D01*
X140743Y202400D01*
X141650Y201703D01*
X142708Y201265D01*
X143842Y201116D01*
X144977Y201265D01*
X146035Y201703D01*
X146813Y202301D01*
X147313Y202118D01*
Y165500D01*
X147321Y165459D01*
X147191Y164469D01*
X146793Y163508D01*
X146160Y162683D01*
X145335Y162050D01*
X144374Y161652D01*
X143383Y161521D01*
X143342Y161529D01*
X119343D01*
X119315Y161524D01*
X118442Y161639D01*
X117603Y161986D01*
X116882Y162539D01*
X116329Y163260D01*
X115981Y164099D01*
X115866Y164972D01*
X115872Y165000D01*
Y166546D01*
X116713Y166895D01*
X117695Y167648D01*
X118448Y168630D01*
X118922Y169773D01*
X119083Y171000D01*
X118922Y172227D01*
X118448Y173370D01*
X117695Y174352D01*
X116713Y175105D01*
X115569Y175579D01*
X114342Y175741D01*
X113116Y175579D01*
X111972Y175105D01*
X110990Y174352D01*
X110237Y173370D01*
X109764Y172227D01*
X109602Y171000D01*
X109764Y169773D01*
X110237Y168630D01*
X110990Y167648D01*
X111972Y166895D01*
X112813Y166546D01*
Y165000D01*
X112811D01*
X112937Y163726D01*
X113308Y162501D01*
X113912Y161371D01*
X114724Y160382D01*
X115714Y159569D01*
X116724Y159029D01*
X116599Y158529D01*
X112343D01*
X112307Y158522D01*
X111078Y158643D01*
X109862Y159012D01*
X108742Y159611D01*
X107760Y160417D01*
X106954Y161399D01*
X106355Y162520D01*
X105986Y163736D01*
X105865Y164964D01*
X105872Y165000D01*
Y166546D01*
X106713Y166895D01*
X107695Y167648D01*
X108448Y168630D01*
X108922Y169773D01*
X109083Y171000D01*
X108922Y172227D01*
X108448Y173370D01*
X107695Y174352D01*
X106713Y175105D01*
X105570Y175579D01*
X104342Y175741D01*
X103116Y175579D01*
X101972Y175105D01*
X100990Y174352D01*
X100237Y173370D01*
X99764Y172227D01*
X99602Y171000D01*
X99764Y169773D01*
X100237Y168630D01*
X100990Y167648D01*
X101972Y166895D01*
X102813Y166546D01*
Y165000D01*
X102797D01*
X102980Y163138D01*
X103523Y161347D01*
X104405Y159696D01*
X105593Y158250D01*
X107039Y157063D01*
X108689Y156181D01*
X110480Y155637D01*
X112343Y155454D01*
Y155471D01*
X148343D01*
Y155463D01*
X150225Y155611D01*
X152062Y156052D01*
X153807Y156775D01*
X155418Y157762D01*
X156854Y158988D01*
X158081Y160425D01*
X159068Y162035D01*
X159791Y163780D01*
X160231Y165617D01*
X160380Y167500D01*
X160372D01*
Y202118D01*
X160872Y202301D01*
X161651Y201703D01*
X162708Y201265D01*
X163342Y201182D01*
Y205500D01*
Y209818D01*
X162708Y209735D01*
X161651Y209297D01*
X160872Y208699D01*
X160372Y208882D01*
Y225500D01*
X160378D01*
X160236Y227304D01*
X159814Y229064D01*
X159121Y230736D01*
X158175Y232280D01*
X157000Y233656D01*
X155624Y234831D01*
X154080Y235777D01*
X152408Y236470D01*
X150648Y236892D01*
X148844Y237034D01*
Y237028D01*
X148844Y237028D01*
X137914D01*
X137639Y237691D01*
X136943Y238598D01*
X136035Y239295D01*
X134977Y239733D01*
X133843Y239883D01*
D02*
G37*
G36*
X164342Y209818D02*
Y206000D01*
X168161D01*
X168077Y206635D01*
X167639Y207692D01*
X166943Y208600D01*
X166034Y209297D01*
X164977Y209735D01*
X164342Y209818D01*
D02*
G37*
G36*
X327842Y207624D02*
Y206000D01*
X329467D01*
X329397Y206351D01*
X328915Y207072D01*
X328193Y207555D01*
X327842Y207624D01*
D02*
G37*
G36*
X326842D02*
X326491Y207555D01*
X325770Y207072D01*
X325288Y206351D01*
X325218Y206000D01*
X326842D01*
Y207624D01*
D02*
G37*
G36*
X329467Y205000D02*
X327842D01*
Y203376D01*
X328193Y203446D01*
X328915Y203927D01*
X329397Y204649D01*
X329467Y205000D01*
D02*
G37*
G36*
X326842D02*
X325218D01*
X325288Y204649D01*
X325770Y203927D01*
X326491Y203446D01*
X326842Y203376D01*
Y205000D01*
D02*
G37*
G36*
X371567Y213724D02*
X360118D01*
Y202276D01*
X371567D01*
Y213724D01*
D02*
G37*
G36*
X168161Y205000D02*
X164342D01*
Y201182D01*
X164977Y201265D01*
X166034Y201703D01*
X166943Y202400D01*
X167639Y203308D01*
X168077Y204365D01*
X168161Y205000D01*
D02*
G37*
G36*
X193842Y209884D02*
X192708Y209735D01*
X191650Y209297D01*
X190743Y208600D01*
X190046Y207692D01*
X189608Y206635D01*
X189459Y205500D01*
X189608Y204365D01*
X190046Y203308D01*
X190743Y202400D01*
X191650Y201703D01*
X192708Y201265D01*
X193842Y201116D01*
X194977Y201265D01*
X196035Y201703D01*
X196942Y202400D01*
X197639Y203308D01*
X198077Y204365D01*
X198226Y205500D01*
X198077Y206635D01*
X197639Y207692D01*
X196942Y208600D01*
X196035Y209297D01*
X194977Y209735D01*
X193842Y209884D01*
D02*
G37*
G36*
X183843D02*
X182708Y209735D01*
X181650Y209297D01*
X180743Y208600D01*
X180046Y207692D01*
X179608Y206635D01*
X179459Y205500D01*
X179608Y204365D01*
X180046Y203308D01*
X180743Y202400D01*
X181650Y201703D01*
X182708Y201265D01*
X183843Y201116D01*
X184977Y201265D01*
X186035Y201703D01*
X186943Y202400D01*
X187639Y203308D01*
X188077Y204365D01*
X188226Y205500D01*
X188077Y206635D01*
X187639Y207692D01*
X186943Y208600D01*
X186035Y209297D01*
X184977Y209735D01*
X183843Y209884D01*
D02*
G37*
G36*
X173843D02*
X172708Y209735D01*
X171651Y209297D01*
X170743Y208600D01*
X170046Y207692D01*
X169608Y206635D01*
X169459Y205500D01*
X169608Y204365D01*
X170046Y203308D01*
X170743Y202400D01*
X171651Y201703D01*
X172708Y201265D01*
X173843Y201116D01*
X174977Y201265D01*
X176034Y201703D01*
X176943Y202400D01*
X177639Y203308D01*
X178077Y204365D01*
X178226Y205500D01*
X178077Y206635D01*
X177639Y207692D01*
X176943Y208600D01*
X176034Y209297D01*
X174977Y209735D01*
X173843Y209884D01*
D02*
G37*
G36*
X288342Y202730D02*
Y200500D01*
X290572D01*
X290543Y200724D01*
X290264Y201398D01*
X289819Y201977D01*
X289240Y202421D01*
X288566Y202700D01*
X288342Y202730D01*
D02*
G37*
G36*
X287343D02*
X287119Y202700D01*
X286445Y202421D01*
X285866Y201977D01*
X285421Y201398D01*
X285142Y200724D01*
X285113Y200500D01*
X287343D01*
Y202730D01*
D02*
G37*
G36*
X290572Y199500D02*
X288342D01*
Y197270D01*
X288566Y197300D01*
X289240Y197579D01*
X289819Y198023D01*
X290264Y198602D01*
X290543Y199276D01*
X290572Y199500D01*
D02*
G37*
G36*
X287343D02*
X285113D01*
X285142Y199276D01*
X285421Y198602D01*
X285866Y198023D01*
X286445Y197579D01*
X287119Y197300D01*
X287343Y197270D01*
Y199500D01*
D02*
G37*
G36*
X299417Y202721D02*
X298694Y202625D01*
X298020Y202346D01*
X297441Y201902D01*
X296996Y201323D01*
X296717Y200649D01*
X296622Y199925D01*
X296717Y199202D01*
X296996Y198527D01*
X297441Y197948D01*
X298020Y197504D01*
X298694Y197225D01*
X299417Y197130D01*
X300141Y197225D01*
X300815Y197504D01*
X301394Y197948D01*
X301838Y198527D01*
X302118Y199202D01*
X302213Y199925D01*
X302118Y200649D01*
X301838Y201323D01*
X301394Y201902D01*
X300815Y202346D01*
X300141Y202625D01*
X299417Y202721D01*
D02*
G37*
G36*
X274843Y179730D02*
Y177500D01*
X277072D01*
X277043Y177724D01*
X276764Y178398D01*
X276319Y178977D01*
X275740Y179421D01*
X275066Y179700D01*
X274843Y179730D01*
D02*
G37*
G36*
X366342Y188774D02*
X364848Y188577D01*
X363456Y188000D01*
X362260Y187083D01*
X361342Y185887D01*
X360766Y184494D01*
X360569Y183000D01*
X360766Y181506D01*
X361342Y180113D01*
X362260Y178917D01*
X363456Y178000D01*
X364848Y177423D01*
X366342Y177226D01*
X367837Y177423D01*
X369229Y178000D01*
X370425Y178917D01*
X371343Y180113D01*
X371920Y181506D01*
X372116Y183000D01*
X371920Y184494D01*
X371343Y185887D01*
X370425Y187083D01*
X369229Y188000D01*
X367837Y188577D01*
X366342Y188774D01*
D02*
G37*
G36*
X343843Y179230D02*
Y177000D01*
X346072D01*
X346043Y177224D01*
X345763Y177898D01*
X345319Y178477D01*
X344740Y178921D01*
X344066Y179200D01*
X343843Y179230D01*
D02*
G37*
G36*
X342843D02*
X342619Y179200D01*
X341945Y178921D01*
X341366Y178477D01*
X340921Y177898D01*
X340642Y177224D01*
X340613Y177000D01*
X342843D01*
Y179230D01*
D02*
G37*
G36*
X277072Y176500D02*
X274843D01*
Y174270D01*
X275066Y174300D01*
X275740Y174579D01*
X276319Y175023D01*
X276764Y175602D01*
X277043Y176276D01*
X277072Y176500D01*
D02*
G37*
G36*
X346072Y176000D02*
X343843D01*
Y173770D01*
X344066Y173800D01*
X344740Y174079D01*
X345319Y174523D01*
X345763Y175102D01*
X346043Y175776D01*
X346072Y176000D01*
D02*
G37*
G36*
X342843D02*
X340613D01*
X340642Y175776D01*
X340921Y175102D01*
X341366Y174523D01*
X341945Y174079D01*
X342619Y173800D01*
X342843Y173770D01*
Y176000D01*
D02*
G37*
G36*
X222843Y175675D02*
Y171500D01*
X227017D01*
X226922Y172227D01*
X226448Y173370D01*
X225695Y174352D01*
X224713Y175105D01*
X223569Y175579D01*
X222843Y175675D01*
D02*
G37*
G36*
X124843D02*
Y171500D01*
X129017D01*
X128922Y172227D01*
X128448Y173370D01*
X127695Y174352D01*
X126713Y175105D01*
X125569Y175579D01*
X124843Y175675D01*
D02*
G37*
G36*
X221843D02*
X221116Y175579D01*
X219972Y175105D01*
X218990Y174352D01*
X218237Y173370D01*
X217763Y172227D01*
X217668Y171500D01*
X221843D01*
Y175675D01*
D02*
G37*
G36*
X123843D02*
X123116Y175579D01*
X121972Y175105D01*
X120990Y174352D01*
X120237Y173370D01*
X119764Y172227D01*
X119668Y171500D01*
X123843D01*
Y175675D01*
D02*
G37*
G36*
X227017Y170500D02*
X222843D01*
Y166325D01*
X223569Y166421D01*
X224713Y166895D01*
X225695Y167648D01*
X226448Y168630D01*
X226922Y169773D01*
X227017Y170500D01*
D02*
G37*
G36*
X129017D02*
X124843D01*
Y166325D01*
X125569Y166421D01*
X126713Y166895D01*
X127695Y167648D01*
X128448Y168630D01*
X128922Y169773D01*
X129017Y170500D01*
D02*
G37*
G36*
X221843D02*
X217668D01*
X217763Y169773D01*
X218237Y168630D01*
X218990Y167648D01*
X219972Y166895D01*
X221116Y166421D01*
X221843Y166325D01*
Y170500D01*
D02*
G37*
G36*
X123843D02*
X119668D01*
X119764Y169773D01*
X120237Y168630D01*
X120990Y167648D01*
X121972Y166895D01*
X123116Y166421D01*
X123843Y166325D01*
Y170500D01*
D02*
G37*
G36*
X193842Y229884D02*
X192708Y229735D01*
X191650Y229297D01*
X190743Y228600D01*
X190046Y227692D01*
X189608Y226635D01*
X189459Y225500D01*
X189608Y224365D01*
X190046Y223308D01*
X190743Y222400D01*
X191650Y221703D01*
X192708Y221265D01*
X193842Y221116D01*
X194977Y221265D01*
X196035Y221703D01*
X196942Y222400D01*
X197639Y223308D01*
X197707Y223472D01*
X202343D01*
X202411Y223486D01*
X203999Y223329D01*
X205592Y222846D01*
X207060Y222061D01*
X208347Y221005D01*
X209402Y219719D01*
X210187Y218251D01*
X210670Y216658D01*
X210785Y215490D01*
X210813Y215002D01*
X210813Y215001D01*
X210813Y215001D01*
Y175454D01*
X209972Y175105D01*
X208990Y174352D01*
X208237Y173370D01*
X207764Y172227D01*
X207602Y171000D01*
X207764Y169773D01*
X208237Y168630D01*
X208990Y167648D01*
X209972Y166895D01*
X211116Y166421D01*
X212343Y166259D01*
X213569Y166421D01*
X214713Y166895D01*
X215695Y167648D01*
X216448Y168630D01*
X216921Y169773D01*
X217083Y171000D01*
X216921Y172227D01*
X216448Y173370D01*
X215695Y174352D01*
X214713Y175105D01*
X213872Y175454D01*
Y215001D01*
X213878Y215002D01*
X213736Y216806D01*
X213314Y218566D01*
X212621Y220238D01*
X211675Y221782D01*
X210499Y223158D01*
X209123Y224334D01*
X207580Y225280D01*
X205907Y225972D01*
X204147Y226395D01*
X202343Y226537D01*
Y226531D01*
X202342Y226531D01*
X198091D01*
X198077Y226635D01*
X197639Y227692D01*
X196942Y228600D01*
X196035Y229297D01*
X194977Y229735D01*
X193842Y229884D01*
D02*
G37*
G36*
Y219884D02*
X192708Y219735D01*
X191650Y219297D01*
X190743Y218600D01*
X190046Y217692D01*
X189608Y216635D01*
X189459Y215500D01*
X189608Y214365D01*
X190046Y213308D01*
X190743Y212400D01*
X191650Y211703D01*
X192708Y211265D01*
X193842Y211116D01*
X194977Y211265D01*
X196035Y211703D01*
X196942Y212400D01*
X197119Y212631D01*
X197722Y212308D01*
X198781Y211440D01*
X199649Y210381D01*
X200295Y209174D01*
X200692Y207864D01*
X200778Y206987D01*
X200813Y206502D01*
X200813Y206501D01*
X200813Y206501D01*
Y175454D01*
X199972Y175105D01*
X198990Y174352D01*
X198237Y173370D01*
X197764Y172227D01*
X197602Y171000D01*
X197764Y169773D01*
X198237Y168630D01*
X198990Y167648D01*
X199972Y166895D01*
X201116Y166421D01*
X202343Y166259D01*
X203570Y166421D01*
X204713Y166895D01*
X205695Y167648D01*
X206448Y168630D01*
X206922Y169773D01*
X207083Y171000D01*
X206922Y172227D01*
X206448Y173370D01*
X205695Y174352D01*
X204713Y175105D01*
X203872Y175454D01*
Y206501D01*
X203891Y206502D01*
X203698Y208462D01*
X203126Y210347D01*
X202198Y212084D01*
X200948Y213607D01*
X199425Y214856D01*
X198226Y215497D01*
X198226Y215500D01*
X198077Y216635D01*
X197639Y217692D01*
X196942Y218600D01*
X196035Y219297D01*
X194977Y219735D01*
X193842Y219884D01*
D02*
G37*
G36*
X192342Y175741D02*
X191116Y175579D01*
X189972Y175105D01*
X188990Y174352D01*
X188237Y173370D01*
X187764Y172227D01*
X187602Y171000D01*
X187764Y169773D01*
X188237Y168630D01*
X188990Y167648D01*
X189972Y166895D01*
X191116Y166421D01*
X192342Y166259D01*
X193570Y166421D01*
X194713Y166895D01*
X195695Y167648D01*
X196448Y168630D01*
X196922Y169773D01*
X197083Y171000D01*
X196922Y172227D01*
X196448Y173370D01*
X195695Y174352D01*
X194713Y175105D01*
X193570Y175579D01*
X192342Y175741D01*
D02*
G37*
G36*
X182343D02*
X181116Y175579D01*
X179972Y175105D01*
X178990Y174352D01*
X178237Y173370D01*
X177763Y172227D01*
X177602Y171000D01*
X177763Y169773D01*
X178237Y168630D01*
X178990Y167648D01*
X179972Y166895D01*
X181116Y166421D01*
X182343Y166259D01*
X183570Y166421D01*
X184713Y166895D01*
X185695Y167648D01*
X186448Y168630D01*
X186922Y169773D01*
X187083Y171000D01*
X186922Y172227D01*
X186448Y173370D01*
X185695Y174352D01*
X184713Y175105D01*
X183570Y175579D01*
X182343Y175741D01*
D02*
G37*
G36*
X94342D02*
X93116Y175579D01*
X91972Y175105D01*
X90990Y174352D01*
X90237Y173370D01*
X89763Y172227D01*
X89602Y171000D01*
X89763Y169773D01*
X90237Y168630D01*
X90990Y167648D01*
X91972Y166895D01*
X93116Y166421D01*
X94342Y166259D01*
X95569Y166421D01*
X96713Y166895D01*
X97695Y167648D01*
X98448Y168630D01*
X98922Y169773D01*
X99083Y171000D01*
X98922Y172227D01*
X98448Y173370D01*
X97695Y174352D01*
X96713Y175105D01*
X95569Y175579D01*
X94342Y175741D01*
D02*
G37*
G36*
X84342D02*
X83116Y175579D01*
X81972Y175105D01*
X80990Y174352D01*
X80237Y173370D01*
X79764Y172227D01*
X79602Y171000D01*
X79764Y169773D01*
X80237Y168630D01*
X80990Y167648D01*
X81972Y166895D01*
X83116Y166421D01*
X84342Y166259D01*
X85570Y166421D01*
X86713Y166895D01*
X87695Y167648D01*
X88448Y168630D01*
X88922Y169773D01*
X89083Y171000D01*
X88922Y172227D01*
X88448Y173370D01*
X87695Y174352D01*
X86713Y175105D01*
X85570Y175579D01*
X84342Y175741D01*
D02*
G37*
G36*
X366843Y168708D02*
Y163500D01*
X372050D01*
X371920Y164494D01*
X371343Y165887D01*
X370425Y167083D01*
X369229Y168000D01*
X367837Y168577D01*
X366843Y168708D01*
D02*
G37*
G36*
X316342Y165730D02*
Y163500D01*
X318572D01*
X318543Y163724D01*
X318264Y164398D01*
X317819Y164977D01*
X317240Y165421D01*
X316566Y165700D01*
X316342Y165730D01*
D02*
G37*
G36*
X365843Y168708D02*
X364848Y168577D01*
X363456Y168000D01*
X362260Y167083D01*
X361342Y165887D01*
X360766Y164494D01*
X360634Y163500D01*
X365843D01*
Y168708D01*
D02*
G37*
G36*
X318572Y162500D02*
X313113D01*
X313142Y162276D01*
X313223Y162083D01*
X313063Y161583D01*
X313063D01*
Y157500D01*
X317193D01*
X321323D01*
Y161583D01*
X318797D01*
X318463Y162083D01*
X318543Y162276D01*
X318572Y162500D01*
D02*
G37*
G36*
X372050D02*
X366843D01*
Y157292D01*
X367837Y157423D01*
X369229Y158000D01*
X370425Y158917D01*
X371343Y160113D01*
X371920Y161506D01*
X372050Y162500D01*
D02*
G37*
G36*
X365843D02*
X360634D01*
X360766Y161506D01*
X361342Y160113D01*
X362260Y158917D01*
X363456Y158000D01*
X364848Y157423D01*
X365843Y157292D01*
Y162500D01*
D02*
G37*
G36*
X321323Y156500D02*
X317693D01*
Y152417D01*
X321323D01*
Y156500D01*
D02*
G37*
G36*
X316693D02*
X313063D01*
Y152417D01*
X316693D01*
Y156500D01*
D02*
G37*
G36*
X344843Y152230D02*
Y150000D01*
X347072D01*
X347043Y150224D01*
X346763Y150898D01*
X346319Y151477D01*
X345740Y151921D01*
X345066Y152200D01*
X344843Y152230D01*
D02*
G37*
G36*
X343843D02*
X343619Y152200D01*
X342945Y151921D01*
X342366Y151477D01*
X341921Y150898D01*
X341642Y150224D01*
X341613Y150000D01*
X343843D01*
Y152230D01*
D02*
G37*
G36*
X279343Y151230D02*
Y149000D01*
X281572D01*
X281543Y149224D01*
X281263Y149898D01*
X280819Y150477D01*
X280240Y150921D01*
X279566Y151200D01*
X279343Y151230D01*
D02*
G37*
G36*
X278343D02*
X278119Y151200D01*
X277445Y150921D01*
X276866Y150477D01*
X276421Y149898D01*
X276142Y149224D01*
X276113Y149000D01*
X278343D01*
Y151230D01*
D02*
G37*
G36*
X347072Y149000D02*
X344843D01*
Y146770D01*
X345066Y146800D01*
X345740Y147079D01*
X346319Y147523D01*
X346763Y148102D01*
X347043Y148776D01*
X347072Y149000D01*
D02*
G37*
G36*
X343843D02*
X341613D01*
X341642Y148776D01*
X341921Y148102D01*
X342366Y147523D01*
X342945Y147079D01*
X343619Y146800D01*
X343843Y146770D01*
Y149000D01*
D02*
G37*
G36*
X281572Y148000D02*
X279343D01*
Y145770D01*
X279566Y145800D01*
X280240Y146079D01*
X280819Y146523D01*
X281263Y147102D01*
X281543Y147776D01*
X281572Y148000D01*
D02*
G37*
G36*
X278343D02*
X276113D01*
X276142Y147776D01*
X276421Y147102D01*
X276866Y146523D01*
X277445Y146079D01*
X278119Y145800D01*
X278343Y145770D01*
Y148000D01*
D02*
G37*
G36*
X366342Y148774D02*
X364848Y148577D01*
X363456Y148000D01*
X362260Y147083D01*
X361342Y145887D01*
X360766Y144494D01*
X360569Y143000D01*
X360766Y141506D01*
X361342Y140113D01*
X362260Y138917D01*
X363456Y138000D01*
X364848Y137423D01*
X366342Y137226D01*
X367837Y137423D01*
X369229Y138000D01*
X370425Y138917D01*
X371343Y140113D01*
X371920Y141506D01*
X372116Y143000D01*
X371920Y144494D01*
X371343Y145887D01*
X370425Y147083D01*
X369229Y148000D01*
X367837Y148577D01*
X366342Y148774D01*
D02*
G37*
G36*
X222342Y145741D02*
X221116Y145579D01*
X219972Y145105D01*
X218990Y144352D01*
X218237Y143370D01*
X217763Y142227D01*
X217602Y141000D01*
X217763Y139773D01*
X218237Y138630D01*
X218990Y137648D01*
X219972Y136895D01*
X221116Y136421D01*
X222342Y136259D01*
X223569Y136421D01*
X224713Y136895D01*
X225695Y137648D01*
X226448Y138630D01*
X226922Y139773D01*
X227083Y141000D01*
X226922Y142227D01*
X226448Y143370D01*
X225695Y144352D01*
X224713Y145105D01*
X223569Y145579D01*
X222342Y145741D01*
D02*
G37*
G36*
X212343D02*
X211116Y145579D01*
X209972Y145105D01*
X208990Y144352D01*
X208237Y143370D01*
X207764Y142227D01*
X207602Y141000D01*
X207764Y139773D01*
X208237Y138630D01*
X208990Y137648D01*
X209972Y136895D01*
X211116Y136421D01*
X212343Y136259D01*
X213569Y136421D01*
X214713Y136895D01*
X215695Y137648D01*
X216448Y138630D01*
X216921Y139773D01*
X217083Y141000D01*
X216921Y142227D01*
X216448Y143370D01*
X215695Y144352D01*
X214713Y145105D01*
X213569Y145579D01*
X212343Y145741D01*
D02*
G37*
G36*
X124343D02*
X123116Y145579D01*
X121972Y145105D01*
X120990Y144352D01*
X120237Y143370D01*
X119764Y142227D01*
X119602Y141000D01*
X119764Y139773D01*
X120237Y138630D01*
X120990Y137648D01*
X121972Y136895D01*
X123116Y136421D01*
X124343Y136259D01*
X125569Y136421D01*
X126713Y136895D01*
X127695Y137648D01*
X128448Y138630D01*
X128922Y139773D01*
X129083Y141000D01*
X128922Y142227D01*
X128448Y143370D01*
X127695Y144352D01*
X126713Y145105D01*
X125569Y145579D01*
X124343Y145741D01*
D02*
G37*
G36*
X114342D02*
X113116Y145579D01*
X111972Y145105D01*
X110990Y144352D01*
X110237Y143370D01*
X109764Y142227D01*
X109602Y141000D01*
X109764Y139773D01*
X110237Y138630D01*
X110990Y137648D01*
X111972Y136895D01*
X113116Y136421D01*
X114342Y136259D01*
X115569Y136421D01*
X116713Y136895D01*
X117695Y137648D01*
X118448Y138630D01*
X118922Y139773D01*
X119083Y141000D01*
X118922Y142227D01*
X118448Y143370D01*
X117695Y144352D01*
X116713Y145105D01*
X115569Y145579D01*
X114342Y145741D01*
D02*
G37*
G36*
X366843Y128708D02*
Y123500D01*
X372050D01*
X371920Y124494D01*
X371343Y125887D01*
X370425Y127083D01*
X369229Y128000D01*
X367837Y128577D01*
X366843Y128708D01*
D02*
G37*
G36*
X365843D02*
X364848Y128577D01*
X363456Y128000D01*
X362260Y127083D01*
X361342Y125887D01*
X360766Y124494D01*
X360634Y123500D01*
X365843D01*
Y128708D01*
D02*
G37*
G36*
X372050Y122500D02*
X366843D01*
Y117292D01*
X367837Y117423D01*
X369229Y118000D01*
X370425Y118917D01*
X371343Y120113D01*
X371920Y121506D01*
X372050Y122500D01*
D02*
G37*
G36*
X365843D02*
X360634D01*
X360766Y121506D01*
X361342Y120113D01*
X362260Y118917D01*
X363456Y118000D01*
X364848Y117423D01*
X365843Y117292D01*
Y122500D01*
D02*
G37*
G36*
X31842Y112208D02*
Y107000D01*
X37051D01*
X36920Y107994D01*
X36343Y109387D01*
X35425Y110583D01*
X34229Y111500D01*
X32837Y112077D01*
X31842Y112208D01*
D02*
G37*
G36*
X30843D02*
X29848Y112077D01*
X28456Y111500D01*
X27260Y110583D01*
X26342Y109387D01*
X25765Y107994D01*
X25635Y107000D01*
X30843D01*
Y112208D01*
D02*
G37*
G36*
X366843Y108708D02*
Y103500D01*
X372050D01*
X371920Y104494D01*
X371343Y105887D01*
X370425Y107083D01*
X369229Y108000D01*
X367837Y108577D01*
X366843Y108708D01*
D02*
G37*
G36*
X365843D02*
X364848Y108577D01*
X363456Y108000D01*
X362260Y107083D01*
X361342Y105887D01*
X360766Y104494D01*
X360634Y103500D01*
X365843D01*
Y108708D01*
D02*
G37*
G36*
X37051Y106000D02*
X31842D01*
Y100792D01*
X32837Y100923D01*
X34229Y101500D01*
X35425Y102417D01*
X36343Y103613D01*
X36920Y105006D01*
X37051Y106000D01*
D02*
G37*
G36*
X30843D02*
X25635D01*
X25765Y105006D01*
X26342Y103613D01*
X27260Y102417D01*
X28456Y101500D01*
X29848Y100923D01*
X30843Y100792D01*
Y106000D01*
D02*
G37*
G36*
X372050Y102500D02*
X366843D01*
Y97292D01*
X367837Y97423D01*
X369229Y98000D01*
X370425Y98917D01*
X371343Y100113D01*
X371920Y101506D01*
X372050Y102500D01*
D02*
G37*
G36*
X365843D02*
X360634D01*
X360766Y101506D01*
X361342Y100113D01*
X362260Y98917D01*
X363456Y98000D01*
X364848Y97423D01*
X365843Y97292D01*
Y102500D01*
D02*
G37*
G36*
X31842Y92208D02*
Y87000D01*
X37051D01*
X36920Y87994D01*
X36343Y89387D01*
X35425Y90583D01*
X34229Y91500D01*
X32837Y92077D01*
X31842Y92208D01*
D02*
G37*
G36*
X30843D02*
X29848Y92077D01*
X28456Y91500D01*
X27260Y90583D01*
X26342Y89387D01*
X25765Y87994D01*
X25635Y87000D01*
X30843D01*
Y92208D01*
D02*
G37*
G36*
X372067Y88724D02*
X366843D01*
Y83500D01*
X372067D01*
Y88724D01*
D02*
G37*
G36*
X365843D02*
X360618D01*
Y83500D01*
X365843D01*
Y88724D01*
D02*
G37*
G36*
X37051Y86000D02*
X31842D01*
Y80792D01*
X32837Y80923D01*
X34229Y81500D01*
X35425Y82417D01*
X36343Y83613D01*
X36920Y85006D01*
X37051Y86000D01*
D02*
G37*
G36*
X30843D02*
X25635D01*
X25765Y85006D01*
X26342Y83613D01*
X27260Y82417D01*
X28456Y81500D01*
X29848Y80923D01*
X30843Y80792D01*
Y86000D01*
D02*
G37*
G36*
X372067Y82500D02*
X366843D01*
Y77276D01*
X372067D01*
Y82500D01*
D02*
G37*
G36*
X365843D02*
X360618D01*
Y77276D01*
X365843D01*
Y82500D01*
D02*
G37*
G36*
X222843Y65675D02*
Y61500D01*
X227017D01*
X226922Y62227D01*
X226448Y63370D01*
X225695Y64352D01*
X224713Y65105D01*
X223569Y65579D01*
X222843Y65675D01*
D02*
G37*
G36*
X124843D02*
Y61500D01*
X129017D01*
X128922Y62227D01*
X128448Y63370D01*
X127695Y64352D01*
X126713Y65105D01*
X125569Y65579D01*
X124843Y65675D01*
D02*
G37*
G36*
X221843D02*
X221116Y65579D01*
X219972Y65105D01*
X218990Y64352D01*
X218237Y63370D01*
X217763Y62227D01*
X217668Y61500D01*
X221843D01*
Y65675D01*
D02*
G37*
G36*
X123843D02*
X123116Y65579D01*
X121972Y65105D01*
X120990Y64352D01*
X120237Y63370D01*
X119764Y62227D01*
X119668Y61500D01*
X123843D01*
Y65675D01*
D02*
G37*
G36*
X227017Y60500D02*
X222843D01*
Y56325D01*
X223569Y56421D01*
X224713Y56895D01*
X225695Y57648D01*
X226448Y58630D01*
X226922Y59773D01*
X227017Y60500D01*
D02*
G37*
G36*
X129017D02*
X124843D01*
Y56325D01*
X125569Y56421D01*
X126713Y56895D01*
X127695Y57648D01*
X128448Y58630D01*
X128922Y59773D01*
X129017Y60500D01*
D02*
G37*
G36*
X221843D02*
X217668D01*
X217763Y59773D01*
X218237Y58630D01*
X218990Y57648D01*
X219972Y56895D01*
X221116Y56421D01*
X221843Y56325D01*
Y60500D01*
D02*
G37*
G36*
X123843D02*
X119668D01*
X119764Y59773D01*
X120237Y58630D01*
X120990Y57648D01*
X121972Y56895D01*
X123116Y56421D01*
X123843Y56325D01*
Y60500D01*
D02*
G37*
G36*
X212343Y65741D02*
X211116Y65579D01*
X209972Y65105D01*
X208990Y64352D01*
X208237Y63370D01*
X207764Y62227D01*
X207602Y61000D01*
X207764Y59773D01*
X208237Y58630D01*
X208990Y57648D01*
X209886Y56961D01*
Y53206D01*
X205761Y49081D01*
X204209Y47529D01*
X200188D01*
X199997Y47991D01*
X203224Y51219D01*
X203555Y51715D01*
X203672Y52300D01*
Y56463D01*
X204713Y56895D01*
X205695Y57648D01*
X206448Y58630D01*
X206922Y59773D01*
X207083Y61000D01*
X206922Y62227D01*
X206448Y63370D01*
X205695Y64352D01*
X204713Y65105D01*
X203570Y65579D01*
X202343Y65741D01*
X201116Y65579D01*
X199972Y65105D01*
X198990Y64352D01*
X198237Y63370D01*
X197764Y62227D01*
X197602Y61000D01*
X197764Y59773D01*
X198237Y58630D01*
X198990Y57648D01*
X199972Y56895D01*
X200613Y56629D01*
Y52934D01*
X196709Y49029D01*
X188188D01*
X187997Y49491D01*
X193224Y54719D01*
X193555Y55215D01*
X193672Y55800D01*
Y56463D01*
X194713Y56895D01*
X195695Y57648D01*
X196448Y58630D01*
X196922Y59773D01*
X197083Y61000D01*
X196922Y62227D01*
X196448Y63370D01*
X195695Y64352D01*
X194713Y65105D01*
X193570Y65579D01*
X192342Y65741D01*
X191116Y65579D01*
X189972Y65105D01*
X188990Y64352D01*
X188237Y63370D01*
X187764Y62227D01*
X187602Y61000D01*
X187764Y59773D01*
X188237Y58630D01*
X188990Y57648D01*
X189972Y56895D01*
X190251Y56779D01*
X190369Y56189D01*
X184709Y50529D01*
X180688D01*
X180497Y50991D01*
X183424Y53919D01*
X183756Y54415D01*
X183872Y55000D01*
Y56546D01*
X184713Y56895D01*
X185695Y57648D01*
X186448Y58630D01*
X186922Y59773D01*
X187083Y61000D01*
X186922Y62227D01*
X186448Y63370D01*
X185695Y64352D01*
X184713Y65105D01*
X183570Y65579D01*
X182343Y65741D01*
X181116Y65579D01*
X179972Y65105D01*
X178990Y64352D01*
X178237Y63370D01*
X177763Y62227D01*
X177602Y61000D01*
X177763Y59773D01*
X178237Y58630D01*
X178990Y57648D01*
X179972Y56895D01*
X180813Y56546D01*
Y55633D01*
X177209Y52029D01*
X74343D01*
X73757Y51913D01*
X73261Y51581D01*
X64761Y43081D01*
X64429Y42585D01*
X64313Y42000D01*
Y39224D01*
X60618D01*
Y27776D01*
X72067D01*
Y39224D01*
X67372D01*
Y41366D01*
X74976Y48971D01*
X91497D01*
X91688Y48509D01*
X84761Y41581D01*
X84430Y41085D01*
X84313Y40500D01*
Y38855D01*
X83456Y38500D01*
X82260Y37583D01*
X81342Y36387D01*
X80765Y34994D01*
X80569Y33500D01*
X80765Y32006D01*
X81342Y30613D01*
X82260Y29417D01*
X83456Y28500D01*
X84848Y27923D01*
X86343Y27726D01*
X87837Y27923D01*
X89229Y28500D01*
X90425Y29417D01*
X91343Y30613D01*
X91920Y32006D01*
X92116Y33500D01*
X91920Y34994D01*
X91343Y36387D01*
X90425Y37583D01*
X89229Y38500D01*
X87837Y39077D01*
X87372Y39138D01*
Y39867D01*
X94976Y47471D01*
X107497D01*
X107688Y47009D01*
X105261Y44581D01*
X104929Y44085D01*
X104813Y43500D01*
Y39063D01*
X103456Y38500D01*
X102260Y37583D01*
X101342Y36387D01*
X100765Y34994D01*
X100569Y33500D01*
X100765Y32006D01*
X101342Y30613D01*
X102260Y29417D01*
X103456Y28500D01*
X104848Y27923D01*
X106342Y27726D01*
X107837Y27923D01*
X109229Y28500D01*
X110425Y29417D01*
X111343Y30613D01*
X111920Y32006D01*
X112116Y33500D01*
X111920Y34994D01*
X111343Y36387D01*
X110425Y37583D01*
X109229Y38500D01*
X107872Y39063D01*
Y42867D01*
X110976Y45971D01*
X127497D01*
X127688Y45509D01*
X125761Y43581D01*
X125429Y43085D01*
X125313Y42500D01*
Y39138D01*
X124848Y39077D01*
X123456Y38500D01*
X122260Y37583D01*
X121342Y36387D01*
X120765Y34994D01*
X120569Y33500D01*
X120765Y32006D01*
X121342Y30613D01*
X122260Y29417D01*
X123456Y28500D01*
X124848Y27923D01*
X126342Y27726D01*
X127837Y27923D01*
X129229Y28500D01*
X130425Y29417D01*
X131343Y30613D01*
X131920Y32006D01*
X132116Y33500D01*
X131920Y34994D01*
X131343Y36387D01*
X130425Y37583D01*
X129229Y38500D01*
X128372Y38855D01*
Y41866D01*
X130976Y44471D01*
X204842D01*
X205428Y44587D01*
X205924Y44919D01*
X207924Y46919D01*
X212497Y51492D01*
X212828Y51988D01*
X212945Y52573D01*
Y56339D01*
X213569Y56421D01*
X214713Y56895D01*
X215695Y57648D01*
X216448Y58630D01*
X216921Y59773D01*
X217083Y61000D01*
X216921Y62227D01*
X216448Y63370D01*
X215695Y64352D01*
X214713Y65105D01*
X213569Y65579D01*
X212343Y65741D01*
D02*
G37*
G36*
X276068Y44241D02*
Y39033D01*
X281276D01*
X281146Y40027D01*
X280569Y41420D01*
X279651Y42615D01*
X278455Y43533D01*
X277063Y44110D01*
X276068Y44241D01*
D02*
G37*
G36*
X275068D02*
X274074Y44110D01*
X272681Y43533D01*
X271486Y42615D01*
X270568Y41420D01*
X269991Y40027D01*
X269860Y39033D01*
X275068D01*
Y44241D01*
D02*
G37*
G36*
X166842Y39208D02*
Y34000D01*
X172050D01*
X171920Y34994D01*
X171343Y36387D01*
X170425Y37583D01*
X169229Y38500D01*
X167837Y39077D01*
X166842Y39208D01*
D02*
G37*
G36*
X165842D02*
X164848Y39077D01*
X163456Y38500D01*
X162260Y37583D01*
X161342Y36387D01*
X160766Y34994D01*
X160635Y34000D01*
X165842D01*
Y39208D01*
D02*
G37*
G36*
X146843D02*
Y34000D01*
X152050D01*
X151920Y34994D01*
X151343Y36387D01*
X150425Y37583D01*
X149229Y38500D01*
X147837Y39077D01*
X146843Y39208D01*
D02*
G37*
G36*
X145843D02*
X144848Y39077D01*
X143456Y38500D01*
X142260Y37583D01*
X141342Y36387D01*
X140766Y34994D01*
X140635Y34000D01*
X145843D01*
Y39208D01*
D02*
G37*
G36*
X281276Y38033D02*
X276068D01*
Y32825D01*
X277063Y32956D01*
X278455Y33532D01*
X279651Y34450D01*
X280569Y35646D01*
X281146Y37038D01*
X281276Y38033D01*
D02*
G37*
G36*
X275068D02*
X269860D01*
X269991Y37038D01*
X270568Y35646D01*
X271486Y34450D01*
X272681Y33532D01*
X274074Y32956D01*
X275068Y32825D01*
Y38033D01*
D02*
G37*
G36*
X172050Y33000D02*
X166842D01*
Y27792D01*
X167837Y27923D01*
X169229Y28500D01*
X170425Y29417D01*
X171343Y30613D01*
X171920Y32006D01*
X172050Y33000D01*
D02*
G37*
G36*
X165842D02*
X160635D01*
X160766Y32006D01*
X161342Y30613D01*
X162260Y29417D01*
X163456Y28500D01*
X164848Y27923D01*
X165842Y27792D01*
Y33000D01*
D02*
G37*
G36*
X152050D02*
X146843D01*
Y27792D01*
X147837Y27923D01*
X149229Y28500D01*
X150425Y29417D01*
X151343Y30613D01*
X151920Y32006D01*
X152050Y33000D01*
D02*
G37*
G36*
X145843D02*
X140635D01*
X140766Y32006D01*
X141342Y30613D01*
X142260Y29417D01*
X143456Y28500D01*
X144848Y27923D01*
X145843Y27792D01*
Y33000D01*
D02*
G37*
G36*
X380709Y20730D02*
X379201Y20582D01*
X377750Y20142D01*
X376414Y19427D01*
X375243Y18466D01*
X374281Y17295D01*
X373567Y15958D01*
X373127Y14508D01*
X372978Y13000D01*
X373127Y11492D01*
X373567Y10042D01*
X374281Y8705D01*
X375243Y7534D01*
X376414Y6573D01*
X377750Y5858D01*
X379201Y5418D01*
X380709Y5270D01*
X382217Y5418D01*
X383667Y5858D01*
X385003Y6573D01*
X386175Y7534D01*
X387136Y8705D01*
X387850Y10042D01*
X388290Y11492D01*
X388439Y13000D01*
X388290Y14508D01*
X387850Y15958D01*
X387136Y17295D01*
X386175Y18466D01*
X385003Y19427D01*
X383667Y20142D01*
X382217Y20582D01*
X380709Y20730D01*
D02*
G37*
G36*
X12843D02*
X11334Y20582D01*
X9884Y20142D01*
X8548Y19427D01*
X7377Y18466D01*
X6415Y17295D01*
X5701Y15958D01*
X5261Y14508D01*
X5112Y13000D01*
X5261Y11492D01*
X5701Y10042D01*
X6415Y8705D01*
X7377Y7534D01*
X8548Y6573D01*
X9884Y5858D01*
X11334Y5418D01*
X12843Y5270D01*
X14351Y5418D01*
X15801Y5858D01*
X17137Y6573D01*
X18308Y7534D01*
X19270Y8705D01*
X19984Y10042D01*
X20424Y11492D01*
X20573Y13000D01*
X20424Y14508D01*
X19984Y15958D01*
X19270Y17295D01*
X18308Y18466D01*
X17137Y19427D01*
X15801Y20142D01*
X14351Y20582D01*
X12843Y20730D01*
D02*
G37*
%LPD*%
G36*
X151651Y201703D02*
X152708Y201265D01*
X153842Y201116D01*
X154977Y201265D01*
X156035Y201703D01*
X156813Y202301D01*
X157313Y202118D01*
Y167500D01*
X157328Y167424D01*
X157163Y165745D01*
X156651Y164058D01*
X155820Y162504D01*
X154702Y161141D01*
X153339Y160022D01*
X151784Y159191D01*
X150097Y158679D01*
X148419Y158514D01*
X148343Y158529D01*
X146337D01*
X146304Y158587D01*
X146491Y159246D01*
X147250Y159652D01*
X148316Y160526D01*
X149191Y161592D01*
X149841Y162808D01*
X150241Y164128D01*
X150376Y165500D01*
X150372D01*
Y202118D01*
X150872Y202301D01*
X151651Y201703D01*
D02*
G37*
D19*
X251842Y365500D02*
X252135Y364793D01*
X252842Y364500D01*
X101342Y206000D02*
X102050Y206293D01*
X102342Y207000D01*
X102635Y206293D01*
X103342Y206000D01*
X84524Y262681D02*
X84342Y262500D01*
X99661Y311000D02*
X99843Y311181D01*
X104342Y165000D02*
X104401Y164036D01*
X104575Y163085D01*
X104862Y162163D01*
X105259Y161282D01*
X105759Y160456D01*
X106354Y159695D01*
X107037Y159012D01*
X107798Y158416D01*
X108625Y157916D01*
X109506Y157520D01*
X110428Y157232D01*
X111378Y157058D01*
X112343Y157000D01*
X148343D02*
X149372Y157051D01*
X150391Y157202D01*
X151391Y157452D01*
X152361Y157799D01*
X153292Y158240D01*
X154176Y158770D01*
X155004Y159383D01*
X155767Y160075D01*
X156459Y160839D01*
X157073Y161667D01*
X157603Y162550D01*
X158043Y163482D01*
X158390Y164452D01*
X158641Y165452D01*
X158792Y166471D01*
X158843Y167500D01*
Y225500D02*
X158794Y226480D01*
X158650Y227451D01*
X158412Y228402D01*
X158081Y229326D01*
X157662Y230213D01*
X157158Y231055D01*
X156573Y231843D01*
X155914Y232570D01*
X155187Y233229D01*
X154399Y233814D01*
X153557Y234318D01*
X152670Y234737D01*
X151746Y235068D01*
X150795Y235306D01*
X149824Y235450D01*
X148844Y235498D01*
X114342Y165000D02*
X114439Y164024D01*
X114723Y163087D01*
X115185Y162222D01*
X115807Y161465D01*
X116565Y160843D01*
X117429Y160381D01*
X118367Y160096D01*
X119343Y160000D01*
X143342D02*
X144298Y160084D01*
X145224Y160332D01*
X146092Y160737D01*
X146878Y161287D01*
X147556Y161965D01*
X148106Y162750D01*
X148511Y163619D01*
X148759Y164545D01*
X148843Y165500D01*
Y219000D02*
X148763Y220017D01*
X148524Y221008D01*
X148134Y221950D01*
X147601Y222820D01*
X146939Y223595D01*
X146164Y224257D01*
X145294Y224790D01*
X144352Y225181D01*
X143361Y225418D01*
X142344Y225499D01*
X202343Y206502D02*
X202280Y207526D01*
X202096Y208536D01*
X201790Y209516D01*
X201369Y210452D01*
X200838Y211330D01*
X200205Y212138D01*
X199479Y212864D01*
X198671Y213497D01*
X197793Y214028D01*
X196857Y214449D01*
X195877Y214755D01*
X194867Y214939D01*
X193842Y215002D01*
X212343D02*
X212294Y215982D01*
X212150Y216952D01*
X211912Y217904D01*
X211581Y218828D01*
X211162Y219715D01*
X210657Y220557D01*
X210073Y221345D01*
X209414Y222073D01*
X208686Y222732D01*
X207898Y223316D01*
X207056Y223821D01*
X206169Y224240D01*
X205245Y224571D01*
X204293Y224809D01*
X203323Y224953D01*
X202343Y225002D01*
X212343Y215002D02*
X212294Y215982D01*
X212150Y216952D01*
X211912Y217904D01*
X211581Y218828D01*
X211162Y219715D01*
X210657Y220557D01*
X210073Y221345D01*
X209414Y222073D01*
X208686Y222732D01*
X207898Y223316D01*
X207056Y223821D01*
X206169Y224240D01*
X205245Y224571D01*
X204293Y224809D01*
X203323Y224953D01*
X202343Y225002D01*
Y206502D02*
X202280Y207526D01*
X202096Y208536D01*
X201790Y209516D01*
X201369Y210452D01*
X200838Y211330D01*
X200205Y212138D01*
X199479Y212864D01*
X198671Y213497D01*
X197793Y214028D01*
X196857Y214449D01*
X195877Y214755D01*
X194867Y214939D01*
X193842Y215002D01*
X148843Y219000D02*
X148763Y220017D01*
X148524Y221008D01*
X148134Y221950D01*
X147601Y222820D01*
X146939Y223595D01*
X146164Y224257D01*
X145294Y224790D01*
X144352Y225181D01*
X143361Y225418D01*
X142344Y225499D01*
X143342Y160000D02*
X144298Y160084D01*
X145224Y160332D01*
X146092Y160737D01*
X146878Y161287D01*
X147556Y161965D01*
X148106Y162750D01*
X148511Y163619D01*
X148759Y164545D01*
X148843Y165500D01*
X114342Y165000D02*
X114439Y164024D01*
X114723Y163087D01*
X115185Y162222D01*
X115807Y161465D01*
X116565Y160843D01*
X117429Y160381D01*
X118367Y160096D01*
X119343Y160000D01*
X158843Y225500D02*
X158794Y226480D01*
X158650Y227451D01*
X158412Y228402D01*
X158081Y229326D01*
X157662Y230213D01*
X157158Y231055D01*
X156573Y231843D01*
X155914Y232570D01*
X155187Y233229D01*
X154399Y233814D01*
X153557Y234318D01*
X152670Y234737D01*
X151746Y235068D01*
X150795Y235306D01*
X149824Y235450D01*
X148844Y235498D01*
X148343Y157000D02*
X149372Y157051D01*
X150391Y157202D01*
X151391Y157452D01*
X152361Y157799D01*
X153292Y158240D01*
X154176Y158770D01*
X155004Y159383D01*
X155767Y160075D01*
X156459Y160839D01*
X157073Y161667D01*
X157603Y162550D01*
X158043Y163482D01*
X158390Y164452D01*
X158641Y165452D01*
X158792Y166471D01*
X158843Y167500D01*
X104342Y165000D02*
X104401Y164036D01*
X104575Y163085D01*
X104862Y162163D01*
X105259Y161282D01*
X105759Y160456D01*
X106354Y159695D01*
X107037Y159012D01*
X107798Y158416D01*
X108625Y157916D01*
X109506Y157520D01*
X110428Y157232D01*
X111378Y157058D01*
X112343Y157000D01*
X102342Y210395D02*
X101886Y211225D01*
X102342Y210395D02*
Y210395D01*
X87343Y211319D02*
X87445Y210281D01*
X87747Y209283D01*
X88239Y208364D01*
X88900Y207558D01*
X89706Y206896D01*
X90626Y206405D01*
X91624Y206102D01*
X92661Y206000D01*
X99661Y311000D02*
X99843Y311181D01*
X98680Y214000D02*
X99387Y214293D01*
X99680Y215000D01*
X84524Y262681D02*
X84342Y262500D01*
X253496Y377161D02*
X252669Y376940D01*
X252064Y376335D01*
X251842Y375508D01*
X270843Y362500D02*
X270989Y361573D01*
X271415Y360737D01*
X272079Y360073D01*
X272916Y359647D01*
X273843Y359500D01*
X264500Y377665D02*
X264843Y377323D01*
X264000Y384500D02*
X264500Y384000D01*
Y377500D02*
X270257D01*
X264500Y377665D02*
Y384000D01*
X256343Y377161D02*
X257000Y377819D01*
X253842Y384632D02*
Y386500D01*
Y384632D02*
X257000Y381474D01*
Y377819D02*
Y381474D01*
X103342Y206000D02*
X133341D01*
X101342D02*
X103342D01*
X92661D02*
X101342D01*
X103342D02*
X103842D01*
X102342Y207000D02*
Y210395D01*
X133341Y206000D02*
X133843Y205499D01*
X101488Y211622D02*
X101886Y211225D01*
X329193Y247500D02*
X331823Y250130D01*
Y252792D01*
X333343Y254312D01*
Y255000D01*
X315843Y158350D02*
X317193Y157000D01*
X315843Y158350D02*
Y163000D01*
X270342Y63758D02*
Y237000D01*
Y63758D02*
X295568Y38533D01*
X168753Y240500D02*
X192779D01*
X273843Y359500D02*
X277842D01*
X270843Y362500D02*
Y376914D01*
X251842Y365500D02*
Y375508D01*
X252842Y364500D02*
X259842D01*
X85843Y33500D02*
Y40500D01*
X65842Y33500D02*
Y42000D01*
X277842Y376000D02*
X278842Y377000D01*
X84524Y262681D02*
X85843Y264000D01*
X84342Y311000D02*
X99661D01*
X112343Y157000D02*
X148343D01*
X104342Y165000D02*
Y171000D01*
X158843Y167500D02*
Y225500D01*
X133843Y235499D02*
X148844D01*
X119343Y160000D02*
X143342D01*
X114342Y165000D02*
Y171000D01*
X148843Y165500D02*
Y219000D01*
X133843Y225499D02*
X142344D01*
X202343Y171000D02*
Y206501D01*
X193842Y225001D02*
X202343D01*
X212343Y171000D02*
Y215001D01*
X81343Y237000D02*
X94342D01*
X266894Y240449D02*
X270342Y237000D01*
X87343Y308319D02*
X104162D01*
X104342Y308500D01*
X100024Y311000D02*
X100842D01*
X99843Y311181D02*
X100024Y311000D01*
X85843Y264000D02*
X100343D01*
X117342Y213000D02*
X122843D01*
X116842Y212500D02*
X117342Y213000D01*
X100180Y215500D02*
X100343D01*
X101274Y211622D02*
X101488D01*
X99680Y215000D02*
X100180Y215500D01*
X122843Y213000D02*
X126342Y216500D01*
X87343Y260000D02*
X99843D01*
X100343Y259500D01*
X277842Y368500D02*
Y376000D01*
X76693Y359500D02*
X77262Y358931D01*
Y353260D02*
Y358931D01*
X74693Y311500D02*
X76842Y309350D01*
Y306000D02*
Y309350D01*
X253496Y377161D02*
X256343D01*
X270257Y377500D02*
X270843Y376914D01*
X264342Y366000D02*
Y369500D01*
X256343Y369839D02*
X264681D01*
X71539Y320500D02*
X71842D01*
X62992Y311500D02*
Y311953D01*
X71539Y320500D01*
X64992Y365150D02*
X69842Y370000D01*
X64992Y359500D02*
Y365150D01*
X284842Y384500D02*
X288342D01*
X284343Y385000D02*
X284842Y384500D01*
X288342D02*
X290543Y382299D01*
Y377000D02*
Y382299D01*
X259842Y364500D02*
X263342Y361000D01*
X80843Y281000D02*
X83842Y278000D01*
X93343D01*
X65992Y216000D02*
Y226650D01*
X70342Y231000D01*
X76842Y215150D02*
X77693Y216000D01*
X76842Y209000D02*
Y215150D01*
X69842Y257150D02*
X70193Y257500D01*
X76842D01*
X176342Y253602D02*
Y261500D01*
X167842Y250662D02*
X168842Y251662D01*
Y291000D01*
X173343Y295500D02*
X193842D01*
X168842Y291000D02*
X173343Y295500D01*
X192831Y240449D02*
X266894D01*
X167842Y241411D02*
X168753Y240500D01*
X192779D02*
X192831Y240449D01*
X126342Y33500D02*
X126842Y34000D01*
Y42500D01*
X130342Y46000D02*
X204842D01*
X126842Y42500D02*
X130342Y46000D01*
X106342Y43500D02*
X110343Y47500D01*
X106342Y33500D02*
Y43500D01*
X110343Y47500D02*
X197343D01*
X74343Y50500D02*
X177842D01*
X65842Y42000D02*
X74343Y50500D01*
X94342Y49000D02*
X185343D01*
X85843Y40500D02*
X94342Y49000D01*
X177842Y50500D02*
X182343Y55000D01*
X204842Y46000D02*
X206842Y48000D01*
X197343Y47500D02*
X202143Y52300D01*
X185343Y49000D02*
X192142Y55800D01*
X72342Y342000D02*
X77842Y336500D01*
X93843D01*
X84342Y214000D02*
X98680D01*
X69842Y268850D02*
X71024Y267669D01*
X77173D01*
X22343Y79000D02*
Y163500D01*
X25343Y166500D02*
X31343D01*
X22343Y163500D02*
X25343Y166500D01*
X19342Y76000D02*
Y184000D01*
X21843Y186500D02*
X31343D01*
X19342Y184000D02*
X21843Y186500D01*
X32128Y125715D02*
X88128D01*
X99330Y58959D02*
Y114513D01*
X88128Y125715D02*
X99330Y114513D01*
X31343Y146500D02*
X86343D01*
X104342Y128500D01*
Y61000D02*
Y128500D01*
X30730Y70612D02*
X84730D01*
X94342Y61000D01*
X22343Y79000D02*
X30730Y70612D01*
X19342Y76000D02*
X34343Y61000D01*
X31343Y126500D02*
X32128Y125715D01*
X34343Y61000D02*
X84342D01*
X109355Y56013D02*
X114342Y61000D01*
X102277Y56013D02*
X109355D01*
X99330Y58959D02*
X102277Y56013D01*
X127341Y255499D02*
X133843D01*
X122843Y251000D02*
X127341Y255499D01*
X122843Y241000D02*
Y251000D01*
X94174Y236986D02*
X118829D01*
X122843Y241000D01*
X126342Y216500D02*
Y243000D01*
X128841Y245499D01*
X133843D01*
X81842Y240500D02*
X93843D01*
X182343Y55000D02*
Y61000D01*
X202143Y52300D02*
Y60800D01*
X211416Y52573D02*
Y60073D01*
X206842Y48000D02*
X211416Y52573D01*
Y60073D02*
X212343Y61000D01*
X202143Y60800D02*
X202343Y61000D01*
X192142Y60800D02*
X192342Y61000D01*
X192142Y55800D02*
Y60800D01*
D44*
X316342Y313000D02*
D03*
X326343D02*
D03*
X125201Y382795D02*
D03*
X107484D02*
D03*
X125201Y357205D02*
D03*
D57*
X260343Y287000D02*
X306343D01*
D62*
X317492Y247500D02*
D03*
X329193D02*
D03*
X305492Y157000D02*
D03*
X317193D02*
D03*
X290193Y376500D02*
D03*
X64992Y359500D02*
D03*
X62992Y311500D02*
D03*
X65992Y216000D02*
D03*
X76693Y359500D02*
D03*
X74693Y311500D02*
D03*
X77693Y216000D02*
D03*
X278492Y376500D02*
D03*
D70*
X69842Y268850D02*
D03*
Y257150D02*
D03*
D82*
X264000Y384500D02*
D03*
X254000D02*
D03*
X274000D02*
D03*
X133843Y225499D02*
D03*
X173843Y205500D02*
D03*
X183843D02*
D03*
X193842D02*
D03*
Y225500D02*
D03*
Y215500D02*
D03*
Y235500D02*
D03*
Y245500D02*
D03*
Y255500D02*
D03*
Y265500D02*
D03*
Y275500D02*
D03*
Y285500D02*
D03*
Y295500D02*
D03*
Y305500D02*
D03*
X133843Y305499D02*
D03*
Y245499D02*
D03*
Y205499D02*
D03*
Y215499D02*
D03*
Y265499D02*
D03*
Y255499D02*
D03*
Y295499D02*
D03*
Y285499D02*
D03*
Y325499D02*
D03*
X143842Y205500D02*
D03*
X133843Y235499D02*
D03*
Y275499D02*
D03*
Y315499D02*
D03*
X153842Y205500D02*
D03*
X193842Y315500D02*
D03*
Y335500D02*
D03*
X163842Y205500D02*
D03*
X193842Y325500D02*
D03*
X133843Y335499D02*
D03*
D83*
X284000Y384500D02*
D03*
D84*
X30843Y354000D02*
D03*
X366342Y83000D02*
D03*
X31343Y186500D02*
D03*
X365843Y208000D02*
D03*
D85*
X30843Y334000D02*
D03*
Y314000D02*
D03*
Y294000D02*
D03*
Y274000D02*
D03*
Y254000D02*
D03*
Y234000D02*
D03*
Y214000D02*
D03*
X275568Y38533D02*
D03*
X365843Y348000D02*
D03*
X326343Y359000D02*
D03*
X365843Y308000D02*
D03*
Y268000D02*
D03*
Y228000D02*
D03*
X366342Y163000D02*
D03*
Y103000D02*
D03*
Y123000D02*
D03*
X166342Y33500D02*
D03*
X146343D02*
D03*
X31343Y86500D02*
D03*
Y106500D02*
D03*
Y166500D02*
D03*
Y146500D02*
D03*
Y126500D02*
D03*
X365843Y288000D02*
D03*
Y328000D02*
D03*
Y248000D02*
D03*
X86343Y33500D02*
D03*
X106342D02*
D03*
X126342D02*
D03*
X366342Y183000D02*
D03*
Y143000D02*
D03*
D86*
X295568Y38533D02*
D03*
X66343Y33500D02*
D03*
X306343Y359000D02*
D03*
D87*
X222342Y171000D02*
D03*
X124343Y61000D02*
D03*
Y171000D02*
D03*
X222342Y61000D02*
D03*
X192342Y171000D02*
D03*
X94342D02*
D03*
X182343D02*
D03*
X84342D02*
D03*
X222342Y141000D02*
D03*
X212343D02*
D03*
X182343Y61000D02*
D03*
X192342D02*
D03*
X202343D02*
D03*
X212343D02*
D03*
X202343Y171000D02*
D03*
X212343D02*
D03*
X124343Y141000D02*
D03*
X114342D02*
D03*
X84342Y61000D02*
D03*
X94342D02*
D03*
X104342D02*
D03*
X114342D02*
D03*
X104342Y171000D02*
D03*
X114342D02*
D03*
D88*
X107484Y357205D02*
D03*
D89*
X306343Y313000D02*
D03*
D90*
X380709Y380500D02*
D03*
Y13000D02*
D03*
X12843D02*
D03*
Y380500D02*
D03*
D91*
X45342Y345000D02*
D03*
X113662Y203319D02*
D03*
X281842Y240500D02*
D03*
X95842Y288000D02*
D03*
X103842Y338000D02*
D03*
X100842Y316000D02*
D03*
X104342Y308500D02*
D03*
X100842Y311000D02*
D03*
X100343Y264000D02*
D03*
X107843Y223000D02*
D03*
X116842Y212500D02*
D03*
X100343Y215500D02*
D03*
X101274Y211622D02*
D03*
X100343Y259500D02*
D03*
Y252000D02*
D03*
X54444Y330199D02*
D03*
X264342Y366000D02*
D03*
X71842Y320500D02*
D03*
X69842Y370000D02*
D03*
X288342Y216500D02*
D03*
X282343Y280000D02*
D03*
X263342Y361000D02*
D03*
X256842Y264000D02*
D03*
X80843Y281000D02*
D03*
X93343Y278000D02*
D03*
X70342Y231000D02*
D03*
X76842Y209000D02*
D03*
Y257500D02*
D03*
Y306000D02*
D03*
X77262Y353260D02*
D03*
X176342Y261500D02*
D03*
X141842Y348500D02*
D03*
X72342Y342000D02*
D03*
X87343Y260000D02*
D03*
X77173Y267669D02*
D03*
X327343Y205500D02*
D03*
X331343Y273000D02*
D03*
X306842Y163500D02*
D03*
X311343Y255000D02*
D03*
X94174Y236986D02*
D03*
X81343Y237000D02*
D03*
X84342Y214000D02*
D03*
X87343Y211319D02*
D03*
X81842Y240500D02*
D03*
X93843D02*
D03*
Y336500D02*
D03*
X87343Y308319D02*
D03*
X84342Y311000D02*
D03*
Y262500D02*
D03*
D92*
X260343Y287000D02*
D03*
X241342Y382000D02*
D03*
X114342Y294000D02*
D03*
X257699Y300018D02*
D03*
X287842Y200000D02*
D03*
X274342Y177000D02*
D03*
X242342Y283000D02*
D03*
X107843Y271000D02*
D03*
X256842Y334000D02*
D03*
X69342Y279500D02*
D03*
X68343Y187500D02*
D03*
X278842Y148500D02*
D03*
X229343Y253000D02*
D03*
X68343Y245500D02*
D03*
X333343Y255000D02*
D03*
X341843Y241000D02*
D03*
X344342Y149500D02*
D03*
X315843Y163000D02*
D03*
X343342Y176500D02*
D03*
X299417Y199925D02*
D03*
D93*
X277842Y368500D02*
D03*
X279343Y298500D02*
D03*
X277842Y359500D02*
D03*
X221843Y376000D02*
D03*
D112*
X176342Y253602D02*
D03*
D113*
X264843Y370000D02*
D03*
X256343Y369839D02*
D03*
X264843Y377323D02*
D03*
X256343Y377161D02*
D03*
D114*
X331378Y335500D02*
D03*
X298307D02*
D03*
D115*
X167842Y250662D02*
D03*
Y241411D02*
D03*
D116*
X176342Y241398D02*
D03*
D117*
X306343Y252325D02*
Y259612D01*
X310955Y255000D01*
X306343Y273000D02*
Y287000D01*
Y313000D01*
X311343Y253650D02*
X317492Y247500D01*
X311343Y253650D02*
Y255000D01*
X308842Y247500D02*
X317492D01*
X307842Y246500D02*
X308842Y247500D01*
X309928Y255000D02*
X310955D01*
X307842Y250825D02*
Y252915D01*
Y246500D02*
Y250825D01*
X306343Y252325D02*
X307842Y250825D01*
Y252915D02*
X309928Y255000D01*
X310955D02*
X311343D01*
X306343Y259612D02*
Y273000D01*
X307842Y165000D02*
Y246500D01*
X305492Y162650D02*
X307842Y165000D01*
X305492Y157000D02*
Y162650D01*
X298307Y340028D02*
X306343Y348063D01*
Y359000D01*
X298307Y335500D02*
Y340028D01*
X306343Y313000D02*
Y317500D01*
X320591Y331749D01*
X330787D01*
Y334882D01*
X331343Y335437D01*
X306343Y273000D02*
X331343D01*
M02*
