G04*
G04 #@! TF.GenerationSoftware,Altium Limited,Altium Designer,20.1.14 (287)*
G04*
G04 Layer_Color=16711935*
%FSLAX25Y25*%
%MOIN*%
G70*
G04*
G04 #@! TF.SameCoordinates,7A970C34-DB54-4F81-A8C4-4C09E61C51C5*
G04*
G04*
G04 #@! TF.FilePolarity,Positive*
G04*
G01*
G75*
%ADD10C,0.00787*%
%ADD14C,0.00500*%
%ADD16C,0.00591*%
%ADD18C,0.00600*%
%ADD129C,0.00394*%
%ADD130C,0.00000*%
%ADD131C,0.00100*%
%ADD132C,0.00300*%
G36*
X271280Y331441D02*
X269311D01*
Y336559D01*
X271280D01*
Y331441D01*
D02*
G37*
G36*
X265374D02*
X263405D01*
Y336559D01*
X265374D01*
Y331441D01*
D02*
G37*
G36*
X271280Y294941D02*
X269311D01*
Y300059D01*
X271280D01*
Y294941D01*
D02*
G37*
G36*
X265374D02*
X263405D01*
Y300059D01*
X265374D01*
Y294941D01*
D02*
G37*
G36*
X230811Y285500D02*
X226874Y283138D01*
Y285500D01*
Y287862D01*
X230811Y285500D01*
D02*
G37*
D10*
X291953Y384500D02*
X291165D01*
X291953D01*
X31236Y370000D02*
X30449D01*
X31236D01*
X295962Y61761D02*
X295175D01*
X295962D01*
X51815Y186500D02*
X51028D01*
X51815D01*
X346158Y208000D02*
X345370D01*
X346158D01*
X306736Y298236D02*
X305949D01*
X306736D01*
X66736Y53579D02*
X65949D01*
X66736D01*
X306736Y335772D02*
X305949D01*
X306736D01*
X107878Y351496D02*
X107091D01*
X107878D01*
X331866Y227764D02*
X331079D01*
X331866D01*
X346657Y83000D02*
X345870D01*
X346657D01*
X78130Y363547D02*
X77342D01*
X78130D01*
Y267606D02*
X77342D01*
X78130D01*
Y316106D02*
X77342D01*
X78130D01*
Y219106D02*
X77342D01*
X78130D01*
D14*
X14701Y364000D02*
X46984D01*
Y204000D02*
Y364000D01*
X14701Y204000D02*
X46984D01*
X14701D02*
Y364000D01*
X330035Y243957D02*
Y251043D01*
X316650Y243957D02*
Y251043D01*
X330035D01*
X316650Y243957D02*
X330035D01*
X318035Y153457D02*
Y160543D01*
X304650Y153457D02*
Y160543D01*
X318035D01*
X304650Y153457D02*
X318035D01*
X305568Y17470D02*
Y57824D01*
X265568Y17470D02*
X305568D01*
X265568D02*
Y57824D01*
X305568D01*
X15201Y196500D02*
X47484D01*
Y76500D02*
Y196500D01*
X15201Y76500D02*
X47484D01*
X15201D02*
Y196500D01*
X57228Y285535D02*
X70457D01*
X57228Y292465D02*
X70457D01*
X57228Y285535D02*
Y292465D01*
X70457Y285535D02*
Y292465D01*
X381984Y198000D02*
Y358000D01*
X349701D02*
X381984D01*
X349701Y198000D02*
X381984D01*
X349701D02*
Y358000D01*
X327086Y140748D02*
X332598D01*
X327086Y149252D02*
X332598D01*
Y140748D02*
Y149252D01*
X327086Y140748D02*
Y149252D01*
X326587Y184677D02*
X332099D01*
X326587Y176173D02*
X332099D01*
X326587D02*
Y184677D01*
X332099Y176173D02*
Y184677D01*
X294586Y234748D02*
X300098D01*
X294586Y243252D02*
X300098D01*
Y234748D02*
Y243252D01*
X294586Y234748D02*
Y243252D01*
X289586Y139748D02*
X295098D01*
X289586Y148252D02*
X295098D01*
Y139748D02*
Y148252D01*
X289586Y139748D02*
Y148252D01*
X293087Y271248D02*
X298599D01*
X293087Y279752D02*
X298599D01*
Y271248D02*
Y279752D01*
X293087Y271248D02*
Y279752D01*
X288586Y184752D02*
X294098D01*
X288586Y176248D02*
X294098D01*
X288586D02*
Y184752D01*
X294098Y176248D02*
Y184752D01*
X49728Y277035D02*
Y283965D01*
X62957Y277035D02*
Y283965D01*
X49728D02*
X62957D01*
X49728Y277035D02*
X62957D01*
X50649Y360957D02*
Y368043D01*
X64035Y360957D02*
Y368043D01*
X50649D02*
X64035D01*
X50649Y360957D02*
X64035D01*
X64342Y369535D02*
Y376465D01*
X51114Y369535D02*
Y376465D01*
Y369535D02*
X64342D01*
X51114Y376465D02*
X64342D01*
X50150Y259457D02*
X63535D01*
X50150Y266543D02*
X63535D01*
Y259457D02*
Y266543D01*
X50150Y259457D02*
Y266543D01*
X262165Y377795D02*
X267520D01*
X262165Y369528D02*
X267520D01*
X262165D02*
Y377795D01*
X267520Y369528D02*
Y377795D01*
X253665Y377634D02*
X259020D01*
X253665Y369366D02*
X259020D01*
X253665D02*
Y377634D01*
X259020Y369366D02*
Y377634D01*
X295870Y333866D02*
X336815D01*
Y324024D02*
Y333866D01*
Y318118D02*
Y324024D01*
Y300008D02*
Y318118D01*
X295870Y300008D02*
X336815D01*
X295870D02*
Y318118D01*
Y324024D01*
Y333866D01*
Y324024D02*
X336815D01*
X295870Y318118D02*
X336815D01*
X56343Y17358D02*
Y49642D01*
X176342D01*
Y17358D02*
Y49642D01*
X56343Y17358D02*
X176342D01*
X296342Y339709D02*
Y380063D01*
X336343D01*
Y339709D02*
Y380063D01*
X296342Y339709D02*
X336343D01*
X65149Y219543D02*
X78535D01*
X65149Y212457D02*
X78535D01*
Y219543D01*
X65149Y212457D02*
Y219543D01*
X73386Y256307D02*
Y269693D01*
X66299Y256307D02*
Y269693D01*
Y256307D02*
X73386D01*
X66299Y269693D02*
X73386D01*
X64149Y363043D02*
X77535D01*
X64149Y355957D02*
X77535D01*
Y363043D01*
X64149Y355957D02*
Y363043D01*
X62150Y315043D02*
X75536D01*
X62150Y307957D02*
X75536D01*
Y315043D01*
X62150Y307957D02*
Y315043D01*
X104532Y358189D02*
X128154D01*
Y381811D01*
X104532D02*
X128154D01*
X101649Y349043D02*
X115035D01*
X101649Y341957D02*
X115035D01*
X101649D02*
Y349043D01*
X115035Y341957D02*
Y349043D01*
X220586Y244787D02*
X226098D01*
X220586Y253213D02*
X226098D01*
X220586Y244787D02*
Y253213D01*
X226098Y244787D02*
Y253213D01*
X202532Y288965D02*
X216154D01*
X202532Y282035D02*
X216154D01*
X202532D02*
Y288965D01*
X216154Y282035D02*
Y288965D01*
X263405Y294941D02*
X271280D01*
X263405D02*
Y300059D01*
X271280D01*
Y294941D02*
Y300059D01*
X157343Y56000D02*
X247342D01*
Y176000D01*
X157343D02*
X247342D01*
X157343Y56000D02*
Y176000D01*
X165382Y242099D02*
Y249973D01*
X170303Y242099D02*
Y249973D01*
X165382D02*
X170303D01*
X165382Y242099D02*
X170303D01*
X172996Y253799D02*
X179689D01*
X172996Y241201D02*
X179689D01*
X172996D02*
Y253799D01*
X179689Y241201D02*
Y253799D01*
X59342Y56000D02*
X149343D01*
Y176000D01*
X59342D02*
X149343D01*
X59342Y56000D02*
Y176000D01*
X283598Y177787D02*
Y186213D01*
X278086Y177787D02*
Y186213D01*
X283598D01*
X278086Y177787D02*
X283598D01*
X293012Y212665D02*
X301673D01*
X293012Y218335D02*
X301673D01*
Y212665D02*
Y218335D01*
X293012Y212665D02*
Y218335D01*
X288149Y219957D02*
Y227043D01*
X301536Y219957D02*
Y227043D01*
X288149D02*
X301536D01*
X288149Y219957D02*
X301536D01*
X231370Y367177D02*
X239638D01*
X231370Y361823D02*
X239638D01*
X231370D02*
Y367177D01*
X239638Y361823D02*
Y367177D01*
X231209Y359677D02*
X239476D01*
X231209Y354323D02*
X239476D01*
X231209D02*
Y359677D01*
X239476Y354323D02*
Y359677D01*
X228649Y379543D02*
X242036D01*
X228649Y372457D02*
X242036D01*
X228649D02*
Y379543D01*
X242036Y372457D02*
Y379543D01*
X263405Y331441D02*
X271280D01*
X263405D02*
Y336559D01*
X271280D01*
Y331441D02*
Y336559D01*
X291036Y372957D02*
Y380043D01*
X277649Y372957D02*
Y380043D01*
X291036D01*
X277649Y372957D02*
X291036D01*
X282086Y140287D02*
Y148713D01*
X287598Y140287D02*
Y148713D01*
X282086Y140287D02*
X287598D01*
X282086Y148713D02*
X287598D01*
X282130Y233244D02*
X290555D01*
X282130Y238756D02*
X290555D01*
Y233244D02*
Y238756D01*
X282130Y233244D02*
Y238756D01*
X285086Y271787D02*
Y280213D01*
X290599Y271787D02*
Y280213D01*
X285086Y271787D02*
X290599D01*
X285086Y280213D02*
X290599D01*
X282665Y368169D02*
X288020D01*
X282665Y376831D02*
X288020D01*
X282665Y368169D02*
Y376831D01*
X288020Y368169D02*
Y376831D01*
X302536Y289957D02*
Y297043D01*
X289149Y289957D02*
Y297043D01*
Y289957D02*
X302536D01*
X289149Y297043D02*
X302536D01*
X331335Y201642D02*
Y219358D01*
X305350Y201642D02*
Y219358D01*
X331335D01*
X305350Y201642D02*
X331335D01*
X335587Y141287D02*
Y149713D01*
X341098Y141287D02*
Y149713D01*
X335587Y141287D02*
X341098D01*
X335587Y149713D02*
X341098D01*
X340099Y176287D02*
Y184713D01*
X334587Y176287D02*
Y184713D01*
X340099D01*
X334587Y176287D02*
X340099D01*
X344599Y246287D02*
Y254713D01*
X339087Y246287D02*
Y254713D01*
X344599D01*
X339087Y246287D02*
X344599D01*
X339598Y264287D02*
Y272713D01*
X334086Y264287D02*
Y272713D01*
X339598D01*
X334086Y264287D02*
X339598D01*
X382484Y73000D02*
Y193000D01*
X350201D02*
X382484D01*
X350201Y73000D02*
Y193000D01*
Y73000D02*
X382484D01*
X287150Y189457D02*
Y196543D01*
X300535Y189457D02*
Y196543D01*
X287150D02*
X300535D01*
X287150Y189457D02*
X300535D01*
X74484Y365980D02*
X92201D01*
X74484Y345902D02*
Y365980D01*
Y345902D02*
X92201D01*
Y365980D01*
X223587Y307287D02*
X229099D01*
X223587Y315713D02*
X229099D01*
X223587Y307287D02*
Y315713D01*
X229099Y307287D02*
Y315713D01*
X74484Y270039D02*
X92201D01*
X74484Y249961D02*
Y270039D01*
Y249961D02*
X92201D01*
Y270039D01*
X74484Y318539D02*
X92201D01*
X74484Y298461D02*
Y318539D01*
Y298461D02*
X92201D01*
Y318539D01*
X74484Y221539D02*
X92201D01*
X74484Y201461D02*
Y221539D01*
Y201461D02*
X92201D01*
Y221539D01*
X51925Y350535D02*
X64760D01*
X51925Y357465D02*
X64760D01*
Y350535D02*
Y357465D01*
X51925Y350535D02*
Y357465D01*
Y333035D02*
X64760D01*
X51925Y339965D02*
X64760D01*
Y333035D02*
Y339965D01*
X51925Y333035D02*
Y339965D01*
X50626Y274965D02*
X63461D01*
X50626Y268035D02*
X63461D01*
X50626D02*
Y274965D01*
X63461Y268035D02*
Y274965D01*
X50425Y251035D02*
X63260D01*
X50425Y257965D02*
X63260D01*
Y251035D02*
Y257965D01*
X50425Y251035D02*
Y257965D01*
Y312035D02*
X63260D01*
X50425Y318965D02*
X63260D01*
Y312035D02*
Y318965D01*
X50425Y312035D02*
Y318965D01*
Y294035D02*
X63260D01*
X50425Y300965D02*
X63260D01*
Y294035D02*
Y300965D01*
X50425Y294035D02*
Y300965D01*
Y225965D02*
X63260D01*
X50425Y219035D02*
X63260D01*
X50425D02*
Y225965D01*
X63260Y219035D02*
Y225965D01*
X50425Y200035D02*
X63260D01*
X50425Y206965D02*
X63260D01*
Y200035D02*
Y206965D01*
X50425Y200035D02*
Y206965D01*
X125130Y345744D02*
X133555D01*
X125130Y351256D02*
X133555D01*
Y345744D02*
Y351256D01*
X125130Y345744D02*
Y351256D01*
X104299Y265193D02*
X111386D01*
X104299Y251807D02*
X111386D01*
Y265193D01*
X104299Y251807D02*
Y265193D01*
X51728Y348465D02*
X64957D01*
X51728Y341535D02*
X64957D01*
X51728D02*
Y348465D01*
X64957Y341535D02*
Y348465D01*
X49728Y248965D02*
X62957D01*
X49728Y242035D02*
X62957D01*
X49728D02*
Y248965D01*
X62957Y242035D02*
Y248965D01*
X108536Y290457D02*
Y297543D01*
X95149Y290457D02*
Y297543D01*
Y290457D02*
X108536D01*
X95149Y297543D02*
X108536D01*
X103799Y217193D02*
X110886D01*
X103799Y203807D02*
X110886D01*
Y217193D01*
X103799Y203807D02*
Y217193D01*
X50228Y327465D02*
X63457D01*
X50228Y320535D02*
X63457D01*
X50228D02*
Y327465D01*
X63457Y320535D02*
Y327465D01*
X49728Y227535D02*
X62957D01*
X49728Y234465D02*
X62957D01*
Y227535D02*
Y234465D01*
X49728Y227535D02*
Y234465D01*
X61728Y198465D02*
X74957D01*
X61728Y191535D02*
X74957D01*
X61728D02*
Y198465D01*
X74957Y191535D02*
Y198465D01*
X63535Y302957D02*
Y310043D01*
X50150Y302957D02*
Y310043D01*
Y302957D02*
X63535D01*
X50150Y310043D02*
X63535D01*
Y208457D02*
Y215543D01*
X50150Y208457D02*
Y215543D01*
Y208457D02*
X63535D01*
X50150Y215543D02*
X63535D01*
D16*
X0Y0D02*
X393000D01*
X393000Y393102D02*
X393000Y0D01*
X-0Y393102D02*
X0Y0D01*
Y393102D02*
X393000D01*
D18*
X104532Y358189D02*
Y381811D01*
D129*
X307980Y176779D02*
X307717Y177764D01*
X306996Y178484D01*
X306012Y178748D01*
X305028Y178484D01*
X304307Y177764D01*
X304043Y176779D01*
X304307Y175795D01*
X305028Y175075D01*
X306012Y174811D01*
X306996Y175075D01*
X307717Y175795D01*
X307980Y176779D01*
X313980Y268779D02*
X313717Y269764D01*
X312996Y270484D01*
X312012Y270748D01*
X311028Y270484D01*
X310307Y269764D01*
X310043Y268779D01*
X310307Y267795D01*
X311028Y267075D01*
X312012Y266811D01*
X312996Y267075D01*
X313717Y267795D01*
X313980Y268779D01*
X289000Y379500D02*
Y389500D01*
X249000Y379500D02*
X289000D01*
X249000D02*
Y389500D01*
X289000D01*
X302468Y145776D02*
X318216D01*
X302468Y180224D02*
X318216D01*
Y145776D02*
Y180224D01*
X302468Y145776D02*
Y180224D01*
X222543Y288650D02*
X235142D01*
X222543Y282350D02*
Y288650D01*
X235142Y282350D02*
Y288650D01*
X222543Y282350D02*
X235142D01*
X308469Y237776D02*
Y272224D01*
X324217Y237776D02*
Y272224D01*
X308469D02*
X324217D01*
X308469Y237776D02*
X324217D01*
D130*
X250842Y275300D02*
X251691Y275652D01*
X252043Y276500D01*
X251691Y277348D01*
X250842Y277700D01*
X258917Y376850D02*
X259269Y376002D01*
X260118Y375650D01*
X260966Y376002D01*
X261317Y376850D01*
D131*
X252102Y279950D02*
Y282400D01*
X254102D01*
Y279950D02*
Y282400D01*
X252102Y279950D02*
X254102D01*
X259583D02*
Y282400D01*
X261583D01*
Y279950D02*
Y282400D01*
X259583Y279950D02*
X261583D01*
Y270600D02*
Y273050D01*
X259583Y270600D02*
X261583D01*
X259583D02*
Y273050D01*
X261583D01*
X257842Y270600D02*
Y273050D01*
X255842Y270600D02*
X257842D01*
X255842D02*
Y273050D01*
X257842D01*
X254102Y270600D02*
Y273050D01*
X252102Y270600D02*
X254102D01*
X252102D02*
Y273050D01*
X254102D01*
X250842D02*
X262842D01*
X250842D02*
Y279950D01*
X262842D01*
Y273050D02*
Y279950D01*
X252268Y373550D02*
Y375450D01*
X247918D02*
X252268D01*
X247918Y373550D02*
Y375450D01*
Y373550D02*
X252268D01*
Y368550D02*
Y370450D01*
X247918D02*
X252268D01*
X247918Y368550D02*
Y370450D01*
Y368550D02*
X252268D01*
Y363550D02*
Y365450D01*
X247918D02*
X252268D01*
X247918Y363550D02*
Y365450D01*
Y363550D02*
X252268D01*
Y358550D02*
Y360450D01*
X247918D02*
X252268D01*
X247918Y358550D02*
Y360450D01*
Y358550D02*
X252268D01*
X267968D02*
Y360450D01*
Y358550D02*
X272318D01*
Y360450D01*
X267968D02*
X272318D01*
X267968Y363550D02*
Y365450D01*
Y363550D02*
X272318D01*
Y365450D01*
X267968D02*
X272318D01*
X267968Y368550D02*
Y370450D01*
Y368550D02*
X272318D01*
Y370450D01*
X267968D02*
X272318D01*
X267968Y373550D02*
Y375450D01*
Y373550D02*
X272318D01*
Y375450D01*
X267968D02*
X272318D01*
X252268Y357150D02*
X267968D01*
Y376850D01*
X252268D02*
X267968D01*
X252268Y357150D02*
Y376850D01*
X267543Y305354D02*
Y308654D01*
Y305354D02*
X281943D01*
Y308654D01*
X267543D02*
X281943D01*
X267543Y323346D02*
Y326646D01*
Y323346D02*
X281943D01*
Y326646D01*
X267543D02*
X281943D01*
X267543Y314350D02*
X271242D01*
Y317650D01*
X267543D02*
X271242D01*
X267543Y302750D02*
Y329250D01*
X243143D02*
X267543D01*
X243143Y302750D02*
Y329250D01*
Y302750D02*
X267543D01*
D132*
X251237Y272800D02*
X254569Y276132D01*
Y272800D02*
X251237Y276132D01*
X252903Y272800D02*
Y276132D01*
X254569Y274466D02*
X251237D01*
X252518Y375715D02*
X255850Y372383D01*
X252518D02*
X255850Y375715D01*
X252518Y374049D02*
X255850D01*
X254184Y372383D02*
Y375715D01*
X279677Y295000D02*
X283010Y298332D01*
Y295000D02*
X279677Y298332D01*
X281343Y295000D02*
Y298332D01*
X283010Y296666D02*
X279677D01*
M02*
